<svg width="32" height="32" viewBox="0 0 32 32" fill="none" xmlns="http://www.w3.org/2000/svg">
<path d="M28.6667 20.6665C29.04 20.6665 29.3334 20.9598 29.3334 21.3332V22.6665C29.3334 24.8798 27.5467 26.6665 25.3334 26.6665C25.3334 24.4665 23.5334 22.6665 21.3334 22.6665C19.1334 22.6665 17.3334 24.4665 17.3334 26.6665H14.6667C14.6667 24.4665 12.8667 22.6665 10.6667 22.6665C8.46669 22.6665 6.66669 24.4665 6.66669 26.6665C4.45335 26.6665 2.66669 24.8798 2.66669 22.6665V19.9998C2.66669 19.2665 3.26669 18.6665 4.00002 18.6665H16.6667C18.5067 18.6665 20 17.1732 20 15.3332V7.99984C20 7.2665 20.6 6.6665 21.3334 6.6665H22.4534C23.4134 6.6665 24.2934 7.1865 24.7734 8.01317L25.6267 9.5065C25.7467 9.71984 25.5867 9.99984 25.3334 9.99984C23.4934 9.99984 22 11.4932 22 13.3332V17.3332C22 19.1732 23.4934 20.6665 25.3334 20.6665H28.6667Z" fill="#009DE3"/>
<path d="M10.6667 29.3333C12.1394 29.3333 13.3333 28.1394 13.3333 26.6667C13.3333 25.1939 12.1394 24 10.6667 24C9.19391 24 8 25.1939 8 26.6667C8 28.1394 9.19391 29.3333 10.6667 29.3333Z" fill="#009DE3"/>
<path d="M21.3334 29.3333C22.8061 29.3333 24 28.1394 24 26.6667C24 25.1939 22.8061 24 21.3334 24C19.8606 24 18.6667 25.1939 18.6667 26.6667C18.6667 28.1394 19.8606 29.3333 21.3334 29.3333Z" fill="#009DE3"/>
<path d="M29.3333 16.7067V18.6667H25.3333C24.6 18.6667 24 18.0667 24 17.3333V13.3333C24 12.6 24.6 12 25.3333 12H27.0533L28.9867 15.3867C29.2133 15.7867 29.3333 16.24 29.3333 16.7067Z" fill="#009DE3"/>
<path d="M17.44 2.6665H7.58669C5.20002 2.6665 3.20002 4.37317 2.76002 6.63984H8.58669C9.09335 6.63984 9.49335 7.05317 9.49335 7.55984C9.49335 8.0665 9.09335 8.4665 8.58669 8.4665H2.66669V10.3065H6.13335C6.64002 10.3065 7.05335 10.7198 7.05335 11.2265C7.05335 11.7332 6.64002 12.1332 6.13335 12.1332H2.66669V13.9732H3.69335C4.20002 13.9732 4.61335 14.3865 4.61335 14.8932C4.61335 15.3998 4.20002 15.7998 3.69335 15.7998H2.66669V16.1065C2.66669 16.8398 3.26669 17.4398 4.00002 17.4398H16.2C17.56 17.4398 18.6667 16.3332 18.6667 14.9732V3.89317C18.6667 3.21317 18.12 2.6665 17.44 2.6665Z" fill="#009DE3"/>
<path d="M2.75998 6.64014H2.55998H1.25331C0.746646 6.64014 0.333313 7.05347 0.333313 7.56014C0.333313 8.0668 0.746646 8.4668 1.25331 8.4668H2.46665H2.66665V7.5868C2.66665 7.2668 2.70665 6.9468 2.75998 6.64014Z" fill="#009DE3"/>
<path d="M2.46665 10.3066H1.25331C0.746646 10.3066 0.333313 10.72 0.333313 11.2266C0.333313 11.7333 0.746646 12.1333 1.25331 12.1333H2.46665H2.66665V10.3066H2.46665Z" fill="#009DE3"/>
<path d="M2.46665 13.9731H1.25331C0.746646 13.9731 0.333313 14.3865 0.333313 14.8931C0.333313 15.3998 0.746646 15.7998 1.25331 15.7998H2.46665H2.66665V13.9731H2.46665Z" fill="#009DE3"/>
</svg>
