<svg width="33" height="32" viewBox="0 0 33 32" fill="none" xmlns="http://www.w3.org/2000/svg">
<path d="M22.7 5.14648H13.7133V9.17315C13.7133 9.69315 13.2867 10.1065 12.78 10.1065C12.2733 10.1065 11.8467 9.69315 11.8467 9.17315V5.14648H10.3C5.03335 5.14648 3.30001 6.71982 3.18001 11.6398C3.16668 11.8798 3.27335 12.1332 3.44668 12.3065C3.62001 12.4932 3.84668 12.5865 4.11335 12.5865C5.98001 12.5865 7.51335 14.1332 7.51335 15.9998C7.51335 17.8665 5.98001 19.4132 4.11335 19.4132C3.86001 19.4132 3.62001 19.5065 3.44668 19.6932C3.27335 19.8665 3.16668 20.1198 3.18001 20.3598C3.30001 25.2798 5.03335 26.8532 10.3 26.8532H11.8467V22.8265C11.8467 22.3065 12.2733 21.8932 12.78 21.8932C13.2867 21.8932 13.7133 22.3065 13.7133 22.8265V26.8532H22.7C28.1667 26.8532 29.8334 25.1865 29.8334 19.7198V12.2798C29.8334 6.81315 28.1667 5.14648 22.7 5.14648ZM25.1267 15.8665L23.8867 17.0665C23.8334 17.1065 23.82 17.1865 23.8333 17.2532L24.1267 18.9465C24.18 19.2532 24.06 19.5732 23.7933 19.7598C23.54 19.9465 23.2067 19.9732 22.9267 19.8265L21.3933 19.0265C21.34 18.9998 21.26 18.9998 21.2067 19.0265L19.6733 19.8265C19.5533 19.8932 19.42 19.9198 19.2867 19.9198C19.1133 19.9198 18.9533 19.8665 18.8067 19.7598C18.5533 19.5732 18.42 19.2665 18.4733 18.9465L18.7667 17.2532C18.78 17.1865 18.7533 17.1198 18.7133 17.0665L17.4733 15.8665C17.2467 15.6532 17.1667 15.3198 17.26 15.0265C17.3533 14.7198 17.6067 14.5065 17.9267 14.4665L19.6334 14.2132C19.7 14.1998 19.7533 14.1598 19.7934 14.1065L20.5533 12.5598C20.7 12.2798 20.98 12.1065 21.3 12.1065C21.62 12.1065 21.9 12.2798 22.0333 12.5598L22.7933 14.1065C22.82 14.1732 22.8734 14.2132 22.94 14.2132L24.6467 14.4665C24.9667 14.5065 25.22 14.7332 25.3134 15.0265C25.4334 15.3198 25.3533 15.6398 25.1267 15.8665Z" fill="#FF7D00"/>
</svg>
