<svg width="32" height="32" viewBox="0 0 32 32" fill="none" xmlns="http://www.w3.org/2000/svg">
<path d="M21.5867 2.6665H10.4134C5.56002 2.6665 2.66669 5.55984 2.66669 10.4132V21.5732C2.66669 26.4398 5.56002 29.3332 10.4134 29.3332H21.5734C26.4267 29.3332 29.32 26.4398 29.32 21.5865V10.4132C29.3334 5.55984 26.44 2.6665 21.5867 2.6665ZM23.5867 18.7332C23.5334 18.8532 23.4667 18.9598 23.3734 19.0532L19.44 22.9865C19.24 23.1865 18.9867 23.2798 18.7334 23.2798C18.48 23.2798 18.2267 23.1865 18.0267 22.9865C17.64 22.5998 17.64 21.9598 18.0267 21.5732L20.2534 19.3465H9.33335C8.78669 19.3465 8.33335 18.8932 8.33335 18.3465C8.33335 17.7998 8.78669 17.3465 9.33335 17.3465H22.6667C22.8 17.3465 22.92 17.3732 23.0534 17.4265C23.2934 17.5332 23.4934 17.7198 23.6 17.9732C23.6934 18.2132 23.6934 18.4798 23.5867 18.7332ZM22.6667 14.6532H9.33335C9.20002 14.6532 9.08002 14.6265 8.94669 14.5732C8.70669 14.4665 8.50669 14.2798 8.40002 14.0265C8.29335 13.7865 8.29335 13.5065 8.40002 13.2665C8.46669 13.1465 8.53335 13.0398 8.62669 12.9465L12.56 9.01317C12.9467 8.6265 13.5867 8.6265 13.9734 9.01317C14.36 9.39984 14.36 10.0398 13.9734 10.4265L11.7467 12.6532H22.6667C23.2134 12.6532 23.6667 13.1065 23.6667 13.6532C23.6667 14.1998 23.2134 14.6532 22.6667 14.6532Z" fill="#8E3BE0"/>
</svg>
