<svg width="32" height="32" viewBox="0 0 32 32" fill="none" xmlns="http://www.w3.org/2000/svg">
<path d="M29.3334 28.3335C29.3334 28.8802 28.88 29.3335 28.3334 29.3335H3.66669C3.12002 29.3335 2.66669 28.8802 2.66669 28.3335C2.66669 27.7868 3.12002 27.3335 3.66669 27.3335H28.3334C28.88 27.3335 29.3334 27.7868 29.3334 28.3335Z" fill="#009DE3"/>
<path d="M20.5199 6.02684L6.19994 20.3468C5.65328 20.8935 4.77328 20.8935 4.23994 20.3468H4.22661C2.37328 18.4802 2.37328 15.4668 4.22661 13.6135L13.7599 4.08018C15.6266 2.21351 18.6399 2.21351 20.5066 4.08018C21.0533 4.60018 21.0533 5.49351 20.5199 6.02684Z" fill="#009DE3"/>
<path d="M27.7599 11.3199L23.6932 7.25326C23.1466 6.7066 22.2666 6.7066 21.7332 7.25326L7.41323 21.5733C6.86657 22.1066 6.86657 22.9866 7.41323 23.5333L11.4799 27.6133C13.3466 29.4666 16.3599 29.4666 18.2266 27.6133L27.7466 18.0799C29.6399 16.2133 29.6399 13.1866 27.7599 11.3199ZM17.0132 23.3599L15.3999 24.9866C15.0666 25.3199 14.5199 25.3199 14.1732 24.9866C13.8399 24.6533 13.8399 24.1066 14.1732 23.7599L15.7999 22.1333C16.1199 21.8133 16.6799 21.8133 17.0132 22.1333C17.3466 22.4666 17.3466 23.0399 17.0132 23.3599ZM22.3066 18.0666L19.0532 21.3333C18.7199 21.6533 18.1732 21.6533 17.8266 21.3333C17.4932 20.9999 17.4932 20.4533 17.8266 20.1066L21.0932 16.8399C21.4132 16.5199 21.9732 16.5199 22.3066 16.8399C22.6399 17.1866 22.6399 17.7333 22.3066 18.0666Z" fill="#009DE3"/>
</svg>
