<svg width="22" height="27" viewBox="0 0 22 27" fill="none" xmlns="http://www.w3.org/2000/svg">
<path d="M14.6657 4.15819C15.6642 3.05609 16.2229 1.54306 16.1346 0C14.7534 0 13.1521 0.807735 12.1383 1.99814C11.3447 2.9825 10.4928 4.52555 10.8013 6.06802C12.2266 6.24464 13.7697 5.3486 14.6657 4.15819Z" fill="#050709"/>
<path d="M20.9053 9.04875C20.6272 9.21469 18.0017 10.7809 18.0017 14.121C18.0082 14.3282 18.0294 14.5248 18.0535 14.7185H18.0523C18.4874 18.1961 21.5447 19.4395 21.6 19.4395C21.5896 19.4527 21.5667 19.5206 21.5284 19.6341C21.3513 20.1589 20.8453 21.6578 19.7343 23.2156C18.6622 24.8476 17.4718 26.4931 15.6644 26.4931C14.8357 26.4931 14.2631 26.2402 13.6699 25.9783C13.0327 25.6969 12.3719 25.4051 11.3443 25.4051C10.208 25.4051 9.50645 25.7146 8.85162 26.0034C8.27862 26.2561 7.74142 26.4931 6.9801 26.4931C5.17271 26.4931 3.89458 24.7593 2.76363 23.1426C1.32537 21.0709 0.106116 17.8453 0.0136816 14.7185C0.0128343 14.6866 0.0103539 14.6544 0.00787967 14.6222C0.00519662 14.5873 0.00251257 14.5524 0.0019 14.5178C-0.0281252 12.8281 0.295675 11.1673 1.11813 9.75673C2.27851 7.78743 4.35084 6.45043 6.61332 6.40628C7.60302 6.37301 8.53056 6.7656 9.3412 7.10871C9.95068 7.36668 10.4941 7.59668 10.9481 7.59668C11.3612 7.59668 11.9206 7.39909 12.5836 7.16491C13.5479 6.8243 14.7314 6.40628 16.0024 6.40628C16.9278 6.40686 19.397 6.68592 20.9253 9.03671C20.9215 9.03914 20.9147 9.04314 20.9053 9.04875Z" fill="#050709"/>
</svg>
