<svg width="372" height="252" viewBox="0 0 372 252" fill="none" xmlns="http://www.w3.org/2000/svg">
<path opacity="0.075" fill-rule="evenodd" clip-rule="evenodd" d="M191.42 -285.43C192.549 -285.526 193.678 -285.625 194.807 -285.727C206.622 -286.79 218.599 -287.68 230.459 -286.815C231.31 -286.757 232.158 -286.738 233.01 -286.727C236.535 -286.658 240.055 -286.45 243.574 -286.236L244.547 -286.178C246.437 -286.067 248.309 -285.899 250.187 -285.652C251.266 -285.517 252.357 -285.435 253.442 -285.354C255.434 -285.195 257.405 -284.963 259.383 -284.679C260.77 -284.48 262.158 -284.314 263.552 -284.169C265.649 -283.947 267.721 -283.628 269.8 -283.282C270.442 -283.177 271.085 -283.077 271.728 -282.978C276.434 -282.25 281.104 -281.363 285.763 -280.38C286.32 -280.264 286.877 -280.151 287.435 -280.038C290.232 -279.474 293.005 -278.829 295.776 -278.153L297.316 -277.787C299.379 -277.301 301.425 -276.769 303.469 -276.208L306.079 -275.496C307.208 -275.192 308.34 -274.901 309.473 -274.612C310.373 -274.364 311.242 -274.053 312.119 -273.732C312.97 -273.434 313.834 -273.191 314.702 -272.948L314.952 -272.877C316.352 -272.474 317.741 -272.033 319.13 -271.593L319.208 -271.568L320.396 -271.195C322.084 -270.666 323.752 -270.094 325.417 -269.496L326.143 -269.238C327.173 -268.87 328.199 -268.497 329.215 -268.09C329.844 -267.842 330.444 -267.631 331.095 -267.456C332.307 -267.101 333.465 -266.64 334.634 -266.169C335.819 -265.692 337.013 -265.251 338.214 -264.819C339.473 -264.364 340.67 -263.863 341.863 -263.252C342.668 -262.867 343.492 -262.544 344.324 -262.221C346.746 -261.278 349.119 -260.249 351.465 -259.13C352.111 -258.827 352.762 -258.537 353.417 -258.254C356.275 -257.013 359.067 -255.656 361.853 -254.261C362.435 -253.971 363.021 -253.687 363.607 -253.405C364.852 -252.801 366.077 -252.16 367.301 -251.517L369.391 -250.418C370.508 -249.817 371.067 -249.517 371.632 -249.229C372.196 -248.94 372.766 -248.663 373.906 -248.11L374.427 -247.831L374.467 -247.381L374.865 -247.342C375.466 -247.219 375.847 -247.002 376.371 -246.683C377.199 -246.188 378.033 -245.714 378.884 -245.259L379.473 -244.942L380.656 -244.314L381.205 -244.019L381.703 -243.755L382.063 -243.51L382.102 -243.06L382.472 -243.05C383.132 -242.886 383.622 -242.527 384.149 -242.14L384.471 -241.906L385.166 -241.74L385.205 -241.29L385.663 -241.194C386.582 -240.862 387.347 -240.35 388.149 -239.813L388.366 -239.667L390.123 -238.515C390.971 -237.964 391.83 -237.43 392.691 -236.899L395.003 -235.467L396.333 -234.638L396.739 -234.389C397.052 -234.191 397.356 -233.978 397.657 -233.762L397.696 -233.311L398.371 -233.371C398.643 -233.143 398.913 -232.913 399.176 -232.676C399.808 -232.175 400.506 -231.779 401.206 -231.381L401.576 -231.17C402.258 -230.741 402.838 -230.253 403.452 -229.733C404.149 -229.254 404.856 -228.79 405.564 -228.327L406.105 -227.924L406.145 -227.474L406.82 -227.533C407.108 -227.305 407.395 -227.074 407.669 -226.829C408.111 -226.447 408.573 -226.103 409.045 -225.757L409.531 -225.4C409.741 -225.25 409.859 -225.165 409.983 -225.087C410.143 -224.987 410.311 -224.899 410.696 -224.697L410.736 -224.247L411.115 -224.124C411.87 -223.789 412.466 -223.369 413.124 -222.868L413.164 -222.418L413.543 -222.295C414.776 -221.748 415.8 -220.86 416.814 -219.982L417.165 -219.678C417.885 -219.065 418.611 -218.479 419.382 -217.93C420.42 -217.185 421.387 -216.364 422.356 -215.531C422.916 -215.053 423.431 -214.657 424.079 -214.302L424.119 -213.851L424.813 -213.685L424.853 -213.235L425.548 -213.069C425.885 -212.725 426.218 -212.376 426.546 -212.023L427.261 -211.632L427.3 -211.182L427.995 -211.016L428.035 -210.565L428.73 -210.4C428.798 -210.341 428.853 -210.294 428.9 -210.253C428.96 -210.202 429.006 -210.161 429.052 -210.118C429.151 -210.026 429.246 -209.929 429.454 -209.713C430.395 -208.775 431.407 -207.937 432.44 -207.104C432.767 -206.836 433.084 -206.555 433.4 -206.272L433.439 -205.822L434.134 -205.656C434.288 -205.528 434.373 -205.457 434.455 -205.383C434.554 -205.292 434.649 -205.196 434.859 -204.983C435.436 -204.409 436.021 -203.85 436.628 -203.308L437.031 -202.947L437.835 -202.234C438.407 -201.722 438.799 -201.361 439.108 -200.648L439.803 -200.482C440.268 -200.034 440.442 -199.866 440.519 -199.662C440.566 -199.54 440.577 -199.406 440.596 -199.191L440.996 -199.075C441.671 -198.756 442.078 -198.324 442.579 -197.791L442.653 -197.713L443.223 -197.113L444.271 -195.988C444.789 -195.462 445.34 -195 445.904 -194.528L446 -194.448C446.474 -194.001 446.935 -193.542 447.396 -193.082L447.755 -192.725C449.113 -191.372 449.399 -191.086 449.484 -190.75C449.507 -190.66 449.515 -190.566 449.525 -190.447L450.22 -190.281C450.627 -189.88 451.003 -189.481 451.377 -189.05L451.687 -188.704C452.149 -188.181 452.487 -187.747 452.766 -187.102L453.216 -187.142C453.703 -186.65 454.165 -186.152 454.624 -185.635L455.507 -184.652L455.982 -184.122C456.493 -183.554 457.007 -182.99 457.523 -182.426L459.073 -180.734C460.029 -179.686 460.953 -178.618 461.859 -177.528C462.49 -176.779 463.155 -176.064 463.821 -175.348L464.064 -175.087C464.474 -174.587 464.682 -174.264 464.83 -173.643L465.28 -173.683C465.472 -173.488 465.579 -173.38 465.681 -173.269C465.806 -173.132 465.925 -172.989 466.19 -172.672L466.674 -172.099C466.86 -171.84 466.954 -171.707 467.009 -171.56C467.066 -171.407 467.081 -171.239 467.111 -170.895L467.561 -170.934C468.009 -170.432 468.429 -169.93 468.843 -169.402L469.198 -168.964C469.742 -168.279 470.159 -167.723 470.411 -166.874L470.861 -166.914C471.013 -166.741 471.1 -166.642 471.183 -166.541C471.294 -166.405 471.398 -166.265 471.638 -165.938L472.653 -164.576L473.099 -163.997L473.804 -163.089L475.445 -160.968L476.284 -159.879C476.886 -159.079 477.473 -158.267 478.059 -157.456L478.294 -157.132L479.058 -156.081C480.326 -154.337 481.59 -152.591 482.828 -150.826C483.155 -150.368 483.493 -149.924 483.839 -149.481C484.529 -148.581 485.104 -147.61 485.682 -146.637L485.849 -146.354C486.288 -145.638 486.787 -144.981 487.297 -144.315C487.8 -143.641 488.248 -142.934 488.698 -142.223C489.353 -141.197 490.015 -140.176 490.702 -139.17C491.904 -137.406 493.053 -135.653 494.044 -133.762C494.622 -132.67 495.27 -131.641 495.951 -130.611C496.739 -129.418 497.447 -128.223 498.086 -126.941C498.5 -126.162 498.961 -125.419 499.431 -124.672C500.576 -122.83 501.605 -120.935 502.62 -119.019L503.131 -118.064C503.986 -116.461 504.832 -114.852 505.67 -113.239L505.901 -112.794C506.56 -111.521 507.178 -110.229 507.79 -108.933C508.23 -108.007 508.686 -107.09 509.143 -106.173L509.18 -106.099C509.902 -104.645 510.587 -103.177 511.251 -101.695C511.618 -100.878 511.999 -100.074 512.412 -99.2808C512.928 -98.2803 513.343 -97.2502 513.759 -96.205C514.126 -95.298 514.512 -94.4002 514.902 -93.5029L515.122 -92.9956C515.48 -92.174 515.84 -91.3538 516.205 -90.5357C517.143 -88.4205 517.983 -86.2782 518.789 -84.1091C519.328 -82.6595 519.887 -81.2206 520.468 -79.7873C521.25 -77.8458 521.939 -75.8804 522.609 -73.8977C522.784 -73.3801 522.962 -72.8632 523.141 -72.3466C523.263 -71.9929 523.386 -71.6392 523.508 -71.2856L523.626 -70.9463C524.07 -69.6639 524.512 -68.3805 524.952 -67.0967L525.141 -66.5454C526.36 -62.9747 527.385 -59.3409 528.409 -55.7095L528.871 -54.0723C529.235 -52.7893 529.605 -51.5086 529.985 -50.2303C530.325 -49.0747 530.627 -47.916 530.906 -46.7443C531.078 -46.0223 531.26 -45.303 531.444 -44.5837L531.626 -43.8695L531.983 -42.4756C532.357 -41.0008 532.684 -39.5195 532.988 -38.029C533.231 -36.8383 533.485 -35.6505 533.745 -34.4635C534.761 -29.8183 535.725 -25.1729 536.514 -20.4828L536.605 -19.9445C537.928 -12.0364 538.735 -4.10257 539.413 3.88115C539.51 5.01043 539.609 6.13936 539.711 7.26814C540.924 20.7482 541.261 34.1224 540.66 47.6444L540.628 48.3676C540.566 49.7971 540.495 51.2261 540.418 52.6549L540.391 53.179C540.108 58.5386 539.695 63.9079 538.969 69.2264C538.786 70.5758 538.642 71.9289 538.499 73.2828L538.481 73.4479C538.283 75.2801 538.052 77.0943 537.746 78.9117C537.582 79.89 537.438 80.8711 537.294 81.8526L537.284 81.9225C536.568 86.8016 535.709 91.6336 534.705 96.462C534.505 97.4311 534.31 98.4014 534.115 99.3718L533.77 101.089L533.669 101.591C533.321 103.313 532.915 105.02 532.505 106.727L532.394 107.192C531.77 109.796 531.125 112.395 530.45 114.987L530.262 115.711L529.654 118.047L529.465 118.778C529.14 120.014 528.781 121.223 528.355 122.427C528.124 123.097 527.944 123.778 527.764 124.463C526.226 130.126 524.444 135.849 522.231 141.283C521.913 142.067 521.632 142.843 521.406 143.658C521.083 144.808 520.614 145.892 520.141 146.984L519.98 147.355C519.5 148.474 519.071 149.597 518.677 150.749C517.864 153.059 516.912 155.308 515.886 157.53C515.293 158.823 514.762 160.136 514.252 161.463C513.932 162.296 513.581 163.097 513.184 163.896L512.654 165.133C512.293 165.967 511.91 166.769 511.463 167.562C511.058 168.284 510.705 169.006 510.381 169.768C509.683 171.404 508.897 172.999 508.11 174.593L507.727 175.372L506.827 177.218C506.441 178.011 506.05 178.8 505.64 179.581L505.297 180.238L504.274 182.184L503.825 183.034L503.43 183.789C503.209 184.214 502.991 184.639 502.776 185.067L502.413 185.788L502.095 186.43L501.815 186.889L501.365 186.928L501.318 187.334C501.175 188.073 500.818 188.702 500.453 189.346L500.26 189.69L499.991 190.192C499.762 190.61 499.514 191.017 499.263 191.421L498.813 191.46L498.775 191.85C498.647 192.478 498.407 192.946 498.099 193.507L497.789 194.084L497.494 194.524L497.044 194.564L497.021 194.94C496.866 195.622 496.55 196.109 496.18 196.681L496.092 196.815L495.594 197.598L495.342 197.991L495.001 198.541C494.799 198.873 494.601 199.208 494.403 199.543C492.78 202.254 491.068 204.912 489.357 207.569L488.704 208.583C488.439 209.005 488.19 209.437 487.951 209.873L487.501 209.913L487.37 210.289C487.059 211.017 486.656 211.677 486.239 212.348L485.997 212.75C485.79 213.085 485.566 213.409 485.34 213.73L484.89 213.77L484.757 214.161C484.466 214.829 484.084 215.378 483.665 215.975C483.109 216.776 482.568 217.577 482.064 218.411C481.598 219.172 481.072 219.827 480.49 220.505C479.919 221.229 479.634 221.59 479.364 221.963C479.096 222.334 478.843 222.717 478.338 223.481L478.065 223.892L477.615 223.931L477.453 224.357C477.368 224.565 477.317 224.69 477.261 224.811C477.179 224.989 477.084 225.161 476.852 225.586L476.402 225.625L476.257 226.045C476.022 226.584 475.766 226.922 475.377 227.359C474.365 228.53 473.47 229.774 472.611 231.059L472.168 231.665L471.718 231.705L471.568 232.128C471.349 232.638 471.123 232.965 470.761 233.381L470.414 233.787L470.051 234.203C469.365 234.996 468.697 235.776 468.115 236.65L467.669 237.275L467.219 237.314L467.053 238.009L466.603 238.049L466.437 238.743C466.092 239.081 465.743 239.413 465.39 239.742L464.999 240.457L464.549 240.496L464.383 241.191L463.933 241.23L463.767 241.925C463.636 242.079 463.562 242.166 463.486 242.247C463.394 242.346 463.297 242.441 463.083 242.648C462.299 243.438 461.58 244.27 460.872 245.127C459.783 246.44 458.656 247.688 457.414 248.86C456.694 249.556 456.079 250.33 455.457 251.114C455.252 251.342 455.159 251.445 455.043 251.498C454.948 251.542 454.836 251.551 454.632 251.569L454.466 252.264C454.12 252.64 453.757 253 453.385 253.351L452.753 253.954L452.168 254.506C451.222 255.417 450.348 256.362 449.559 257.414C449.447 257.528 449.379 257.598 449.298 257.644C449.17 257.717 449.01 257.731 448.598 257.767L448.495 258.159C448.147 258.868 447.614 259.328 447.034 259.829L446.903 259.942C446.008 260.726 445.236 261.523 444.47 262.437C444.073 262.797 443.669 263.149 443.259 263.493C442.857 263.803 442.66 263.956 442.496 264.139C442.339 264.315 442.213 264.521 441.967 264.924L441.291 264.983L441.125 265.678C440.65 266.142 440.171 266.577 439.669 267.01L438.253 268.255C437.493 268.932 436.751 269.627 436.009 270.322L435.86 270.462C434.651 271.589 433.435 272.706 432.197 273.801L431.796 274.16C431.162 274.717 430.966 274.889 430.74 274.956C430.638 274.986 430.531 274.996 430.376 275.01L430.415 275.46L429.705 275.933C429.249 276.246 428.916 276.5 428.559 276.926L428.302 277.232L427.627 277.291L427.666 277.741C427.19 278.157 426.711 278.546 426.211 278.931L425.333 279.621L424.896 279.964C423.883 280.765 422.867 281.582 421.939 282.481C421.76 282.628 421.66 282.71 421.546 282.761C421.402 282.825 421.235 282.84 420.858 282.873L420.897 283.323C420.383 283.742 419.867 284.135 419.33 284.523C418.31 285.274 417.305 286.026 416.345 286.854C415.565 287.522 414.757 288.095 413.899 288.657C413.354 289.031 412.872 289.456 412.378 289.893C411.966 290.235 411.544 290.528 411.097 290.823C410.03 291.536 408.993 292.287 407.956 293.044C405.672 294.707 403.371 296.339 401.034 297.927C400.255 298.458 399.488 298.999 398.732 299.564C397.733 300.297 396.683 300.939 395.624 301.581C394.464 302.285 393.321 303.013 392.182 303.751C390.511 304.832 388.825 305.884 387.126 306.918C386.373 307.378 385.621 307.841 384.869 308.303L383.661 309.045L382.804 309.575C382.081 310.025 381.367 310.455 380.596 310.817C379.487 311.365 378.429 311.987 377.366 312.617C375.676 313.616 373.968 314.562 372.23 315.476L371.516 315.861C370.566 316.372 369.601 316.852 368.636 317.335C367.338 317.987 366.048 318.65 364.772 319.345C363.533 320.017 362.27 320.611 360.985 321.19C360.404 321.455 359.834 321.732 359.266 322.024C356.611 323.383 353.891 324.614 351.148 325.784L350.298 326.15L347.893 327.192C346.925 327.61 345.958 328.032 344.995 328.462C342.647 329.506 340.274 330.43 337.856 331.298C336.521 331.778 335.197 332.272 333.889 332.82C331.289 333.908 328.663 334.862 325.986 335.74C324.95 336.081 323.916 336.431 322.883 336.784C319.414 337.969 315.94 339.088 312.413 340.09C311.47 340.362 310.533 340.652 309.596 340.941C307.864 341.472 306.122 341.952 304.369 342.411C303.775 342.567 303.182 342.727 302.589 342.887C300.518 343.445 298.449 343.988 296.352 344.438C295.432 344.639 294.518 344.861 293.604 345.083L293.252 345.169C290.88 345.743 288.511 346.278 286.112 346.726C285.261 346.885 284.417 347.068 283.572 347.257C272.537 349.661 261.341 350.92 250.103 351.875C248.973 351.971 247.844 352.071 246.716 352.172C233.236 353.385 219.861 353.723 206.339 353.121L205.616 353.09C204.187 353.027 202.758 352.957 201.329 352.879L200.757 352.849C197.743 352.686 194.742 352.425 191.738 352.131L190.857 352.047L187.342 351.699C182.905 351.266 178.503 350.708 174.093 350.046L172.481 349.808C167.63 349.09 166.466 348.918 165.311 348.703C164.946 348.635 164.583 348.563 164.104 348.468L162.839 348.219L159.417 347.555C158.359 347.35 157.3 347.147 156.241 346.949C154.191 346.564 152.177 346.144 150.165 345.593C149.439 345.406 148.717 345.263 147.979 345.13C144.424 344.469 140.905 343.523 137.455 342.442C136.334 342.108 135.2 341.848 134.058 341.591C132.383 341.178 130.74 340.647 129.099 340.116L128.108 339.796C126.371 339.241 124.633 338.707 122.878 338.215C122.008 337.958 121.158 337.653 120.306 337.344C119.65 337.112 118.99 336.903 118.326 336.697C117.134 336.323 115.962 335.907 114.79 335.473C113.935 335.158 113.077 334.852 112.214 334.557C110.258 333.889 108.331 333.199 106.438 332.367C105.376 331.902 104.3 331.494 103.209 331.103C101.188 330.374 99.2135 329.549 97.2382 328.706C96.5334 328.405 95.8273 328.108 95.1211 327.812L95.0794 327.794L92.0139 326.496C90.0912 325.667 88.1982 324.773 86.3055 323.879C86.0687 323.767 85.832 323.655 85.5951 323.544L85.041 323.283C83.185 322.409 81.3438 321.521 79.5299 320.562C78.9921 320.286 78.4505 320.036 77.8966 319.795C76.9105 319.364 75.9618 318.878 75.0102 318.376C74.412 318.062 73.8124 317.753 73.2103 317.447C70.6862 316.162 68.2085 314.812 65.7483 313.409C65.1672 313.078 64.5846 312.751 64.0015 312.424C62.1267 311.375 60.2585 310.317 58.4138 309.215C57.4617 308.648 56.4948 308.118 55.5076 307.615L55.1525 307.384L55.1131 306.934L54.4379 306.993L54.3985 306.542L53.941 306.446C53.0207 306.114 52.2543 305.601 51.4512 305.063L51.2375 304.92L49.4944 303.774C48.417 303.078 47.3194 302.413 46.2181 301.755C45.8282 301.517 45.4477 301.264 45.0696 301.009L45.0303 300.558L44.6494 300.428C42.9183 299.682 41.2992 298.492 39.7484 297.351L38.8257 296.677C38.4755 296.422 38.3008 296.295 38.1166 296.184C37.9332 296.073 37.7404 295.977 37.3556 295.787L37.3162 295.337L36.9263 295.204C36.0139 294.808 35.1968 294.217 34.3869 293.631C34.1666 293.472 33.9446 293.311 33.7236 293.156L33.1754 292.784C32.7856 292.515 32.4064 292.231 32.03 291.944L31.9906 291.494L31.589 291.358C30.9666 291.085 30.4986 290.74 29.9607 290.325L29.3216 289.835L28.6232 289.294L27.446 288.384L26.6828 287.792C26.1315 287.366 25.6046 286.999 24.9912 286.663L24.9518 286.213L24.2569 286.047L24.2175 285.597L23.8383 285.474C22.6043 284.927 21.741 284.145 20.8303 283.172L20.1157 282.781L20.0764 282.331L19.66 282.187C19.1104 281.948 18.7395 281.678 18.282 281.293L17.7871 280.879L17.2597 280.432L16.7112 279.972L12.1728 276.15C11.3399 275.445 10.5648 274.726 9.81629 273.93C9.46322 273.687 9.11 273.444 8.75363 273.205C8.06521 272.702 7.43208 272.115 6.87926 271.466L6.83988 271.015L6.14498 270.849L6.1056 270.399L5.41075 270.233C5.2469 270.097 5.15759 270.023 5.07169 269.945C4.96872 269.851 4.87063 269.752 4.655 269.534C3.9266 268.813 3.18449 268.111 2.42878 267.418C0.142244 265.308 -0.206739 264.986 -0.288925 264.606C-0.303734 264.538 -0.309883 264.467 -0.317139 264.384L-1.01201 264.218C-1.47764 263.77 -1.65145 263.602 -1.72874 263.398C-1.77478 263.276 -1.78656 263.142 -1.80535 262.927L-2.50022 262.761C-3.39009 261.944 -3.63771 261.717 -3.72536 261.439C-3.75917 261.332 -3.7692 261.218 -3.78308 261.059L-4.23321 261.098C-4.57494 260.676 -4.91402 260.252 -5.25163 259.827L-5.8023 259.365C-6.76636 258.556 -7.65517 257.664 -8.47282 256.707L-8.51221 256.257L-8.96233 256.296C-9.16818 256.137 -9.26681 256.061 -9.36195 255.98C-9.44952 255.906 -9.53413 255.829 -9.69659 255.68C-11.0724 256.303 -12.3289 257.06 -13.5853 257.891C-14.8546 258.729 -16.1403 259.505 -17.477 260.23C-18.694 260.891 -19.8907 261.57 -21.0662 262.302C-22.987 263.498 -24.9366 264.644 -26.887 265.791L-27.1663 265.955L-30.3482 267.834C-31.6978 268.632 -33.049 269.426 -34.4034 270.215C-35.9529 271.119 -37.4898 272.038 -39.0146 272.982C-40.6269 273.977 -42.2646 274.929 -43.9025 275.882L-44.4159 276.18C-45.8057 276.987 -46.5106 277.397 -47.2031 277.807C-47.897 278.219 -48.5873 278.637 -49.9677 279.472C-51.6533 280.515 -53.3616 281.52 -55.0702 282.525L-55.8124 282.961C-56.8147 283.552 -57.8154 284.146 -58.8161 284.74L-59.2369 284.989C-61.8301 286.526 -64.4302 288.051 -67.0352 289.568C-68.8049 290.6 -70.5625 291.645 -72.3039 292.724C-73.1755 293.26 -74.0594 293.774 -74.9435 294.288L-75.112 294.386C-76.388 295.129 -77.6553 295.883 -78.9102 296.661C-80.8171 297.842 -82.7547 298.969 -84.6935 300.096L-87.3686 301.656C-88.3713 302.243 -89.3632 302.844 -90.3494 303.459C-91.4689 304.153 -92.6074 304.799 -93.763 305.43C-95.1667 306.197 -96.5383 307.001 -97.8958 307.847C-98.9245 308.487 -99.9652 309.102 -101.015 309.707C-102.202 310.393 -103.378 311.094 -104.544 311.816C-105.981 312.707 -107.435 313.564 -108.897 314.414C-109.911 315.005 -110.915 315.609 -111.911 316.231C-113.025 316.923 -114.16 317.561 -115.312 318.187C-116.62 318.898 -117.881 319.654 -119.123 320.476C-120.513 321.396 -121.934 322.221 -123.399 323.016C-124.919 323.845 -126.39 324.743 -127.858 325.661C-129.792 326.869 -131.733 328.057 -133.718 329.18C-134.781 329.786 -135.833 330.41 -136.885 331.034L-137.582 331.447C-138.941 332.251 -140.302 333.05 -141.666 333.845C-143.084 334.672 -144.484 335.52 -145.879 336.385C-146.778 336.932 -147.689 337.455 -148.603 337.978C-149.781 338.655 -150.936 339.366 -152.091 340.081C-152.962 340.619 -153.841 341.128 -154.741 341.614C-155.397 341.982 -156.034 342.379 -156.673 342.775L-156.961 342.954C-158.606 343.97 -160.275 344.945 -161.945 345.92L-162.778 346.407L-163.836 347.027C-165.203 347.828 -166.57 348.628 -167.939 349.425C-169.707 350.456 -171.464 351.501 -173.204 352.579C-174.153 353.162 -175.116 353.722 -176.08 354.281L-176.541 354.549C-177.655 355.198 -178.756 355.865 -179.85 356.547C-180.964 357.241 -182.093 357.887 -183.251 358.503C-184.473 359.155 -185.638 359.863 -186.793 360.627C-188.192 361.553 -189.622 362.384 -191.096 363.184C-192.322 363.852 -193.513 364.564 -194.697 365.302C-195.875 366.035 -197.07 366.734 -198.273 367.425C-199.064 367.881 -199.844 368.348 -200.614 368.84L-201.087 369.139C-201.267 369.254 -201.446 369.369 -201.625 369.486C-201.742 369.562 -201.859 369.638 -201.975 369.715C-202.505 370.052 -202.963 370.326 -203.59 370.422C-204.213 370.094 -204.524 369.538 -204.852 368.95L-204.979 368.724L-205.253 368.261C-205.548 367.761 -205.839 367.258 -206.129 366.756L-207.633 364.183C-208.278 363.076 -208.941 361.983 -209.618 360.895C-210.423 359.602 -211.17 358.285 -211.879 356.938C-212.252 356.237 -212.647 355.575 -213.106 354.929C-213.403 354.499 -213.511 354.342 -213.561 354.169C-213.589 354.071 -213.598 353.967 -213.612 353.803L-210.661 351.99L-209.646 351.364C-208.415 350.605 -207.175 349.864 -205.927 349.134L-204.122 348.074L-200.25 345.795C-199.128 345.133 -198.015 344.46 -196.907 343.776C-196.013 343.229 -195.109 342.699 -194.205 342.169L-193.611 341.82C-192.541 341.192 -191.469 340.567 -190.395 339.945C-189.079 339.184 -187.774 338.41 -186.482 337.61C-184.554 336.416 -182.595 335.276 -180.634 334.136L-177.997 332.598C-176.994 332.011 -176.002 331.41 -175.016 330.795C-173.896 330.101 -172.758 329.455 -171.602 328.824C-169.757 327.815 -167.968 326.729 -166.185 325.614C-163.768 324.112 -161.32 322.664 -158.867 321.22L-156.304 319.707C-154.738 318.781 -153.172 317.858 -151.601 316.942C-150.284 316.174 -148.971 315.4 -147.674 314.597C-145.351 313.16 -142.989 311.788 -140.626 310.42C-139.173 309.579 -137.728 308.731 -136.301 307.847C-133.187 305.919 -130.018 304.082 -126.85 302.244L-125.371 301.386C-123.413 300.248 -121.466 299.097 -119.541 297.904C-118.678 297.371 -117.807 296.857 -116.924 296.358C-115.913 295.786 -114.919 295.191 -113.933 294.579C-111.867 293.3 -109.773 292.07 -107.678 290.84L-94.4709 283.052C-93.3212 282.374 -92.1697 281.698 -91.0163 281.025C-89.6985 280.257 -88.3858 279.483 -87.0885 278.68C-84.9975 277.386 -82.8723 276.149 -80.7474 274.911L-79.9298 274.435C-78.4269 273.559 -76.9264 272.681 -75.4469 271.765C-73.1247 270.328 -70.7626 268.956 -68.3992 267.588C-66.7429 266.629 -65.1015 265.652 -63.4742 264.645C-62.5258 264.059 -61.5659 263.502 -60.5919 262.96C-58.3221 261.678 -56.0755 260.349 -53.8586 258.977C-51.786 257.694 -49.6792 256.467 -47.5727 255.241L-46.7269 254.748C-44.9706 253.724 -43.2261 252.687 -41.4977 251.616C-40.5366 251.025 -39.5613 250.459 -38.5859 249.892L-38.1278 249.626C-37.1062 249.03 -36.0955 248.422 -35.0921 247.795C-33.9726 247.101 -32.834 246.456 -31.6785 245.824C-29.9772 244.894 -28.3229 243.903 -26.6792 242.875C-26.036 242.474 -25.3898 242.078 -24.7436 241.682L-24.5395 241.557L-23.2482 240.764L-24.2687 239.488C-24.6522 239.01 -25.0377 238.534 -25.4248 238.06L-26.11 237.215L-26.4455 236.806C-27.0181 236.098 -27.4976 235.43 -27.8704 234.591L-28.3205 234.63C-28.5917 234.285 -28.8463 233.927 -29.0941 233.564L-29.5153 233.012L-30.2142 232.103L-30.5214 231.704C-31.0514 231.02 -31.5905 230.354 -32.1671 229.708C-32.4274 229.393 -32.5499 229.245 -32.6162 229.075C-32.6752 228.924 -32.6898 228.756 -32.7176 228.438L-33.1678 228.478L-33.5682 227.89L-34.1104 227.1L-34.3717 226.716C-34.8803 225.977 -35.4113 225.268 -35.9767 224.571C-36.8311 223.516 -37.6175 222.418 -38.4015 221.31C-39.0109 220.45 -39.3156 220.021 -39.6232 219.593C-39.7665 219.394 -39.9103 219.195 -40.0858 218.954C-40.2873 218.677 -40.5305 218.343 -40.8624 217.889L-41.1907 217.444L-41.7917 216.641C-42.2239 216.056 -42.4459 215.747 -42.5106 215.007C-43.8376 215.617 -45.064 216.332 -46.2789 217.137C-47.3568 217.851 -48.4401 218.523 -49.5731 219.148C-50.5578 219.699 -51.5304 220.271 -52.5032 220.843L-53.1048 221.196C-54.196 221.84 -55.2789 222.494 -56.3539 223.164C-57.4681 223.856 -58.6033 224.494 -59.7548 225.12C-61.1414 225.875 -62.4722 226.682 -63.7858 227.558C-64.8704 228.278 -65.987 228.928 -67.1227 229.565C-67.6381 229.857 -68.1407 230.159 -68.6412 230.476C-69.2219 230.839 -69.8097 231.145 -70.4278 231.44C-71.4561 231.947 -72.3963 232.553 -73.3511 233.184C-74.7775 234.125 -76.233 234.975 -77.7349 235.79C-78.961 236.458 -80.1514 237.17 -81.336 237.908C-82.3647 238.548 -83.4053 239.163 -84.4546 239.768C-85.6422 240.454 -86.8181 241.155 -87.9837 241.877C-89.4207 242.768 -90.8753 243.625 -92.3368 244.475C-93.3513 245.066 -94.3546 245.671 -95.3508 246.292C-96.4703 246.986 -97.6088 247.632 -98.7644 248.263C-100.168 249.03 -101.54 249.834 -102.897 250.68C-103.926 251.32 -104.967 251.935 -106.016 252.541C-107.204 253.226 -108.38 253.927 -109.545 254.649C-110.972 255.534 -112.416 256.385 -113.867 257.228C-114.974 257.873 -116.067 258.536 -117.154 259.213C-118.268 259.906 -119.397 260.552 -120.555 261.169C-121.777 261.821 -122.942 262.529 -124.097 263.293C-125.496 264.219 -126.926 265.05 -128.4 265.85C-130.201 266.831 -131.935 267.914 -133.672 269.003C-135.803 270.336 -137.972 271.596 -140.153 272.844C-141.8 273.786 -143.434 274.74 -145.043 275.743C-146.187 276.455 -147.349 277.131 -148.516 277.803C-149.563 278.41 -150.595 279.037 -151.622 279.677C-152.744 280.376 -153.882 281.028 -155.049 281.649C-156.272 282.301 -157.436 283.009 -158.591 283.774C-159.991 284.699 -161.421 285.531 -162.895 286.33C-164.121 286.998 -165.311 287.71 -166.496 288.448C-167.675 289.182 -168.873 289.881 -170.077 290.575C-171.124 291.182 -172.156 291.809 -173.183 292.449C-174.306 293.148 -175.443 293.8 -176.611 294.422C-177.833 295.073 -178.998 295.782 -180.153 296.546C-181.552 297.471 -182.982 298.303 -184.456 299.102C-185.682 299.77 -186.872 300.482 -188.057 301.22C-189.086 301.86 -190.126 302.475 -191.175 303.081C-192.363 303.766 -193.539 304.467 -194.705 305.19C-196.142 306.08 -197.596 306.938 -199.058 307.787C-200.072 308.378 -201.076 308.983 -202.072 309.604C-203.191 310.299 -204.33 310.944 -205.485 311.576C-207.188 312.507 -208.843 313.498 -210.488 314.526C-215.075 317.393 -219.751 320.115 -224.425 322.837L-224.893 323.11C-226.455 324.02 -228.013 324.933 -229.549 325.885C-230.602 326.537 -231.668 327.156 -232.749 327.759C-233.326 328.087 -233.891 328.43 -234.455 328.781C-236.209 329.867 -237.988 330.911 -239.768 331.956L-240.867 332.602L-242.057 333.302C-245.016 335.044 -245.02 335.047 -246.481 335.898C-248.24 336.924 -249.992 337.965 -251.723 339.038C-252.673 339.621 -253.637 340.181 -254.6 340.74L-255.06 341.008C-256.174 341.657 -257.275 342.324 -258.369 343.006C-259.483 343.699 -260.612 344.345 -261.77 344.962C-262.992 345.613 -264.157 346.322 -265.312 347.086C-266.711 348.012 -268.142 348.843 -269.616 349.643C-270.842 350.31 -272.032 351.022 -273.217 351.761C-274.245 352.4 -275.286 353.016 -276.335 353.621C-278.358 354.789 -280.347 356.011 -282.326 357.251C-283.273 357.841 -284.208 358.41 -285.215 358.891C-286.254 359.397 -287.201 360.016 -288.165 360.652C-289.397 361.464 -290.633 362.193 -291.952 362.858C-293.041 363.434 -294.085 364.088 -295.129 364.742L-295.619 365.049C-297.628 366.303 -299.649 367.534 -301.699 368.721C-302.995 369.47 -304.285 370.229 -305.573 370.991L-311.261 374.352C-312.27 374.948 -313.28 375.543 -314.291 376.135C-315.976 377.122 -317.658 378.111 -319.318 379.139C-321.234 380.326 -323.177 381.467 -325.12 382.609L-327.207 383.837C-328.685 384.707 -330.163 385.577 -331.645 386.441C-333.385 387.455 -335.113 388.482 -336.826 389.543C-337.919 390.214 -339.025 390.863 -340.132 391.511L-340.768 391.884C-342.194 392.723 -343.608 393.578 -345.002 394.469C-345.712 394.915 -346.358 395.236 -347.178 395.425C-347.938 394.528 -348.517 393.616 -349.057 392.57C-349.827 391.118 -350.673 389.737 -351.585 388.372C-352.251 387.37 -352.848 386.342 -353.433 385.292C-353.797 384.649 -354.174 384.017 -354.557 383.386L-354.943 382.746L-355.733 381.45L-356.114 380.815L-356.459 380.249C-356.735 379.666 -356.801 379.219 -356.816 378.578C-354.973 377.421 -353.115 376.306 -351.21 375.253C-349.75 374.445 -348.315 373.609 -346.898 372.726C-345.786 372.035 -344.66 371.37 -343.528 370.711C-342.079 369.868 -340.646 369.004 -339.221 368.121C-338.454 367.654 -337.679 367.204 -336.9 366.758C-335.801 366.129 -334.716 365.482 -333.64 364.814C-331.595 363.548 -329.522 362.331 -327.448 361.113L-324.028 359.102L-314.206 353.304C-313.056 352.625 -311.904 351.949 -310.751 351.277C-309.433 350.508 -308.12 349.735 -306.823 348.932C-304.731 347.637 -302.606 346.4 -300.48 345.162L-299.664 344.687C-298.171 343.815 -296.679 342.944 -295.208 342.033C-293.525 340.992 -291.82 339.989 -290.113 338.986L-289.364 338.544C-288.221 337.871 -287.08 337.193 -285.939 336.517C-283.346 334.979 -280.746 333.454 -278.141 331.937C-276.625 331.054 -275.112 330.168 -273.62 329.245C-271.298 327.808 -268.936 326.436 -266.572 325.068C-264.958 324.133 -263.357 323.183 -261.772 322.2C-260.474 321.399 -259.159 320.631 -257.841 319.864C-256.826 319.273 -255.823 318.669 -254.827 318.047C-253.707 317.353 -252.569 316.707 -251.413 316.076C-250.009 315.309 -248.638 314.505 -247.28 313.659C-246.252 313.019 -245.211 312.404 -244.162 311.799C-242.974 311.113 -241.798 310.412 -240.632 309.69C-239.195 308.799 -237.741 307.942 -236.279 307.092C-235.265 306.501 -234.262 305.896 -233.265 305.275C-232.146 304.581 -231.007 303.935 -229.852 303.304C-228.006 302.295 -226.218 301.209 -224.434 300.094C-222.687 299.009 -220.928 297.95 -219.146 296.922C-218.092 296.311 -217.053 295.679 -216.018 295.035C-214.895 294.336 -213.758 293.684 -212.59 293.062C-211.186 292.314 -209.85 291.486 -208.527 290.602C-207.522 289.934 -206.491 289.334 -205.437 288.746C-204.504 288.222 -203.584 287.676 -202.664 287.129L-202.421 286.985C-200.928 286.1 -199.433 285.221 -197.931 284.352C-196.632 283.6 -195.35 282.823 -194.074 282.033C-192.777 281.231 -191.462 280.463 -190.143 279.697C-189.129 279.105 -188.126 278.501 -187.129 277.879C-186.01 277.185 -184.871 276.539 -183.716 275.908C-182.313 275.142 -180.942 274.338 -179.586 273.493C-178.53 272.836 -177.461 272.204 -176.384 271.581C-175.443 271.037 -174.504 270.493 -173.581 269.919C-172.585 269.299 -171.572 268.709 -170.559 268.119L-170.482 268.074C-169.279 267.373 -168.083 266.666 -166.899 265.932C-165.263 264.92 -163.603 263.948 -161.943 262.975L-161.447 262.685C-160.377 262.056 -159.308 261.425 -158.24 260.793L-157.732 260.493C-156.715 259.891 -155.697 259.292 -154.677 258.695C-152.834 257.615 -150.999 256.526 -149.183 255.402C-147.704 254.489 -146.203 253.615 -144.701 252.741L-144.348 252.535C-143.472 252.024 -142.598 251.509 -141.724 250.995L-141.54 250.886C-140.422 250.228 -139.304 249.57 -138.183 248.917C-136.688 248.045 -135.195 247.173 -133.723 246.262C-132.454 245.476 -131.172 244.713 -129.885 243.956C-128.041 242.87 -126.199 241.781 -124.36 240.687L-123.188 239.99C-121.662 239.082 -120.147 238.16 -118.64 237.223C-117.913 236.786 -117.172 236.386 -116.422 235.988C-115.775 235.623 -115.134 235.246 -114.493 234.87L-113.951 234.552C-112.655 233.79 -111.372 233.009 -110.093 232.216C-109.007 231.545 -107.902 230.911 -106.79 230.282C-105.985 229.817 -105.194 229.332 -104.404 228.842C-102.769 227.829 -101.11 226.86 -99.4453 225.897L-96.8694 224.398L-96.3441 224.091C-95.3342 223.5 -94.3348 222.894 -93.3415 222.275C-92.2219 221.581 -91.0834 220.935 -89.9278 220.304C-88.2255 219.373 -86.5703 218.382 -84.9252 217.354C-80.3376 214.487 -75.6618 211.764 -70.9874 209.042L-70.5198 208.77C-69.0131 207.892 -67.509 207.012 -66.0259 206.094C-64.5315 205.169 -63.0195 204.275 -61.5044 203.385C-60.337 202.698 -59.1724 202.008 -58.0117 201.311L-57.2686 200.866L-55.8395 200.005L-55.1861 199.615L-54.6081 199.267C-54.3856 199.153 -54.2636 199.09 -54.1345 199.05C-53.9777 199.002 -53.8104 198.987 -53.4402 198.954C-53.9831 197.822 -54.5582 196.729 -55.2303 195.667C-56.0374 194.379 -56.7565 193.049 -57.4758 191.71C-57.9935 190.745 -58.2524 190.263 -58.5226 189.786C-58.7928 189.311 -59.0744 188.841 -59.6374 187.902C-61.2314 185.377 -62.5874 182.682 -63.8749 179.991C-64.3258 179.076 -64.805 178.178 -65.285 177.279L-65.3042 177.243C-66.1687 175.622 -66.981 173.982 -67.761 172.319C-67.9214 171.965 -67.9919 171.809 -68.0743 171.66C-68.1389 171.543 -68.2108 171.431 -68.3391 171.229C-70.1709 172.191 -71.9537 173.192 -73.6806 174.333C-74.8859 175.129 -76.0956 175.839 -77.3872 176.489C-78.5626 177.111 -79.689 177.82 -80.8144 178.528L-81.4971 178.957C-83.7996 180.397 -84.4837 180.824 -85.1926 181.206C-85.4922 181.367 -85.7963 181.52 -86.229 181.738C-87.2984 182.281 -88.2879 182.905 -89.2867 183.565C-90.7044 184.501 -92.1518 185.345 -93.6447 186.155C-94.8596 186.817 -96.0397 187.522 -97.2136 188.253C-98.3329 188.949 -99.466 189.619 -100.605 190.282C-102.074 191.136 -103.525 192.013 -104.97 192.907C-105.574 193.275 -106.184 193.627 -106.803 193.97C-107.753 194.5 -108.681 195.06 -109.606 195.633C-111.527 196.822 -113.474 197.965 -115.424 199.106L-120.092 201.838L-121.041 202.387C-122.667 203.328 -124.279 204.286 -125.876 205.275C-127.173 206.077 -128.489 206.845 -129.807 207.612C-130.821 208.203 -131.825 208.807 -132.821 209.429C-133.935 210.121 -135.07 210.759 -136.222 211.385C-137.53 212.096 -138.791 212.852 -140.033 213.674C-141.423 214.594 -142.844 215.42 -144.309 216.214C-145.535 216.882 -146.726 217.594 -147.91 218.332C-148.939 218.972 -149.979 219.587 -151.029 220.193C-153.051 221.361 -155.04 222.582 -157.019 223.823C-157.966 224.413 -158.901 224.981 -159.908 225.463C-160.948 225.969 -161.895 226.588 -162.858 227.223C-164.091 228.036 -165.326 228.765 -166.646 229.429C-167.911 230.098 -169.124 230.865 -170.334 231.63L-171.148 232.143C-173.276 233.475 -175.444 234.734 -177.624 235.981C-179.27 236.923 -180.904 237.876 -182.514 238.88C-183.656 239.591 -184.818 240.266 -185.984 240.939C-187.053 241.558 -188.109 242.197 -189.16 242.848C-190.254 243.526 -191.356 244.178 -192.481 244.804C-195.543 246.535 -198.574 248.336 -201.534 250.235L-201.945 250.495L-203.07 251.215C-203.721 251.558 -204.132 251.666 -204.859 251.663C-206.07 249.836 -207.243 248.03 -208.227 246.067C-208.653 245.278 -209.134 244.536 -209.63 243.789C-210.343 242.714 -211.014 241.634 -211.634 240.502C-211.959 239.923 -212.292 239.352 -212.632 238.782L-212.964 238.223L-213.628 237.113L-213.935 236.596L-214.213 236.132C-214.297 235.962 -214.346 235.862 -214.38 235.757C-214.428 235.604 -214.442 235.441 -214.477 235.042L-213.751 234.621C-212.757 234.048 -212.242 233.751 -211.746 233.457C-211.249 233.164 -210.756 232.865 -209.773 232.27C-208.776 231.65 -207.748 231.051 -206.734 230.46L-206.661 230.418C-205.449 229.711 -204.243 228.998 -203.051 228.259C-201.702 227.423 -200.334 226.622 -198.962 225.824C-197.94 225.228 -196.929 224.619 -195.926 223.993C-194.807 223.299 -193.668 222.653 -192.512 222.022C-191.12 221.261 -189.758 220.464 -188.411 219.624C-187.292 218.928 -186.158 218.258 -185.019 217.596C-183.581 216.759 -182.159 215.902 -180.745 215.026C-179.716 214.399 -178.659 213.787 -177.616 213.183C-176.826 212.726 -176.041 212.264 -175.265 211.782C-174.266 211.16 -173.251 210.569 -172.234 209.976L-172.167 209.937C-170.964 209.236 -169.767 208.528 -168.584 207.795C-166.262 206.358 -163.899 204.986 -161.536 203.618C-159.88 202.659 -158.238 201.682 -156.611 200.675C-155.662 200.089 -154.701 199.532 -153.727 198.989C-151.375 197.66 -149.05 196.28 -146.753 194.858C-144.869 193.691 -142.955 192.578 -141.04 191.464L-140.959 191.417C-138.837 190.181 -136.722 188.939 -134.635 187.646C-133.673 187.055 -132.696 186.488 -131.72 185.921L-131.265 185.656C-130.243 185.06 -129.232 184.451 -128.229 183.825C-127.109 183.131 -125.971 182.485 -124.815 181.854C-123.422 181.093 -122.06 180.296 -120.713 179.456C-119.603 178.765 -118.479 178.102 -117.349 177.445C-115.929 176.619 -114.525 175.774 -113.129 174.91C-111.952 174.182 -110.757 173.486 -109.559 172.795C-108.511 172.189 -107.479 171.561 -106.452 170.921C-105.33 170.222 -104.192 169.57 -103.025 168.948C-101.802 168.297 -100.638 167.588 -99.4826 166.824C-98.0834 165.899 -96.6534 165.067 -95.1792 164.268C-93.9532 163.6 -92.7629 162.888 -91.5784 162.15C-90.5497 161.51 -89.5091 160.895 -88.4598 160.289C-86.4371 159.121 -84.4483 157.9 -82.469 156.659C-81.3136 155.939 -80.1566 155.278 -78.9328 154.681C-78.4233 154.42 -77.9432 154.132 -77.459 153.827C-76.9661 153.524 -76.7957 153.42 -76.6107 153.373C-76.513 153.348 -76.4112 153.339 -76.2556 153.325C-76.7727 151.738 -77.3579 150.19 -77.9835 148.643C-78.8948 146.383 -79.7109 144.094 -80.5185 141.796C-80.7694 141.087 -81.03 140.382 -81.291 139.676C-82.9223 135.18 -84.3704 130.623 -85.7536 126.045C-85.9323 125.458 -86.1147 124.871 -86.2997 124.286C-87.141 121.608 -87.8343 118.895 -88.526 116.175C-88.8402 114.94 -89.1639 113.707 -89.4954 112.477C-90.1851 109.915 -90.8108 107.344 -91.3907 104.756L-91.5706 103.956C-92.3044 100.683 -93.0139 97.4096 -93.5938 94.1054C-93.6925 93.5468 -93.8051 93.0046 -93.9386 92.4524C-94.1921 91.3309 -94.3704 90.1984 -94.549 89.0635L-94.6139 88.6525L-94.8645 87.0834L-94.9751 86.3859C-95.0822 85.7428 -95.1978 85.1028 -95.3171 84.4619C-95.5954 82.9205 -95.8042 81.3707 -96.0113 79.8184L-96.075 79.3441C-97.5345 68.4718 -98.5993 57.6394 -99.1082 46.6789L-99.1332 46.1453C-99.3078 42.3969 -99.4612 38.6592 -99.3637 34.906C-99.3449 34.0205 -99.3585 33.1349 -99.3722 32.2494L-99.3796 31.7488C-99.4297 26.6881 -99.2631 21.6425 -98.9847 16.5899L-98.875 14.5007C-98.7455 11.9764 -98.5743 9.45842 -98.361 6.93985L-98.2886 6.07374C-97.8834 1.2355 -97.7507 -0.348898 -97.5681 -1.92752C-97.4792 -2.69622 -97.3784 -3.46354 -97.2287 -4.6045C-97.1401 -5.2932 -97.0569 -5.98245 -96.9739 -6.67186C-96.4347 -11.1302 -95.8581 -15.5836 -95.0073 -19.9947C-94.7665 -21.2494 -94.5649 -22.5076 -94.3717 -23.7704C-94.0411 -25.9055 -93.6185 -28.014 -93.1643 -30.1258C-93.039 -30.7134 -92.9172 -31.3016 -92.7965 -31.8901C-91.5646 -37.8661 -90.2243 -43.8305 -88.5756 -49.7061L-88.329 -50.6029L-86.3547 -57.6728C-85.8093 -59.6136 -85.1999 -61.5261 -84.5609 -63.4379L-83.4654 -66.7938L-83.1883 -67.6463C-82.7224 -69.0697 -82.2285 -70.4665 -81.6687 -71.8553C-81.5643 -72.188 -81.465 -72.5224 -81.3738 -72.8591C-80.931 -74.3626 -80.3762 -75.8269 -79.8212 -77.2917L-79.5538 -77.9987L-78.8095 -80.0013C-78.0224 -82.1258 -77.2287 -84.2411 -76.3226 -86.318C-75.8705 -87.3552 -75.4533 -88.4031 -75.0444 -89.4581C-74.4716 -90.9309 -73.8311 -92.3551 -73.1577 -93.7851C-72.7322 -94.708 -72.3645 -95.6515 -71.998 -96.5991C-71.5049 -97.8716 -70.9683 -99.0878 -70.3223 -100.289C-69.6063 -101.713 -68.9418 -103.154 -68.3099 -104.617C-67.9104 -105.54 -67.4987 -106.458 -67.0869 -107.376L-66.6368 -107.415L-66.5325 -108.006C-66.3069 -108.798 -66.0127 -109.334 -65.5839 -110.023C-65.2365 -110.617 -64.9665 -111.237 -64.6928 -111.866L-64.6204 -112.032C-64.3421 -112.665 -64.0556 -113.292 -63.7613 -113.918L-63.4786 -114.525L-63.2157 -114.972L-62.7655 -115.011L-62.7183 -115.42C-62.6171 -115.942 -62.4639 -116.29 -62.2047 -116.752L-61.9495 -117.212L-61.6813 -117.686L-61.4206 -118.153L-60.9085 -119.068C-60.5194 -119.751 -60.3249 -120.092 -60.15 -120.443C-59.9754 -120.793 -59.8204 -121.153 -59.5105 -121.873L-59.0604 -121.912L-58.9206 -122.421C-58.7089 -123.076 -58.4706 -123.661 -58.1319 -124.261L-57.6818 -124.301L-57.6575 -124.671C-57.4906 -125.423 -57.1578 -125.999 -56.7534 -126.65L-56.3032 -126.689L-56.2879 -127.051C-56.116 -127.784 -55.7406 -128.375 -55.346 -128.997L-55.2311 -129.178L-54.6359 -130.141L-54.3137 -130.659C-53.7672 -131.539 -53.2276 -132.423 -52.6879 -133.307L-52.5381 -133.553L-52.1788 -134.139C-51.4468 -135.337 -50.7382 -136.542 -50.0692 -137.776L-49.8212 -138.142L-49.3711 -138.182L-49.4302 -138.857C-49.197 -139.144 -48.9615 -139.43 -48.7152 -139.706C-48.1968 -140.328 -47.7712 -141.017 -47.346 -141.705L-47.1053 -142.093L-46.7699 -142.624C-46.2561 -143.44 -45.7522 -144.26 -45.2673 -145.094C-44.8316 -145.825 -44.3443 -146.409 -43.7978 -147.06C-43.1274 -148.027 -42.4642 -149.001 -41.8757 -150.02L-41.5978 -150.428L-41.1477 -150.467L-41.0313 -150.838C-40.7004 -151.576 -40.2447 -152.201 -39.7719 -152.849L-39.6677 -152.992C-39.2681 -153.544 -39.0684 -153.821 -38.8806 -154.105C-38.6928 -154.388 -38.517 -154.68 -38.1655 -155.264L-37.7154 -155.303L-37.5659 -155.721C-37.3455 -156.239 -37.1014 -156.624 -36.7646 -157.073L-36.3895 -157.575L-35.3027 -158.985L-34.9719 -159.412L-34.3132 -160.254C-33.8548 -160.842 -33.4488 -161.403 -33.0902 -162.058L-32.6401 -162.097L-32.2687 -163.037L-31.8186 -163.076L-31.683 -163.471C-31.241 -164.493 -30.5816 -165.387 -29.8239 -166.199L-29.3738 -166.238L-29.2433 -166.638C-28.9529 -167.289 -28.5766 -167.749 -28.119 -168.295L-27.5628 -168.963L-26.9603 -169.678L-26.3435 -170.414L-25.0506 -171.953L-21.5084 -176.177L-20.163 -177.776C-19.9399 -178.007 -19.8402 -178.11 -19.719 -178.162C-19.6219 -178.204 -19.5107 -178.214 -19.3104 -178.232L-19.3498 -178.682C-19.0067 -179.02 -18.6566 -179.352 -18.3032 -179.68C-17.7988 -180.267 -17.3101 -180.862 -16.8296 -181.468C-16.6246 -181.695 -16.5318 -181.798 -16.416 -181.851C-16.3202 -181.895 -16.2086 -181.905 -16.0047 -181.923L-15.8387 -182.617L-15.3886 -182.657L-15.2226 -183.352C-14.8707 -183.727 -14.5031 -184.088 -14.1272 -184.44C-13.4965 -185.032 -12.9135 -185.607 -12.3636 -186.275C-12.0841 -186.6 -11.9721 -186.731 -11.8304 -186.791C-11.7356 -186.832 -11.6275 -186.841 -11.4471 -186.857L-11.4865 -187.307C-10.8528 -187.982 -10.6521 -188.196 -10.407 -188.28C-10.2933 -188.319 -10.1701 -188.329 -9.98983 -188.345L-9.82381 -189.04L-9.37368 -189.08L-9.41306 -189.53C-9.22111 -189.739 -9.11281 -189.858 -9.0028 -189.97C-8.86701 -190.109 -8.72548 -190.242 -8.40988 -190.539L-7.84317 -191.078C-7.58643 -191.298 -7.45529 -191.411 -7.3111 -191.502C-7.16174 -191.596 -6.99787 -191.667 -6.66441 -191.811L-6.70379 -192.261C-6.25108 -192.729 -6.08304 -192.902 -5.87863 -192.979C-5.75795 -193.024 -5.62461 -193.036 -5.4125 -193.055L-5.24648 -193.75C-5.02378 -193.963 -4.90291 -194.078 -4.7782 -194.19C-4.63015 -194.322 -4.47677 -194.449 -4.14119 -194.725C-3.2932 -195.426 -2.60505 -196.147 -1.90146 -196.99C-1.44786 -197.448 -0.976518 -197.884 -0.500924 -198.318L-0.131937 -198.662C0.492335 -199.235 0.685501 -199.413 0.911785 -199.482C1.01319 -199.513 1.1212 -199.523 1.27765 -199.536L1.44367 -200.231C1.91001 -200.691 2.37915 -201.12 2.87353 -201.547L3.78747 -202.35L4.28363 -202.784C4.84418 -203.279 5.3985 -203.78 5.95181 -204.283L6.52693 -204.804L7.64961 -205.826L8.1686 -206.295L8.63054 -206.714C8.82942 -206.871 8.92525 -206.947 9.03407 -206.989C9.13522 -207.028 9.24758 -207.037 9.46447 -207.056L9.42509 -207.507L10.1003 -207.566L10.0609 -208.016C10.4163 -208.347 10.7897 -208.659 11.1687 -208.963L11.9338 -209.585L12.3594 -209.929C12.9783 -210.435 13.589 -210.95 14.2 -211.466L14.2781 -211.531C17.8949 -214.581 21.5462 -217.582 25.3128 -220.445C25.9382 -220.921 26.2509 -221.159 26.5577 -221.404C26.8645 -221.649 27.1653 -221.902 27.767 -222.407C28.4381 -222.992 29.157 -223.479 29.899 -223.97C31.2632 -224.884 32.5765 -225.874 33.888 -226.863L34.589 -227.391C35.2922 -227.903 36.0073 -228.39 36.7291 -228.874C37.5956 -229.461 38.4493 -230.066 39.3029 -230.671L39.7384 -230.979C41.8094 -232.439 43.9296 -233.819 46.0684 -235.177C47.4825 -236.077 48.8938 -236.98 50.2951 -237.9C54.3613 -240.559 58.5577 -243.04 62.8204 -245.369C63.8287 -245.922 64.8093 -246.506 65.7828 -247.118C66.4405 -247.513 67.1231 -247.849 67.8104 -248.187L67.8806 -248.222C68.4398 -248.505 68.9822 -248.809 69.5258 -249.122C72.3403 -250.726 75.2564 -252.154 78.1822 -253.542L79.5309 -254.183C80.3965 -254.596 81.2488 -255.027 82.0949 -255.48C83.5567 -256.254 85.0606 -256.928 86.5699 -257.602L90.3102 -259.285C91.5703 -259.851 92.8349 -260.405 94.103 -260.953C94.7442 -261.231 95.3839 -261.511 96.0233 -261.793C98.3018 -262.794 100.582 -263.755 102.92 -264.608C104.215 -265.081 105.499 -265.585 106.782 -266.089L107.337 -266.307C110.24 -267.442 113.175 -268.472 116.124 -269.48L117.769 -270.045C121.803 -271.43 125.847 -272.737 129.942 -273.932L131.632 -274.434C132.842 -274.795 134.05 -275.129 135.277 -275.425C136.47 -275.714 137.651 -276.036 138.831 -276.376C141.904 -277.258 144.993 -277.969 148.119 -278.629C149.325 -278.886 150.515 -279.18 151.707 -279.494C152.746 -279.759 153.794 -279.974 154.844 -280.186L155.587 -280.336L159.094 -281.035C169.804 -283.172 180.545 -284.506 191.42 -285.43ZM223.33 -124.008C224.002 -123.96 224.674 -123.944 225.347 -123.927L225.595 -123.921C227.624 -123.854 229.633 -123.635 231.65 -123.414C232.242 -123.353 232.835 -123.301 233.428 -123.251C234.995 -123.107 236.549 -122.881 238.107 -122.655L238.601 -122.584C240.773 -122.27 242.939 -121.94 245.096 -121.53L246.157 -121.338C251.6 -120.336 256.949 -118.968 262.243 -117.361L262.973 -117.14C269.538 -115.132 275.91 -112.594 282.181 -109.807C282.269 -108.802 282.08 -108.573 281.491 -107.857L281.431 -107.784L281.052 -107.339L280.656 -106.861C280.215 -106.33 279.771 -105.803 279.327 -105.275L278.379 -104.138C277.52 -103.107 276.657 -102.079 275.794 -101.052L273.639 -98.4787C271.849 -96.3395 270.055 -94.2028 268.261 -92.0673C266.701 -90.2114 265.146 -88.3521 263.592 -86.4913C261.998 -84.5817 260.401 -82.6744 258.801 -80.7694C257.903 -79.6995 257.005 -78.6286 256.11 -77.5555C255.269 -76.5468 254.425 -75.5412 253.577 -74.5378L252.648 -73.426C252.228 -72.9203 251.804 -72.4185 251.378 -71.9175L251.007 -71.4648C250.66 -71.062 250.66 -71.0618 250.016 -70.48C249.677 -70.4613 249.521 -70.4527 249.368 -70.4737C249.237 -70.4918 249.109 -70.5319 248.871 -70.6065L248.423 -70.7373L247.979 -70.9015C242.258 -72.9378 236.247 -74.2107 230.259 -75.1699C229.857 -75.2373 229.457 -75.3108 229.057 -75.3914C227.23 -75.7583 225.402 -75.8937 223.545 -76.0167L221.931 -76.1305C220.766 -76.2126 219.6 -76.2764 218.433 -76.3348L217.759 -76.3707C213.46 -76.5848 209.266 -76.3124 204.99 -75.9122C204.325 -75.851 203.66 -75.7939 202.995 -75.7369L202.964 -75.7342C197.931 -75.3003 192.957 -74.7182 188.078 -73.353L187.252 -73.1279L185.666 -72.6911C185.103 -72.5355 184.541 -72.3839 183.976 -72.2359C177.654 -70.5456 171.479 -68.181 165.695 -65.1188C165.08 -64.796 164.458 -64.4879 163.835 -64.1796L163.576 -64.0514C160.009 -62.2391 156.671 -60.2004 153.367 -57.9421L152.771 -57.5385C150.329 -55.8831 147.959 -54.1776 145.698 -52.2818L145.334 -51.9795C141.649 -48.9051 138.162 -45.631 134.912 -42.1001C134.624 -41.7916 134.336 -41.4846 134.04 -41.184C132.882 -40.0016 131.811 -38.7525 130.75 -37.4829L129.86 -36.4229C128.786 -35.1442 127.759 -33.8459 126.792 -32.4847L126.207 -31.6894C124.798 -29.7602 123.509 -27.7765 122.27 -25.7346C121.99 -25.2749 121.707 -24.8176 121.422 -24.3608C120.063 -22.1683 118.842 -19.9171 117.66 -17.6249L117.135 -16.616L116.629 -15.6354L116.403 -15.1998C113.793 -10.0905 111.822 -4.555 110.213 0.94285L110.041 1.53033C108.225 7.79605 106.783 14.379 106.379 20.903C106.331 21.5778 106.268 22.2507 106.205 22.9242L106.198 22.9984C105.066 35.4455 106.593 48.1142 109.725 60.1771L109.922 60.9386C110.095 61.6047 110.271 62.2699 110.449 62.9345L110.598 63.4977C110.897 64.5805 111.266 65.6119 111.692 66.6511C111.953 67.2968 112.198 67.9473 112.441 68.6C113.771 72.1506 115.223 75.622 116.82 79.0602L117.036 79.5272C118.412 82.5005 120.142 85.2938 121.876 88.0691L122.536 89.1309C126.019 94.7477 130.027 99.8616 134.488 104.729L134.84 105.115C139.059 109.712 143.689 114.24 148.8 117.84C149.492 118.334 150.163 118.858 150.833 119.381C150.961 119.48 151.089 119.58 151.216 119.679C151.975 120.234 152.753 120.743 153.544 121.249C154.079 121.591 154.61 121.939 155.14 122.289C157.215 123.653 159.302 124.945 161.504 126.096C162.054 126.385 162.6 126.68 163.148 126.974L163.193 126.999C168.322 129.738 173.706 132.08 179.225 133.926L179.702 134.086C182.14 134.901 184.583 135.634 187.081 136.24L187.765 136.41L188.736 136.658C191.579 137.374 194.429 137.883 197.328 138.309C198.019 138.413 198.708 138.524 199.397 138.636C213.453 140.877 228.28 139.56 241.992 135.919L243.005 135.661C244.713 135.216 246.357 134.644 248.002 134.009C248.938 133.649 249.874 133.318 250.831 133.021C255.982 131.415 260.898 128.9 265.65 126.365L266.158 126.095C269.123 124.507 271.914 122.708 274.689 120.812L275.51 120.259C281.591 116.118 287.294 111.24 292.244 105.794C292.548 105.464 292.853 105.135 293.168 104.815C294.459 103.503 295.636 102.099 296.815 100.688L297.885 99.4153C299.056 98.0205 300.197 96.6204 301.244 95.1291L301.777 94.3959C305.449 89.2631 308.55 83.8078 311.324 78.1452L311.628 77.5351C312.202 76.3733 312.727 75.2108 313.187 73.9993C313.647 72.8074 314.127 71.6282 314.636 70.4563C315.267 69.0006 315.82 67.5906 316.19 66.0427C316.344 65.4358 316.543 64.8627 316.759 64.2751C317.42 62.443 317.952 60.5743 318.468 58.6969L318.597 58.2267C319.279 55.7044 319.731 53.1385 320.18 50.567L320.269 50.0652C320.626 48.0229 320.918 45.988 321.121 43.9244C321.165 43.5494 321.185 43.3866 321.227 43.2307C321.259 43.1117 321.305 42.9964 321.385 42.7933C321.417 42.305 321.438 41.8161 321.455 41.3272C321.499 40.1829 321.563 39.0454 321.657 37.9043C321.859 35.3767 321.854 32.8738 321.798 30.3405L321.777 29.1437L321.639 22.3602C317.435 24.8038 313.295 27.3511 309.154 29.8992L275.188 50.7822C274.144 51.4237 273.09 52.0437 272.029 52.6535C270.54 53.5165 269.087 54.4215 267.647 55.3631C265.239 56.9377 262.773 58.407 260.284 59.8507C259.081 60.5536 257.911 61.2957 256.75 62.0669C255.612 62.8178 254.438 63.4979 253.255 64.1755C252.24 64.7603 251.254 65.3758 250.278 66.0234C249.003 66.8702 247.696 67.6457 246.368 68.4066C245.353 68.9914 244.367 69.607 243.392 70.2545C242.266 71.0018 241.12 71.6986 239.948 72.3701C238.785 73.0365 237.648 73.7272 236.531 74.4691C235.331 75.2658 234.106 76.0092 232.86 76.7322C230.562 78.0655 228.289 79.432 226.066 80.8879C224.283 82.056 222.467 83.1569 220.625 84.2305C219.47 84.9042 218.325 85.5909 217.187 86.2917L216.734 86.57C215.125 87.5604 213.518 88.5544 211.911 89.5486C207.921 92.0167 203.929 94.4804 199.935 96.9422C197.631 98.3627 195.328 99.7845 193.026 101.209C191.01 102.458 188.992 103.704 186.972 104.947C185.905 105.603 184.839 106.261 183.775 106.922C182.777 107.542 181.776 108.158 180.775 108.772L179.675 109.453C179.176 109.764 178.675 110.071 178.173 110.377L177.735 110.654C176.825 111.201 176.235 111.348 175.191 111.147C174.931 111.063 174.801 111.021 174.675 110.973C174.55 110.925 174.427 110.871 174.184 110.763L173.622 110.515L173.028 110.244L172.402 109.963C165.717 106.918 159.435 103.117 153.623 98.629C153.276 98.3643 152.928 98.1007 152.571 97.8484C151.063 96.7774 149.654 95.5903 148.241 94.3998L148.043 94.2331L146.662 93.0762C145.209 91.8575 143.778 90.6347 142.436 89.2925L141.729 88.6102C135.102 82.1679 134.352 81.4389 134.201 80.6021C134.182 80.4953 134.172 80.3868 134.162 80.2645L195.118 42.8127C196.129 42.1906 197.152 41.591 198.182 40.9996C199.67 40.1366 201.123 39.2316 202.563 38.29C204.971 36.7155 207.437 35.2461 209.926 33.8024C211.13 33.0995 212.299 32.3574 213.46 31.5863C214.599 30.8353 215.772 30.1553 216.956 29.4776C217.97 28.8928 218.956 28.2773 219.932 27.6297C221.207 26.7829 222.514 26.0074 223.843 25.2465C224.857 24.6617 225.843 24.0461 226.819 23.3986C227.936 22.6572 229.072 21.9655 230.235 21.2996C231.49 20.5814 232.713 19.8292 233.921 19.0353C235.278 18.1434 236.66 17.3128 238.069 16.5063C239.213 15.8474 240.317 15.1407 241.417 14.4106C242.563 13.6556 243.744 12.9705 244.934 12.2886C245.949 11.7038 246.935 11.0883 247.91 10.4408C249.186 9.59389 250.493 8.81837 251.821 8.05748C252.836 7.47269 253.822 6.85715 254.797 6.2096C256.073 5.36277 257.38 4.58722 258.708 3.82636C259.723 3.24154 260.709 2.626 261.684 1.97846C262.81 1.23117 263.955 0.534422 265.128 -0.137121C266.273 -0.793223 267.392 -1.47175 268.491 -2.20312C269.852 -3.10819 271.25 -3.94031 272.661 -4.76493C274.045 -5.57402 275.414 -6.39054 276.75 -7.27718C278.272 -8.28674 279.839 -9.21315 281.417 -10.1332C282.552 -10.796 283.679 -11.4707 284.798 -12.1603L342.087 -47.3613C343.321 -48.1205 344.572 -48.8486 345.829 -49.5705C346.605 -50.0204 347.359 -50.4785 348.09 -50.9989C348.503 -51.2828 348.656 -51.3879 348.825 -51.4366C348.925 -51.4652 349.029 -51.4744 349.196 -51.489L351.477 -47.8057C352.833 -45.6211 354.107 -43.407 355.318 -41.1387L355.65 -40.5233C356.626 -38.7194 357.589 -36.924 358.351 -35.0169C358.578 -34.5105 358.822 -34.0545 359.098 -33.5753C359.872 -32.1947 360.499 -30.7431 361.125 -29.2917L361.31 -28.8636L361.535 -28.3449C363.814 -23.0701 365.739 -17.6919 367.27 -12.1522C367.584 -11.023 367.916 -9.89888 368.255 -8.77676C369.404 -4.96399 370.317 -1.12423 371.077 2.78207C371.195 3.39044 371.318 3.99721 371.444 4.60412C372.528 9.85979 373.004 15.1658 373.467 20.5047L373.516 21.0607C373.609 22.1304 373.7 23.2002 373.789 24.2703L373.872 25.2622C374.006 26.8579 374.118 28.4234 374.017 30.0242C374.023 30.3361 374.033 30.648 374.051 30.9594L374.104 31.9869C374.273 35.9021 374.319 39.8921 373.801 43.7823C373.687 44.68 373.621 45.5758 373.557 46.4782C372.94 54.7381 371.467 62.8509 369.607 70.9135L369.265 72.4126C368.781 74.5063 368.197 76.5633 367.581 78.621L367.141 80.1098C366.7 81.6065 366.224 83.0637 365.63 84.5067C365.567 84.6945 365.504 84.8822 365.442 85.0701C365.374 85.2757 365.307 85.4815 365.241 85.6876C363.56 90.8334 361.419 95.8341 359.111 100.725L358.686 101.64C357.639 103.879 356.517 106.064 355.321 108.226L354.503 109.717C352.358 113.625 350.077 117.428 347.547 121.101C347.128 121.713 346.721 122.331 346.314 122.95C345.631 123.982 344.896 124.965 344.144 125.948C343.679 126.573 343.248 127.213 342.818 127.863C342.044 129.013 341.192 130.063 340.292 131.114C339.746 131.753 339.222 132.394 338.739 133.082C337.243 135.181 335.524 137.198 333.707 139.024C333.171 139.581 332.659 140.156 332.145 140.734C330.943 142.085 329.726 143.397 328.415 144.645C327.912 145.129 327.424 145.624 326.939 146.125C325.187 147.927 323.314 149.589 321.43 151.252C321.14 151.509 320.851 151.767 320.562 152.025C320.421 152.151 320.281 152.278 320.141 152.404C316.692 155.496 313.027 158.375 309.284 161.101L308.742 161.497C299.28 168.379 289.002 174.241 278.219 178.78C277.555 179.06 276.893 179.344 276.231 179.628C273.625 180.742 270.991 181.711 268.302 182.603L266.829 183.1L266.275 183.285C265.749 183.481 265.251 183.701 264.74 183.933C263.689 184.394 262.634 184.655 261.515 184.898C260.316 185.159 259.165 185.456 258.011 185.876C256.419 186.441 254.787 186.781 253.138 187.124L253.065 187.139L251.676 187.434L250.428 187.697C249.996 187.794 249.565 187.901 249.139 188.027C248.559 188.195 247.988 188.298 247.391 188.393L246.672 188.51L245.924 188.629L243.678 188.99C243.056 189.098 242.441 189.214 241.823 189.342C238.39 190.042 234.931 190.363 231.446 190.662C230.766 190.72 230.087 190.781 229.407 190.845C224.737 191.282 220.121 191.464 215.43 191.392C214.529 191.378 213.628 191.373 212.727 191.369C212.234 191.365 211.741 191.358 211.248 191.348C210.866 191.341 210.483 191.332 210.1 191.324L209.538 191.313C204.069 191.199 198.611 190.534 193.197 189.783L192.461 189.681C191.331 189.518 190.972 189.466 190.623 189.378C190.46 189.337 190.299 189.289 190.064 189.218C189.532 189.057 189.045 188.968 188.495 188.905C183.148 188.248 177.797 186.854 172.665 185.242C171.758 184.958 170.848 184.712 169.927 184.477C167.888 183.956 165.912 183.33 163.965 182.534C163.225 182.25 162.478 181.997 161.726 181.745C160.2 181.235 158.741 180.71 157.31 179.967C156.514 179.581 155.697 179.266 154.872 178.948L154.842 178.936C153.479 178.409 152.151 177.838 150.837 177.194C150.191 176.888 149.541 176.603 148.884 176.321C147.488 175.713 146.13 175.041 144.774 174.346L144.025 173.963C139.064 171.407 134.234 168.588 129.598 165.482L129.117 165.163C127.335 163.975 125.575 162.774 123.878 161.465C123.297 161.032 122.701 160.638 122.094 160.242C120.647 159.271 119.335 158.151 118.014 157.017C117.195 156.316 116.375 155.642 115.497 155.017C114.458 154.272 113.566 153.408 112.677 152.492C112.584 152.399 112.513 152.327 112.45 152.266C112.401 152.219 112.356 152.178 112.31 152.138C112.162 152.011 111.999 151.901 111.604 151.635C110.472 151.77 109.573 152.339 108.637 152.932L108.381 153.094L107.832 153.434L106.101 154.512L102.726 156.607C100.561 157.954 98.3954 159.297 96.184 160.567C94.3724 161.617 92.6161 162.741 90.8648 163.887C90.3125 164.247 89.7561 164.6 89.1968 164.949L88.7071 165.255C88.5163 165.359 88.4197 165.411 88.3166 165.443C88.2109 165.475 88.0984 165.485 87.8705 165.504L77.7801 149.08L76.7892 147.474C75.8287 145.922 74.8913 144.359 73.9759 142.78C73.1744 141.398 72.3385 140.05 71.4547 138.72C70.7036 137.581 70.0234 136.407 69.3455 135.223C68.6884 134.083 67.9854 132.983 67.2574 131.888C66.424 130.623 65.6635 129.318 64.9117 128.003C64.3176 126.97 63.6838 125.983 62.9964 125.009C62.8703 124.808 62.808 124.708 62.7724 124.601C62.7379 124.496 62.728 124.384 62.7087 124.163C64.7542 122.812 66.82 121.515 68.9407 120.285C71.4231 118.845 73.8489 117.327 76.2517 115.758C77.4483 114.981 78.6694 114.26 79.9263 113.585C79.7241 112.81 79.4615 112.168 79.0605 111.476L78.7305 110.901L78.3765 110.29C76.442 106.902 74.6347 103.498 73.0722 99.9217L72.2264 98.0019C70.1785 93.3671 68.2112 88.7138 66.7303 83.8611C66.4214 82.8501 66.0667 81.8757 65.659 80.901C65.0938 79.4555 64.7094 77.9297 64.3282 76.4161C64.263 76.1573 64.1979 75.8988 64.1321 75.6412C64.0886 75.4712 64.0448 75.3016 64.0003 75.1325C63.7063 74.0149 63.4088 72.8988 63.0979 71.7857C62.2768 68.8242 61.6766 65.8699 61.1986 62.8352L61.0683 62.0135C60.8878 60.8724 60.7075 59.7312 60.5316 58.5893L60.4103 57.8041L60.3047 57.115C60.2037 56.5059 60.0893 55.9038 59.9685 55.2985C59.7346 54.0706 59.6035 52.8426 59.4891 51.5984L59.4209 50.8741L59.2107 48.5372L59.1387 47.7257C58.4977 40.378 58.3077 33.0108 58.6248 25.6404L58.6515 24.9729C58.7398 22.8295 58.8687 20.7187 59.2029 18.5974C59.3172 17.7894 59.3799 16.9853 59.4406 16.1715C60.0336 8.8452 61.4437 1.46715 63.3741 -5.61832L63.5555 -6.29583C64.4486 -9.62676 65.4448 -12.9184 66.5113 -16.1977C66.6779 -16.7115 66.8419 -17.2261 67.0042 -17.7413C67.6641 -19.8085 68.4474 -21.8151 69.2654 -23.8232L69.5512 -24.5303C71.9467 -30.4509 74.556 -36.2169 77.6717 -41.7945L77.9526 -42.3001C81.5021 -48.686 85.3836 -54.8651 89.8126 -60.6826C90.1143 -61.0791 90.4136 -61.4775 90.7109 -61.8774C91.6193 -63.0987 92.5597 -64.2777 93.5547 -65.4297C93.7419 -65.6476 93.8448 -65.7673 93.9336 -65.8968C94.0421 -66.0549 94.1296 -66.2274 94.324 -66.6106L94.7741 -66.65L94.8912 -67.0438C95.2061 -67.7196 95.6369 -68.1704 96.1417 -68.6984L96.2439 -68.8055C97.1944 -69.8146 98.0966 -70.8505 98.9762 -71.9219C99.9315 -73.0784 100.935 -74.1375 102.027 -75.1689C102.646 -75.7722 103.224 -76.406 103.8 -77.0498C105.001 -78.3807 106.285 -79.5995 107.606 -80.81C108.045 -81.2154 108.481 -81.6248 108.916 -82.0349C112.203 -85.1252 115.649 -88.0004 119.197 -90.7851L119.669 -91.1556C126.671 -96.6268 134.499 -102.246 142.606 -105.964C143.204 -106.251 143.773 -106.564 144.346 -106.897C145.605 -107.614 146.893 -108.252 148.202 -108.872L148.899 -109.203C150.266 -109.849 151.634 -110.461 153.044 -111.01C153.764 -111.295 154.47 -111.606 155.179 -111.92C159.564 -113.836 164.069 -115.414 168.621 -116.881L169.307 -117.102C173.166 -118.335 177.087 -119.308 181.028 -120.234L181.736 -120.401C183.037 -120.702 184.341 -120.979 185.651 -121.238C186.142 -121.336 186.631 -121.437 187.121 -121.542C198.722 -123.984 211.516 -124.983 223.33 -124.008ZM27.6773 91.8451L27.8883 92.2063L27.9054 92.2357C28.7551 93.6895 29.1827 94.4212 29.6166 95.1493C30.0534 95.8821 30.4965 96.6113 31.3828 98.0695C33.4456 101.403 35.4333 104.781 37.2762 108.241L36.5947 108.634C35.0404 109.533 33.4925 110.439 31.9665 111.385C30.4011 112.354 28.8181 113.292 27.2313 114.226C25.5195 115.234 23.8117 116.248 22.1055 117.265C19.9395 118.556 17.7717 119.844 15.6014 121.127C14.4057 121.835 13.2116 122.545 12.0195 123.258C9.32831 124.868 6.62805 126.456 3.89649 127.997C2.55682 128.755 1.23712 129.537 -0.068844 130.351C-1.15661 131.028 -2.25899 131.677 -3.36662 132.321C-4.61551 133.048 -5.85611 133.785 -7.08407 134.546C-8.64054 135.51 -10.2148 136.442 -11.7925 137.371C-13.5043 138.378 -15.212 139.393 -16.9182 140.41C-19.0841 141.701 -21.252 142.988 -23.4219 144.272C-25.1543 145.298 -26.8842 146.327 -28.6137 147.358C-30.669 148.583 -32.727 149.803 -34.7881 151.018C-36.5861 152.078 -38.3796 153.146 -40.1728 154.215C-41.9866 155.296 -43.8016 156.374 -45.6187 157.449C-47.4275 158.52 -49.2344 159.593 -51.0401 160.669L-55.276 163.192C-58.0603 164.851 -60.8547 166.489 -63.6792 168.079C-64.8622 168.75 -65.991 169.439 -67.0776 170.258C-67.2849 170.365 -67.3899 170.42 -67.5016 170.448C-67.6165 170.477 -67.7384 170.478 -67.9855 170.481C-68.1473 170.424 -68.2486 170.389 -68.3338 170.33C-68.4763 170.232 -68.574 170.069 -68.835 169.633C-68.985 169.306 -69.1309 168.977 -69.2738 168.647L-69.5218 168.097L-70.0675 166.87C-70.3871 166.147 -70.7132 165.427 -71.0403 164.708C-74.1167 157.912 -74.8294 156.338 -75.3487 154.702C-75.5053 154.209 -75.6443 153.711 -75.8251 153.062C-73.9364 151.888 -72.0362 150.737 -70.1169 149.614C-68.7883 148.836 -67.4656 148.052 -66.1573 147.241C-64.3376 146.114 -62.4932 145.029 -60.6483 143.944L-60.1079 143.626L-56.1626 141.293C-54.5508 140.338 -52.9406 139.38 -51.331 138.421L-47.1032 135.903C-44.505 134.355 -41.8969 132.826 -39.2722 131.324C-37.5433 130.334 -35.8236 129.336 -34.1332 128.281C-33.0508 127.607 -31.9531 126.962 -30.851 126.321C-29.6842 125.641 -28.5234 124.956 -27.3757 124.245C-25.8978 123.33 -24.402 122.448 -22.9043 121.566C-21.1854 120.553 -19.4704 119.534 -17.7567 118.513C-15.8091 117.352 -13.8603 116.194 -11.909 115.039C-10.1002 113.969 -8.29328 112.895 -6.48765 111.819L-2.25174 109.297C0.508534 107.651 3.28243 106.034 6.0754 104.445C7.4864 103.64 8.88151 102.816 10.2599 101.957C11.3405 101.284 12.4358 100.639 13.5361 99.9994C14.785 99.2728 16.0256 98.5361 17.2536 97.7748C19.2852 96.5164 21.345 95.306 23.4064 94.0971L24.5194 93.4429L26.6493 92.1946C26.9894 92.0121 27.1294 91.937 27.2788 91.8981C27.3831 91.8708 27.4921 91.8613 27.6773 91.8451ZM93.6768 172.25C93.8399 172.473 93.931 172.597 94.0162 172.725C94.1241 172.887 94.2227 173.055 94.4459 173.437L94.8981 174.203L95.3803 175.035L95.8801 175.887C97.1054 177.976 98.3071 180.078 99.5027 182.185C100.341 183.658 101.202 185.114 102.112 186.545C102.504 187.167 102.807 187.743 103.031 188.441L102.349 188.834L101.412 189.377L100.969 189.631C99.7323 190.348 98.5145 191.095 97.2976 191.845C95.6158 192.88 93.9238 193.899 92.2294 194.914L91.7341 195.211C89.5639 196.511 87.3826 197.785 85.1726 199.017C83.9108 199.722 82.6744 200.458 81.4479 201.223C80.353 201.904 79.2436 202.558 78.1286 203.206C76.8798 203.933 75.6391 204.67 74.4111 205.431C72.8547 206.395 71.2804 207.327 69.7027 208.256C67.9909 209.263 66.2833 210.278 64.577 211.295C61.514 213.12 58.4465 214.938 55.378 216.754C52.6226 218.384 49.8694 220.019 47.1189 221.657C45.0946 222.863 43.0682 224.066 41.0404 225.266C39.3174 226.286 37.5967 227.31 35.8766 228.335C33.7193 229.62 31.56 230.902 29.3988 232.181C27.8092 233.122 26.2214 234.066 24.6344 235.012L20.3985 237.534C17.6382 239.18 14.8643 240.797 12.0714 242.386C10.6604 243.191 9.26519 244.015 7.88676 244.875C6.80627 245.547 5.71093 246.192 4.61064 246.832C3.36179 247.558 2.12119 248.295 0.893165 249.056C-2.26671 251.013 -5.48434 252.878 -8.70043 254.741L-9.51085 255.211C-11.2925 253.488 -12.9908 251.705 -14.6532 249.867C-15.3657 249.08 -16.0884 248.303 -16.8144 247.528C-18.1863 246.063 -19.5333 244.579 -20.85 243.064L-21.2758 242.576L-21.6667 242.122L-22.011 241.724C-22.1198 241.582 -22.186 241.495 -22.2434 241.403C-22.3324 241.26 -22.4001 241.104 -22.5729 240.705C-20.7352 239.465 -18.8723 238.321 -16.9241 237.263C-15.702 236.596 -14.5141 235.887 -13.3329 235.151C-12.2136 234.455 -11.0803 233.785 -9.94088 233.123C-8.77404 232.444 -7.61325 231.758 -6.46554 231.047C-4.98751 230.132 -3.49173 229.249 -1.99366 228.368C-0.804573 227.668 0.38257 226.965 1.56677 226.257C4.36135 224.585 7.1659 222.938 9.99704 221.328C11.3939 220.533 12.7743 219.717 14.1384 218.867C15.2188 218.194 16.3142 217.549 17.4144 216.909C18.6632 216.183 19.9038 215.446 21.1318 214.685C22.9728 213.545 24.8386 212.447 26.7049 211.35L27.2082 211.054L31.1534 208.721C33.0314 207.608 34.9071 206.491 36.7824 205.374C38.8068 204.168 40.8332 202.965 42.861 201.765C44.584 200.745 46.3047 199.721 48.0248 198.696C50.641 197.138 53.2601 195.584 55.8808 194.033L63.2939 189.642C65.2434 188.487 67.1931 187.332 69.1451 186.18C71.3606 184.874 73.5721 183.561 75.7817 182.244C77.8121 181.034 79.8447 179.827 81.879 178.624C83.1038 177.899 84.3274 177.172 85.5496 176.443L87.979 174.993L89.446 174.121C89.9517 173.822 90.4557 173.521 90.9588 173.218L91.7198 172.767L92.404 172.358C92.6784 172.228 92.8226 172.16 92.9727 172.142C93.1386 172.122 93.3119 172.163 93.6768 172.25ZM29.2498 152.104L28.2759 150.531C28.0515 150.55 27.939 150.56 27.8338 150.594C27.728 150.627 27.6297 150.684 27.4324 150.798C27.1156 151.002 26.7951 151.2 26.4716 151.393L25.2905 152.092C23.131 153.369 20.9736 154.649 18.8185 155.933C16.8291 157.119 14.8384 158.302 12.8434 159.478C10.9717 160.582 9.104 161.691 7.23779 162.804C5.52225 163.826 3.80543 164.847 2.08424 165.86C0.506771 166.788 -1.06714 167.72 -2.62325 168.684C-3.85127 169.445 -5.09193 170.182 -6.34076 170.909C-7.43363 171.544 -8.52194 172.184 -9.59513 172.853C-11.1661 173.832 -12.761 174.765 -14.3674 175.686C-18.3838 177.986 -22.364 180.345 -26.34 182.714C-27.9355 183.664 -29.5317 184.614 -31.1299 185.56C-33.2907 186.839 -35.4497 188.121 -37.6067 189.406C-39.1384 190.319 -40.6704 191.231 -42.2055 192.138C-44.4005 193.435 -46.5927 194.734 -48.7603 196.076C-49.5149 196.544 -50.2713 197.009 -51.0281 197.474L-53.0097 198.691L-52.628 199.354C-51.1026 202.005 -49.5738 204.661 -47.8174 207.167C-47.2796 207.926 -46.7534 208.688 -46.2453 209.468L-44.7649 211.761L-44.2779 212.527L-43.8159 213.242C-43.5862 213.601 -43.484 213.761 -43.3732 213.915C-43.2843 214.038 -43.1899 214.157 -43.0198 214.373C-42.6884 214.452 -42.4988 214.497 -42.3154 214.479C-42.07 214.455 -41.8359 214.317 -41.2885 213.996L-40.8776 213.746C-39.7172 213.057 -38.5673 212.351 -37.4188 211.643C-36.1547 210.86 -34.8791 210.1 -33.5937 209.352C-32.4934 208.713 -31.3981 208.068 -30.3176 207.395C-28.9392 206.536 -27.544 205.712 -26.133 204.907C-23.3407 203.318 -20.5674 201.701 -17.8078 200.056L-13.5438 197.516C-11.9704 196.578 -10.3952 195.644 -8.81671 194.714C-7.23899 193.786 -5.6647 192.854 -4.10826 191.89C-2.88027 191.128 -1.63965 190.392 -0.390785 189.665C0.709495 189.025 1.80484 188.381 2.88534 187.708C4.26376 186.848 5.65893 186.024 7.06993 185.219C9.86222 183.631 12.6355 182.014 15.3951 180.369L19.6591 177.829C21.2326 176.891 22.8078 175.956 24.3863 175.027C25.9731 174.093 27.5561 173.155 29.1216 172.186C30.2692 171.474 31.4277 170.785 32.5969 170.11C34.3771 169.082 36.1286 168.011 37.8747 166.927C36.4615 164.295 34.9541 161.725 33.4158 159.165L33.3643 159.079C32.5665 157.753 31.7694 156.427 31.0124 155.077C30.5332 154.22 30.037 153.377 29.5215 152.541L29.2498 152.104Z" fill="#0A141E"/>
</svg>
