<svg width="25" height="24" viewBox="0 0 25 24" fill="none" xmlns="http://www.w3.org/2000/svg">
<path d="M17.4949 4H7.49488C3.66488 4 2.59488 4.92 2.50488 8.5C4.43488 8.5 5.99488 10.07 5.99488 12C5.99488 13.93 4.43488 15.49 2.50488 15.5C2.59488 19.08 3.66488 20 7.49488 20H17.4949C21.4949 20 22.4949 19 22.4949 15V9C22.4949 5 21.4949 4 17.4949 4Z" stroke="#999999" stroke-width="1.5" stroke-linecap="round" stroke-linejoin="round"/>
<path d="M9.49316 4V7.5" stroke="#999999" stroke-width="1.5" stroke-linecap="round" stroke-linejoin="round"/>
<path d="M9.49316 16.5V20" stroke="#999999" stroke-width="1.5" stroke-linecap="round" stroke-linejoin="round"/>
<path d="M15.525 9.32991L16.145 10.5799C16.205 10.6999 16.325 10.7899 16.455 10.8099L17.835 11.0099C18.175 11.0599 18.315 11.4799 18.065 11.7199L17.065 12.6899C16.965 12.7799 16.925 12.9199 16.945 13.0599L17.185 14.4299C17.245 14.7699 16.885 15.0299 16.585 14.8699L15.355 14.2199C15.235 14.1599 15.085 14.1599 14.965 14.2199L13.735 14.8699C13.425 15.0299 13.075 14.7699 13.135 14.4299L13.375 13.0599C13.395 12.9199 13.355 12.7899 13.255 12.6899L12.265 11.7199C12.015 11.4799 12.155 11.0599 12.495 11.0099L13.875 10.8099C14.015 10.7899 14.125 10.7099 14.185 10.5799L14.795 9.32991C14.935 9.01991 15.375 9.01991 15.525 9.32991Z" stroke="#999999" stroke-width="1.5" stroke-linecap="round" stroke-linejoin="round"/>
</svg>
