<svg width="25" height="24" viewBox="0 0 25 24" fill="none" xmlns="http://www.w3.org/2000/svg">
<path d="M14.475 2H9.77501C8.73501 2 7.88501 2.84 7.88501 3.88V4.82C7.88501 5.86 8.72501 6.7 9.76501 6.7H14.475C15.515 6.7 16.355 5.86 16.355 4.82V3.88C16.365 2.84 15.515 2 14.475 2Z" fill="#10BB76"/>
<path d="M17.365 4.82047C17.365 6.41047 16.065 7.71047 14.475 7.71047H9.77504C8.18504 7.71047 6.88504 6.41047 6.88504 4.82047C6.88504 4.26047 6.28504 3.91047 5.78504 4.17047C4.37504 4.92047 3.41504 6.41047 3.41504 8.12047V17.5305C3.41504 19.9905 5.42504 22.0005 7.88504 22.0005H16.365C18.825 22.0005 20.835 19.9905 20.835 17.5305V8.12047C20.835 6.41047 19.875 4.92047 18.465 4.17047C17.965 3.91047 17.365 4.26047 17.365 4.82047ZM12.505 16.9505H8.12504C7.71504 16.9505 7.37504 16.6105 7.37504 16.2005C7.37504 15.7905 7.71504 15.4505 8.12504 15.4505H12.505C12.915 15.4505 13.255 15.7905 13.255 16.2005C13.255 16.6105 12.915 16.9505 12.505 16.9505ZM15.125 12.9505H8.12504C7.71504 12.9505 7.37504 12.6105 7.37504 12.2005C7.37504 11.7905 7.71504 11.4505 8.12504 11.4505H15.125C15.535 11.4505 15.875 11.7905 15.875 12.2005C15.875 12.6105 15.535 12.9505 15.125 12.9505Z" fill="#10BB76"/>
</svg>
