<svg width="25" height="24" viewBox="0 0 25 24" fill="none" xmlns="http://www.w3.org/2000/svg">
<path d="M9.12858 11.1632C8.32109 12.1293 7.10915 12.7531 5.81445 12.7531C5.05163 12.7531 4.34665 12.5706 3.73703 12.2476V15.9903C3.73703 18.3294 4.21043 19.7733 5.0883 20.6512C5.96617 21.529 7.41005 22.0024 9.7492 22.0024H15.5438C17.883 22.0024 19.3268 21.529 20.2047 20.6512C21.0826 19.7733 21.556 18.3294 21.556 15.9903V12.2245C20.9366 12.5619 20.2164 12.7531 19.4356 12.7531C18.1397 12.7531 16.9281 12.1289 16.1188 11.1632H15.8732C15.1574 12.1319 14.001 12.7531 12.6519 12.7531C11.3026 12.7531 10.1462 12.1319 9.43037 11.1632H9.12858Z" fill="#10BB76"/>
<path d="M3.01314 8.1524L3.30193 5.21102C3.4882 3.87757 3.81996 3.12831 4.29415 2.6903C4.76018 2.25983 5.50425 2.00244 6.83576 2.00244H9.28598L8.61586 8.71437L8.61567 8.71628C8.4812 10.103 7.20492 11.2531 5.81445 11.2531C4.08789 11.2531 2.84189 9.8734 3.01314 8.1524Z" fill="#10BB76"/>
<path d="M15.1308 8.86319L14.4457 2.00244H10.8255L10.1731 8.50731C10.0231 10.035 11.1297 11.2531 12.6519 11.2531C14.0267 11.2531 15.0625 10.26 15.1397 8.94212C15.1366 8.91665 15.1337 8.89112 15.1311 8.86553L15.1308 8.86319Z" fill="#10BB76"/>
<path d="M19.4356 11.2531C18.0973 11.2531 16.8611 10.1864 16.6436 8.86481C16.6468 8.69907 16.6402 8.53067 16.6234 8.36015L15.9953 2.00244H18.4035C19.735 2.00244 20.4791 2.25983 20.9451 2.6903C21.4195 3.12846 21.7513 3.87807 21.9375 5.21233L22.2371 8.1542C22.4079 9.87482 21.1619 11.2531 19.4356 11.2531Z" fill="#10BB76"/>
</svg>
