<svg width="240" height="240" viewBox="0 0 240 240" fill="none" xmlns="http://www.w3.org/2000/svg">
<g clip-path="url(#clip0_209_339)">
<rect width="240" height="240" fill="url(#paint0_linear_209_339)"/>
<g filter="url(#filter0_d_209_339)">
<g filter="url(#filter1_d_209_339)">
<path fill-rule="evenodd" clip-rule="evenodd" d="M119.652 43.5785C119.923 43.5791 120.193 43.5789 120.464 43.5782C123.297 43.5713 126.165 43.6088 128.969 44.0614C129.17 44.093 129.371 44.115 129.574 44.1355C130.411 44.2252 131.244 44.3479 132.077 44.4721L132.307 44.5062C132.754 44.5721 133.196 44.6508 133.638 44.7488C133.892 44.8034 134.15 44.8456 134.406 44.8875C134.877 44.9668 135.341 45.0629 135.806 45.1718C136.132 45.248 136.458 45.3164 136.787 45.3798C137.281 45.4762 137.768 45.5953 138.255 45.7209C138.405 45.7592 138.556 45.7964 138.707 45.8334C139.812 46.1044 140.904 46.4127 141.992 46.7436C142.122 46.7828 142.253 46.8213 142.383 46.8596C143.036 47.0521 143.683 47.2633 144.328 47.4817L144.687 47.6009C145.167 47.7595 145.643 47.9287 146.118 48.1046L146.724 48.3283C146.986 48.4241 147.249 48.517 147.513 48.6094C147.722 48.687 147.922 48.7793 148.124 48.8739C148.32 48.9624 148.521 49.0382 148.722 49.1141L148.78 49.1361C149.105 49.2612 149.426 49.3949 149.748 49.5287L149.766 49.5362L150.041 49.6497C150.431 49.8107 150.816 49.9815 151.2 50.1583L151.367 50.2349C151.605 50.344 151.841 50.454 152.074 50.572C152.219 50.6441 152.357 50.7066 152.508 50.7619C152.789 50.8717 153.055 51.0053 153.323 51.1418C153.595 51.2798 153.87 51.4098 154.147 51.5375C154.437 51.672 154.711 51.8161 154.983 51.9862C155.166 52.0946 155.355 52.1885 155.547 52.2828C156.103 52.5575 156.646 52.8516 157.181 53.1667C157.329 53.2524 157.477 53.3347 157.627 53.4158C158.282 53.7705 158.917 54.1515 159.551 54.5413C159.684 54.6224 159.817 54.7022 159.951 54.7816C160.234 54.9512 160.512 55.129 160.79 55.3076L161.265 55.6125C161.518 55.7787 161.645 55.8617 161.773 55.9422C161.901 56.0225 162.031 56.1003 162.291 56.2557L162.409 56.3328L162.409 56.4407L162.503 56.4582C162.643 56.5002 162.73 56.5596 162.847 56.6464C163.034 56.7814 163.223 56.9115 163.416 57.0376L163.549 57.1251L163.818 57.2992L163.942 57.3809L164.055 57.4541L164.136 57.5198L164.136 57.6277L164.223 57.6378C164.377 57.6905 164.486 57.7861 164.603 57.8892L164.675 57.9515L164.837 58.0054L164.837 58.1133L164.944 58.1458C165.156 58.2439 165.327 58.3817 165.507 58.5261L165.555 58.5652L165.949 58.8759C166.14 59.0247 166.333 59.1695 166.526 59.3138L167.047 59.7026L167.346 59.9276L167.437 59.9953C167.508 60.0488 167.576 60.1059 167.643 60.1636L167.643 60.2716H167.805C167.864 60.3314 167.924 60.3917 167.982 60.4536C168.121 60.5859 168.279 60.6947 168.437 60.8038L168.521 60.8617C168.674 60.978 168.802 61.1062 168.938 61.2427C169.094 61.3713 169.252 61.4962 169.411 61.6211L169.531 61.7283L169.531 61.8363H169.693C169.757 61.8965 169.82 61.9573 169.88 62.0213C169.978 62.1214 170.08 62.213 170.185 62.305L170.294 62.4001C170.34 62.4402 170.367 62.4629 170.395 62.4839C170.431 62.5111 170.469 62.5355 170.556 62.5916L170.556 62.6995L170.644 62.7366C170.817 62.832 170.95 62.9443 171.096 63.0772L171.096 63.1851L171.184 63.2222C171.465 63.3781 171.691 63.6107 171.914 63.8408L171.991 63.9203C172.149 64.0811 172.31 64.2357 172.482 64.3823C172.713 64.5811 172.926 64.7968 173.139 65.0149C173.263 65.1403 173.377 65.2454 173.524 65.3434L173.524 65.4513L173.686 65.5052L173.686 65.6131L173.848 65.6671C173.921 65.7561 173.992 65.8461 174.063 65.9369L174.225 66.0448L174.225 66.1527L174.387 66.2067L174.387 66.3146L174.549 66.3685C174.564 66.3839 174.576 66.3962 174.587 66.4069C174.6 66.4203 174.61 66.4311 174.62 66.4421C174.641 66.4661 174.662 66.4913 174.707 66.5469C174.911 66.7896 175.135 67.01 175.363 67.2298C175.435 67.3004 175.505 67.3738 175.574 67.4476L175.574 67.5555L175.736 67.6095C175.77 67.6433 175.789 67.6619 175.807 67.6812C175.828 67.7049 175.849 67.7297 175.894 67.7848C176.02 67.9334 176.147 68.0784 176.28 68.2201L176.369 68.3143L176.545 68.5008C176.671 68.6344 176.756 68.7284 176.815 68.9044L176.977 68.9584C177.078 69.0748 177.116 69.1183 177.13 69.1685C177.139 69.1984 177.139 69.2306 177.139 69.2821L177.232 69.3182C177.386 69.4081 177.473 69.5193 177.582 69.6565L177.597 69.6767L177.721 69.8312L177.946 70.1207C178.059 70.2565 178.18 70.3779 178.305 70.502L178.326 70.5231C178.429 70.6392 178.529 70.758 178.629 70.8772L178.707 70.9694C179.002 71.3197 179.065 71.3936 179.078 71.4754C179.081 71.4973 179.081 71.5198 179.081 71.5482L179.243 71.6022C179.332 71.7062 179.413 71.809 179.493 71.9192L179.559 72.0079C179.658 72.1419 179.73 72.2524 179.783 72.4115H179.891C179.996 72.5387 180.096 72.6667 180.194 72.7993L180.384 73.0514L180.486 73.1875C180.595 73.3332 180.706 73.4782 180.817 73.623L181.151 74.058C181.356 74.3271 181.554 74.6004 181.747 74.8787C181.881 75.0699 182.024 75.2538 182.168 75.438L182.22 75.5051C182.308 75.6328 182.35 75.714 182.372 75.8647H182.48C182.522 75.9151 182.545 75.9429 182.567 75.9715C182.594 76.0066 182.619 76.0431 182.676 76.1241L182.779 76.2704C182.818 76.336 182.838 76.3695 182.848 76.4056C182.858 76.4432 182.858 76.4836 182.858 76.5661H182.966C183.062 76.6947 183.151 76.8231 183.239 76.9573L183.314 77.0688C183.43 77.2432 183.517 77.3842 183.559 77.5913H183.667C183.7 77.6355 183.719 77.6608 183.736 77.6867C183.76 77.7212 183.781 77.7568 183.832 77.8396L184.045 78.1848L184.139 78.3317L184.288 78.5625L184.634 79.1012L184.811 79.3777C184.938 79.5807 185.06 79.7859 185.183 79.9912L185.232 80.0732L185.392 80.3392C185.657 80.7805 185.922 81.222 186.179 81.6678C186.248 81.7836 186.319 81.8963 186.392 82.0089C186.537 82.2373 186.654 82.4803 186.771 82.7239L186.805 82.7946C186.895 82.974 187 83.1408 187.107 83.3098C187.213 83.4807 187.305 83.6582 187.397 83.8366C187.532 84.0945 187.668 84.3511 187.81 84.6048C188.06 85.0495 188.296 85.4903 188.493 85.9611C188.607 86.2327 188.74 86.4911 188.881 86.7502C189.044 87.0505 189.187 87.3496 189.312 87.6678C189.395 87.8618 189.489 88.0483 189.585 88.2357C189.819 88.6978 190.025 89.17 190.226 89.6469L190.328 89.8848C190.498 90.2841 190.666 90.6844 190.831 91.0856L190.877 91.1962C191.008 91.5129 191.128 91.833 191.246 92.1542C191.332 92.3836 191.421 92.6113 191.511 92.8391L191.518 92.8573C191.66 93.2184 191.792 93.5819 191.919 93.9483C191.989 94.1502 192.063 94.3493 192.145 94.5468C192.247 94.7955 192.324 95.0492 192.401 95.3066C192.47 95.53 192.543 95.7516 192.617 95.9732L192.659 96.0985C192.727 96.3014 192.795 96.504 192.865 96.7063C193.045 97.229 193.2 97.7562 193.346 98.289C193.444 98.6451 193.548 98.9991 193.656 99.3522C193.801 99.8304 193.925 100.312 194.043 100.798C194.074 100.925 194.105 101.051 194.137 101.178C194.159 101.265 194.18 101.351 194.202 101.438L194.223 101.521C194.302 101.836 194.38 102.15 194.458 102.465L194.492 102.6C194.708 103.475 194.876 104.361 195.044 105.246L195.12 105.645C195.18 105.958 195.241 106.27 195.305 106.582C195.362 106.864 195.41 107.146 195.451 107.431C195.477 107.606 195.506 107.781 195.534 107.956L195.563 108.13L195.619 108.469C195.677 108.827 195.724 109.187 195.765 109.548C195.798 109.836 195.834 110.124 195.871 110.412C196.016 111.538 196.149 112.663 196.239 113.795L196.249 113.925C196.4 115.834 196.426 117.739 196.422 119.652C196.421 119.923 196.421 120.194 196.422 120.464C196.43 123.697 196.232 126.885 195.807 130.09L195.785 130.261C195.74 130.6 195.693 130.939 195.645 131.277L195.628 131.401C195.449 132.67 195.239 133.939 194.956 135.189C194.884 135.507 194.822 135.826 194.759 136.145L194.752 136.184C194.667 136.615 194.574 137.042 194.463 137.468C194.404 137.697 194.349 137.928 194.294 138.158L194.29 138.175C194.019 139.321 193.714 140.452 193.374 141.58C193.307 141.807 193.24 142.033 193.173 142.26L193.055 142.662L193.021 142.779C192.903 143.181 192.77 143.579 192.637 143.977L192.601 144.085C192.398 144.692 192.191 145.296 191.976 145.899L191.917 146.067L191.723 146.61L191.663 146.78C191.56 147.068 191.45 147.348 191.323 147.625C191.254 147.78 191.197 147.938 191.14 148.098C190.656 149.413 190.113 150.737 189.474 151.984C189.382 152.164 189.299 152.343 189.228 152.532C189.127 152.799 188.993 153.047 188.858 153.297L188.812 153.382C188.674 153.638 188.549 153.896 188.431 154.162C188.189 154.695 187.916 155.21 187.626 155.717C187.458 156.013 187.304 156.314 187.155 156.619C187.062 156.81 186.962 156.994 186.851 157.176L186.699 157.459C186.595 157.65 186.488 157.833 186.365 158.012C186.253 158.175 186.154 158.34 186.061 158.514C185.861 158.889 185.641 159.252 185.421 159.615L185.313 159.792L185.061 160.213C184.953 160.393 184.843 160.573 184.729 160.75L184.634 160.899L184.35 161.341L184.226 161.534L184.116 161.705C184.054 161.802 183.994 161.898 183.934 161.996L183.832 162.16L183.743 162.306L183.667 162.409H183.559L183.54 162.505C183.49 162.678 183.392 162.82 183.292 162.966L183.239 163.043L183.164 163.157C183.101 163.252 183.034 163.343 182.966 163.434H182.858L182.841 163.526C182.797 163.673 182.73 163.779 182.645 163.907L182.56 164.037L182.48 164.136H182.372L182.359 164.225C182.308 164.384 182.223 164.493 182.123 164.622L182.099 164.652L181.964 164.828L181.896 164.916L181.804 165.04C181.749 165.114 181.695 165.19 181.64 165.266C181.198 165.877 180.735 166.474 180.273 167.07L180.096 167.298C180.024 167.392 179.956 167.49 179.89 167.589H179.782L179.744 167.676C179.654 167.842 179.545 167.991 179.432 168.142L179.366 168.233C179.309 168.308 179.249 168.38 179.189 168.452H179.081L179.041 168.542C178.958 168.696 178.856 168.818 178.744 168.951C178.595 169.13 178.449 169.31 178.312 169.498C178.185 169.669 178.047 169.814 177.894 169.963C177.743 170.123 177.668 170.203 177.596 170.286C177.524 170.369 177.456 170.455 177.32 170.626L177.246 170.718H177.139L177.091 170.816C177.067 170.864 177.052 170.893 177.036 170.92C177.013 170.961 176.987 171 176.923 171.096H176.815L176.772 171.193C176.704 171.316 176.636 171.391 176.535 171.487C176.27 171.745 176.031 172.022 175.8 172.31L175.682 172.445H175.574L175.529 172.543C175.467 172.659 175.406 172.732 175.311 172.824L175.22 172.913L175.125 173.005C174.945 173.179 174.77 173.351 174.614 173.546L174.495 173.686H174.387L174.333 173.848H174.225L174.171 174.01C174.082 174.083 173.992 174.155 173.901 174.226L173.793 174.387H173.685L173.631 174.549H173.523L173.47 174.711C173.435 174.745 173.416 174.764 173.396 174.782C173.372 174.804 173.347 174.824 173.292 174.869C173.089 175.041 172.9 175.223 172.714 175.413C172.428 175.702 172.134 175.976 171.814 176.229C171.628 176.379 171.465 176.551 171.301 176.724C171.248 176.774 171.223 176.797 171.195 176.807C171.171 176.815 171.144 176.815 171.095 176.815L171.042 176.977C170.951 177.059 170.857 177.138 170.762 177.213L170.599 177.344L170.448 177.463C170.204 177.66 169.976 177.866 169.767 178.1C169.738 178.125 169.72 178.14 169.7 178.15C169.668 178.164 169.63 178.164 169.531 178.164L169.498 178.256C169.401 178.417 169.264 178.515 169.116 178.622L169.082 178.646C168.853 178.814 168.653 178.988 168.452 179.189C168.35 179.267 168.246 179.342 168.141 179.415C168.039 179.481 167.989 179.513 167.947 179.553C167.905 179.592 167.871 179.638 167.804 179.729H167.642L167.588 179.891C167.466 179.991 167.343 180.085 167.214 180.177L166.851 180.444C166.657 180.589 166.466 180.739 166.274 180.889L166.236 180.919C165.925 181.162 165.612 181.403 165.295 181.638L165.192 181.715C165.03 181.834 164.98 181.871 164.924 181.882C164.9 181.887 164.874 181.887 164.837 181.887L164.837 181.995L164.658 182.093C164.543 182.158 164.458 182.211 164.365 182.305L164.297 182.373H164.135L164.135 182.481C164.013 182.57 163.891 182.652 163.764 182.734L163.541 182.879L163.43 182.952C163.172 183.121 162.914 183.295 162.674 183.489C162.628 183.52 162.603 183.538 162.575 183.548C162.539 183.56 162.499 183.56 162.409 183.56L162.409 183.668C162.278 183.757 162.147 183.839 162.011 183.921C161.752 184.078 161.498 184.236 161.252 184.413C161.053 184.556 160.848 184.675 160.633 184.791C160.495 184.869 160.372 184.96 160.245 185.054C160.14 185.126 160.033 185.187 159.921 185.248C159.652 185.396 159.39 185.553 159.127 185.711C158.549 186.059 157.968 186.4 157.379 186.729C157.182 186.839 156.989 186.952 156.797 187.07C156.544 187.224 156.281 187.355 156.016 187.486C155.725 187.629 155.438 187.778 155.152 187.93C154.732 188.153 154.309 188.368 153.883 188.578C153.694 188.672 153.506 188.767 153.317 188.861L153.014 189.012L152.799 189.121C152.618 189.212 152.439 189.3 152.248 189.37C151.973 189.477 151.708 189.603 151.442 189.731C151.019 189.933 150.593 190.123 150.161 190.304L149.983 190.381C149.746 190.483 149.507 190.577 149.267 190.672C148.945 190.8 148.624 190.931 148.306 191.07C147.997 191.204 147.684 191.319 147.367 191.43C147.223 191.481 147.081 191.535 146.94 191.592C146.28 191.861 145.608 192.097 144.931 192.318L144.721 192.387L144.127 192.585C143.888 192.665 143.649 192.745 143.411 192.827C142.831 193.027 142.247 193.197 141.653 193.353C141.326 193.44 141.001 193.53 140.678 193.633C140.037 193.837 139.392 194.01 138.737 194.163C138.483 194.222 138.23 194.284 137.977 194.347C137.127 194.556 136.277 194.75 135.417 194.915C135.187 194.96 134.958 195.01 134.729 195.059C134.306 195.149 133.882 195.227 133.455 195.3C133.311 195.325 133.166 195.351 133.022 195.376C132.517 195.466 132.014 195.552 131.506 195.615C131.283 195.644 131.061 195.678 130.839 195.712L130.753 195.725C130.177 195.812 129.602 195.89 129.022 195.947C128.816 195.967 128.611 195.993 128.406 196.02C125.731 196.362 123.041 196.429 120.348 196.422C120.077 196.421 119.806 196.422 119.536 196.422C116.303 196.43 113.114 196.232 109.91 195.808L109.738 195.785C109.4 195.74 109.061 195.694 108.723 195.646L108.587 195.627C107.874 195.525 107.165 195.401 106.457 195.268L106.249 195.23L105.42 195.074C104.373 194.878 103.337 194.654 102.302 194.405L101.924 194.315C100.784 194.043 100.511 193.978 100.241 193.902C100.155 193.879 100.07 193.854 99.9585 193.821L99.6628 193.736L98.8624 193.507C98.6149 193.436 98.3673 193.366 98.1194 193.296C97.6397 193.162 97.1692 193.02 96.702 192.847C96.5331 192.788 96.3645 192.739 96.1917 192.692C95.3596 192.46 94.542 192.162 93.7439 191.833C93.4839 191.73 93.2196 191.645 92.9533 191.56C92.5635 191.427 92.1837 191.266 91.8043 191.106L91.5752 191.009C91.1735 190.841 90.7712 190.678 90.3637 190.524C90.1621 190.445 89.9664 190.355 89.77 190.263C89.6188 190.195 89.4662 190.131 89.3124 190.068C89.0366 189.954 88.7663 189.831 88.4966 189.703C88.2997 189.611 88.102 189.52 87.9028 189.432C87.4513 189.232 87.0073 189.028 86.5743 188.791C86.3312 188.658 86.0838 188.538 85.8323 188.423C85.3666 188.207 84.9141 187.97 84.4617 187.728C84.3003 187.642 84.1385 187.557 83.9766 187.471L83.9671 187.466L83.2648 187.093C82.8246 186.856 82.3928 186.604 81.9611 186.352C81.9071 186.321 81.8531 186.289 81.7991 186.258L81.6727 186.184C81.2493 185.938 80.8298 185.688 80.4182 185.422C80.296 185.345 80.1723 185.274 80.0456 185.205C79.82 185.082 79.6044 184.947 79.3884 184.808C79.2526 184.721 79.1164 184.635 78.9795 184.549C78.4058 184.191 77.8444 183.818 77.2883 183.433C77.1569 183.343 77.0251 183.253 76.8932 183.163C76.469 182.874 76.0466 182.583 75.6306 182.283C75.4159 182.128 75.1969 181.982 74.9725 181.842L74.8928 181.779L74.8928 181.671H74.731L74.731 181.563L74.6241 181.531C74.4121 181.433 74.2404 181.295 74.0606 181.15L74.0127 181.112L73.6218 180.803C73.38 180.615 73.1327 180.434 72.8844 180.254C72.7966 180.19 72.7113 180.121 72.6267 180.053L72.6267 179.945L72.5388 179.906C72.1425 179.692 71.7821 179.375 71.4368 179.072L71.2314 178.892C71.1534 178.824 71.1144 178.79 71.0729 178.76C71.0316 178.73 70.9877 178.703 70.9001 178.65L70.9001 178.542L70.8101 178.502C70.6013 178.389 70.4192 178.231 70.2387 178.075C70.1896 178.033 70.1402 177.99 70.0908 177.948L69.9681 177.848C69.881 177.776 69.7967 177.701 69.7131 177.625L69.7131 177.517L69.6204 177.476C69.478 177.398 69.3738 177.306 69.2545 177.196L69.1126 177.067L68.9577 176.923L68.6966 176.682L68.5274 176.526C68.4051 176.413 68.2874 176.315 68.1484 176.222L68.1484 176.114L67.9865 176.06L67.9865 175.952L67.8989 175.915C67.6167 175.759 67.4276 175.555 67.2312 175.305L67.0693 175.197L67.0693 175.089L66.9732 175.046C66.8475 174.978 66.7648 174.906 66.664 174.805L66.5549 174.696L66.4387 174.579L66.3178 174.458L65.3176 173.454C65.1341 173.269 64.9647 173.082 64.8032 172.877C64.7242 172.811 64.6453 172.746 64.5654 172.682C64.4121 172.548 64.2737 172.395 64.1557 172.229L64.1557 172.121L63.9938 172.067L63.9938 171.959L63.832 171.905C63.7959 171.87 63.7761 171.85 63.7573 171.83C63.7348 171.805 63.7135 171.78 63.6667 171.723C63.5085 171.537 63.3465 171.354 63.1811 171.174C62.6811 170.624 62.6048 170.54 62.5931 170.448C62.591 170.431 62.591 170.415 62.591 170.395L62.4291 170.341C62.3277 170.224 62.2898 170.181 62.2757 170.131C62.2673 170.101 62.2673 170.068 62.2673 170.017L62.1054 169.963C61.9107 169.75 61.8565 169.691 61.8415 169.623C61.8356 169.597 61.8356 169.569 61.8356 169.531H61.7277C61.6552 169.424 61.5834 169.316 61.5119 169.208L61.3905 169.086C61.178 168.874 60.9851 168.643 60.8105 168.398L60.8105 168.29H60.7026C60.6569 168.248 60.635 168.228 60.6141 168.207C60.5948 168.188 60.5763 168.167 60.5407 168.129C60.2004 168.248 59.8857 168.402 59.5695 168.574C59.2501 168.747 58.9281 168.904 58.5949 169.049C58.2917 169.181 57.9928 169.318 57.6979 169.467C57.216 169.712 56.7284 169.944 56.2405 170.176L56.1706 170.21L55.3745 170.59C55.0368 170.752 54.6988 170.913 54.3601 171.072C53.9727 171.255 53.5879 171.442 53.2055 171.635C52.8012 171.838 52.3917 172.03 51.9822 172.223L51.8539 172.283C51.5064 172.446 51.3302 172.529 51.1569 172.612C50.9832 172.696 50.8103 172.781 50.4645 172.951C50.0418 173.164 49.6144 173.367 49.187 173.571L49.0014 173.659C48.7506 173.779 48.5002 173.899 48.2497 174.02L48.1444 174.07C47.4955 174.382 46.8451 174.691 46.1938 174.998C45.7513 175.206 45.3114 175.418 44.8746 175.639C44.6561 175.748 44.4351 175.852 44.2141 175.956L44.1719 175.976C43.8529 176.126 43.5357 176.279 43.221 176.438C42.7427 176.679 42.2583 176.907 41.7735 177.135L41.1046 177.45C40.8539 177.569 40.6054 177.691 40.358 177.817C40.0772 177.959 39.7928 178.089 39.5048 178.215C39.1549 178.368 38.8118 178.531 38.4712 178.704C38.2132 178.835 37.9528 178.959 37.6905 179.082C37.3937 179.22 37.0994 179.362 36.807 179.51C36.4466 179.692 36.0827 179.865 35.7173 180.037C35.4636 180.157 35.2123 180.28 34.9624 180.407C34.6829 180.548 34.3997 180.676 34.1126 180.801C33.7865 180.943 33.4708 181.097 33.1583 181.267C32.8084 181.457 32.453 181.623 32.088 181.782C31.709 181.948 31.3404 182.131 30.972 182.318C30.4868 182.566 30.0002 182.808 29.5047 183.034C29.2392 183.156 28.9759 183.282 28.7126 183.409L28.5382 183.492C28.1982 183.656 27.8576 183.817 27.5165 183.978C27.1621 184.145 26.8113 184.318 26.4614 184.495C26.2362 184.606 26.0085 184.712 25.7803 184.817C25.4859 184.953 25.1962 185.099 24.9065 185.245C24.6881 185.355 24.4684 185.457 24.2442 185.554C24.0806 185.628 23.9206 185.709 23.7605 185.79L23.6882 185.827C23.2757 186.034 22.8582 186.232 22.4407 186.429L22.2323 186.527L21.9677 186.653C21.6259 186.815 21.284 186.977 20.9417 187.138C20.4995 187.346 20.0599 187.558 19.6234 187.779C19.3855 187.898 19.1447 188.011 18.9038 188.124L18.7885 188.178C18.51 188.309 18.2342 188.445 17.9597 188.584C17.6802 188.726 17.3982 188.856 17.1098 188.979C16.8055 189.109 16.5136 189.253 16.223 189.411C15.8708 189.602 15.5133 189.77 15.1459 189.929C14.8403 190.063 14.5423 190.207 14.2451 190.358C13.9497 190.508 13.6509 190.65 13.3503 190.789C13.1525 190.881 12.9571 190.976 12.7637 191.077L12.645 191.138C12.5998 191.162 12.5547 191.185 12.5098 191.209C12.4804 191.225 12.4511 191.241 12.4218 191.257C12.2887 191.326 12.1739 191.381 12.0228 191.391C11.8814 191.3 11.8191 191.161 11.7532 191.015L11.7278 190.958L11.6721 190.842C11.6124 190.717 11.5537 190.592 11.4951 190.466L11.1909 189.823C11.0605 189.546 10.9255 189.272 10.7869 188.999C10.6223 188.675 10.4721 188.346 10.3315 188.011C10.2574 187.836 10.1772 187.67 10.0813 187.507C10.0196 187.399 9.99714 187.359 9.989 187.317C9.98436 187.293 9.98436 187.268 9.98436 187.229L10.7242 186.859L10.9788 186.731C11.2873 186.576 11.5978 186.426 11.9099 186.278L12.3614 186.063L13.3301 185.602C13.6107 185.468 13.8895 185.331 14.1674 185.191C14.3915 185.079 14.6176 184.972 14.8437 184.865L14.9924 184.794C15.26 184.667 15.5281 184.541 15.7966 184.415C16.1253 184.261 16.4519 184.104 16.776 183.941C17.2596 183.697 17.7494 183.467 18.2396 183.236L18.8991 182.925C19.1499 182.806 19.3984 182.684 19.6458 182.558C19.9266 182.416 20.2109 182.286 20.4989 182.16C20.959 181.959 21.4072 181.738 21.8546 181.51C22.461 181.202 23.0734 180.909 23.687 180.616L24.3285 180.31C24.7201 180.122 25.112 179.935 25.5047 179.75C25.8342 179.594 26.1627 179.438 26.488 179.274C27.0704 178.98 27.6609 178.703 28.2517 178.427C28.6148 178.257 28.9763 178.085 29.3342 177.905C30.1151 177.511 30.9073 177.139 31.6994 176.768L32.069 176.595C32.5585 176.365 33.0457 176.132 33.5286 175.888C33.745 175.779 33.963 175.675 34.1834 175.574C34.4357 175.459 34.6846 175.339 34.9321 175.214C35.4501 174.952 35.974 174.703 36.498 174.454L39.8021 172.876C40.0898 172.739 40.3778 172.602 40.6662 172.466C40.9958 172.31 41.3242 172.154 41.6495 171.99C42.1739 171.725 42.7053 171.475 43.2366 171.225L43.441 171.129C43.8168 170.952 44.1921 170.774 44.5631 170.587C45.1455 170.293 45.7361 170.016 46.3268 169.74C46.7408 169.546 47.1517 169.348 47.5598 169.142C47.7976 169.023 48.0376 168.91 48.2806 168.801C48.8473 168.543 49.4095 168.274 49.9654 167.994C50.4852 167.732 51.012 167.484 51.5387 167.236L51.7502 167.136C52.1893 166.929 52.626 166.719 53.0594 166.5C53.3004 166.379 53.5442 166.265 53.7881 166.15L53.9026 166.096C54.1581 165.976 54.4112 165.852 54.6629 165.724C54.9437 165.582 55.2281 165.452 55.5161 165.326C55.9402 165.14 56.3544 164.939 56.7669 164.729C56.9283 164.647 57.0902 164.566 57.2522 164.485L57.3034 164.46L57.6271 164.298L57.4109 163.973C57.3296 163.851 57.2478 163.73 57.1656 163.609L57.0201 163.394L56.9488 163.29C56.8273 163.109 56.7272 162.94 56.6559 162.733H56.548C56.4907 162.645 56.4376 162.555 56.3862 162.463L56.2975 162.323L56.1501 162.092L56.0853 161.991C55.9735 161.817 55.8591 161.648 55.7353 161.482C55.6799 161.402 55.6539 161.364 55.6417 161.322C55.6308 161.285 55.6308 161.244 55.6308 161.168H55.5229L55.4398 161.02L55.3273 160.821L55.2731 160.724C55.1675 160.538 55.0559 160.358 54.9359 160.18C54.7546 159.912 54.5904 159.634 54.4269 159.354C54.2998 159.137 54.2363 159.028 54.172 158.92C54.1421 158.87 54.112 158.82 54.0752 158.758C54.0331 158.688 53.9821 158.604 53.9126 158.489L53.8438 158.376L53.7175 158.173C53.6269 158.025 53.5805 157.946 53.5805 157.769C53.2521 157.887 52.9454 158.031 52.6396 158.197C52.3683 158.345 52.0966 158.482 51.8141 158.607C51.5683 158.718 51.325 158.834 51.0817 158.949L50.9312 159.021C50.6582 159.151 50.3869 159.284 50.1172 159.422C49.8378 159.563 49.5544 159.691 49.2674 159.816C48.9218 159.967 48.5884 160.131 48.2576 160.312C47.9846 160.461 47.7054 160.592 47.422 160.72C47.2933 160.779 47.1674 160.84 47.0418 160.905C46.896 160.98 46.7498 161.04 46.5966 161.097C46.3414 161.197 46.1051 161.321 45.8648 161.452C45.5059 161.646 45.1419 161.818 44.7676 161.98C44.462 162.114 44.164 162.258 43.8668 162.409C43.6087 162.54 43.3484 162.665 43.0861 162.787C42.7893 162.925 42.495 163.068 42.2026 163.215C41.8422 163.397 41.4783 163.571 41.1129 163.743C40.8592 163.862 40.6079 163.985 40.358 164.112C40.0772 164.254 39.7929 164.384 39.5048 164.51C39.1549 164.663 38.8118 164.826 38.4713 164.999C38.2132 165.13 37.9528 165.255 37.6906 165.377C37.3938 165.515 37.0994 165.657 36.807 165.805C36.4492 165.986 36.0879 166.158 35.7252 166.329C35.4484 166.459 35.1745 166.594 34.9017 166.732C34.6223 166.874 34.3403 167.004 34.0519 167.127C33.7476 167.257 33.4557 167.401 33.165 167.559C32.8129 167.75 32.4554 167.918 32.0881 168.077C31.6392 168.273 31.2041 168.495 30.7682 168.718C30.2336 168.991 29.6913 169.245 29.1462 169.497C28.735 169.687 28.3262 169.879 27.9225 170.085C27.6357 170.23 27.345 170.367 27.0535 170.503C26.7917 170.625 26.5332 170.753 26.2756 170.884C25.9939 171.027 25.7097 171.158 25.419 171.282C25.1147 171.411 24.8228 171.555 24.5322 171.713C24.18 171.904 23.8225 172.072 23.4551 172.232C23.1495 172.365 22.8515 172.51 22.5543 172.661C22.2584 172.811 21.9589 172.952 21.6581 173.092C21.3963 173.215 21.1377 173.343 20.88 173.474C20.5984 173.616 20.3142 173.748 20.0235 173.871C19.7191 174.001 19.4273 174.145 19.1366 174.303C18.7844 174.494 18.4269 174.662 18.0595 174.822C17.754 174.955 17.4559 175.1 17.1588 175.251C16.9007 175.382 16.6404 175.506 16.3781 175.628C16.0813 175.767 15.7869 175.909 15.4946 176.057C15.1342 176.239 14.7703 176.412 14.4049 176.584C14.1512 176.704 13.8999 176.827 13.65 176.954C13.3692 177.096 13.0849 177.225 12.7968 177.352C12.3724 177.538 11.958 177.739 11.5452 177.949C10.3942 178.536 9.22517 179.086 8.05649 179.637L7.93934 179.692C7.54895 179.876 7.15931 180.061 6.77402 180.255C6.50991 180.388 6.24346 180.513 5.97354 180.634C5.82945 180.7 5.688 180.77 5.54653 180.842C5.10662 181.064 4.66153 181.275 4.21647 181.487L3.94135 181.617L3.64383 181.759C2.90353 182.112 2.90258 182.113 2.53725 182.285C2.09731 182.492 1.65885 182.704 1.22461 182.923C0.98656 183.042 0.745654 183.155 0.504736 183.268L0.389708 183.322C0.111181 183.453 -0.16462 183.589 -0.439162 183.728C-0.718574 183.87 -1.00063 184 -1.28896 184.123C-1.5933 184.253 -1.88517 184.397 -2.17586 184.555C-2.52801 184.746 -2.88555 184.914 -3.25293 185.073C-3.55849 185.207 -3.8565 185.351 -4.15368 185.502C-4.41172 185.633 -4.67211 185.758 -4.93434 185.88C-5.43988 186.116 -5.93848 186.365 -6.43519 186.619C-6.67275 186.74 -6.90698 186.855 -7.15663 186.949C-7.41451 187.048 -7.65268 187.175 -7.89515 187.306C-8.20528 187.474 -8.5143 187.622 -8.84211 187.752C-9.11324 187.867 -9.37512 188.001 -9.63703 188.135L-9.76012 188.197C-10.2643 188.454 -10.7706 188.705 -11.283 188.944C-11.6069 189.096 -11.9296 189.249 -12.2521 189.404L-13.6751 190.085C-13.9276 190.206 -14.1803 190.326 -14.4333 190.446C-14.8546 190.646 -15.2754 190.846 -15.6917 191.056C-16.1722 191.299 -16.6581 191.53 -17.1441 191.761L-17.6664 192.01C-18.0361 192.186 -18.4058 192.362 -18.7763 192.537C-19.2113 192.742 -19.6441 192.95 -20.0735 193.167C-20.3475 193.304 -20.6242 193.435 -20.901 193.567L-21.06 193.642C-21.4168 193.812 -21.7712 193.986 -22.1214 194.169C-22.2996 194.26 -22.4599 194.323 -22.6587 194.351C-22.8211 194.122 -22.9398 193.893 -23.0465 193.633C-23.1993 193.271 -23.3719 192.925 -23.5606 192.581C-23.6981 192.329 -23.8188 192.072 -23.9361 191.81C-24.0093 191.65 -24.0859 191.491 -24.1638 191.333L-24.2423 191.173L-24.4033 190.848L-24.4808 190.689L-24.5509 190.547C-24.6046 190.403 -24.6109 190.295 -24.6011 190.142C-24.1387 189.905 -23.6733 189.679 -23.1983 189.468C-22.834 189.306 -22.4752 189.137 -22.1198 188.957C-21.8409 188.815 -21.5591 188.68 -21.2761 188.547C-20.9137 188.377 -20.5549 188.201 -20.1974 188.021C-20.0053 187.925 -19.8116 187.835 -19.617 187.745C-19.3424 187.618 -19.0708 187.487 -18.8009 187.35C-18.288 187.092 -17.7694 186.845 -17.2506 186.598L-16.3951 186.191L-13.9376 185.016C-13.6499 184.879 -13.3619 184.742 -13.0735 184.606C-12.7439 184.45 -12.4155 184.294 -12.0902 184.13C-11.5656 183.865 -11.0341 183.615 -10.5026 183.365L-10.2987 183.269C-9.92515 183.093 -9.55212 182.916 -9.18332 182.73C-8.76121 182.517 -8.33451 182.314 -7.90774 182.111L-7.72017 182.022C-7.43426 181.885 -7.14878 181.748 -6.86323 181.611C-6.21429 181.299 -5.56395 180.99 -4.91261 180.684C-4.53359 180.505 -4.15522 180.326 -3.78102 180.137C-3.19864 179.843 -2.6081 179.566 -2.01735 179.29C-1.61385 179.101 -1.21318 178.908 -0.815531 178.708C-0.490206 178.544 -0.161218 178.389 0.168342 178.234C0.422014 178.114 0.67329 177.991 0.923233 177.864C1.20403 177.722 1.48834 177.592 1.7764 177.466C2.12634 177.313 2.46939 177.15 2.80996 176.977C3.06801 176.846 3.32841 176.722 3.59066 176.6C3.88748 176.461 4.18184 176.319 4.47418 176.171C4.83458 175.989 5.19851 175.816 5.5639 175.644C5.81757 175.524 6.06885 175.401 6.31879 175.274C6.59959 175.132 6.8839 175.003 7.17196 174.876C7.63205 174.675 8.08017 174.454 8.52759 174.226C8.96599 174.004 9.40641 173.789 9.8517 173.581C10.1153 173.458 10.3757 173.329 10.6352 173.197C10.9169 173.054 11.2011 172.923 11.4918 172.799C11.8414 172.65 12.1765 172.481 12.5097 172.298C12.7627 172.16 13.0206 172.039 13.2836 171.921C13.5164 171.816 13.7466 171.705 13.9768 171.594L14.0378 171.565C14.4114 171.386 14.7853 171.207 15.1608 171.032C15.4855 170.88 15.8066 170.722 16.1265 170.56C16.4519 170.397 16.7808 170.241 17.1104 170.086C17.3641 169.967 17.6153 169.844 17.8653 169.717C18.1461 169.575 18.4304 169.445 18.7185 169.319C19.0681 169.166 19.411 169.003 19.7513 168.83C20.0163 168.696 20.2838 168.568 20.5529 168.442C20.7881 168.332 21.0228 168.222 21.2544 168.105C21.5043 167.978 21.7574 167.859 22.0108 167.74L22.03 167.731C22.3307 167.589 22.6302 167.445 22.927 167.296C23.3373 167.089 23.7524 166.892 24.1676 166.695L24.2917 166.636C24.5594 166.509 24.8268 166.381 25.0941 166.253L25.2213 166.192C25.4758 166.07 25.7304 165.949 25.9854 165.828C26.4463 165.61 26.9056 165.389 27.3611 165.159C27.7319 164.973 28.1072 164.796 28.4827 164.619L28.5711 164.578C28.7901 164.474 29.0087 164.37 29.2273 164.266L29.2735 164.244C29.5531 164.11 29.8328 163.977 30.113 163.845C30.4869 163.669 30.8603 163.492 31.2294 163.306C31.5478 163.146 31.8687 162.991 32.1905 162.838C32.6518 162.618 33.1127 162.397 33.573 162.175L33.8665 162.033C34.2483 161.849 34.6279 161.661 35.006 161.47C35.1881 161.381 35.3727 161.301 35.5593 161.222C35.7209 161.149 35.8812 161.072 36.0416 160.996L36.1771 160.932C36.5014 160.778 36.8229 160.618 37.1435 160.457C37.416 160.32 37.6921 160.192 37.9696 160.065C38.1708 159.971 38.3691 159.872 38.5674 159.772C38.9775 159.565 39.3922 159.369 39.8084 159.175L40.4524 158.872L40.5838 158.81C40.8364 158.69 41.0867 158.567 41.336 158.44C41.6168 158.298 41.9011 158.168 42.1891 158.042C42.6135 157.856 43.028 157.655 43.4407 157.444C44.5919 156.858 45.7609 156.307 46.9297 155.757L47.0466 155.702C47.4234 155.525 47.7995 155.347 48.1715 155.159C48.5463 154.97 48.9246 154.789 49.3036 154.609C49.5956 154.47 49.887 154.33 50.1777 154.188L50.3638 154.097L50.7217 153.923L50.8852 153.843L51.03 153.772C51.0853 153.75 51.1157 153.737 51.1472 153.731C51.1855 153.722 51.2256 153.722 51.3144 153.722C51.2088 153.442 51.0947 153.17 50.9569 152.903C50.7917 152.58 50.6483 152.248 50.505 151.915C50.4019 151.675 50.3504 151.554 50.296 151.435C50.2416 151.317 50.1844 151.199 50.07 150.964C49.7434 150.33 49.4768 149.661 49.2266 148.994C49.1383 148.767 49.043 148.543 48.9475 148.319L48.9437 148.31C48.7718 147.906 48.6126 147.499 48.4617 147.087C48.4309 147 48.4174 146.961 48.4009 146.924C48.3879 146.895 48.3732 146.867 48.3468 146.816C47.891 147.007 47.4461 147.208 47.0114 147.443C46.7081 147.608 46.4055 147.751 46.0847 147.879C45.7921 148.003 45.5094 148.148 45.2269 148.293L45.0556 148.381C44.4778 148.675 44.3061 148.763 44.1295 148.839C44.0549 148.871 43.9794 148.901 43.8719 148.944C43.6062 149.051 43.3578 149.179 43.1064 149.315C42.7496 149.508 42.3877 149.679 42.0157 149.84C41.7128 149.973 41.4174 150.116 41.1229 150.265C40.8421 150.408 40.5586 150.543 40.2737 150.677C39.9065 150.85 39.543 151.028 39.1807 151.211C39.0292 151.286 38.8768 151.357 38.7225 151.426C38.4854 151.532 38.2529 151.646 38.0211 151.763C37.5393 152.006 37.0522 152.238 36.5645 152.468L35.397 153.021L35.16 153.132C34.7535 153.322 34.35 153.516 33.9495 153.719C33.6242 153.882 33.2952 154.038 32.9656 154.193C32.712 154.312 32.4607 154.435 32.2108 154.562C31.9312 154.704 31.6481 154.832 31.361 154.957C31.0349 155.099 30.7192 155.252 30.4066 155.422C30.0567 155.612 29.7013 155.779 29.3363 155.937C29.0307 156.071 28.7327 156.215 28.4355 156.366C28.1775 156.497 27.9171 156.622 27.6549 156.744C27.1493 156.98 26.6507 157.229 26.154 157.483C25.9165 157.604 25.6822 157.719 25.4326 157.813C25.1747 157.912 24.9365 158.039 24.6941 158.17C24.3839 158.338 24.0749 158.486 23.7471 158.616C23.4322 158.749 23.1277 158.906 22.8238 159.063L22.6195 159.168C22.0854 159.441 21.5435 159.695 20.999 159.947C20.5877 160.136 20.179 160.329 19.7753 160.535C19.4886 160.68 19.1982 160.816 18.9068 160.952C18.6395 161.077 18.375 161.207 18.1115 161.34C17.837 161.479 17.5613 161.611 17.2807 161.737C16.5162 162.085 15.7575 162.45 15.0137 162.84L14.9105 162.893L14.6278 163.041C14.4659 163.109 14.3659 163.126 14.193 163.111C13.9428 162.651 13.7014 162.197 13.5082 161.709C13.4232 161.513 13.3241 161.326 13.2218 161.138C13.0746 160.867 12.9373 160.596 12.8133 160.314C12.7482 160.17 12.6807 160.027 12.6118 159.884L12.5445 159.744L12.4095 159.467L12.3473 159.337L12.2909 159.221C12.2744 159.179 12.2646 159.154 12.2589 159.128C12.2506 159.091 12.2506 159.052 12.2506 158.956L12.4323 158.871C12.6807 158.755 12.8092 158.695 12.9335 158.636C13.0577 158.576 13.1814 158.516 13.4275 158.395C13.6777 158.268 13.9345 158.147 14.1883 158.027L14.2065 158.019C14.5095 157.876 14.8112 157.731 15.1102 157.58C15.4487 157.409 15.7908 157.247 16.1338 157.086C16.3893 156.965 16.6424 156.842 16.8941 156.714C17.1749 156.572 17.4592 156.442 17.7473 156.316C18.0945 156.164 18.4351 156.002 18.773 155.831C19.0538 155.688 19.3374 155.553 19.6223 155.419C19.9818 155.25 20.3378 155.075 20.6925 154.896C20.9504 154.768 21.2146 154.645 21.4753 154.523C21.6728 154.431 21.8693 154.337 22.0637 154.238C22.3144 154.111 22.5683 153.992 22.8225 153.872L22.8394 153.864C23.1401 153.722 23.4396 153.579 23.7364 153.429C24.3187 153.135 24.9093 152.858 25.5 152.582C25.9141 152.388 26.3249 152.19 26.733 151.984C26.971 151.865 27.2111 151.752 27.4542 151.643C28.0415 151.376 28.6234 151.096 29.1994 150.805C29.6719 150.567 30.1504 150.342 30.6293 150.117L30.6494 150.107C31.1801 149.858 31.7091 149.606 32.2327 149.342C32.4738 149.221 32.7179 149.107 32.9619 148.992L33.0758 148.939C33.3313 148.818 33.5844 148.694 33.8362 148.566C34.117 148.424 34.4013 148.295 34.6894 148.168C35.0367 148.016 35.3773 147.855 35.7153 147.683C35.9938 147.542 36.275 147.408 36.5576 147.275C36.9124 147.108 37.2641 146.936 37.6141 146.759C37.9094 146.611 38.208 146.47 38.5077 146.331C38.7695 146.208 39.028 146.08 39.2857 145.949C39.5674 145.807 39.8516 145.675 40.1422 145.552C40.4466 145.422 40.7384 145.278 41.0291 145.12C41.3813 144.929 41.7388 144.761 42.1062 144.601C42.4118 144.468 42.7098 144.323 43.007 144.172C43.265 144.042 43.5254 143.917 43.7876 143.795C44.2932 143.559 44.7918 143.31 45.2885 143.056C45.5783 142.908 45.8674 142.775 46.1709 142.659C46.2976 142.607 46.4178 142.549 46.5393 142.486C46.6629 142.424 46.7056 142.403 46.7506 142.396C46.7744 142.392 46.7988 142.392 46.8361 142.392C46.7461 142.003 46.6391 141.623 46.5225 141.242C46.3527 140.685 46.2062 140.124 46.0619 139.56C46.017 139.386 45.9696 139.213 45.9222 139.04C45.6277 137.936 45.3781 136.822 45.1443 135.704C45.114 135.56 45.0828 135.417 45.051 135.274C44.9065 134.619 44.7981 133.959 44.6901 133.298C44.6411 132.998 44.5897 132.698 44.5365 132.398C44.4257 131.774 44.3304 131.149 44.2463 130.522L44.2201 130.327C44.1137 129.534 44.013 128.74 43.9438 127.942C43.932 127.807 43.9165 127.676 43.8962 127.541C43.8592 127.269 43.8404 126.996 43.8215 126.722L43.8146 126.623L43.7877 126.245L43.7759 126.077C43.7638 125.921 43.7496 125.767 43.7346 125.612C43.7004 125.239 43.683 124.866 43.6661 124.492L43.6608 124.378C43.5399 121.761 43.512 119.162 43.6191 116.544L43.6243 116.416C43.6607 115.521 43.702 114.628 43.8034 113.738C43.8263 113.527 43.8414 113.316 43.8566 113.105L43.8653 112.986C43.9587 111.781 44.1034 110.584 44.2748 109.388L44.3444 108.893C44.4277 108.295 44.5208 107.7 44.624 107.105L44.6593 106.9C44.8564 105.758 44.9209 105.384 44.9972 105.012C45.0344 104.831 45.0743 104.65 45.1337 104.382C45.1691 104.22 45.2033 104.058 45.2374 103.895C45.4584 102.846 45.6883 101.798 45.9826 100.767C46.066 100.473 46.1401 100.178 46.2124 99.8816C46.3355 99.3805 46.4799 98.8877 46.6319 98.3947C46.674 98.2575 46.7152 98.1201 46.7562 97.9826C47.1736 96.5865 47.6167 95.1954 48.1312 93.8319L48.2085 93.6236L48.8254 91.9827C48.9955 91.5323 49.1803 91.09 49.3722 90.6485L49.7027 89.8729L49.7863 89.6758C49.9268 89.3469 50.0734 89.0248 50.2355 88.7061C50.2672 88.6291 50.2978 88.5516 50.3265 88.4734C50.4632 88.1249 50.6256 87.7881 50.7882 87.4511L50.8665 87.2885L51.0853 86.8275C51.3167 86.3385 51.5496 85.8518 51.8084 85.3765C51.9376 85.1391 52.0586 84.8985 52.1779 84.6561C52.3448 84.3176 52.5268 83.9921 52.7168 83.6659C52.8372 83.4552 52.9444 83.2384 53.0513 83.0205C53.1951 82.7281 53.3481 82.4499 53.5268 82.1775C53.7267 81.8537 53.9148 81.5247 54.0956 81.1898C54.2099 80.9785 54.3269 80.7686 54.444 80.5588H54.5519L54.589 80.4205C54.6592 80.2368 54.7403 80.1154 54.8567 79.9602C54.9517 79.8262 55.0289 79.6843 55.107 79.5405L55.1277 79.5025C55.2071 79.3577 55.2884 79.2143 55.3714 79.0717L55.4513 78.9332L55.5231 78.8322H55.631L55.6508 78.736C55.6857 78.6138 55.7294 78.5342 55.8007 78.4297L55.871 78.3256L55.9447 78.2185L56.0164 78.1127L56.1573 77.9057C56.2641 77.7514 56.3175 77.6742 56.3664 77.5944C56.4152 77.5147 56.4596 77.4323 56.5483 77.2675H56.6562L56.7 77.1495C56.7641 76.9979 56.8329 76.8637 56.926 76.728H57.0339L57.0474 76.6403C57.1027 76.465 57.1939 76.3348 57.3037 76.1884H57.4116L57.4228 76.1026C57.4789 75.932 57.5805 75.799 57.6874 75.6593L57.7185 75.6185L57.8801 75.4018L57.9676 75.2854C58.1159 75.0874 58.2627 74.8883 58.4095 74.6891L58.4502 74.6338L58.5479 74.5018C58.747 74.2321 58.9407 73.9602 59.1255 73.6805L59.1921 73.5986H59.3L59.3 73.4367C59.3615 73.3732 59.4235 73.3101 59.4878 73.2495C59.6241 73.1122 59.7397 72.9572 59.8552 72.8023L59.9205 72.715L60.0114 72.5957C60.1506 72.4123 60.2875 72.2278 60.4202 72.0395C60.5391 71.8746 60.6672 71.7458 60.8108 71.6022C60.9904 71.3862 61.1685 71.1682 61.3297 70.9381L61.4043 70.8468H61.5122L61.5476 70.761C61.6417 70.5923 61.7631 70.4531 61.8891 70.3088L61.9169 70.2769C62.0234 70.1538 62.0767 70.0923 62.1273 70.0286C62.1779 69.965 62.2258 69.8992 62.3216 69.7677H62.4295L62.4737 69.6714C62.5369 69.5527 62.603 69.4664 62.6925 69.3664L62.7922 69.2547L63.0801 68.9419L63.1677 68.8474L63.3419 68.6606C63.4632 68.5304 63.5715 68.4054 63.6704 68.257H63.7784L63.8863 68.0411H63.9942L64.0347 67.9501C64.1611 67.7162 64.3366 67.5172 64.5337 67.3397H64.6416L64.681 67.2473C64.7637 67.0985 64.8627 66.997 64.983 66.8765L65.1292 66.7293L65.2874 66.5717L65.4495 66.4093L65.7891 66.0703L66.7198 65.139L67.0731 64.7866C67.131 64.7363 67.1569 64.7139 67.1868 64.7039C67.2108 64.6959 67.2375 64.6959 67.2855 64.6959L67.2855 64.588C67.3741 64.5145 67.4644 64.4429 67.5553 64.3722C67.6875 64.2432 67.8161 64.1118 67.9431 63.9776C67.9966 63.9278 68.0208 63.9053 68.0494 63.895C68.0731 63.8866 68.0999 63.8866 68.1488 63.8866L68.2027 63.7247H68.3106L68.3646 63.5628C68.4561 63.4808 68.5511 63.4026 68.6479 63.3268C68.8102 63.1991 68.9609 63.0744 69.1056 62.9268C69.1789 62.8553 69.2083 62.8266 69.2432 62.8151C69.2666 62.8075 69.2925 62.8075 69.3358 62.8075L69.3358 62.6995C69.5006 62.5521 69.5528 62.5054 69.6129 62.4906C69.6407 62.4837 69.6702 62.4837 69.7135 62.4837L69.7674 62.3219H69.8753L69.8753 62.2139C69.9254 62.168 69.9536 62.1422 69.9821 62.1177C70.0173 62.0875 70.0538 62.0588 70.135 61.9948L70.2811 61.8782C70.3467 61.8311 70.3803 61.8071 70.4165 61.7885C70.454 61.7693 70.4944 61.7558 70.5768 61.7283L70.5768 61.6204C70.6942 61.5187 70.7378 61.4809 70.788 61.4669C70.8177 61.4586 70.8497 61.4586 70.9005 61.4586L70.9545 61.2967C71.0119 61.2507 71.043 61.2257 71.075 61.2017C71.113 61.1733 71.1521 61.1464 71.2377 61.0876C71.4541 60.9385 71.6328 60.7814 71.8177 60.5953C71.9352 60.4959 72.0564 60.402 72.1786 60.3086L72.2735 60.2344C72.434 60.111 72.4836 60.0728 72.5389 60.061C72.5637 60.0557 72.5896 60.0557 72.6271 60.0557L72.681 59.8939C72.8015 59.7943 72.9221 59.7019 73.0486 59.6106L73.2828 59.4386L73.4098 59.3457C73.5535 59.2396 73.6958 59.1319 73.8379 59.0238L73.9856 58.9118L74.274 58.692L74.4072 58.5913L74.5258 58.5011C74.5764 58.4679 74.6008 58.4519 74.6275 58.4442C74.6524 58.4371 74.6794 58.4371 74.7314 58.4371L74.7314 58.3292H74.8932L74.8932 58.2212C74.9847 58.1498 75.08 58.0834 75.1765 58.0189L75.3714 57.887L75.4799 57.8138C75.6377 57.7063 75.7937 57.5965 75.9498 57.4866L75.9697 57.4726C76.8937 56.8222 77.8248 56.1845 78.7805 55.5816C78.9393 55.4814 79.0186 55.4313 79.0967 55.3793C79.1748 55.3274 79.2516 55.2736 79.4052 55.166C79.5771 55.0407 79.7583 54.9399 79.945 54.8385C80.2886 54.6494 80.6217 54.4411 80.9543 54.2331L81.132 54.1221C81.31 54.0151 81.4903 53.9141 81.6721 53.8138C81.8904 53.6924 82.1061 53.5662 82.3218 53.44L82.4318 53.3757C82.9549 53.0714 83.4881 52.7873 84.0252 52.5087C84.3804 52.3241 84.7349 52.1386 85.0874 51.9489C86.1102 51.4009 87.1602 50.8981 88.2228 50.4325C88.4742 50.3221 88.7197 50.2035 88.964 50.0782C89.1287 49.998 89.2981 49.9322 89.4687 49.866L89.4861 49.8592C89.625 49.8034 89.7604 49.7424 89.8962 49.6794C90.5992 49.3563 91.3227 49.0773 92.0477 48.8079L92.3819 48.6835C92.5965 48.6032 92.8082 48.5184 93.0189 48.4283C93.3828 48.2747 93.7546 48.1456 94.1277 48.0166L95.0526 47.6941C95.3642 47.5857 95.6766 47.4801 95.9897 47.3762C96.148 47.3235 96.3061 47.27 96.4641 47.2162C97.027 47.0255 97.5895 46.8444 98.1634 46.6902C98.4815 46.6045 98.7973 46.5113 99.1132 46.4181L99.2496 46.3779C99.9639 46.1682 100.684 45.9842 101.406 45.8057L101.809 45.7058C102.798 45.4602 103.787 45.2333 104.786 45.0342L105.199 44.9501C105.494 44.8894 105.789 44.8349 106.087 44.7901C106.377 44.7461 106.664 44.6941 106.952 44.6379C107.702 44.4919 108.451 44.387 109.209 44.295C109.501 44.2592 109.79 44.2139 110.08 44.164C110.333 44.1227 110.587 44.0933 110.841 44.0647L111.021 44.0444L111.87 43.9512C114.462 43.6657 117.045 43.5719 119.652 43.5785ZM123.884 82.6467C124.043 82.6721 124.202 82.6901 124.362 82.708L124.421 82.7147C124.902 82.7728 125.376 82.8668 125.851 82.9611C125.99 82.9881 126.13 83.0127 126.27 83.0372C126.64 83.1039 127.005 83.19 127.371 83.2761L127.487 83.3034C127.998 83.4233 128.506 83.547 129.01 83.6893L129.259 83.7571C130.533 84.1087 131.777 84.5455 133.003 85.0381L133.172 85.1059C134.693 85.7203 136.156 86.4567 137.589 87.2503C137.589 87.4911 137.54 87.5418 137.385 87.6999L137.369 87.716L137.27 87.8141L137.165 87.9195C137.049 88.0366 136.933 88.1528 136.816 88.2691L136.567 88.5198C136.341 88.7472 136.115 88.9739 135.888 89.2003L135.321 89.7676C134.851 90.2393 134.38 90.7103 133.908 91.181C133.499 91.5901 133.09 92.0001 132.682 92.4105C132.263 92.8316 131.843 93.2521 131.423 93.672C131.187 93.9079 130.951 94.144 130.716 94.3807C130.495 94.6031 130.273 94.8248 130.05 95.0459L129.806 95.291C129.696 95.4026 129.584 95.5132 129.472 95.6235L129.375 95.7235C129.284 95.8121 129.284 95.8121 129.118 95.9371C129.037 95.9345 129 95.9333 128.964 95.9252C128.933 95.9181 128.904 95.9059 128.849 95.8832L128.745 95.8428L128.643 95.7945C127.324 95.1909 125.92 94.763 124.516 94.4101C124.422 94.3857 124.328 94.3599 124.234 94.3324C123.807 94.2071 123.375 94.1368 122.936 94.0689L122.554 94.0082C122.279 93.9645 122.003 93.925 121.726 93.8868L121.567 93.8643C120.548 93.7239 119.545 93.7013 118.519 93.7076C118.36 93.7083 118.201 93.708 118.041 93.7078L118.034 93.7077C116.827 93.7062 115.632 93.7412 114.442 93.9644L114.241 94.0008L113.855 94.0717C113.718 94.097 113.581 94.1214 113.443 94.1448C111.904 94.4153 110.386 94.8494 108.946 95.4575C108.793 95.5215 108.638 95.5819 108.484 95.6423L108.42 95.6674C107.533 96.0243 106.697 96.4398 105.864 96.9083L105.713 96.992C105.098 97.335 104.499 97.6914 103.921 98.0954L103.828 98.1597C102.888 98.8145 101.99 99.5208 101.143 100.293C101.068 100.361 100.993 100.428 100.917 100.493C100.617 100.75 100.336 101.025 100.057 101.305L99.8229 101.539C99.5409 101.821 99.2696 102.108 99.0112 102.412L98.8554 102.589C98.4801 103.019 98.1321 103.464 97.7949 103.924C97.7187 104.027 97.6417 104.13 97.5645 104.233C97.1954 104.726 96.8582 105.236 96.5292 105.757L96.3834 105.986L96.2426 106.209L96.1798 106.308C95.4525 107.469 94.8684 108.745 94.371 110.02L94.3178 110.156C93.7555 111.609 93.2754 113.145 93.0433 114.688C93.0179 114.848 92.9889 115.007 92.96 115.166L92.9567 115.183C92.4283 118.121 92.5278 121.167 93.022 124.102L93.0529 124.287C93.0802 124.449 93.1082 124.611 93.1367 124.773L93.1606 124.91C93.2091 125.174 93.2755 125.427 93.3552 125.683C93.4039 125.842 93.4486 126.002 93.4929 126.162C93.7353 127.035 94.0085 127.891 94.317 128.742L94.3585 128.858C94.624 129.594 94.9775 130.294 95.3322 130.991L95.4671 131.257C96.1788 132.666 97.0261 133.966 97.9859 135.217L98.0618 135.316C98.9698 136.497 99.977 137.671 101.118 138.634C101.272 138.766 101.421 138.904 101.57 139.043C101.598 139.069 101.626 139.095 101.655 139.122C101.824 139.269 101.998 139.407 102.176 139.544C102.296 139.636 102.415 139.73 102.534 139.824C102.999 140.192 103.469 140.543 103.969 140.863C104.093 140.943 104.217 141.024 104.341 141.106L104.352 141.112C105.515 141.871 106.747 142.54 108.022 143.094L108.132 143.142C108.695 143.387 109.261 143.612 109.843 143.808L110.002 143.863L110.228 143.942C110.889 144.172 111.557 144.352 112.237 144.514C112.4 144.553 112.561 144.594 112.723 144.635C116.02 145.461 119.575 145.456 122.913 144.875L123.16 144.835C123.575 144.764 123.978 144.662 124.383 144.546C124.613 144.479 124.843 144.42 125.077 144.369C126.335 144.095 127.557 143.599 128.741 143.094L128.867 143.041C129.605 142.725 130.307 142.355 131.007 141.961L131.213 141.847C132.746 140.988 134.205 139.946 135.496 138.754C135.575 138.682 135.654 138.61 135.736 138.54C136.071 138.255 136.38 137.945 136.69 137.634L136.971 137.354C137.278 137.046 137.579 136.737 137.859 136.404L138.001 136.24C138.981 135.096 139.833 133.862 140.611 132.573L140.696 132.434C140.856 132.17 141.006 131.904 141.14 131.625C141.274 131.351 141.413 131.081 141.559 130.813C141.739 130.479 141.9 130.155 142.02 129.795C142.07 129.654 142.129 129.521 142.192 129.386C142.388 128.964 142.553 128.531 142.715 128.095L142.756 127.985C142.97 127.4 143.131 126.799 143.292 126.196L143.323 126.079C143.451 125.6 143.563 125.122 143.654 124.635C143.672 124.547 143.68 124.509 143.694 124.472C143.704 124.445 143.717 124.418 143.74 124.372C143.758 124.256 143.773 124.14 143.787 124.024C143.822 123.753 143.861 123.484 143.907 123.214C144.007 122.617 144.058 122.021 144.098 121.418L144.117 121.132L144.226 119.516C143.175 120.01 142.137 120.529 141.099 121.049L132.583 125.311C132.321 125.442 132.058 125.567 131.792 125.69C131.42 125.865 131.056 126.05 130.694 126.244C130.088 126.568 129.471 126.866 128.849 127.158C128.548 127.3 128.254 127.452 127.962 127.612C127.675 127.767 127.382 127.904 127.086 128.041C126.833 128.159 126.585 128.285 126.34 128.418C126.018 128.593 125.691 128.751 125.36 128.904C125.106 129.022 124.859 129.148 124.613 129.282C124.33 129.436 124.043 129.578 123.75 129.713C123.459 129.848 123.174 129.988 122.893 130.142C122.591 130.306 122.284 130.457 121.973 130.604C121.398 130.873 120.829 131.151 120.27 131.451C119.821 131.692 119.366 131.916 118.906 132.133C118.617 132.269 118.33 132.409 118.045 132.552L117.931 132.608C117.528 132.811 117.125 133.014 116.722 133.217C115.721 133.721 114.72 134.224 113.719 134.726C113.141 135.016 112.563 135.307 111.986 135.598C111.48 135.853 110.974 136.107 110.468 136.361C110.2 136.495 109.933 136.629 109.666 136.764C109.416 136.891 109.165 137.017 108.914 137.142L108.638 137.281C108.513 137.345 108.387 137.407 108.262 137.47L108.152 137.527C107.924 137.638 107.78 137.66 107.536 137.591C107.476 137.565 107.446 137.553 107.417 137.539C107.388 137.525 107.36 137.509 107.304 137.478L107.176 137.408L107.04 137.331L106.897 137.251C105.37 136.388 103.955 135.352 102.666 134.164C102.588 134.094 102.511 134.024 102.431 133.956C102.095 133.67 101.784 133.358 101.473 133.046L101.429 133.002L101.125 132.698C100.805 132.378 100.489 132.057 100.198 131.71L100.044 131.533C98.6016 129.862 98.4384 129.673 98.4199 129.471C98.4176 129.445 98.4176 129.419 98.4176 129.39L113.699 121.748C113.953 121.621 114.209 121.5 114.466 121.381C114.838 121.206 115.203 121.021 115.565 120.827C116.171 120.503 116.788 120.204 117.41 119.913C117.711 119.771 118.005 119.618 118.297 119.459C118.583 119.304 118.877 119.167 119.172 119.03C119.426 118.912 119.673 118.786 119.919 118.652C120.24 118.477 120.567 118.32 120.899 118.167C121.152 118.049 121.4 117.923 121.645 117.789C121.927 117.636 122.211 117.495 122.502 117.361C122.815 117.216 123.122 117.063 123.426 116.899C123.767 116.715 124.113 116.546 124.465 116.384C124.751 116.251 125.029 116.105 125.306 115.955C125.594 115.799 125.889 115.66 126.187 115.523C126.44 115.405 126.688 115.279 126.933 115.145C127.254 114.97 127.581 114.813 127.913 114.66C128.167 114.542 128.414 114.416 128.66 114.282C128.981 114.107 129.308 113.95 129.64 113.796C129.893 113.678 130.141 113.552 130.386 113.419C130.67 113.264 130.957 113.122 131.25 112.987C131.536 112.855 131.816 112.717 132.093 112.566C132.435 112.379 132.785 112.21 133.138 112.043C133.484 111.879 133.827 111.713 134.163 111.53C134.546 111.322 134.938 111.134 135.333 110.948C135.617 110.814 135.899 110.677 136.179 110.536L150.542 103.354C150.851 103.199 151.164 103.052 151.478 102.906C151.672 102.815 151.861 102.722 152.046 102.613C152.15 102.554 152.189 102.533 152.23 102.524C152.254 102.52 152.279 102.52 152.319 102.52L152.785 103.443C153.062 103.991 153.319 104.545 153.56 105.11L153.627 105.263C153.821 105.712 154.013 106.16 154.155 106.629C154.198 106.754 154.246 106.868 154.302 106.988C154.458 107.332 154.576 107.691 154.695 108.049L154.73 108.155L154.773 108.283C155.205 109.585 155.551 110.905 155.8 112.255C155.852 112.53 155.907 112.804 155.964 113.078C156.159 114.009 156.296 114.942 156.395 115.887C156.411 116.034 156.427 116.181 156.445 116.328C156.593 117.601 156.596 118.873 156.595 120.153L156.595 120.286C156.595 120.543 156.594 120.799 156.593 121.056L156.592 121.293C156.591 121.676 156.585 122.051 156.528 122.429C156.523 122.504 156.518 122.578 156.516 122.652L156.507 122.898C156.466 123.833 156.394 124.783 156.19 125.698C156.144 125.909 156.11 126.121 156.076 126.334C155.757 128.287 155.238 130.186 154.627 132.066L154.515 132.415C154.356 132.903 154.174 133.38 153.985 133.857L153.849 134.202C153.713 134.549 153.57 134.886 153.398 135.217C153.379 135.26 153.361 135.303 153.342 135.347C153.321 135.394 153.301 135.442 153.281 135.49C152.774 136.679 152.161 137.824 151.51 138.94L151.39 139.148C151.094 139.659 150.781 140.156 150.452 140.645L150.226 140.983C149.635 141.868 149.013 142.725 148.334 143.547C148.222 143.683 148.112 143.822 148.003 143.961C147.818 144.192 147.623 144.411 147.424 144.629C147.3 144.768 147.184 144.911 147.069 145.057C146.86 145.314 146.636 145.546 146.4 145.778C146.257 145.918 146.119 146.06 145.989 146.214C145.59 146.682 145.139 147.126 144.669 147.523C144.53 147.644 144.396 147.77 144.262 147.897C143.947 148.193 143.631 148.48 143.293 148.75C143.163 148.854 143.037 148.962 142.911 149.071C142.456 149.463 141.976 149.82 141.493 150.176C141.419 150.231 141.345 150.287 141.271 150.342C141.235 150.369 141.199 150.396 141.162 150.424C140.278 151.087 139.346 151.696 138.399 152.267L138.261 152.35C135.867 153.79 133.3 154.971 130.64 155.826C130.476 155.879 130.313 155.932 130.149 155.986C129.506 156.197 128.859 156.373 128.201 156.529L127.84 156.617L127.705 156.649C127.575 156.685 127.452 156.727 127.326 156.772C127.066 156.859 126.81 156.899 126.538 156.934C126.248 156.971 125.968 157.018 125.684 157.094C125.294 157.195 124.899 157.242 124.499 157.289L124.481 157.291L124.145 157.333L123.843 157.369C123.738 157.383 123.633 157.4 123.529 157.421C123.387 157.449 123.25 157.461 123.106 157.471L122.932 157.484L122.751 157.497L122.21 157.536C122.059 157.549 121.911 157.564 121.761 157.581C120.93 157.676 120.1 157.681 119.265 157.679C119.102 157.679 118.939 157.679 118.776 157.68C117.656 157.687 116.554 157.634 115.439 157.52C115.225 157.498 115.011 157.477 114.796 157.458C114.679 157.447 114.562 157.435 114.445 157.422C114.354 157.412 114.263 157.402 114.173 157.392L114.039 157.378C112.74 157.237 111.456 156.965 110.183 156.674L110.01 156.635C109.745 156.572 109.66 156.552 109.579 156.524C109.541 156.511 109.504 156.496 109.449 156.474C109.326 156.425 109.212 156.394 109.083 156.367C107.824 156.1 106.58 155.657 105.393 155.166C105.183 155.08 104.972 155.002 104.757 154.927C104.283 154.761 103.826 154.571 103.379 154.341C103.209 154.258 103.037 154.182 102.863 154.107C102.511 153.954 102.174 153.798 101.85 153.592C101.668 153.483 101.48 153.391 101.291 153.299L101.284 153.295C100.97 153.141 100.667 152.978 100.367 152.797C100.22 152.711 100.071 152.63 99.9209 152.549C99.6012 152.375 99.2921 152.187 98.984 151.994L98.8137 151.887C97.6868 151.176 96.5963 150.404 95.5579 149.569L95.4503 149.483C95.0509 149.163 94.6573 148.841 94.2807 148.494C94.1517 148.379 94.0179 148.273 93.8819 148.166C93.5578 147.905 93.269 147.611 92.9782 147.314C92.798 147.13 92.617 146.953 92.4211 146.786C92.1894 146.587 91.9952 146.362 91.8027 146.126C91.7826 146.102 91.7672 146.083 91.7535 146.068C91.7427 146.055 91.733 146.045 91.7229 146.034C91.6902 146.001 91.6537 145.971 91.5652 145.9C91.2931 145.908 91.0674 146.025 90.8325 146.147L90.7681 146.18L90.6305 146.249L90.1961 146.47L89.3496 146.898C88.8065 147.173 88.2633 147.448 87.7107 147.704C87.2579 147.916 86.8167 148.147 86.3761 148.383C86.2372 148.457 86.0975 148.53 85.9572 148.601L85.8343 148.664C85.7868 148.684 85.7627 148.695 85.7375 148.7C85.7117 148.706 85.6847 148.706 85.6301 148.706L83.5713 144.588L83.369 144.185C83.1728 143.796 82.9823 143.405 82.7974 143.01C82.6355 142.665 82.4647 142.326 82.2821 141.992C82.1271 141.705 81.9897 141.411 81.8531 141.116C81.7205 140.831 81.5761 140.555 81.4257 140.279C81.2538 139.96 81.1 139.634 80.9485 139.306C80.8287 139.048 80.6985 138.799 80.5552 138.554C80.5294 138.503 80.5166 138.478 80.5104 138.452C80.5043 138.426 80.5043 138.399 80.5043 138.346C81.0191 138.067 81.5376 137.802 82.0677 137.553C82.6883 137.262 83.297 136.952 83.9013 136.628C84.2022 136.469 84.5077 136.323 84.8208 136.188C84.7888 135.999 84.7397 135.841 84.6587 135.668L84.5922 135.525L84.5207 135.372C84.1309 134.526 83.7718 133.678 83.4745 132.795L83.3133 132.32C82.9225 131.175 82.5513 130.027 82.3 128.842C82.2476 128.595 82.1835 128.356 82.1068 128.115C82.0024 127.759 81.9427 127.388 81.8835 127.02C81.8734 126.957 81.8633 126.895 81.853 126.832C81.8462 126.791 81.8393 126.749 81.8322 126.708C81.7855 126.436 81.738 126.164 81.6872 125.893C81.5535 125.172 81.4722 124.456 81.4216 123.724L81.4077 123.526C81.3885 123.251 81.3694 122.976 81.3513 122.7L81.3388 122.511L81.328 122.345C81.3167 122.198 81.302 122.052 81.2859 121.906C81.2558 121.609 81.2501 121.314 81.2488 121.015L81.2477 120.842L81.2463 120.281L81.2461 120.087C81.2465 118.325 81.3546 116.568 81.5835 114.822L81.6038 114.663C81.6694 114.155 81.744 113.656 81.8676 113.158C81.9117 112.968 81.9433 112.778 81.9747 112.586C82.2683 110.855 82.7573 109.129 83.3641 107.484L83.4214 107.326C83.7032 106.552 84.0087 105.79 84.3307 105.032C84.381 104.913 84.4307 104.794 84.4801 104.675C84.6801 104.197 84.9082 103.736 85.1446 103.275L85.2273 103.113C85.9205 101.754 86.6613 100.437 87.5187 99.1745L87.596 99.06C88.5734 97.6147 89.6255 96.2253 90.8003 94.9335C90.8803 94.8454 90.9598 94.7569 91.0389 94.6679C91.2804 94.3963 91.5287 94.1354 91.7894 93.882C91.8384 93.8341 91.8654 93.8077 91.8893 93.7788C91.9184 93.7434 91.9428 93.7042 91.997 93.6171H92.1049L92.1409 93.5258C92.2299 93.3716 92.3418 93.2733 92.4729 93.1582L92.4995 93.1348C92.7466 92.9145 92.9828 92.6869 93.2144 92.4503C93.4657 92.195 93.7265 91.9639 94.0077 91.7413C94.1676 91.6106 94.3183 91.4719 94.4688 91.3307C94.7821 91.039 95.1131 90.7758 95.4524 90.5153C95.5654 90.428 95.6776 90.3397 95.7897 90.2512C96.6359 89.5844 97.5157 88.9721 98.4177 88.3834L98.5377 88.3051C100.318 87.1492 102.297 85.9751 104.303 85.2593C104.451 85.2035 104.593 85.141 104.736 85.0736C105.051 84.9292 105.371 84.8044 105.695 84.6841L105.867 84.6197C106.206 84.4945 106.545 84.3774 106.891 84.2762C107.069 84.2234 107.243 84.164 107.418 84.104C108.501 83.7394 109.606 83.4579 110.72 83.2037L110.887 83.1653C111.831 82.9524 112.784 82.8023 113.741 82.6641L113.913 82.6392C114.229 82.5945 114.545 82.5558 114.862 82.5214C114.981 82.5084 115.099 82.4945 115.218 82.4799C118.029 82.1402 121.093 82.1688 123.884 82.6467ZM72.8427 129.928L72.8854 130.019L72.8888 130.026C73.0607 130.39 73.1472 130.573 73.2353 130.755C73.3239 130.938 73.4142 131.121 73.5947 131.486C74.0161 132.322 74.4186 133.167 74.7851 134.029L74.6148 134.108C74.2263 134.29 73.8391 134.473 73.4564 134.666C73.0638 134.864 72.6676 135.054 72.2707 135.244C71.8425 135.448 71.4151 135.654 70.9879 135.86C70.4458 136.122 69.9032 136.383 69.3601 136.644C69.061 136.787 68.7621 136.931 68.4636 137.076C67.7899 137.403 67.1144 137.725 66.4324 138.034C66.0979 138.187 65.7677 138.345 65.44 138.512C65.1671 138.65 64.8914 138.782 64.6144 138.912C64.3022 139.059 63.9917 139.208 63.6837 139.364C63.2933 139.561 62.8994 139.75 62.5047 139.938C62.0765 140.142 61.6491 140.348 61.222 140.554C60.6798 140.816 60.1373 141.077 59.5943 141.338C59.1608 141.546 58.7278 141.755 58.2949 141.964C57.7804 142.212 57.2654 142.46 56.7497 142.706C56.2999 142.921 55.851 143.138 55.4021 143.354C54.9481 143.574 54.4938 143.793 54.0391 144.011C53.5865 144.228 53.1343 144.445 52.6823 144.664L51.622 145.176C50.9251 145.513 50.2261 145.844 49.5211 146.164C49.2256 146.299 48.9428 146.439 48.6672 146.611C48.6156 146.633 48.5895 146.643 48.5623 146.648C48.5344 146.652 48.5054 146.65 48.4465 146.645C48.4092 146.629 48.3859 146.618 48.3668 146.602C48.335 146.576 48.3151 146.535 48.2621 146.426C48.2332 146.345 48.2054 146.264 48.1782 146.182L48.1307 146.046L48.0264 145.743C47.9654 145.564 47.9028 145.386 47.8399 145.208C47.2495 143.528 47.1127 143.138 47.0232 142.738C46.9962 142.618 46.9735 142.496 46.944 142.338C47.4178 142.098 47.8938 141.864 48.3738 141.637C48.7061 141.479 49.0371 141.32 49.3653 141.154C49.8216 140.924 50.283 140.704 50.7445 140.485L50.8797 140.42L51.8669 139.947C52.2703 139.754 52.6733 139.559 53.0762 139.365L54.1344 138.854C54.7848 138.539 55.4371 138.23 56.0928 137.927C56.5248 137.728 56.9547 137.526 57.3788 137.31C57.6503 137.173 57.9249 137.042 58.2005 136.912C58.4922 136.775 58.7827 136.636 59.0705 136.491C59.4412 136.304 59.8154 136.125 60.1901 135.946C60.6201 135.741 61.0493 135.535 61.4783 135.327C61.9658 135.092 62.4536 134.857 62.9418 134.622C63.3944 134.405 63.8467 134.188 64.2987 133.969L65.3589 133.457C66.0499 133.123 66.7435 132.796 67.4411 132.476C67.7935 132.314 68.1426 132.147 68.4884 131.971C68.7595 131.834 69.0335 131.703 69.3086 131.574C69.6208 131.427 69.9313 131.278 70.2393 131.122C70.7489 130.865 71.2641 130.62 71.7797 130.375L72.0581 130.243L72.5908 129.99C72.6755 129.954 72.7104 129.939 72.7468 129.933C72.7721 129.928 72.7983 129.928 72.8427 129.928ZM86.871 150.431C86.9052 150.488 86.9243 150.519 86.9419 150.551C86.9642 150.592 86.9842 150.634 87.0293 150.73L87.121 150.921L87.2184 151.129L87.3196 151.342C87.5676 151.865 87.8097 152.39 88.0503 152.916C88.2191 153.284 88.3937 153.648 88.5803 154.008C88.6606 154.164 88.7208 154.307 88.7595 154.478L88.5892 154.557L88.3548 154.667L88.2441 154.718C87.935 154.863 87.6297 155.015 87.3246 155.168C86.9029 155.38 86.4792 155.587 86.0549 155.793L85.9309 155.854C85.3876 156.118 84.8421 156.375 84.2907 156.622C83.9758 156.764 83.6663 156.913 83.3586 157.07C83.0839 157.209 82.8064 157.342 82.5276 157.473C82.2154 157.619 81.9049 157.769 81.5969 157.924C81.2065 158.121 80.8126 158.31 80.4179 158.498C79.9896 158.703 79.5623 158.908 79.1351 159.115C78.3684 159.485 77.6008 159.854 76.833 160.222C76.1435 160.553 75.4544 160.884 74.766 161.217C74.2593 161.462 73.7521 161.705 73.2447 161.949C72.8136 162.156 72.3829 162.363 71.9523 162.571C71.4123 162.832 70.8719 163.092 70.3311 163.352C69.9333 163.542 69.5359 163.734 69.1387 163.926L68.0784 164.438C67.3874 164.772 66.6938 165.099 65.9963 165.419C65.6438 165.581 65.2947 165.748 64.9489 165.924C64.6779 166.061 64.4038 166.192 64.1288 166.321C63.8165 166.468 63.506 166.618 63.198 166.773C62.4055 167.173 61.6012 167.55 60.7973 167.926L60.5947 168.021C60.2067 167.574 59.8397 167.114 59.4825 166.642C59.3294 166.44 59.1736 166.24 59.017 166.041C58.7211 165.664 58.4315 165.283 58.1498 164.895L58.0587 164.77L57.9751 164.654L57.9015 164.552C57.8785 164.516 57.8646 164.494 57.8529 164.471C57.8347 164.435 57.8218 164.396 57.789 164.298C58.252 164.041 58.719 163.808 59.2046 163.597C59.5092 163.463 59.8066 163.319 60.1029 163.169C60.3837 163.026 60.6672 162.891 60.9521 162.757C61.2439 162.62 61.5343 162.481 61.8222 162.335C62.1928 162.148 62.5671 161.97 62.9418 161.791C63.2393 161.649 63.5364 161.507 63.8329 161.363C64.5325 161.023 65.234 160.69 65.9411 160.366C66.29 160.206 66.6354 160.04 66.9776 159.866C67.2487 159.729 67.5227 159.598 67.7977 159.469C68.11 159.322 68.4205 159.173 68.7285 159.017C69.1902 158.784 69.6569 158.562 70.1238 158.34L70.2497 158.28L71.2369 157.807C71.7068 157.581 72.1763 157.354 72.6458 157.128C73.1525 156.883 73.6596 156.639 74.167 156.396C74.5982 156.189 75.0289 155.981 75.4594 155.773C76.1143 155.457 76.7698 155.141 77.4255 154.827L79.2806 153.937C79.7685 153.702 80.2564 153.468 80.7447 153.235C81.299 152.97 81.8525 152.704 82.4056 152.436C82.9138 152.191 83.4225 151.946 83.9315 151.702C84.238 151.555 84.5443 151.408 84.8502 151.26L85.4584 150.965L85.8255 150.788C85.9521 150.728 86.0783 150.667 86.2043 150.605L86.3947 150.514L86.566 150.43C86.634 150.405 86.6697 150.392 86.7058 150.391C86.7457 150.39 86.7861 150.403 86.871 150.431ZM71.9625 144.297L71.7635 143.903C71.7097 143.903 71.6827 143.903 71.657 143.908C71.6312 143.914 71.6066 143.926 71.5573 143.949C71.4777 143.991 71.3973 144.031 71.3163 144.07L71.0208 144.212C70.4804 144.471 69.9405 144.731 69.401 144.991C68.9031 145.232 68.4048 145.472 67.9057 145.71C67.4375 145.934 66.97 146.159 66.5028 146.385C66.0734 146.592 65.6437 146.799 65.2131 147.005C64.8185 147.193 64.4247 147.382 64.0344 147.578C63.7264 147.734 63.4159 147.883 63.1037 148.03C62.8304 148.159 62.5582 148.288 62.2889 148.425C61.8948 148.625 61.4959 148.814 61.0946 149C60.0911 149.463 59.0951 149.942 58.0999 150.423C57.7005 150.616 57.301 150.808 56.9011 151C56.3603 151.259 55.82 151.519 55.2801 151.78C54.8967 151.966 54.5132 152.151 54.1291 152.335C53.5799 152.597 53.0313 152.861 52.4877 153.135C52.2984 153.231 52.1088 153.326 51.919 153.42L51.4223 153.669L51.4993 153.834C51.807 154.497 52.1154 155.161 52.4811 155.793C52.5933 155.985 52.7026 156.177 52.8073 156.373L53.1117 156.95L53.2117 157.142L53.3067 157.322C53.3539 157.412 53.3749 157.452 53.398 157.491C53.4166 157.522 53.4366 157.553 53.4726 157.607C53.5497 157.633 53.5939 157.648 53.6379 157.647C53.6968 157.647 53.7554 157.619 53.8923 157.554L53.9953 157.503C54.2857 157.363 54.5739 157.219 54.8619 157.075C55.179 156.915 55.4983 156.76 55.8196 156.609C56.0947 156.48 56.3687 156.349 56.6398 156.212C56.9856 156.036 57.3347 155.869 57.6872 155.707C58.3846 155.387 59.078 155.06 59.7688 154.726L60.8361 154.211C61.23 154.02 61.6242 153.831 62.0191 153.642C62.4138 153.454 62.8077 153.265 63.1981 153.068C63.5061 152.913 63.8165 152.763 64.1288 152.617C64.4039 152.487 64.6779 152.357 64.949 152.219C65.2948 152.043 65.6439 151.876 65.9963 151.714C66.6937 151.394 67.3872 151.067 68.0779 150.733L69.1453 150.218C69.5391 150.028 69.9334 149.838 70.3282 149.65C70.7252 149.461 71.1213 149.27 71.514 149.072C71.8018 148.927 72.0918 148.787 72.384 148.651C72.8289 148.443 73.2679 148.225 73.7059 148.003C73.4245 147.348 73.1193 146.705 72.8066 146.064L72.7962 146.042C72.634 145.71 72.4719 145.378 72.3199 145.041C72.2238 144.827 72.1233 144.617 72.018 144.407L71.9625 144.297Z" fill="white"/>
</g>
</g>
</g>
<defs>
<filter id="filter0_d_209_339" x="-187.639" y="-123.278" width="547.096" height="486.557" filterUnits="userSpaceOnUse" color-interpolation-filters="sRGB">
<feFlood flood-opacity="0" result="BackgroundImageFix"/>
<feColorMatrix in="SourceAlpha" type="matrix" values="0 0 0 0 0 0 0 0 0 0 0 0 0 0 0 0 0 0 127 0" result="hardAlpha"/>
<feOffset/>
<feGaussianBlur stdDeviation="81.5174"/>
<feComposite in2="hardAlpha" operator="out"/>
<feColorMatrix type="matrix" values="0 0 0 0 0.0392157 0 0 0 0 0.0784314 0 0 0 0 0.117647 0 0 0 1 0"/>
<feBlend mode="normal" in2="BackgroundImageFix" result="effect1_dropShadow_209_339"/>
<feBlend mode="normal" in="SourceGraphic" in2="effect1_dropShadow_209_339" result="shape"/>
</filter>
<filter id="filter1_d_209_339" x="-28.6045" y="43.5775" width="229.026" height="160.845" filterUnits="userSpaceOnUse" color-interpolation-filters="sRGB">
<feFlood flood-opacity="0" result="BackgroundImageFix"/>
<feColorMatrix in="SourceAlpha" type="matrix" values="0 0 0 0 0 0 0 0 0 0 0 0 0 0 0 0 0 0 127 0" result="hardAlpha"/>
<feOffset dy="4"/>
<feGaussianBlur stdDeviation="2"/>
<feComposite in2="hardAlpha" operator="out"/>
<feColorMatrix type="matrix" values="0 0 0 0 0 0 0 0 0 0 0 0 0 0 0 0 0 0 0.43 0"/>
<feBlend mode="normal" in2="BackgroundImageFix" result="effect1_dropShadow_209_339"/>
<feBlend mode="normal" in="SourceGraphic" in2="effect1_dropShadow_209_339" result="shape"/>
</filter>
<linearGradient id="paint0_linear_209_339" x1="119.985" y1="1.8641e-05" x2="123.625" y2="239.945" gradientUnits="userSpaceOnUse">
<stop stop-color="#0D965E"/>
<stop offset="0.9" stop-color="#00683F"/>
</linearGradient>
<clipPath id="clip0_209_339">
<rect width="240" height="240" fill="white"/>
</clipPath>
</defs>
</svg>
