<svg width="25" height="24" viewBox="0 0 25 24" fill="none" xmlns="http://www.w3.org/2000/svg">
<path d="M17.1496 3.86011H10.4096V6.88011C10.4096 7.27011 10.0896 7.58011 9.70963 7.58011C9.32963 7.58011 9.00963 7.27011 9.00963 6.88011V3.86011H7.84963C3.89963 3.86011 2.59963 5.04011 2.50963 8.73011C2.49963 8.91011 2.57963 9.10011 2.70963 9.23011C2.83963 9.37011 3.00963 9.44011 3.20963 9.44011C4.60963 9.44011 5.75963 10.6001 5.75963 12.0001C5.75963 13.4001 4.60963 14.5601 3.20963 14.5601C3.01963 14.5601 2.83963 14.6301 2.70963 14.7701C2.57963 14.9001 2.49963 15.0901 2.50963 15.2701C2.59963 18.9601 3.89963 20.1401 7.84963 20.1401H9.00963V17.1201C9.00963 16.7301 9.32963 16.4201 9.70963 16.4201C10.0896 16.4201 10.4096 16.7301 10.4096 17.1201V20.1401H17.1496C21.2496 20.1401 22.4996 18.8901 22.4996 14.7901V9.21011C22.4996 5.11011 21.2496 3.86011 17.1496 3.86011ZM18.9696 11.9001L18.0396 12.8001C17.9996 12.8301 17.9896 12.8901 17.9996 12.9401L18.2196 14.2101C18.2596 14.4401 18.1696 14.6801 17.9696 14.8201C17.7796 14.9601 17.5296 14.9801 17.3196 14.8701L16.1696 14.2701C16.1296 14.2501 16.0696 14.2501 16.0296 14.2701L14.8796 14.8701C14.7896 14.9201 14.6896 14.9401 14.5896 14.9401C14.4596 14.9401 14.3396 14.9001 14.2296 14.8201C14.0396 14.6801 13.9396 14.4501 13.9796 14.2101L14.1996 12.9401C14.2096 12.8901 14.1896 12.8401 14.1596 12.8001L13.2296 11.9001C13.0596 11.7401 12.9996 11.4901 13.0696 11.2701C13.1396 11.0401 13.3296 10.8801 13.5696 10.8501L14.8496 10.6601C14.8996 10.6501 14.9396 10.6201 14.9696 10.5801L15.5396 9.42011C15.6496 9.21011 15.8596 9.08011 16.0996 9.08011C16.3396 9.08011 16.5496 9.21011 16.6496 9.42011L17.2196 10.5801C17.2396 10.6301 17.2796 10.6601 17.3296 10.6601L18.6096 10.8501C18.8496 10.8801 19.0396 11.0501 19.1096 11.2701C19.1996 11.4901 19.1396 11.7301 18.9696 11.9001Z" fill="#10BB76"/>
</svg>
