<svg width="24" height="24" viewBox="0 0 24 24" fill="none" xmlns="http://www.w3.org/2000/svg">
<path d="M16.6496 3.86011H9.90963V6.88011C9.90963 7.27011 9.58963 7.58011 9.20963 7.58011C8.82963 7.58011 8.50963 7.27011 8.50963 6.88011V3.86011H7.34963C3.39963 3.86011 2.09963 5.04011 2.00963 8.73011C1.99963 8.91011 2.07963 9.10011 2.20963 9.23011C2.33963 9.37011 2.50963 9.44011 2.70963 9.44011C4.10963 9.44011 5.25963 10.6001 5.25963 12.0001C5.25963 13.4001 4.10963 14.5601 2.70963 14.5601C2.51963 14.5601 2.33963 14.6301 2.20963 14.7701C2.07963 14.9001 1.99963 15.0901 2.00963 15.2701C2.09963 18.9601 3.39963 20.1401 7.34963 20.1401H8.50963V17.1201C8.50963 16.7301 8.82963 16.4201 9.20963 16.4201C9.58963 16.4201 9.90963 16.7301 9.90963 17.1201V20.1401H16.6496C20.7496 20.1401 21.9996 18.8901 21.9996 14.7901V9.21011C21.9996 5.11011 20.7496 3.86011 16.6496 3.86011ZM18.4696 11.9001L17.5396 12.8001C17.4996 12.8301 17.4896 12.8901 17.4996 12.9401L17.7196 14.2101C17.7596 14.4401 17.6696 14.6801 17.4696 14.8201C17.2796 14.9601 17.0296 14.9801 16.8196 14.8701L15.6696 14.2701C15.6296 14.2501 15.5696 14.2501 15.5296 14.2701L14.3796 14.8701C14.2896 14.9201 14.1896 14.9401 14.0896 14.9401C13.9596 14.9401 13.8396 14.9001 13.7296 14.8201C13.5396 14.6801 13.4396 14.4501 13.4796 14.2101L13.6996 12.9401C13.7096 12.8901 13.6896 12.8401 13.6596 12.8001L12.7296 11.9001C12.5596 11.7401 12.4996 11.4901 12.5696 11.2701C12.6396 11.0401 12.8296 10.8801 13.0696 10.8501L14.3496 10.6601C14.3996 10.6501 14.4396 10.6201 14.4696 10.5801L15.0396 9.42011C15.1496 9.21011 15.3596 9.08011 15.5996 9.08011C15.8396 9.08011 16.0496 9.21011 16.1496 9.42011L16.7196 10.5801C16.7396 10.6301 16.7796 10.6601 16.8296 10.6601L18.1096 10.8501C18.3496 10.8801 18.5396 11.0501 18.6096 11.2701C18.6996 11.4901 18.6396 11.7301 18.4696 11.9001Z" fill="url(#paint0_linear_40846_33446)"/>
<defs>
<linearGradient id="paint0_linear_40846_33446" x1="21.9996" y1="11.9977" x2="2.00995" y2="12.1527" gradientUnits="userSpaceOnUse">
<stop stop-color="#0D965E"/>
<stop offset="0.9" stop-color="#00683F"/>
</linearGradient>
</defs>
</svg>
