<svg width="25" height="24" viewBox="0 0 25 24" fill="none" xmlns="http://www.w3.org/2000/svg">
<path d="M8.125 12.2002H15.125" stroke="#999999" stroke-width="1.5" stroke-miterlimit="10" stroke-linecap="round" stroke-linejoin="round"/>
<path d="M8.125 16.2002H12.505" stroke="#999999" stroke-width="1.5" stroke-miterlimit="10" stroke-linecap="round" stroke-linejoin="round"/>
<path d="M10.125 6H14.125C16.125 6 16.125 5 16.125 4C16.125 2 15.125 2 14.125 2H10.125C9.125 2 8.125 2 8.125 4C8.125 6 9.125 6 10.125 6Z" stroke="#999999" stroke-width="1.5" stroke-miterlimit="10" stroke-linecap="round" stroke-linejoin="round"/>
<path d="M16.125 4.02002C19.455 4.20002 21.125 5.43002 21.125 10V16C21.125 20 20.125 22 15.125 22H9.125C4.125 22 3.125 20 3.125 16V10C3.125 5.44002 4.795 4.20002 8.125 4.02002" stroke="#999999" stroke-width="1.5" stroke-miterlimit="10" stroke-linecap="round" stroke-linejoin="round"/>
</svg>
