<svg width="25" height="24" viewBox="0 0 25 24" fill="none" xmlns="http://www.w3.org/2000/svg">
<path d="M3.63501 11.2202V15.7102C3.63501 20.2002 5.43501 22.0002 9.92501 22.0002H15.315C19.805 22.0002 21.605 20.2002 21.605 15.7102V11.2202" stroke="#999999" stroke-width="1.5" stroke-linecap="round" stroke-linejoin="round"/>
<path d="M12.625 12C14.455 12 15.805 10.51 15.625 8.68L14.965 2H10.295L9.62499 8.68C9.44499 10.51 10.795 12 12.625 12Z" stroke="#999999" stroke-width="1.5" stroke-linecap="round" stroke-linejoin="round"/>
<path d="M18.935 12C20.955 12 22.435 10.36 22.235 8.35L21.955 5.6C21.595 3 20.595 2 17.975 2H14.925L15.625 9.01C15.795 10.66 17.285 12 18.935 12Z" stroke="#999999" stroke-width="1.5" stroke-linecap="round" stroke-linejoin="round"/>
<path d="M6.265 12C7.915 12 9.405 10.66 9.565 9.01L9.785 6.8L10.265 2H7.215C4.59501 2 3.595 3 3.235 5.6L2.965 8.35C2.765 10.36 4.245 12 6.265 12Z" stroke="#999999" stroke-width="1.5" stroke-linecap="round" stroke-linejoin="round"/>
</svg>
