<svg width="24" height="24" viewBox="0 0 24 24" fill="none" xmlns="http://www.w3.org/2000/svg">
<path d="M8.50361 11.1632C7.69612 12.1293 6.48418 12.7531 5.18948 12.7531C4.42666 12.7531 3.72168 12.5706 3.11206 12.2476V15.9903C3.11206 18.3294 3.58546 19.7733 4.46333 20.6512C5.3412 21.529 6.78508 22.0024 9.12423 22.0024H14.9188C17.258 22.0024 18.7019 21.529 19.5797 20.6512C20.4576 19.7733 20.931 18.3294 20.931 15.9903V12.2245C20.3116 12.5619 19.5914 12.7531 18.8106 12.7531C17.5147 12.7531 16.3031 12.1289 15.4938 11.1632H15.2482C14.5324 12.1319 13.376 12.7531 12.0269 12.7531C10.6776 12.7531 9.52121 12.1319 8.8054 11.1632H8.50361Z" fill="url(#paint0_linear_29674_27782)"/>
<path d="M2.38817 8.1524L2.67696 5.21102C2.86323 3.87757 3.19499 3.12831 3.66918 2.6903C4.13521 2.25983 4.87928 2.00244 6.21079 2.00244H8.66101L7.99089 8.71437L7.9907 8.71628C7.85623 10.103 6.57995 11.2531 5.18948 11.2531C3.46292 11.2531 2.21692 9.8734 2.38817 8.1524Z" fill="url(#paint1_linear_29674_27782)"/>
<path d="M14.5059 8.86319L13.8208 2.00244H10.2005L9.54809 8.50731C9.39817 10.035 10.5047 11.2531 12.0269 11.2531C13.4017 11.2531 14.4375 10.26 14.5147 8.94212C14.5116 8.91665 14.5087 8.89112 14.5061 8.86553L14.5059 8.86319Z" fill="url(#paint2_linear_29674_27782)"/>
<path d="M18.8106 11.2531C17.4724 11.2531 16.2361 10.1864 16.0187 8.86481C16.0218 8.69907 16.0152 8.53067 15.9985 8.36015L15.3703 2.00244H17.7786C19.1101 2.00244 19.8541 2.25983 20.3202 2.6903C20.7945 3.12846 21.1263 3.87807 21.3126 5.21233L21.6121 8.1542C21.7829 9.87482 20.5369 11.2531 18.8106 11.2531Z" fill="url(#paint3_linear_29674_27782)"/>
<defs>
<linearGradient id="paint0_linear_29674_27782" x1="21.6278" y1="11.9995" x2="2.37311" y2="12.1165" gradientUnits="userSpaceOnUse">
<stop stop-color="#0D965E"/>
<stop offset="0.9" stop-color="#00683F"/>
</linearGradient>
<linearGradient id="paint1_linear_29674_27782" x1="21.6278" y1="11.9995" x2="2.37311" y2="12.1165" gradientUnits="userSpaceOnUse">
<stop stop-color="#0D965E"/>
<stop offset="0.9" stop-color="#00683F"/>
</linearGradient>
<linearGradient id="paint2_linear_29674_27782" x1="21.6278" y1="11.9995" x2="2.37311" y2="12.1165" gradientUnits="userSpaceOnUse">
<stop stop-color="#0D965E"/>
<stop offset="0.9" stop-color="#00683F"/>
</linearGradient>
<linearGradient id="paint3_linear_29674_27782" x1="21.6278" y1="11.9995" x2="2.37311" y2="12.1165" gradientUnits="userSpaceOnUse">
<stop stop-color="#0D965E"/>
<stop offset="0.9" stop-color="#00683F"/>
</linearGradient>
</defs>
</svg>
