<svg width="33" height="32" viewBox="0 0 33 32" fill="none" xmlns="http://www.w3.org/2000/svg">
<path d="M11.8381 14.8843C10.7615 16.1723 9.14553 17.0042 7.41926 17.0042C6.40217 17.0042 5.4622 16.7608 4.64937 16.3301V21.3204C4.64937 24.4392 5.28058 26.3644 6.45107 27.5349C7.62155 28.7054 9.54674 29.3366 12.6656 29.3366H20.3918C23.5106 29.3366 25.4358 28.7054 26.6063 27.5349C27.7768 26.3644 28.408 24.4392 28.408 21.3204V16.2993C27.5821 16.7492 26.6219 17.0042 25.5808 17.0042C23.8529 17.0042 22.2375 16.1719 21.1583 14.8843H20.8309C19.8765 16.1758 18.3347 17.0042 16.5358 17.0042C14.7368 17.0042 13.1949 16.1758 12.2405 14.8843H11.8381Z" fill="#00A0B4"/>
<path d="M3.68418 10.8699L4.06924 6.94802C4.3176 5.1701 4.75995 4.17108 5.3922 3.58707C6.01358 3.01311 7.00567 2.66992 8.78102 2.66992H12.048L11.1545 11.6192L11.1542 11.6217C10.9749 13.4707 9.27323 15.0042 7.41926 15.0042C5.11719 15.0042 3.45586 13.1645 3.68418 10.8699Z" fill="#00A0B4"/>
<path d="M19.8411 11.8176L18.9277 2.66992H14.1007L13.2307 11.3431C13.0309 13.38 14.5062 15.0042 16.5358 15.0042C18.3689 15.0042 19.75 13.68 19.8529 11.9228C19.8488 11.8889 19.8449 11.8548 19.8414 11.8207L19.8411 11.8176Z" fill="#00A0B4"/>
<path d="M25.5808 15.0042C23.7965 15.0042 22.1482 13.5819 21.8582 11.8197C21.8624 11.5988 21.8536 11.3742 21.8312 11.1469L20.9937 2.66992H24.2047C25.9801 2.66992 26.9722 3.01311 27.5935 3.58707C28.226 4.17128 28.6684 5.17075 28.9167 6.94977L29.3161 10.8723C29.5438 13.1664 27.8825 15.0042 25.5808 15.0042Z" fill="#00A0B4"/>
</svg>
