<svg width="24" height="24" viewBox="0 0 24 24" fill="none" xmlns="http://www.w3.org/2000/svg">
<rect width="24" height="24" rx="12" fill="#0A141E"/>
<path d="M11.9978 18.2857C11.0359 18.2857 10.1494 18.1352 9.33814 17.8343C8.53852 17.5217 7.83741 17.0818 7.23479 16.5146C6.64377 15.9474 6.18022 15.2818 5.84415 14.5178C5.51966 13.7537 5.35742 12.9145 5.35742 12C5.35742 11.0855 5.51966 10.2463 5.84415 9.48224C6.18022 8.71823 6.64956 8.05262 7.25218 7.4854C7.85479 6.91818 8.5617 6.48408 9.37291 6.18311C10.1841 5.87056 11.0764 5.71429 12.0499 5.71429C13.1276 5.71429 14.0953 5.89371 14.9529 6.25256C15.822 6.61142 16.5521 7.13233 17.1431 7.81531L15.3353 9.48224C14.8949 9.01921 14.414 8.67772 13.8925 8.45777C13.371 8.22626 12.8032 8.1105 12.189 8.1105C11.5979 8.1105 11.0591 8.2031 10.5723 8.38832C10.0856 8.57353 9.66263 8.83978 9.30338 9.18706C8.95572 9.53433 8.68338 9.94528 8.48637 10.4199C8.30095 10.8945 8.20824 11.4212 8.20824 12C8.20824 12.5672 8.30095 13.0881 8.48637 13.5627C8.68338 14.0374 8.95572 14.4541 9.30338 14.8129C9.66263 15.1602 10.0798 15.4265 10.555 15.6117C11.0417 15.7969 11.5748 15.8895 12.1542 15.8895C12.7105 15.8895 13.2493 15.8027 13.7708 15.629C14.3039 15.4438 14.8196 15.1371 15.3179 14.7088L16.9172 16.7403C16.2566 17.2381 15.486 17.6201 14.6052 17.8863C13.7361 18.1526 12.8669 18.2857 11.9978 18.2857ZM14.3445 16.3757V11.809H16.9172V16.7403L14.3445 16.3757Z" fill="white"/>
<path d="M10.8574 15.9286H13.0181V20.25H10.8574V15.9286Z" fill="white"/>
<path d="M10.8574 3.75H13.0181V8.07143H10.8574V3.75Z" fill="white"/>
</svg>
