<svg width="81" height="80" viewBox="0 0 81 80" fill="none" xmlns="http://www.w3.org/2000/svg">
<path d="M40.5 6.66602C22.1334 6.66602 7.16669 21.6327 7.16669 39.9994C7.16669 58.366 22.1334 73.3327 40.5 73.3327C58.8667 73.3327 73.8334 58.366 73.8334 39.9994C73.8334 21.6327 58.8667 6.66602 40.5 6.66602ZM38 26.666C38 25.2994 39.1334 24.166 40.5 24.166C41.8667 24.166 43 25.2994 43 26.666V43.3327C43 44.6994 41.8667 45.8327 40.5 45.8327C39.1334 45.8327 38 44.6994 38 43.3327V26.666ZM43.5667 54.5993C43.4 55.0327 43.1667 55.366 42.8667 55.6993C42.5334 55.9993 42.1667 56.2327 41.7667 56.3994C41.3667 56.566 40.9334 56.666 40.5 56.666C40.0667 56.666 39.6334 56.566 39.2334 56.3994C38.8334 56.2327 38.4667 55.9993 38.1334 55.6993C37.8334 55.366 37.6 55.0327 37.4334 54.5993C37.2667 54.1993 37.1667 53.766 37.1667 53.3327C37.1667 52.8994 37.2667 52.466 37.4334 52.066C37.6 51.666 37.8334 51.2994 38.1334 50.966C38.4667 50.666 38.8334 50.4327 39.2334 50.266C40.0334 49.9327 40.9667 49.9327 41.7667 50.266C42.1667 50.4327 42.5334 50.666 42.8667 50.966C43.1667 51.2994 43.4 51.666 43.5667 52.066C43.7334 52.466 43.8334 52.8994 43.8334 53.3327C43.8334 53.766 43.7334 54.1993 43.5667 54.5993Z" fill="#999999"/>
</svg>
