<svg width="24" height="24" viewBox="0 0 24 24" fill="none" xmlns="http://www.w3.org/2000/svg">
<path d="M21.5 15.5C21.78 15.5 22 15.72 22 16V17C22 18.66 20.66 20 19 20C19 18.35 17.65 17 16 17C14.35 17 13 18.35 13 20H11C11 18.35 9.65 17 8 17C6.35 17 5 18.35 5 20C3.34 20 2 18.66 2 17V15C2 14.45 2.45 14 3 14H12.5C13.88 14 15 12.88 15 11.5V6C15 5.45 15.45 5 16 5H16.84C17.56 5 18.22 5.39 18.58 6.01L19.22 7.13C19.31 7.29 19.19 7.5 19 7.5C17.62 7.5 16.5 8.62 16.5 10V13C16.5 14.38 17.62 15.5 19 15.5H21.5Z" fill="url(#paint0_linear_94_664)"/>
<path d="M8 22C9.10457 22 10 21.1046 10 20C10 18.8954 9.10457 18 8 18C6.89543 18 6 18.8954 6 20C6 21.1046 6.89543 22 8 22Z" fill="url(#paint1_linear_94_664)"/>
<path d="M16 22C17.1046 22 18 21.1046 18 20C18 18.8954 17.1046 18 16 18C14.8954 18 14 18.8954 14 20C14 21.1046 14.8954 22 16 22Z" fill="url(#paint2_linear_94_664)"/>
<path d="M22 12.53V14H19C18.45 14 18 13.55 18 13V10C18 9.45 18.45 9 19 9H20.29L21.74 11.54C21.91 11.84 22 12.18 22 12.53Z" fill="url(#paint3_linear_94_664)"/>
<path d="M13.08 2H5.69C3.9 2 2.4 3.28 2.07 4.98H6.44C6.82 4.98 7.12 5.29 7.12 5.67C7.12 6.05 6.82 6.35 6.44 6.35H2V7.73H4.6C4.98 7.73 5.29 8.04 5.29 8.42C5.29 8.8 4.98 9.1 4.6 9.1H2V10.48H2.77C3.15 10.48 3.46 10.79 3.46 11.17C3.46 11.55 3.15 11.85 2.77 11.85H2V12.08C2 12.63 2.45 13.08 3 13.08H12.15C13.17 13.08 14 12.25 14 11.23V2.92C14 2.41 13.59 2 13.08 2Z" fill="url(#paint4_linear_94_664)"/>
<path d="M2.07 4.97998H1.92H0.94C0.56 4.97998 0.25 5.28998 0.25 5.66998C0.25 6.04998 0.56 6.34998 0.94 6.34998H1.85H2V5.68998C2 5.44998 2.03 5.20998 2.07 4.97998Z" fill="url(#paint5_linear_94_664)"/>
<path d="M1.85 7.72998H0.94C0.56 7.72998 0.25 8.03998 0.25 8.41998C0.25 8.79998 0.56 9.09998 0.94 9.09998H1.85H2V7.72998H1.85Z" fill="url(#paint6_linear_94_664)"/>
<path d="M1.85 10.48H0.94C0.56 10.48 0.25 10.79 0.25 11.17C0.25 11.55 0.56 11.85 0.94 11.85H1.85H2V10.48H1.85Z" fill="url(#paint7_linear_94_664)"/>
<defs>
<linearGradient id="paint0_linear_94_664" x1="22" y1="12.4978" x2="2.00138" y2="12.6661" gradientUnits="userSpaceOnUse">
<stop stop-color="#0D965E"/>
<stop offset="0.9" stop-color="#00683F"/>
</linearGradient>
<linearGradient id="paint1_linear_94_664" x1="10" y1="19.9994" x2="6.00015" y2="20.0247" gradientUnits="userSpaceOnUse">
<stop stop-color="#0D965E"/>
<stop offset="0.9" stop-color="#00683F"/>
</linearGradient>
<linearGradient id="paint2_linear_94_664" x1="18" y1="19.9994" x2="14.0002" y2="20.0247" gradientUnits="userSpaceOnUse">
<stop stop-color="#0D965E"/>
<stop offset="0.9" stop-color="#00683F"/>
</linearGradient>
<linearGradient id="paint3_linear_94_664" x1="22" y1="11.4993" x2="18.0001" y2="11.5195" gradientUnits="userSpaceOnUse">
<stop stop-color="#0D965E"/>
<stop offset="0.9" stop-color="#00683F"/>
</linearGradient>
<linearGradient id="paint4_linear_94_664" x1="14" y1="7.53834" x2="2.00054" y2="7.6204" gradientUnits="userSpaceOnUse">
<stop stop-color="#0D965E"/>
<stop offset="0.9" stop-color="#00683F"/>
</linearGradient>
<linearGradient id="paint5_linear_94_664" x1="2.07" y1="5.66478" x2="0.250125" y2="5.68004" gradientUnits="userSpaceOnUse">
<stop stop-color="#0D965E"/>
<stop offset="0.9" stop-color="#00683F"/>
</linearGradient>
<linearGradient id="paint6_linear_94_664" x1="2" y1="8.41478" x2="0.250111" y2="8.42889" gradientUnits="userSpaceOnUse">
<stop stop-color="#0D965E"/>
<stop offset="0.9" stop-color="#00683F"/>
</linearGradient>
<linearGradient id="paint7_linear_94_664" x1="2" y1="11.1648" x2="0.250111" y2="11.1789" gradientUnits="userSpaceOnUse">
<stop stop-color="#0D965E"/>
<stop offset="0.9" stop-color="#00683F"/>
</linearGradient>
</defs>
</svg>
