<svg width="24" height="25" viewBox="0 0 24 25" fill="none" xmlns="http://www.w3.org/2000/svg">
<path d="M10.49 2.72957L5.49997 4.60957C4.34997 5.03957 3.40997 6.39957 3.40997 7.61957V15.0496C3.40997 16.2296 4.18997 17.7796 5.13997 18.4896L9.43997 21.6996C10.85 22.7596 13.17 22.7596 14.58 21.6996L18.88 18.4896C19.83 17.7796 20.61 16.2296 20.61 15.0496V7.61957C20.61 6.38957 19.67 5.02957 18.52 4.59957L13.53 2.72957C12.68 2.41957 11.32 2.41957 10.49 2.72957Z" stroke="#0A141E" stroke-width="1.5" stroke-linecap="round" stroke-linejoin="round"/>
<path d="M12 13C13.1046 13 14 12.1046 14 11C14 9.89543 13.1046 9 12 9C10.8954 9 10 9.89543 10 11C10 12.1046 10.8954 13 12 13Z" stroke="#0A141E" stroke-width="1.5" stroke-miterlimit="10" stroke-linecap="round" stroke-linejoin="round"/>
<path d="M12 13V16" stroke="#0A141E" stroke-width="1.5" stroke-miterlimit="10" stroke-linecap="round" stroke-linejoin="round"/>
</svg>
