<svg width="24" height="26" viewBox="0 0 24 26" fill="none" xmlns="http://www.w3.org/2000/svg">
<path d="M12 4C6.49 4 2 8.49 2 14C2 19.51 6.49 24 12 24C17.51 24 22 19.51 22 14C22 8.49 17.51 4 12 4ZM16.78 11.7L11.11 17.37C10.97 17.51 10.78 17.59 10.58 17.59C10.38 17.59 10.19 17.51 10.05 17.37L7.22 14.54C6.93 14.25 6.93 13.77 7.22 13.48C7.51 13.19 7.99 13.19 8.28 13.48L10.58 15.78L15.72 10.64C16.01 10.35 16.49 10.35 16.78 10.64C17.07 10.93 17.07 11.4 16.78 11.7Z" fill="url(#paint0_linear_28073_45394)"/>
<defs>
<linearGradient id="paint0_linear_28073_45394" x1="22" y1="13.997" x2="2.00076" y2="14.1233" gradientUnits="userSpaceOnUse">
<stop stop-color="#0D965E"/>
<stop offset="0.9" stop-color="#00683F"/>
</linearGradient>
</defs>
</svg>
