<svg width="33" height="32" viewBox="0 0 33 32" fill="none" xmlns="http://www.w3.org/2000/svg">
<path d="M21.7533 2.66602H10.58C5.72668 2.66602 2.83334 5.55935 2.83334 10.4127V21.5727C2.83334 26.4394 5.72668 29.3327 10.58 29.3327H21.74C26.5933 29.3327 29.4867 26.4394 29.4867 21.586V10.4127C29.5 5.55935 26.6067 2.66602 21.7533 2.66602ZM23.7533 18.7327C23.7 18.8527 23.6333 18.9593 23.54 19.0527L19.6067 22.986C19.4067 23.186 19.1533 23.2793 18.9 23.2793C18.6467 23.2793 18.3933 23.186 18.1933 22.986C17.8067 22.5993 17.8067 21.9593 18.1933 21.5727L20.42 19.346H9.50001C8.95334 19.346 8.50001 18.8927 8.50001 18.346C8.50001 17.7993 8.95334 17.346 9.50001 17.346H22.8333C22.9667 17.346 23.0867 17.3727 23.22 17.426C23.46 17.5327 23.66 17.7193 23.7667 17.9727C23.86 18.2127 23.86 18.4793 23.7533 18.7327ZM22.8333 14.6527H9.50001C9.36668 14.6527 9.24668 14.626 9.11334 14.5727C8.87334 14.466 8.67334 14.2793 8.56668 14.026C8.46001 13.786 8.46001 13.506 8.56668 13.266C8.63334 13.146 8.70001 13.0393 8.79334 12.946L12.7267 9.01268C13.1133 8.62602 13.7533 8.62602 14.14 9.01268C14.5267 9.39935 14.5267 10.0393 14.14 10.426L11.9133 12.6527H22.8333C23.38 12.6527 23.8333 13.106 23.8333 13.6527C23.8333 14.1993 23.38 14.6527 22.8333 14.6527Z" fill="url(#paint0_linear_36263_17929)"/>
<defs>
<linearGradient id="paint0_linear_36263_17929" x1="29.4867" y1="15.9954" x2="2.83436" y2="16.1636" gradientUnits="userSpaceOnUse">
<stop stop-color="#0D965E"/>
<stop offset="0.9" stop-color="#00683F"/>
</linearGradient>
</defs>
</svg>
