<svg width="28" height="28" viewBox="0 0 28 28" fill="none" xmlns="http://www.w3.org/2000/svg">
<path d="M12.8333 2.33301H10.5C4.66665 2.33301 2.33331 4.66634 2.33331 10.4997V17.4997C2.33331 23.333 4.66665 25.6663 10.5 25.6663H17.5C23.3333 25.6663 25.6666 23.333 25.6666 17.4997V15.1663" stroke="#0A141E" stroke-width="2" stroke-linecap="round" stroke-linejoin="round"/>
<path d="M18.7133 3.52314L9.51998 12.7165C9.16998 13.0665 8.81998 13.7548 8.74998 14.2565L8.24831 17.7681C8.06165 19.0398 8.95998 19.9265 10.2316 19.7515L13.7433 19.2498C14.2333 19.1798 14.9216 18.8298 15.2833 18.4798L24.4766 9.28647C26.0633 7.69981 26.81 5.85647 24.4766 3.52314C22.1433 1.18981 20.3 1.93647 18.7133 3.52314Z" stroke="#0A141E" stroke-width="2" stroke-miterlimit="10" stroke-linecap="round" stroke-linejoin="round"/>
<path d="M17.395 4.8418C18.1767 7.63013 20.3584 9.8118 23.1584 10.6051" stroke="#0A141E" stroke-width="2" stroke-miterlimit="10" stroke-linecap="round" stroke-linejoin="round"/>
</svg>
