<svg width="81" height="80" viewBox="0 0 81 80" fill="none" xmlns="http://www.w3.org/2000/svg">
<path d="M56.0001 12.8667H33.5334V22.9334C33.5334 24.2334 32.4667 25.2667 31.2001 25.2667C29.9334 25.2667 28.8667 24.2334 28.8667 22.9334V12.8667H25.0001C11.8334 12.8667 7.50007 16.8 7.20007 29.1C7.16673 29.7 7.4334 30.3334 7.86673 30.7667C8.30007 31.2334 8.86673 31.4667 9.5334 31.4667C14.2001 31.4667 18.0334 35.3334 18.0334 40C18.0334 44.6667 14.2001 48.5334 9.5334 48.5334C8.90007 48.5334 8.30007 48.7667 7.86673 49.2334C7.4334 49.6667 7.16673 50.3 7.20007 50.9C7.50007 63.2 11.8334 67.1334 25.0001 67.1334H28.8667V57.0667C28.8667 55.7667 29.9334 54.7334 31.2001 54.7334C32.4667 54.7334 33.5334 55.7667 33.5334 57.0667V67.1334H56.0001C69.6667 67.1334 73.8334 62.9667 73.8334 49.3V30.7C73.8334 17.0334 69.6667 12.8667 56.0001 12.8667ZM62.0667 39.6667L58.9667 42.6667C58.8334 42.7667 58.8001 42.9667 58.8334 43.1334L59.5667 47.3667C59.7001 48.1334 59.4001 48.9334 58.7334 49.4C58.1001 49.8667 57.2667 49.9334 56.5667 49.5667L52.7334 47.5667C52.6001 47.5 52.4001 47.5 52.2667 47.5667L48.4334 49.5667C48.1334 49.7334 47.8001 49.8 47.4667 49.8C47.0334 49.8 46.6334 49.6667 46.2667 49.4C45.6334 48.9334 45.3001 48.1667 45.4334 47.3667L46.1667 43.1334C46.2001 42.9667 46.1334 42.8 46.0334 42.6667L42.9334 39.6667C42.3667 39.1334 42.1667 38.3 42.4001 37.5667C42.6334 36.8 43.2667 36.2667 44.0667 36.1667L48.3334 35.5334C48.5001 35.5 48.6334 35.4 48.7334 35.2667L50.6334 31.4C51.0001 30.7 51.7001 30.2667 52.5001 30.2667C53.3001 30.2667 54.0001 30.7 54.3334 31.4L56.2334 35.2667C56.3001 35.4334 56.4334 35.5334 56.6001 35.5334L60.8667 36.1667C61.6667 36.2667 62.3001 36.8334 62.5334 37.5667C62.8334 38.3 62.6334 39.1 62.0667 39.6667Z" fill="#999999"/>
</svg>
