<svg width="81" height="80" viewBox="0 0 81 80" fill="none" xmlns="http://www.w3.org/2000/svg">
<path d="M54.4665 6.66663H26.5332C14.3998 6.66663 7.1665 13.9 7.1665 26.0333V53.9333C7.1665 66.1 14.3998 73.3333 26.5332 73.3333H54.4332C66.5665 73.3333 73.7998 66.1 73.7998 53.9666V26.0333C73.8332 13.9 66.5998 6.66663 54.4665 6.66663ZM59.4665 46.8333C59.3332 47.1333 59.1665 47.4 58.9332 47.6333L49.0998 57.4666C48.5998 57.9666 47.9665 58.2 47.3332 58.2C46.6998 58.2 46.0665 57.9666 45.5665 57.4666C44.5998 56.5 44.5998 54.9 45.5665 53.9333L51.1332 48.3666H23.8332C22.4665 48.3666 21.3332 47.2333 21.3332 45.8666C21.3332 44.5 22.4665 43.3666 23.8332 43.3666H57.1665C57.4998 43.3666 57.7998 43.4333 58.1332 43.5666C58.7332 43.8333 59.2332 44.3 59.4998 44.9333C59.7332 45.5333 59.7332 46.2 59.4665 46.8333ZM57.1665 36.6333H23.8332C23.4998 36.6333 23.1998 36.5666 22.8665 36.4333C22.2665 36.1666 21.7665 35.7 21.4998 35.0666C21.2332 34.4666 21.2332 33.7666 21.4998 33.1666C21.6665 32.8666 21.8332 32.6 22.0665 32.3666L31.8998 22.5333C32.8665 21.5666 34.4665 21.5666 35.4332 22.5333C36.3998 23.5 36.3998 25.1 35.4332 26.0666L29.8665 31.6333H57.1665C58.5332 31.6333 59.6665 32.7666 59.6665 34.1333C59.6665 35.5 58.5332 36.6333 57.1665 36.6333Z" fill="#999999"/>
</svg>
