<svg width="81" height="80" viewBox="0 0 81 80" fill="none" xmlns="http://www.w3.org/2000/svg">
<path d="M67.8667 26.0665L42.2 40.9331C41.1667 41.5331 39.8667 41.5331 38.8 40.9331L13.1333 26.0665C11.3 24.9998 10.8333 22.4998 12.2333 20.9331C13.2 19.8331 14.3 18.9331 15.4667 18.2998L33.5333 8.2998C37.4 6.13314 43.6667 6.13314 47.5333 8.2998L65.6 18.2998C66.7667 18.9331 67.8667 19.8665 68.8334 20.9331C70.1667 22.4998 69.7 24.9998 67.8667 26.0665Z" fill="#999999"/>
<path d="M38.6 47.1333V69.8666C38.6 72.3999 36.0333 74.0666 33.7667 72.9666C26.9 69.5999 15.3333 63.2999 15.3333 63.2999C11.2667 60.9999 7.93332 55.1999 7.93332 50.4333V33.2333C7.93332 30.5999 10.7 28.9333 12.9667 30.2333L36.9333 44.1333C37.9333 44.7666 38.6 45.8999 38.6 47.1333Z" fill="#999999"/>
<path d="M42.4 47.1333V69.8666C42.4 72.3999 44.9667 74.0666 47.2333 72.9666C54.1 69.5999 65.6667 63.2999 65.6667 63.2999C69.7333 60.9999 73.0667 55.1999 73.0667 50.4333V33.2333C73.0667 30.5999 70.3 28.9333 68.0333 30.2333L44.0667 44.1333C43.0667 44.7666 42.4 45.8999 42.4 47.1333Z" fill="#999999"/>
</svg>
