<svg width="56" height="56" viewBox="0 0 56 56" fill="none" xmlns="http://www.w3.org/2000/svg">
<path d="M48.93 2.33301H42.07C40.04 2.33301 38.5466 3.17301 37.87 4.66634C37.4966 5.34301 37.3333 6.13634 37.3333 7.06967V13.9297C37.3333 16.893 39.1066 18.6663 42.07 18.6663H48.93C49.8633 18.6663 50.6566 18.503 51.3333 18.1297C52.8266 17.453 53.6666 15.9597 53.6666 13.9297V7.06967C53.6666 4.10634 51.8933 2.33301 48.93 2.33301ZM51.1233 11.503C50.89 11.7363 50.54 11.8997 50.1666 11.923H46.8766V13.113L46.9 15.1663C46.8766 15.563 46.7366 15.8897 46.4566 16.1697C46.2233 16.403 45.8733 16.5663 45.5 16.5663C44.73 16.5663 44.1 15.9363 44.1 15.1663V11.8997L40.8333 11.923C40.0633 11.923 39.4333 11.2697 39.4333 10.4997C39.4333 9.72967 40.0633 9.09968 40.8333 9.09968L42.8866 9.12301H44.1V5.85634C44.1 5.08634 44.73 4.43301 45.5 4.43301C46.27 4.43301 46.9 5.08634 46.9 5.85634L46.8766 7.51301V9.09968H50.1666C50.9366 9.09968 51.5666 9.72967 51.5666 10.4997C51.5433 10.8963 51.38 11.223 51.1233 11.503Z" fill="#F0F3F6"/>
<path d="M21 24.2199C24.067 24.2199 26.5533 21.7336 26.5533 18.6666C26.5533 15.5996 24.067 13.1133 21 13.1133C17.933 13.1133 15.4467 15.5996 15.4467 18.6666C15.4467 21.7336 17.933 24.2199 21 24.2199Z" fill="#F0F3F6"/>
<path d="M48.93 18.667H47.8334V29.4237L47.53 29.167C45.71 27.6037 42.77 27.6037 40.95 29.167L31.2434 37.497C29.4234 39.0603 26.4834 39.0603 24.6634 37.497L23.87 36.8437C22.2134 35.397 19.5767 35.257 17.71 36.517L8.98335 42.3737C8.47002 41.067 8.16669 39.5503 8.16669 37.777V18.2237C8.16669 11.6437 11.6434 8.16699 18.2234 8.16699H37.3334V7.07033C37.3334 6.13699 37.4967 5.34366 37.87 4.66699H18.2234C9.73002 4.66699 4.66669 9.73033 4.66669 18.2237V37.777C4.66669 40.3203 5.11002 42.537 5.97335 44.4037C7.98002 48.837 12.2734 51.3337 18.2234 51.3337H37.7767C46.27 51.3337 51.3334 46.2703 51.3334 37.777V18.1303C50.6567 18.5037 49.8634 18.667 48.93 18.667Z" fill="#F0F3F6"/>
</svg>
