<svg width="32" height="32" viewBox="0 0 32 32" fill="none" xmlns="http://www.w3.org/2000/svg">
<path d="M12 13.3333C13.4727 13.3333 14.6666 12.1394 14.6666 10.6667C14.6666 9.19391 13.4727 8 12 8C10.5272 8 9.33331 9.19391 9.33331 10.6667C9.33331 12.1394 10.5272 13.3333 12 13.3333Z" stroke="#999999" stroke-width="1.5" stroke-linecap="round" stroke-linejoin="round"/>
<path d="M17.3334 2.6665H12C5.33335 2.6665 2.66669 5.33317 2.66669 11.9998V19.9998C2.66669 26.6665 5.33335 29.3332 12 29.3332H20C26.6667 29.3332 29.3334 26.6665 29.3334 19.9998V13.3332" stroke="#999999" stroke-width="1.5" stroke-linecap="round" stroke-linejoin="round"/>
<path d="M21 6.6665H28.3333" stroke="#999999" stroke-width="1.5" stroke-linecap="round"/>
<path d="M24.6667 10.3333V3" stroke="#999999" stroke-width="1.5" stroke-linecap="round"/>
<path d="M3.56 25.2666L10.1333 20.8532C11.1867 20.1466 12.7067 20.2266 13.6533 21.0399L14.0933 21.4266C15.1333 22.3199 16.8133 22.3199 17.8533 21.4266L23.4 16.6666C24.44 15.7732 26.12 15.7732 27.16 16.6666L29.3333 18.5332" stroke="#999999" stroke-width="1.5" stroke-linecap="round" stroke-linejoin="round"/>
</svg>
