<svg width="343" height="24" viewBox="0 0 343 24" fill="none" xmlns="http://www.w3.org/2000/svg">
<path fill-rule="evenodd" clip-rule="evenodd" d="M120.298 0.000154133C120.341 0.000249991 120.383 0.000215305 120.426 0.000108332C120.871 -0.000981839 121.321 0.0049149 121.761 0.0759836C121.793 0.0809358 121.825 0.0844013 121.856 0.0876143C121.988 0.101704 122.119 0.120973 122.249 0.140473L122.286 0.145823C122.356 0.156164 122.425 0.168537 122.495 0.183911C122.534 0.192486 122.575 0.199111 122.615 0.205695C122.689 0.218152 122.762 0.233237 122.835 0.250336C122.886 0.262306 122.937 0.273041 122.989 0.283004C123.067 0.298135 123.143 0.316842 123.22 0.336551C123.243 0.342575 123.267 0.34842 123.291 0.354223C123.464 0.396778 123.636 0.445187 123.806 0.497138C123.827 0.503304 123.847 0.50935 123.868 0.51536C123.97 0.545583 124.072 0.578756 124.173 0.613043L124.229 0.631766C124.305 0.656656 124.38 0.683228 124.454 0.710849L124.549 0.745979C124.591 0.761026 124.632 0.775613 124.673 0.790111C124.706 0.802308 124.737 0.81679 124.769 0.831644C124.8 0.845549 124.832 0.85744 124.863 0.86937L124.872 0.872814C124.923 0.892456 124.974 0.913456 125.024 0.934459L125.027 0.935646L125.07 0.953463C125.131 0.978748 125.192 1.00556 125.252 1.03332L125.278 1.04535C125.316 1.06248 125.353 1.07975 125.389 1.09829C125.412 1.10961 125.434 1.11943 125.458 1.1281C125.502 1.14534 125.543 1.16632 125.586 1.18776C125.628 1.20942 125.671 1.22984 125.715 1.24989C125.76 1.27101 125.804 1.29364 125.846 1.32035C125.875 1.33736 125.905 1.35212 125.935 1.36691C126.022 1.41005 126.107 1.45624 126.191 1.50571C126.214 1.51916 126.238 1.53209 126.261 1.54483C126.364 1.60052 126.464 1.66034 126.563 1.72155C126.584 1.73429 126.605 1.74681 126.626 1.75928C126.671 1.78591 126.714 1.81384 126.758 1.84189L126.833 1.88976C126.872 1.91585 126.892 1.92889 126.912 1.94152C126.932 1.95414 126.953 1.96634 126.994 1.99074L127.012 2.00286L127.012 2.0198L127.027 2.02255C127.049 2.02914 127.063 2.03847 127.081 2.0521C127.11 2.0733 127.14 2.09373 127.17 2.11353L127.191 2.12727L127.233 2.15461L127.253 2.16744L127.271 2.17893L127.283 2.18925L127.283 2.20619L127.297 2.20778C127.321 2.21604 127.338 2.23107 127.357 2.24724L127.368 2.25702L127.393 2.2655L127.393 2.28244L127.41 2.28754C127.443 2.30293 127.47 2.32458 127.499 2.34726L127.506 2.35339L127.568 2.40218C127.598 2.42555 127.628 2.44828 127.659 2.47095L127.74 2.532L127.787 2.56732L127.802 2.57795C127.813 2.58636 127.823 2.59532 127.834 2.60438L127.834 2.62133H127.859C127.869 2.63073 127.878 2.6402 127.887 2.64992C127.909 2.67068 127.934 2.68778 127.959 2.7049L127.972 2.71399C127.996 2.73225 128.016 2.75238 128.037 2.77383C128.062 2.79401 128.087 2.81362 128.112 2.83323L128.131 2.85008L128.131 2.86702H128.156C128.166 2.87648 128.176 2.88603 128.185 2.89608C128.201 2.91179 128.217 2.92617 128.233 2.94062L128.25 2.95555C128.258 2.96185 128.262 2.96542 128.266 2.96871C128.272 2.97299 128.278 2.97682 128.292 2.98563L128.292 3.00258L128.305 3.0084C128.332 3.02338 128.353 3.04101 128.376 3.06188L128.376 3.07882L128.39 3.08465C128.434 3.10912 128.47 3.14564 128.505 3.18177L128.517 3.19426C128.542 3.21951 128.567 3.24378 128.594 3.2668C128.63 3.29802 128.664 3.33189 128.697 3.36614C128.716 3.38583 128.734 3.40233 128.757 3.41771L128.757 3.43466L128.783 3.44313L128.783 3.46007L128.808 3.46855C128.82 3.48252 128.831 3.49665 128.842 3.51091L128.868 3.52785L128.868 3.5448L128.893 3.55327L128.893 3.57021L128.918 3.57868C128.921 3.5811 128.923 3.58303 128.924 3.5847C128.926 3.58681 128.928 3.5885 128.93 3.59024C128.933 3.59401 128.936 3.59796 128.943 3.60669C128.975 3.6448 129.01 3.67942 129.046 3.71392C129.058 3.72502 129.069 3.73654 129.079 3.74813L129.079 3.76507L129.105 3.77354C129.11 3.77885 129.113 3.78177 129.116 3.78481C129.119 3.78852 129.123 3.79242 129.13 3.80108C129.149 3.8244 129.169 3.84718 129.19 3.86942L129.204 3.88422L129.232 3.91349C129.252 3.93448 129.265 3.94924 129.274 3.97688L129.3 3.98535C129.316 4.00364 129.322 4.01046 129.324 4.01834C129.325 4.02303 129.325 4.0281 129.325 4.03618L129.34 4.04184C129.364 4.05596 129.378 4.07343 129.395 4.09496L129.397 4.09813L129.416 4.12239L129.452 4.16786C129.47 4.18919 129.489 4.20824 129.508 4.22772L129.512 4.23104C129.528 4.24927 129.543 4.26792 129.559 4.28664L129.571 4.30112C129.618 4.35612 129.628 4.36773 129.63 4.38058C129.63 4.38402 129.63 4.38754 129.63 4.39201L129.656 4.40049C129.669 4.41682 129.682 4.43296 129.695 4.45026L129.705 4.46419C129.721 4.48523 129.732 4.50258 129.74 4.52757H129.757C129.774 4.54753 129.789 4.56764 129.805 4.58846L129.835 4.62804L129.851 4.64941C129.868 4.6723 129.885 4.69506 129.903 4.7178L129.955 4.78609C129.987 4.82835 130.018 4.87126 130.049 4.91497C130.07 4.94499 130.092 4.97387 130.115 5.0028L130.123 5.01333C130.137 5.03337 130.143 5.04613 130.147 5.06979H130.164C130.17 5.0777 130.174 5.08207 130.177 5.08656C130.182 5.09208 130.186 5.0978 130.195 5.11053L130.211 5.1335C130.217 5.1438 130.22 5.14905 130.222 5.15472C130.223 5.16062 130.223 5.16697 130.223 5.17993H130.24C130.255 5.20013 130.269 5.22027 130.283 5.24135L130.295 5.25886C130.313 5.28625 130.327 5.30838 130.333 5.3409H130.35C130.355 5.34784 130.358 5.35181 130.361 5.35589C130.365 5.3613 130.368 5.3669 130.376 5.37989L130.41 5.43409L130.424 5.45716L130.448 5.4934L130.502 5.57799L130.53 5.62141C130.55 5.65328 130.569 5.68551 130.588 5.71774L130.596 5.73062L130.621 5.77238C130.663 5.84168 130.704 5.91101 130.745 5.98101C130.755 5.99919 130.767 6.01688 130.778 6.03456C130.801 6.07043 130.819 6.10859 130.838 6.14683L130.843 6.15793C130.857 6.18611 130.874 6.2123 130.89 6.23883C130.907 6.26567 130.921 6.29354 130.936 6.32155C130.957 6.36205 130.978 6.40234 131.001 6.44218C131.04 6.512 131.077 6.58123 131.108 6.65514C131.126 6.69779 131.147 6.73836 131.169 6.77905C131.194 6.82621 131.217 6.87317 131.237 6.92313C131.25 6.9536 131.264 6.98288 131.279 7.0123C131.316 7.08487 131.348 7.15901 131.38 7.2339L131.396 7.27125C131.423 7.33395 131.449 7.39681 131.475 7.4598L131.482 7.47717C131.503 7.5269 131.522 7.57716 131.54 7.62759C131.554 7.66362 131.568 7.69937 131.582 7.73514L131.583 7.738C131.605 7.7947 131.626 7.85178 131.646 7.90932C131.657 7.94101 131.669 7.97228 131.681 8.00328C131.697 8.04234 131.71 8.08218 131.722 8.12259C131.732 8.15767 131.744 8.19247 131.756 8.22727L131.762 8.24694C131.773 8.2788 131.784 8.31061 131.795 8.34237C131.823 8.42446 131.847 8.50723 131.87 8.5909C131.885 8.64681 131.902 8.70239 131.919 8.75784C131.942 8.83292 131.961 8.9086 131.979 8.98485C131.984 9.00476 131.989 9.02465 131.994 9.04454C131.998 9.05815 132.001 9.07176 132.004 9.08537L132.008 9.09843C132.02 9.14779 132.032 9.19718 132.045 9.24658L132.05 9.26779C132.084 9.40517 132.11 9.54427 132.137 9.68327L132.149 9.74594C132.158 9.79506 132.168 9.84411 132.178 9.89311C132.186 9.93739 132.194 9.98166 132.201 10.0263C132.205 10.0539 132.209 10.0814 132.214 10.1088L132.218 10.1361L132.227 10.1893C132.236 10.2457 132.243 10.3021 132.25 10.3587C132.255 10.404 132.261 10.4492 132.267 10.4944C132.289 10.6713 132.31 10.8479 132.324 11.0257L132.326 11.0461C132.349 11.3459 132.354 11.6449 132.353 11.9454C132.353 11.9879 132.353 12.0304 132.353 12.0729C132.354 12.5804 132.323 13.0812 132.256 13.5843L132.253 13.6112C132.246 13.6644 132.239 13.7176 132.231 13.7707L132.228 13.7902C132.2 13.9895 132.167 14.1887 132.123 14.3851C132.112 14.4349 132.102 14.4849 132.092 14.5351L132.091 14.5412C132.077 14.609 132.063 14.676 132.045 14.7429C132.036 14.7789 132.027 14.8151 132.019 14.8513L132.018 14.8538C131.976 15.0338 131.928 15.2115 131.874 15.3886C131.864 15.4241 131.853 15.4597 131.843 15.4953L131.824 15.5584L131.819 15.5768C131.8 15.64 131.78 15.7024 131.759 15.7649L131.753 15.7818C131.721 15.8771 131.689 15.9721 131.655 16.0667L131.646 16.0932L131.615 16.1784L131.606 16.2051C131.59 16.2502 131.572 16.2942 131.552 16.3378C131.542 16.3621 131.533 16.3869 131.524 16.4119C131.448 16.6185 131.362 16.8264 131.262 17.0222C131.247 17.0504 131.234 17.0785 131.223 17.1082C131.208 17.1501 131.186 17.1891 131.165 17.2283L131.158 17.2417C131.136 17.2819 131.117 17.3224 131.098 17.3642C131.06 17.4478 131.017 17.5287 130.972 17.6084C130.945 17.6548 130.921 17.7021 130.898 17.75C130.883 17.78 130.868 17.8088 130.85 17.8374L130.826 17.8819C130.81 17.9118 130.793 17.9406 130.774 17.9687C130.756 17.9943 130.741 18.0202 130.726 18.0476C130.695 18.1064 130.66 18.1634 130.626 18.2204L130.609 18.2483L130.569 18.3143C130.552 18.3426 130.535 18.3708 130.517 18.3987L130.502 18.4221L130.457 18.4915L130.438 18.5217L130.421 18.5487C130.411 18.5638 130.401 18.579 130.392 18.5942L130.376 18.62L130.362 18.643L130.35 18.6592H130.333L130.33 18.6742C130.322 18.7013 130.307 18.7237 130.291 18.7465L130.283 18.7587L130.271 18.7766C130.261 18.7915 130.251 18.8059 130.24 18.8201H130.223L130.22 18.8346C130.214 18.8576 130.203 18.8743 130.19 18.8943L130.176 18.9148L130.164 18.9303H130.147L130.145 18.9443C130.137 18.9692 130.123 18.9864 130.108 19.0065L130.104 19.0113L130.083 19.0389L130.072 19.0528L130.058 19.0722C130.049 19.0839 130.04 19.0958 130.032 19.1077C129.962 19.2036 129.89 19.2974 129.817 19.391L129.79 19.4268C129.778 19.4416 129.768 19.457 129.757 19.4725H129.74L129.734 19.4861C129.72 19.5123 129.703 19.5356 129.685 19.5593L129.675 19.5736C129.666 19.5854 129.657 19.5968 129.647 19.6081H129.63L129.624 19.6222C129.611 19.6462 129.595 19.6655 129.577 19.6864C129.554 19.7145 129.531 19.7427 129.509 19.7722C129.489 19.7991 129.468 19.8219 129.444 19.8453C129.42 19.8704 129.408 19.883 129.397 19.8961C129.386 19.9091 129.375 19.9225 129.354 19.9494L129.342 19.9639H129.325L129.318 19.9792C129.314 19.9868 129.311 19.9912 129.309 19.9956C129.305 20.002 129.301 20.0081 129.291 20.0232H129.274L129.267 20.0384C129.257 20.0578 129.246 20.0696 129.23 20.0846C129.189 20.125 129.151 20.1686 129.115 20.2138L129.096 20.235H129.079L129.072 20.2503C129.063 20.2687 129.053 20.2801 129.038 20.2945L129.024 20.3085L129.009 20.3229C128.981 20.3503 128.953 20.3772 128.929 20.408L128.91 20.4299H128.893L128.885 20.4553H128.868L128.859 20.4807C128.845 20.4922 128.831 20.5035 128.817 20.5146L128.8 20.54H128.783L128.774 20.5654H128.757L128.749 20.5908C128.744 20.5961 128.741 20.5991 128.737 20.6019C128.734 20.6053 128.73 20.6085 128.721 20.6156C128.689 20.6426 128.66 20.6713 128.63 20.701C128.585 20.7465 128.539 20.7894 128.489 20.8291C128.46 20.8528 128.434 20.8797 128.408 20.907C128.4 20.9148 128.396 20.9183 128.392 20.9199C128.388 20.9212 128.384 20.9212 128.376 20.9212L128.368 20.9467C128.354 20.9596 128.339 20.9718 128.324 20.9837L128.298 21.0042L128.275 21.0229C128.236 21.0538 128.2 21.0863 128.168 21.123C128.163 21.1269 128.16 21.1293 128.157 21.1308C128.152 21.1331 128.146 21.1331 128.13 21.1331L128.125 21.1474C128.11 21.1727 128.089 21.1882 128.065 21.205L128.06 21.2088C128.024 21.2351 127.993 21.2624 127.961 21.294C127.945 21.3062 127.929 21.318 127.912 21.3295C127.896 21.3398 127.888 21.3448 127.882 21.3511C127.875 21.3572 127.87 21.3645 127.859 21.3787H127.834L127.825 21.4042C127.806 21.4199 127.787 21.4346 127.767 21.4492L127.71 21.4911C127.679 21.5138 127.649 21.5374 127.619 21.5609L127.613 21.5657C127.564 21.6038 127.515 21.6416 127.465 21.6784L127.449 21.6905C127.424 21.7093 127.416 21.7151 127.407 21.7168C127.403 21.7176 127.399 21.7176 127.393 21.7176L127.393 21.7346L127.365 21.7499C127.347 21.7601 127.334 21.7685 127.319 21.7833L127.309 21.7939H127.283L127.283 21.8108C127.264 21.8248 127.245 21.8378 127.225 21.8505L127.19 21.8734L127.173 21.8848C127.132 21.9114 127.091 21.9386 127.054 21.9692C127.047 21.9741 127.043 21.9768 127.038 21.9783C127.033 21.9803 127.026 21.9803 127.012 21.9803L127.012 21.9972C126.992 22.0112 126.971 22.0242 126.95 22.0369C126.909 22.0616 126.869 22.0865 126.831 22.1142C126.799 22.1367 126.767 22.1554 126.733 22.1736C126.712 22.1858 126.692 22.2001 126.672 22.2148C126.656 22.2262 126.639 22.2358 126.622 22.2454C126.579 22.2685 126.538 22.2932 126.497 22.3181C126.406 22.3728 126.315 22.4262 126.222 22.4779C126.192 22.4952 126.161 22.5129 126.131 22.5315C126.091 22.5556 126.05 22.5762 126.008 22.5967C125.963 22.6192 125.918 22.6427 125.873 22.6665C125.807 22.7014 125.74 22.7352 125.673 22.7683C125.644 22.783 125.614 22.7978 125.585 22.8127L125.537 22.8364L125.503 22.8534C125.475 22.8679 125.447 22.8816 125.417 22.8926C125.374 22.9095 125.332 22.9293 125.29 22.9493C125.224 22.9811 125.157 23.0109 125.089 23.0393L125.061 23.0514C125.024 23.0673 124.986 23.0821 124.949 23.097C124.898 23.1171 124.848 23.1377 124.798 23.1595C124.749 23.1805 124.7 23.1986 124.65 23.216C124.628 23.224 124.605 23.2325 124.583 23.2416C124.48 23.2837 124.374 23.3208 124.268 23.3555L124.235 23.3664L124.142 23.3974C124.104 23.4099 124.066 23.4225 124.029 23.4354C123.938 23.4667 123.846 23.4935 123.753 23.518C123.702 23.5316 123.651 23.5457 123.6 23.5619C123.499 23.5941 123.398 23.6211 123.295 23.6452C123.255 23.6545 123.216 23.6642 123.176 23.674C123.042 23.707 122.909 23.7374 122.774 23.7633C122.738 23.7704 122.702 23.7782 122.666 23.7859C122.599 23.8001 122.533 23.8123 122.466 23.8237C122.443 23.8276 122.42 23.8317 122.398 23.8357C122.319 23.8498 122.24 23.8633 122.16 23.8733C122.125 23.8778 122.09 23.8831 122.055 23.8884L122.042 23.8904C121.951 23.9041 121.861 23.9164 121.77 23.9253C121.737 23.9284 121.705 23.9325 121.673 23.9368C121.253 23.9905 120.831 24.001 120.408 23.9999C120.365 23.9998 120.323 23.9999 120.28 24C119.773 24.0012 119.272 23.9701 118.769 23.9035L118.742 23.8999C118.689 23.8929 118.635 23.8856 118.582 23.878L118.561 23.875C118.449 23.8591 118.338 23.8396 118.226 23.8187L118.194 23.8127L118.064 23.7882C117.899 23.7575 117.737 23.7223 117.574 23.6832L117.515 23.669C117.336 23.6263 117.293 23.6161 117.25 23.6043C117.237 23.6006 117.224 23.5967 117.206 23.5916L117.16 23.5781L117.034 23.5422C116.995 23.531 116.956 23.52 116.917 23.5091C116.842 23.4881 116.768 23.4658 116.695 23.4386C116.668 23.4292 116.642 23.4215 116.615 23.4142C116.484 23.3779 116.356 23.331 116.23 23.2794C116.189 23.2632 116.148 23.2498 116.106 23.2365C116.045 23.2156 115.985 23.1903 115.926 23.1651L115.89 23.15C115.827 23.1236 115.764 23.0979 115.7 23.0738C115.668 23.0614 115.637 23.0472 115.606 23.0329C115.583 23.0221 115.559 23.0121 115.534 23.0022C115.491 22.9844 115.449 22.965 115.406 22.945C115.375 22.9304 115.344 22.9161 115.313 22.9023C115.242 22.8709 115.173 22.8389 115.105 22.8016C115.066 22.7808 115.027 22.762 114.988 22.7438C114.915 22.71 114.844 22.6727 114.773 22.6348C114.747 22.6212 114.722 22.6078 114.697 22.5945L114.695 22.5937L114.585 22.5351C114.516 22.4979 114.448 22.4583 114.38 22.4187C114.372 22.4138 114.363 22.4088 114.355 22.4039L114.335 22.3923C114.268 22.3536 114.203 22.3144 114.138 22.2727C114.119 22.2606 114.099 22.2495 114.079 22.2387C114.044 22.2193 114.01 22.1981 113.976 22.1762C113.955 22.1626 113.933 22.149 113.912 22.1356C113.822 22.0794 113.734 22.0208 113.646 21.9604C113.626 21.9462 113.605 21.932 113.584 21.9179C113.518 21.8726 113.451 21.827 113.386 21.7798C113.352 21.7555 113.318 21.7325 113.283 21.7105L113.27 21.7007L113.27 21.6837H113.245L113.245 21.6668L113.228 21.6617C113.195 21.6463 113.168 21.6246 113.14 21.6019L113.132 21.5958L113.071 21.5474C113.033 21.5178 112.994 21.4894 112.955 21.4612C112.941 21.4511 112.928 21.4404 112.914 21.4296L112.914 21.4126L112.901 21.4065C112.838 21.373 112.782 21.3232 112.728 21.2756L112.695 21.2474C112.683 21.2367 112.677 21.2314 112.67 21.2266C112.664 21.2219 112.657 21.2177 112.643 21.2093L112.643 21.1924L112.629 21.1861C112.596 21.1683 112.568 21.1436 112.539 21.1191C112.532 21.1124 112.524 21.1057 112.516 21.0992L112.497 21.0834C112.483 21.0721 112.47 21.0603 112.457 21.0483L112.457 21.0314L112.442 21.025C112.42 21.0128 112.404 20.9984 112.385 20.9811L112.363 20.9607L112.338 20.9382L112.297 20.9004L112.271 20.8758C112.252 20.858 112.233 20.8426 112.211 20.8281L112.211 20.8111L112.186 20.8026L112.186 20.7857L112.172 20.7799C112.128 20.7554 112.098 20.7234 112.067 20.684L112.042 20.6671L112.042 20.6501L112.027 20.6434C112.007 20.6327 111.994 20.6214 111.978 20.6055L111.961 20.5884L111.943 20.57L111.924 20.551L111.767 20.3934C111.738 20.3643 111.711 20.335 111.686 20.3028C111.674 20.2925 111.661 20.2823 111.649 20.2722C111.625 20.2512 111.603 20.2272 111.584 20.2011L111.584 20.1842L111.559 20.1757L111.559 20.1588L111.533 20.1503C111.528 20.1446 111.525 20.1416 111.522 20.1384C111.518 20.1345 111.515 20.1305 111.508 20.1217C111.483 20.0924 111.457 20.0637 111.431 20.0354C111.353 19.9491 111.341 19.9359 111.339 19.9214C111.339 19.9188 111.339 19.9162 111.339 19.9131L111.313 19.9046C111.297 19.8863 111.291 19.8795 111.289 19.8716C111.288 19.8669 111.288 19.8618 111.288 19.8538L111.262 19.8453C111.232 19.8119 111.223 19.8026 111.221 19.7919C111.22 19.7878 111.22 19.7835 111.22 19.7775H111.203C111.192 19.7606 111.18 19.7437 111.169 19.7267L111.15 19.7076C111.117 19.6742 111.086 19.638 111.059 19.5996L111.059 19.5826H111.042C111.035 19.576 111.031 19.5729 111.028 19.5695C111.025 19.5665 111.022 19.5633 111.017 19.5572C110.963 19.576 110.914 19.6002 110.864 19.6271C110.814 19.6543 110.763 19.6791 110.711 19.7018C110.664 19.7225 110.617 19.7439 110.57 19.7674C110.495 19.8058 110.418 19.8423 110.341 19.8788L110.33 19.884L110.205 19.9438C110.152 19.9692 110.099 19.9944 110.046 20.0195C109.985 20.0482 109.925 20.0775 109.865 20.1078C109.801 20.1397 109.737 20.1699 109.673 20.2001L109.653 20.2096C109.598 20.2352 109.57 20.2482 109.543 20.2613C109.516 20.2744 109.489 20.2877 109.434 20.3144C109.368 20.3479 109.301 20.3798 109.234 20.4118L109.205 20.4257C109.165 20.4445 109.126 20.4634 109.087 20.4823L109.07 20.4902C108.968 20.5392 108.866 20.5876 108.764 20.6358C108.694 20.6686 108.625 20.7019 108.557 20.7365C108.522 20.7536 108.488 20.77 108.453 20.7863L108.446 20.7894C108.396 20.813 108.347 20.837 108.297 20.8619C108.222 20.8998 108.146 20.9356 108.07 20.9714L107.965 21.0209C107.925 21.0396 107.886 21.0588 107.848 21.0785C107.803 21.1008 107.759 21.1212 107.714 21.141C107.659 21.1651 107.605 21.1906 107.551 21.2178C107.511 21.2383 107.47 21.2579 107.429 21.2771C107.382 21.2988 107.336 21.3211 107.29 21.3443C107.233 21.3729 107.176 21.4002 107.119 21.4271C107.079 21.4459 107.04 21.4652 107 21.4852C106.956 21.5074 106.912 21.5275 106.867 21.5471C106.816 21.5694 106.766 21.5935 106.717 21.6202C106.662 21.65 106.606 21.6762 106.549 21.7011C106.489 21.7271 106.432 21.7559 106.374 21.7853C106.298 21.8241 106.221 21.8622 106.143 21.8977C106.102 21.9168 106.06 21.9367 106.019 21.9566L105.992 21.9697C105.938 21.9953 105.885 22.0207 105.831 22.0459C105.776 22.0722 105.72 22.0993 105.665 22.127C105.63 22.1446 105.594 22.1611 105.559 22.1777C105.512 22.1991 105.467 22.2219 105.421 22.2448C105.387 22.2621 105.353 22.2782 105.317 22.2934C105.292 22.3051 105.267 22.3178 105.241 22.3305L105.23 22.3362C105.165 22.3688 105.1 22.3998 105.034 22.4308L105.001 22.4462L104.96 22.4659C104.906 22.4914 104.853 22.5168 104.799 22.5421C104.729 22.5748 104.66 22.6081 104.592 22.6427C104.554 22.6614 104.517 22.6792 104.479 22.6969L104.461 22.7054C104.417 22.726 104.374 22.7473 104.331 22.7692C104.287 22.7915 104.242 22.8119 104.197 22.8312C104.149 22.8515 104.103 22.8742 104.058 22.899C104.003 22.929 103.946 22.9554 103.889 22.9804C103.841 23.0014 103.794 23.0241 103.747 23.0478C103.701 23.0713 103.654 23.0935 103.607 23.1154C103.576 23.1298 103.545 23.1448 103.515 23.1606L103.496 23.1702C103.489 23.1739 103.482 23.1777 103.475 23.1814C103.47 23.1839 103.466 23.1863 103.461 23.1888C103.44 23.1997 103.422 23.2084 103.398 23.21C103.376 23.1957 103.366 23.1739 103.356 23.1509L103.352 23.142L103.343 23.1238C103.334 23.1042 103.325 23.0844 103.315 23.0647L103.268 22.9637C103.247 22.9202 103.226 22.8772 103.204 22.8344C103.178 22.7834 103.155 22.7318 103.133 22.6791C103.121 22.6517 103.109 22.6257 103.093 22.6001C103.084 22.5831 103.08 22.5769 103.079 22.5702C103.078 22.5665 103.078 22.5625 103.078 22.5564L103.194 22.4983L103.234 22.4782C103.283 22.4539 103.332 22.4303 103.381 22.4071L103.451 22.3734L103.604 22.3009C103.648 22.2798 103.691 22.2583 103.735 22.2364C103.77 22.2189 103.806 22.202 103.841 22.1852L103.865 22.1741C103.907 22.1541 103.949 22.1343 103.991 22.1146C104.043 22.0904 104.094 22.0658 104.145 22.0401C104.221 22.0018 104.298 21.9656 104.374 21.9294L104.478 21.8806C104.517 21.8619 104.556 21.8427 104.595 21.823C104.639 21.8007 104.684 21.7803 104.729 21.7605C104.801 21.7289 104.872 21.6942 104.942 21.6583C105.037 21.6101 105.133 21.564 105.23 21.5181L105.331 21.4699C105.392 21.4405 105.454 21.4111 105.515 21.382C105.567 21.3576 105.619 21.333 105.67 21.3073C105.761 21.2612 105.854 21.2176 105.947 21.1743C106.004 21.1476 106.06 21.1206 106.117 21.0923C106.239 21.0304 106.364 20.9721 106.488 20.9139L106.546 20.8866C106.623 20.8505 106.699 20.8139 106.775 20.7756C106.809 20.7585 106.843 20.7422 106.878 20.7264C106.918 20.7083 106.957 20.6894 106.996 20.6697C107.077 20.6287 107.159 20.5896 107.241 20.5505L107.76 20.3027C107.805 20.2811 107.851 20.2596 107.896 20.2383C107.948 20.2139 107.999 20.1893 108.05 20.1635C108.133 20.122 108.216 20.0827 108.3 20.0434L108.332 20.0283C108.391 20.0005 108.45 19.9726 108.508 19.9432C108.599 19.8971 108.692 19.8536 108.785 19.8102C108.85 19.7798 108.914 19.7487 108.978 19.7164C109.016 19.6976 109.053 19.6799 109.092 19.6629C109.181 19.6224 109.269 19.5801 109.356 19.536C109.438 19.4949 109.52 19.456 109.603 19.417L109.636 19.4014C109.705 19.3689 109.774 19.3358 109.842 19.3015C109.88 19.2826 109.918 19.2646 109.956 19.2466L109.974 19.2381C110.014 19.2192 110.054 19.1998 110.094 19.1797C110.138 19.1574 110.182 19.137 110.228 19.1172C110.294 19.088 110.359 19.0564 110.424 19.0234C110.449 19.0105 110.475 18.9978 110.5 18.9851L110.508 18.9811L110.559 18.9557L110.525 18.9047C110.512 18.8856 110.5 18.8666 110.487 18.8476L110.464 18.8138L110.453 18.7974C110.434 18.7691 110.418 18.7426 110.407 18.71H110.39C110.381 18.6962 110.372 18.682 110.364 18.6676L110.35 18.6456L110.327 18.6094L110.317 18.5935C110.3 18.5662 110.282 18.5396 110.262 18.5136C110.253 18.5009 110.249 18.495 110.247 18.4884C110.246 18.4826 110.246 18.4763 110.246 18.4643H110.229L110.216 18.441L110.198 18.4098L110.19 18.3946C110.173 18.3653 110.155 18.3371 110.137 18.3092C110.108 18.267 110.082 18.2234 110.057 18.1794C110.037 18.1453 110.027 18.1283 110.017 18.1113C110.012 18.1034 110.007 18.0955 110.001 18.0859C109.995 18.0749 109.987 18.0617 109.976 18.0436L109.965 18.0259L109.945 17.9939C109.931 17.9707 109.924 17.9584 109.924 17.9306C109.872 17.949 109.824 17.9717 109.776 17.9978C109.733 18.021 109.691 18.0425 109.646 18.0621C109.608 18.0795 109.57 18.0977 109.531 18.1159L109.508 18.1271C109.465 18.1476 109.422 18.1685 109.38 18.19C109.336 18.2122 109.292 18.2323 109.247 18.252C109.192 18.2757 109.14 18.3015 109.088 18.3299C109.045 18.3532 109.001 18.3739 108.957 18.394C108.937 18.4032 108.917 18.4128 108.897 18.423C108.874 18.4347 108.851 18.4442 108.827 18.4532C108.787 18.4688 108.75 18.4883 108.712 18.5088C108.656 18.5393 108.599 18.5663 108.54 18.5918C108.492 18.6128 108.445 18.6355 108.399 18.6592C108.358 18.6797 108.317 18.6993 108.276 18.7185C108.229 18.7402 108.183 18.7625 108.137 18.7857C108.081 18.8143 108.023 18.8416 107.966 18.8685C107.926 18.8873 107.887 18.9066 107.848 18.9266C107.803 18.9489 107.759 18.9693 107.714 18.9891C107.659 19.0131 107.605 19.0387 107.551 19.0658C107.511 19.0864 107.47 19.106 107.429 19.1251C107.382 19.1469 107.336 19.1692 107.29 19.1924C107.234 19.2208 107.177 19.2478 107.12 19.2746C107.077 19.2951 107.034 19.3163 106.991 19.338C106.947 19.3603 106.903 19.3807 106.857 19.4C106.81 19.4203 106.764 19.443 106.718 19.4677C106.663 19.4977 106.607 19.5241 106.549 19.5492C106.479 19.58 106.41 19.6147 106.342 19.6497C106.258 19.6926 106.173 19.7326 106.087 19.7721C106.022 19.8019 105.958 19.8321 105.895 19.8644C105.85 19.8872 105.804 19.9087 105.758 19.93C105.717 19.9492 105.677 19.9693 105.636 19.9898C105.592 20.0123 105.547 20.0329 105.502 20.0523C105.454 20.0727 105.408 20.0953 105.363 20.1201C105.307 20.1501 105.251 20.1765 105.193 20.2015C105.145 20.2225 105.099 20.2452 105.052 20.2689C105.006 20.2924 104.958 20.3147 104.911 20.3366C104.87 20.3559 104.83 20.376 104.789 20.3965C104.745 20.4189 104.7 20.4396 104.655 20.459C104.607 20.4793 104.561 20.502 104.515 20.5268C104.46 20.5568 104.404 20.5831 104.346 20.6082C104.298 20.6291 104.251 20.6519 104.205 20.6756C104.164 20.6961 104.123 20.7157 104.082 20.7349C104.036 20.7566 103.989 20.7789 103.943 20.8021C103.887 20.8307 103.83 20.858 103.772 20.8849C103.733 20.9037 103.693 20.923 103.654 20.943C103.61 20.9652 103.565 20.9856 103.52 21.0054C103.453 21.0347 103.388 21.0663 103.323 21.0993C103.143 21.1914 102.959 21.2778 102.776 21.3642L102.757 21.3729C102.696 21.4018 102.635 21.4308 102.574 21.4613C102.533 21.4823 102.491 21.5019 102.448 21.5209C102.426 21.5313 102.404 21.5422 102.381 21.5535C102.312 21.5883 102.242 21.6215 102.173 21.6547L102.129 21.6753L102.083 21.6975C101.966 21.753 101.966 21.753 101.909 21.7801C101.84 21.8126 101.771 21.8458 101.703 21.8802C101.665 21.8989 101.628 21.9167 101.59 21.9344L101.572 21.9429C101.528 21.9635 101.485 21.9848 101.442 22.0067C101.398 22.029 101.353 22.0494 101.308 22.0687C101.26 22.089 101.214 22.1117 101.169 22.1365C101.114 22.1665 101.057 22.1929 101 22.2179C100.952 22.2389 100.905 22.2616 100.858 22.2853C100.818 22.3058 100.777 22.3254 100.736 22.3446C100.656 22.3816 100.578 22.4207 100.5 22.4606C100.463 22.4796 100.426 22.4977 100.387 22.5124C100.346 22.5279 100.309 22.548 100.271 22.5686C100.222 22.5949 100.174 22.6181 100.122 22.6386C100.079 22.6565 100.038 22.6776 99.9973 22.6986L99.9779 22.7085C99.8988 22.7488 99.8193 22.7881 99.7388 22.8258C99.6879 22.8495 99.6373 22.8737 99.5866 22.8979L99.3632 23.0049C99.3235 23.0238 99.2839 23.0428 99.2441 23.0616C99.178 23.093 99.1119 23.1244 99.0465 23.1574C98.9711 23.1954 98.8948 23.2317 98.8185 23.268L98.7365 23.3071C98.6784 23.3348 98.6204 23.3624 98.5622 23.3899C98.4939 23.4221 98.4259 23.4548 98.3585 23.4888C98.3155 23.5103 98.272 23.5309 98.2286 23.5515L98.2036 23.5634C98.1476 23.5901 98.0919 23.6174 98.0369 23.6461C98.009 23.6605 97.9838 23.6703 97.9526 23.6747C97.9271 23.6387 97.9084 23.6028 97.8917 23.5619C97.8677 23.5052 97.8406 23.4508 97.8109 23.3968C97.7894 23.3572 97.7704 23.3169 97.752 23.2757C97.7405 23.2505 97.7285 23.2257 97.7162 23.2009L97.7039 23.1757L97.6786 23.1247L97.6665 23.0997L97.6554 23.0775C97.647 23.0548 97.646 23.0379 97.6476 23.0139C97.7202 22.9767 97.7932 22.9411 97.8678 22.908C97.925 22.8826 97.9814 22.856 98.0372 22.8277C98.081 22.8055 98.1252 22.7843 98.1697 22.7634C98.2266 22.7367 98.2829 22.709 98.339 22.6807C98.3692 22.6658 98.3996 22.6515 98.4302 22.6374C98.4733 22.6175 98.5159 22.5968 98.5583 22.5754C98.6389 22.5348 98.7203 22.4961 98.8017 22.4574L98.9361 22.3934L99.322 22.209C99.3671 22.1874 99.4124 22.1659 99.4577 22.1445C99.5094 22.1201 99.561 22.0955 99.6121 22.0698C99.6944 22.0282 99.7779 21.9889 99.8613 21.9497L99.8934 21.9346C99.952 21.9069 100.011 21.8792 100.068 21.85C100.135 21.8166 100.202 21.7847 100.269 21.7528L100.298 21.7388C100.343 21.7173 100.388 21.6958 100.433 21.6742C100.535 21.6253 100.637 21.5768 100.739 21.5286C100.799 21.5006 100.858 21.4724 100.917 21.4428C101.008 21.3967 101.101 21.3532 101.194 21.3098C101.257 21.2802 101.32 21.2499 101.382 21.2184C101.434 21.1927 101.485 21.1683 101.537 21.144C101.577 21.1252 101.616 21.1059 101.655 21.0859C101.7 21.0636 101.744 21.0432 101.789 21.0234C101.844 20.9994 101.898 20.9738 101.952 20.9467C101.992 20.9261 102.033 20.9065 102.074 20.8874C102.121 20.8656 102.167 20.8433 102.213 20.8201C102.27 20.7915 102.327 20.7643 102.384 20.7373C102.424 20.7185 102.463 20.6992 102.503 20.6793C102.547 20.657 102.591 20.6366 102.637 20.6168C102.709 20.5851 102.779 20.5504 102.849 20.5146C102.918 20.4797 102.987 20.446 103.057 20.4134C103.099 20.394 103.14 20.3738 103.18 20.3531C103.225 20.3306 103.269 20.31 103.315 20.2906C103.37 20.2672 103.422 20.2407 103.475 20.212C103.514 20.1903 103.555 20.1712 103.596 20.1527C103.633 20.1362 103.669 20.1188 103.705 20.1014L103.715 20.0968C103.773 20.0686 103.832 20.0407 103.891 20.0131C103.942 19.9893 103.992 19.9645 104.043 19.9391C104.094 19.9134 104.145 19.889 104.197 19.8647C104.237 19.8459 104.276 19.8266 104.316 19.8066C104.36 19.7843 104.404 19.7639 104.45 19.7441C104.505 19.7201 104.558 19.6946 104.612 19.6674C104.653 19.6463 104.695 19.6262 104.738 19.6065C104.775 19.5892 104.812 19.572 104.848 19.5535C104.887 19.5336 104.927 19.5149 104.967 19.4962L104.97 19.4947C105.017 19.4725 105.064 19.45 105.111 19.4264C105.175 19.394 105.24 19.3631 105.305 19.3322L105.325 19.3229C105.367 19.303 105.409 19.2829 105.451 19.2627L105.471 19.2532C105.511 19.2341 105.551 19.215 105.591 19.196C105.663 19.1617 105.735 19.127 105.807 19.0909C105.865 19.0617 105.924 19.0339 105.983 19.0062L105.997 18.9997C106.031 18.9834 106.065 18.9671 106.1 18.9507L106.107 18.9472C106.151 18.9263 106.195 18.9054 106.239 18.8846C106.298 18.857 106.356 18.8292 106.414 18.8C106.464 18.7748 106.515 18.7505 106.565 18.7264C106.638 18.6919 106.71 18.6572 106.782 18.6224L106.828 18.6002C106.888 18.5712 106.948 18.5417 107.007 18.5116C107.036 18.4977 107.065 18.4852 107.094 18.4728C107.119 18.4612 107.145 18.4493 107.17 18.4373L107.191 18.4272C107.242 18.403 107.292 18.378 107.343 18.3526C107.386 18.331 107.429 18.311 107.473 18.2911C107.504 18.2763 107.535 18.2608 107.566 18.2451C107.631 18.2126 107.696 18.1818 107.761 18.1513L107.862 18.1037L107.883 18.094C107.923 18.0752 107.962 18.0558 108.001 18.0359C108.045 18.0137 108.09 17.9933 108.135 17.9735C108.202 17.9442 108.267 17.9126 108.332 17.8796C108.512 17.7875 108.696 17.7011 108.879 17.6147L108.898 17.606C108.957 17.5781 109.016 17.5502 109.074 17.5207C109.133 17.4911 109.193 17.4626 109.252 17.4343C109.298 17.4125 109.344 17.3905 109.389 17.3682L109.419 17.354L109.475 17.3266L109.501 17.3141L109.523 17.303C109.532 17.2995 109.537 17.2975 109.542 17.2964C109.548 17.2952 109.554 17.2952 109.568 17.2952C109.551 17.2511 109.533 17.2083 109.512 17.1665C109.486 17.1157 109.463 17.0637 109.441 17.0113C109.425 16.9736 109.417 16.9547 109.408 16.936C109.4 16.9174 109.391 16.8989 109.373 16.862C109.321 16.7625 109.279 16.6574 109.24 16.5526C109.226 16.517 109.211 16.4819 109.196 16.4467L109.196 16.4453C109.169 16.3819 109.144 16.318 109.12 16.2533C109.115 16.2396 109.113 16.2335 109.11 16.2277C109.108 16.2231 109.106 16.2187 109.102 16.2107C109.03 16.2407 108.961 16.2722 108.892 16.3092C108.845 16.335 108.797 16.3576 108.747 16.3776C108.701 16.397 108.656 16.4198 108.612 16.4426L108.585 16.4564C108.494 16.5027 108.468 16.5164 108.44 16.5283C108.428 16.5334 108.416 16.5381 108.399 16.5448C108.358 16.5616 108.319 16.5817 108.279 16.6031C108.223 16.6334 108.166 16.6602 108.108 16.6856C108.06 16.7063 108.014 16.7288 107.968 16.7523C107.924 16.7747 107.879 16.796 107.834 16.817C107.777 16.8441 107.72 16.8721 107.663 16.9008C107.639 16.9126 107.615 16.9237 107.591 16.9346C107.554 16.9512 107.517 16.9691 107.481 16.9875C107.405 17.0257 107.328 17.062 107.252 17.0982L107.069 17.185L107.031 17.2025C106.968 17.2323 106.904 17.2628 106.841 17.2945C106.79 17.3202 106.739 17.3446 106.687 17.369C106.647 17.3877 106.608 17.407 106.568 17.427C106.524 17.4492 106.48 17.4693 106.435 17.489C106.384 17.5113 106.334 17.5354 106.285 17.562C106.23 17.5919 106.174 17.618 106.117 17.6429C106.069 17.6639 106.022 17.6866 105.975 17.7103C105.935 17.7308 105.894 17.7504 105.853 17.7696C105.774 17.8066 105.695 17.8458 105.617 17.8856C105.58 17.9046 105.543 17.9228 105.504 17.9375C105.463 17.953 105.426 17.973 105.388 17.9936C105.339 18.0199 105.291 18.0431 105.239 18.0636C105.19 18.0845 105.142 18.1091 105.094 18.1338L105.062 18.1503C104.978 18.1931 104.893 18.233 104.808 18.2725C104.743 18.3023 104.679 18.3326 104.616 18.3648C104.571 18.3876 104.525 18.4091 104.479 18.4304C104.437 18.45 104.396 18.4704 104.354 18.4913C104.311 18.513 104.268 18.5338 104.224 18.5535C104.104 18.6082 103.985 18.6655 103.868 18.7268L103.852 18.7352L103.807 18.7584C103.782 18.7691 103.766 18.7718 103.739 18.7693C103.7 18.6971 103.662 18.6258 103.632 18.5493C103.618 18.5184 103.603 18.4891 103.587 18.4595C103.563 18.4171 103.542 18.3745 103.522 18.3302C103.512 18.3075 103.502 18.2851 103.491 18.2627L103.48 18.2407L103.459 18.1971L103.449 18.1768L103.44 18.1586C103.438 18.1519 103.436 18.148 103.435 18.144C103.434 18.1381 103.434 18.132 103.434 18.117L103.463 18.1036C103.502 18.0854 103.522 18.076 103.541 18.0667C103.561 18.0573 103.58 18.0478 103.619 18.0288C103.658 18.0089 103.699 17.9899 103.738 17.9711L103.741 17.9697C103.789 17.9473 103.836 17.9246 103.883 17.9009C103.936 17.8741 103.99 17.8486 104.044 17.8233C104.084 17.8044 104.124 17.7849 104.163 17.7648C104.207 17.7426 104.252 17.7222 104.297 17.7023C104.352 17.6785 104.405 17.6531 104.458 17.6262C104.502 17.6038 104.547 17.5825 104.592 17.5615C104.648 17.5349 104.704 17.5076 104.76 17.4795C104.8 17.4594 104.842 17.44 104.883 17.4209C104.914 17.4063 104.944 17.3916 104.975 17.3762C105.014 17.3562 105.054 17.3374 105.094 17.3186L105.097 17.3174C105.144 17.2951 105.191 17.2726 105.238 17.2491C105.329 17.203 105.422 17.1595 105.515 17.1161C105.58 17.0857 105.644 17.0545 105.708 17.0222C105.746 17.0034 105.783 16.9858 105.821 16.9687C105.914 16.9267 106.005 16.8827 106.095 16.8371C106.17 16.7997 106.245 16.7644 106.32 16.729L106.323 16.7275C106.406 16.6883 106.489 16.6488 106.572 16.6073C106.61 16.5884 106.648 16.5704 106.686 16.5524L106.704 16.544C106.744 16.5251 106.784 16.5056 106.823 16.4855C106.868 16.4633 106.912 16.4429 106.957 16.423C107.012 16.3992 107.065 16.3738 107.119 16.3469C107.162 16.3247 107.206 16.3036 107.251 16.2827C107.307 16.2565 107.362 16.2296 107.417 16.2018C107.463 16.1785 107.51 16.1564 107.557 16.1345C107.598 16.1153 107.639 16.0952 107.679 16.0746C107.723 16.0522 107.768 16.0315 107.814 16.0121C107.861 15.9918 107.907 15.9691 107.953 15.9444C108.008 15.9144 108.064 15.888 108.122 15.8629C108.17 15.842 108.217 15.8193 108.264 15.7956C108.304 15.775 108.345 15.7555 108.386 15.7363C108.465 15.6992 108.544 15.6601 108.622 15.6202C108.667 15.5971 108.713 15.5762 108.76 15.5579C108.78 15.5498 108.799 15.5406 108.818 15.5308C108.838 15.5211 108.844 15.5178 108.851 15.5166C108.855 15.516 108.859 15.516 108.865 15.516C108.851 15.455 108.834 15.3953 108.816 15.3354C108.789 15.248 108.766 15.1599 108.743 15.0714C108.736 15.0441 108.729 15.0169 108.721 14.9897C108.675 14.8164 108.636 14.6414 108.599 14.4659C108.594 14.4433 108.589 14.4208 108.584 14.3983C108.562 14.2955 108.545 14.1919 108.528 14.0881C108.52 14.0409 108.512 13.9938 108.504 13.9467C108.486 13.8488 108.471 13.7507 108.458 13.6521L108.454 13.6216C108.437 13.497 108.421 13.3724 108.411 13.247C108.409 13.2258 108.406 13.2052 108.403 13.1842C108.397 13.1414 108.394 13.0985 108.391 13.0556L108.39 13.04L108.386 12.9806L108.384 12.9541C108.382 12.9298 108.38 12.9055 108.378 12.8811C108.372 12.8227 108.37 12.7641 108.367 12.7054L108.366 12.6875C108.347 12.2766 108.343 11.8684 108.36 11.4573L108.36 11.4373C108.366 11.2967 108.373 11.1565 108.389 11.0166C108.392 10.9836 108.395 10.9505 108.397 10.9174L108.398 10.8987C108.413 10.7094 108.436 10.5215 108.463 10.3336L108.474 10.256C108.487 10.1621 108.501 10.0686 108.517 9.97518L108.523 9.94307C108.554 9.76365 108.564 9.70489 108.576 9.64651C108.582 9.61809 108.588 9.58975 108.597 9.54762C108.603 9.52218 108.608 9.4967 108.614 9.47122C108.648 9.30643 108.685 9.14195 108.731 8.97994C108.744 8.93386 108.755 8.88751 108.767 8.84097C108.786 8.76229 108.809 8.6849 108.833 8.6075C108.839 8.58596 108.846 8.56438 108.852 8.54279C108.918 8.32357 108.987 8.10513 109.068 7.89103L109.08 7.85833L109.177 7.60067C109.204 7.52995 109.233 7.46049 109.263 7.39117L109.315 7.26938L109.328 7.23844C109.35 7.18679 109.373 7.13622 109.399 7.08617C109.404 7.07408 109.408 7.06191 109.413 7.04963C109.434 6.99491 109.46 6.94202 109.485 6.88912L109.498 6.86358L109.532 6.7912C109.568 6.71441 109.605 6.63798 109.646 6.56335C109.666 6.52608 109.685 6.4883 109.704 6.45022C109.73 6.39708 109.758 6.34597 109.788 6.29475C109.807 6.26166 109.824 6.22761 109.841 6.19341C109.863 6.14749 109.887 6.1038 109.915 6.06103C109.947 6.01019 109.976 5.95853 110.005 5.90595C110.023 5.87276 110.041 5.83982 110.059 5.80687H110.076L110.082 5.78516C110.093 5.75631 110.106 5.73724 110.124 5.71288C110.139 5.69184 110.151 5.66955 110.163 5.64697L110.167 5.641C110.179 5.61827 110.192 5.59576 110.205 5.57335L110.218 5.55161L110.229 5.53576H110.246L110.249 5.52065C110.254 5.50146 110.261 5.48896 110.272 5.47255L110.283 5.4562L110.295 5.43939L110.306 5.42277L110.328 5.39027C110.345 5.36604 110.354 5.35393 110.361 5.34139C110.369 5.32888 110.376 5.31593 110.39 5.29006H110.407L110.414 5.27153C110.424 5.24772 110.434 5.22666 110.449 5.20534H110.466L110.468 5.19158C110.477 5.16405 110.491 5.1436 110.508 5.12062H110.525L110.527 5.10715C110.536 5.08035 110.552 5.05948 110.569 5.03754L110.574 5.03113L110.599 4.99711L110.613 4.97883C110.636 4.94774 110.659 4.91647 110.682 4.8852L110.688 4.87652L110.704 4.85579C110.735 4.81344 110.765 4.77074 110.794 4.72683L110.805 4.71396H110.822L110.822 4.68854C110.832 4.67857 110.841 4.66866 110.851 4.65914C110.873 4.63759 110.891 4.61326 110.909 4.58893L110.919 4.57522L110.934 4.55649C110.955 4.52769 110.977 4.49871 110.998 4.46916C111.016 4.44326 111.037 4.42303 111.059 4.40049C111.087 4.36657 111.115 4.33234 111.141 4.29621L111.152 4.28188H111.169L111.175 4.26841C111.19 4.24191 111.209 4.22006 111.228 4.19739L111.233 4.19239C111.25 4.17306 111.258 4.1634 111.266 4.1534C111.274 4.14341 111.281 4.13308 111.296 4.11243H111.313L111.32 4.09731C111.33 4.07867 111.341 4.06511 111.355 4.04942L111.37 4.03188L111.415 3.98277L111.429 3.96792L111.457 3.93859C111.476 3.91814 111.493 3.89852 111.508 3.87521H111.525L111.542 3.84132H111.559L111.565 3.82702C111.585 3.7903 111.613 3.75905 111.644 3.73118H111.661L111.667 3.71667C111.68 3.69331 111.695 3.67737 111.714 3.65845L111.737 3.63533L111.762 3.61059L111.787 3.58509L111.841 3.53185L111.987 3.38562L112.042 3.33029C112.052 3.32239 112.056 3.31887 112.06 3.3173C112.064 3.31605 112.068 3.31605 112.076 3.31605L112.076 3.2991C112.09 3.28756 112.104 3.27631 112.118 3.26521C112.139 3.24496 112.159 3.22433 112.179 3.20326C112.187 3.19544 112.191 3.1919 112.196 3.19029C112.199 3.18896 112.204 3.18896 112.211 3.18896L112.22 3.16355H112.237L112.245 3.13813C112.26 3.12525 112.274 3.11297 112.29 3.10106C112.315 3.08101 112.339 3.06143 112.362 3.03825C112.373 3.02703 112.378 3.02253 112.383 3.02072C112.387 3.01952 112.391 3.01952 112.398 3.01952L112.398 3.00258C112.424 2.97942 112.432 2.97209 112.441 2.96976C112.446 2.96869 112.45 2.96869 112.457 2.96869L112.465 2.94327H112.482L112.482 2.92633C112.49 2.91912 112.495 2.91505 112.499 2.91121C112.505 2.90648 112.51 2.90197 112.523 2.89191L112.546 2.87361C112.556 2.86622 112.562 2.86244 112.567 2.85953C112.573 2.8565 112.58 2.85439 112.593 2.85008L112.593 2.83313C112.611 2.81715 112.618 2.81122 112.626 2.80902C112.63 2.80771 112.635 2.80771 112.643 2.80771L112.652 2.7823C112.661 2.77507 112.666 2.77114 112.671 2.76739C112.677 2.76292 112.683 2.7587 112.696 2.74947C112.73 2.72606 112.758 2.70138 112.787 2.67216C112.806 2.65656 112.825 2.64182 112.844 2.62715L112.859 2.61549C112.884 2.59612 112.892 2.59012 112.901 2.58827C112.905 2.58744 112.909 2.58744 112.915 2.58744L112.923 2.56202C112.942 2.54639 112.961 2.53188 112.981 2.51754L113.017 2.49054L113.037 2.47594C113.06 2.45929 113.082 2.44238 113.105 2.42541L113.128 2.40781L113.173 2.37331L113.194 2.3575L113.213 2.34333C113.221 2.33812 113.224 2.33561 113.229 2.3344C113.233 2.33327 113.237 2.33327 113.245 2.33327L113.245 2.31633H113.27L113.27 2.29938C113.285 2.28817 113.3 2.27774 113.315 2.26761L113.345 2.2469L113.362 2.2354C113.387 2.21853 113.412 2.20129 113.436 2.18404L113.439 2.18183C113.584 2.07971 113.731 1.97957 113.881 1.88491C113.906 1.86917 113.918 1.8613 113.93 1.85314C113.943 1.84499 113.955 1.83654 113.979 1.81965C114.006 1.79997 114.034 1.78414 114.064 1.76822C114.118 1.73853 114.17 1.70582 114.222 1.67316L114.25 1.65573C114.278 1.63893 114.306 1.62306 114.335 1.60733C114.369 1.58825 114.403 1.56844 114.437 1.54863L114.454 1.53853C114.536 1.49075 114.62 1.44614 114.704 1.40239C114.76 1.3734 114.816 1.34427 114.871 1.31449C115.032 1.22843 115.197 1.14948 115.363 1.07639C115.403 1.05905 115.441 1.04042 115.48 1.02075C115.506 1.00816 115.532 0.997827 115.559 0.987424L115.562 0.986361C115.584 0.977599 115.605 0.968023 115.626 0.958131C115.737 0.907387 115.85 0.863589 115.964 0.821286L116.016 0.801758C116.05 0.789138 116.083 0.775824 116.116 0.761682C116.174 0.737555 116.232 0.71729 116.291 0.697037L116.436 0.646388C116.485 0.629368 116.534 0.61279 116.583 0.596475C116.608 0.588194 116.633 0.579794 116.657 0.571356C116.746 0.541407 116.834 0.512966 116.924 0.488752C116.974 0.475305 117.024 0.460672 117.073 0.446038L117.095 0.439721C117.207 0.406786 117.32 0.377907 117.433 0.349876L117.497 0.33418C117.652 0.295621 117.807 0.259998 117.964 0.228725L118.029 0.215524C118.075 0.205995 118.122 0.197434 118.168 0.190406C118.214 0.183496 118.259 0.175333 118.304 0.166505C118.422 0.143583 118.54 0.127111 118.659 0.112667C118.705 0.107032 118.75 0.099928 118.795 0.0920965C118.835 0.0856008 118.875 0.0809821 118.915 0.0764945L118.943 0.0733174L119.076 0.0586814C119.484 0.0138424 119.889 -0.000876036 120.298 0.000154133ZM120.963 6.13471C120.988 6.13871 121.013 6.14152 121.038 6.14434L121.047 6.14539C121.123 6.15451 121.197 6.16927 121.272 6.18409C121.294 6.18832 121.316 6.19218 121.338 6.19602C121.396 6.20651 121.453 6.22002 121.511 6.23355L121.529 6.23783C121.609 6.25666 121.689 6.27607 121.768 6.29842L121.807 6.30907C122.007 6.36429 122.202 6.43287 122.395 6.51022L122.421 6.52086C122.66 6.61734 122.89 6.73296 123.115 6.85758C123.115 6.89539 123.107 6.90336 123.083 6.92817L123.08 6.9307L123.065 6.9461L123.048 6.96266C123.03 6.98104 123.012 6.9993 122.994 7.01755L122.954 7.05692C122.919 7.09262 122.883 7.12821 122.848 7.16378L122.759 7.25285C122.685 7.32692 122.611 7.40088 122.537 7.47479C122.473 7.53902 122.409 7.6034 122.344 7.66784C122.279 7.73396 122.213 7.79999 122.147 7.86593C122.11 7.90296 122.073 7.94003 122.036 7.9772C122.001 8.01213 121.966 8.04694 121.931 8.08165L121.893 8.12015C121.875 8.13767 121.858 8.15503 121.84 8.17235L121.825 8.18805C121.811 8.20197 121.811 8.20197 121.785 8.2216C121.772 8.22119 121.766 8.221 121.761 8.21972C121.756 8.21861 121.751 8.2167 121.743 8.21314L121.726 8.20678L121.71 8.1992C121.503 8.10443 121.283 8.03723 121.062 7.98183C121.047 7.978 121.033 7.97394 121.018 7.96963C120.951 7.94995 120.883 7.93891 120.814 7.92825L120.754 7.91872C120.711 7.91185 120.668 7.90566 120.624 7.89966L120.599 7.89612C120.439 7.87407 120.282 7.87053 120.121 7.87151C120.096 7.87162 120.071 7.87158 120.045 7.87154L120.044 7.87154C119.855 7.8713 119.667 7.87679 119.48 7.91184L119.449 7.91755L119.388 7.92868C119.367 7.93266 119.345 7.93648 119.324 7.94017C119.082 7.98265 118.843 8.0508 118.617 8.14629C118.593 8.15634 118.569 8.16582 118.545 8.1753L118.535 8.17924C118.396 8.23528 118.264 8.30054 118.133 8.3741L118.11 8.38723C118.013 8.44109 117.919 8.49706 117.828 8.56049L117.814 8.5706C117.666 8.6734 117.525 8.78432 117.392 8.9056C117.38 8.91618 117.369 8.92671 117.357 8.93698C117.309 8.97736 117.265 9.02052 117.222 9.06448L117.185 9.10117C117.141 9.14543 117.098 9.19058 117.057 9.23827L117.033 9.26606C116.974 9.33353 116.919 9.40342 116.866 9.47565C116.854 9.49191 116.842 9.50807 116.83 9.5242C116.772 9.60166 116.719 9.68178 116.668 9.76354L116.645 9.79951L116.623 9.8345L116.613 9.85003C116.499 10.0324 116.407 10.2327 116.329 10.4328L116.32 10.4542C116.232 10.6824 116.157 10.9236 116.12 11.166C116.116 11.191 116.112 11.216 116.107 11.2409L116.107 11.2437C116.024 11.7049 116.039 12.1832 116.117 12.6441L116.122 12.6732C116.126 12.6986 116.13 12.724 116.135 12.7495L116.139 12.771C116.146 12.8124 116.157 12.8521 116.169 12.8924C116.177 12.9173 116.184 12.9424 116.191 12.9676C116.229 13.1046 116.272 13.239 116.32 13.3727L116.327 13.3908C116.369 13.5064 116.424 13.6164 116.48 13.7258L116.501 13.7676C116.613 13.9888 116.746 14.1929 116.896 14.3894L116.908 14.4049C117.051 14.5904 117.209 14.7747 117.388 14.9259C117.412 14.9467 117.436 14.9684 117.459 14.9901C117.464 14.9943 117.468 14.9984 117.472 15.0025C117.499 15.0257 117.526 15.0473 117.554 15.0688C117.573 15.0833 117.592 15.098 117.611 15.1128C117.684 15.1706 117.757 15.2257 117.836 15.2759C117.855 15.2885 117.875 15.3013 117.894 15.3141L117.896 15.3151C118.079 15.4342 118.272 15.5393 118.472 15.6263L118.49 15.6338C118.578 15.6722 118.667 15.7076 118.758 15.7384L118.783 15.747L118.819 15.7594C118.922 15.7955 119.027 15.8238 119.134 15.8492C119.16 15.8553 119.185 15.8617 119.21 15.8682C119.728 15.9978 120.286 15.9971 120.811 15.9059L120.849 15.8996C120.914 15.8885 120.978 15.8725 121.041 15.8542C121.077 15.8438 121.113 15.8345 121.15 15.8265C121.348 15.7834 121.54 15.7055 121.726 15.6263L121.745 15.6179C121.861 15.5682 121.971 15.5102 122.081 15.4484L122.114 15.4304C122.355 15.2956 122.584 15.132 122.786 14.9447C122.799 14.9334 122.811 14.9221 122.824 14.9112C122.877 14.8664 122.925 14.8178 122.974 14.7689L123.018 14.7249C123.066 14.6766 123.113 14.628 123.157 14.5757L123.18 14.5501C123.334 14.3703 123.467 14.1767 123.589 13.9742L123.603 13.9524C123.628 13.9109 123.651 13.8692 123.673 13.8254C123.694 13.7824 123.715 13.7399 123.738 13.6978C123.767 13.6455 123.792 13.5946 123.811 13.538C123.818 13.5158 123.828 13.4951 123.838 13.4738C123.868 13.4075 123.894 13.3395 123.92 13.271L123.926 13.2539C123.96 13.1619 123.985 13.0675 124.01 12.9729L124.015 12.9545C124.035 12.8793 124.053 12.8043 124.067 12.7278C124.07 12.714 124.071 12.708 124.073 12.7023C124.075 12.6979 124.077 12.6938 124.081 12.6864C124.084 12.6683 124.086 12.6501 124.088 12.6319C124.094 12.5893 124.1 12.547 124.107 12.5047C124.123 12.4109 124.131 12.3174 124.137 12.2226L124.14 12.1778L124.157 11.9239C123.992 12.0015 123.829 12.0831 123.666 12.1648L122.329 12.8339C122.288 12.8545 122.246 12.8742 122.205 12.8935C122.146 12.9209 122.089 12.9499 122.032 12.9804C121.937 13.0313 121.84 13.0782 121.742 13.124C121.695 13.1463 121.649 13.1702 121.603 13.1952C121.558 13.2195 121.512 13.2411 121.466 13.2626C121.426 13.2811 121.387 13.3009 121.349 13.3219C121.298 13.3493 121.247 13.374 121.195 13.3981C121.155 13.4166 121.116 13.4364 121.077 13.4574C121.033 13.4816 120.988 13.5039 120.942 13.5252C120.896 13.5463 120.852 13.5684 120.807 13.5924C120.76 13.6183 120.712 13.642 120.663 13.665C120.573 13.7073 120.483 13.7509 120.395 13.798C120.325 13.8358 120.254 13.871 120.181 13.9051C120.136 13.9265 120.091 13.9484 120.046 13.9709L120.028 13.9798C119.965 14.0115 119.902 14.0434 119.838 14.0753C119.681 14.1545 119.524 14.2334 119.367 14.3124C119.276 14.3579 119.185 14.4035 119.095 14.4492C119.015 14.4892 118.936 14.5292 118.856 14.569C118.814 14.5901 118.772 14.6112 118.73 14.6324C118.691 14.6522 118.652 14.672 118.612 14.6917L118.569 14.7135C118.549 14.7235 118.53 14.7333 118.51 14.7431L118.493 14.7521C118.457 14.7695 118.434 14.773 118.396 14.7621C118.387 14.7582 118.382 14.7562 118.377 14.754C118.373 14.7518 118.368 14.7493 118.36 14.7445L118.339 14.7334L118.318 14.7214L118.296 14.7088C118.056 14.5732 117.834 14.4107 117.631 14.224C117.619 14.213 117.607 14.202 117.594 14.1914C117.542 14.1465 117.493 14.0975 117.444 14.0484L117.437 14.0416L117.389 13.9938C117.339 13.9435 117.29 13.8932 117.244 13.8387L117.22 13.8109C116.993 13.5485 116.967 13.5189 116.965 13.4871C116.964 13.483 116.964 13.479 116.964 13.4744L119.364 12.2745C119.404 12.2545 119.444 12.2355 119.484 12.2168C119.543 12.1894 119.6 12.1603 119.657 12.1299C119.752 12.0789 119.849 12.0321 119.946 11.9863C119.994 11.964 120.04 11.9401 120.086 11.915C120.131 11.8907 120.177 11.8691 120.223 11.8477C120.263 11.8292 120.302 11.8094 120.34 11.7884C120.391 11.7609 120.442 11.7362 120.494 11.7121C120.534 11.6936 120.573 11.6738 120.611 11.6528C120.656 11.6288 120.7 11.6067 120.746 11.5856C120.795 11.5629 120.843 11.5388 120.891 11.513C120.945 11.4842 120.999 11.4577 121.054 11.4321C121.099 11.4113 121.143 11.3885 121.186 11.3648C121.231 11.3403 121.278 11.3186 121.325 11.297C121.364 11.2785 121.403 11.2587 121.442 11.2377C121.492 11.2102 121.544 11.1855 121.596 11.1615C121.635 11.1429 121.674 11.1231 121.713 11.1021C121.763 11.0747 121.815 11.05 121.867 11.0259C121.907 11.0074 121.945 10.9876 121.984 10.9666C122.028 10.9424 122.074 10.9201 122.12 10.8988C122.164 10.878 122.208 10.8564 122.252 10.8326C122.306 10.8033 122.361 10.7767 122.416 10.7505C122.47 10.7248 122.524 10.6988 122.577 10.6701C122.637 10.6373 122.699 10.6078 122.761 10.5786C122.805 10.5576 122.85 10.5361 122.894 10.5139L125.149 9.38617C125.197 9.36185 125.247 9.33873 125.296 9.31587C125.326 9.3016 125.356 9.28695 125.385 9.2699C125.401 9.26065 125.407 9.25722 125.414 9.25595C125.418 9.25521 125.422 9.25521 125.428 9.25521L125.501 9.40026C125.545 9.4863 125.585 9.57318 125.623 9.66187L125.633 9.68595C125.664 9.75653 125.694 9.82675 125.716 9.90049C125.723 9.92014 125.731 9.93798 125.739 9.95678C125.764 10.0109 125.782 10.0672 125.801 10.1234L125.806 10.14L125.813 10.1601C125.881 10.3646 125.935 10.5718 125.975 10.7838C125.983 10.827 125.991 10.8701 126 10.9131C126.031 11.0593 126.052 11.2057 126.068 11.3541C126.07 11.3773 126.073 11.4003 126.076 11.4234C126.099 11.6233 126.099 11.8231 126.099 12.024L126.099 12.045C126.099 12.0852 126.099 12.1255 126.099 12.1657L126.099 12.2031C126.099 12.2631 126.098 12.322 126.089 12.3814C126.088 12.3931 126.087 12.4048 126.087 12.4165L126.086 12.455C126.079 12.6019 126.068 12.7511 126.036 12.8947C126.028 12.9279 126.023 12.9611 126.018 12.9946C125.968 13.3012 125.886 13.5994 125.79 13.8945L125.773 13.9494C125.748 14.0261 125.719 14.101 125.689 14.1759L125.668 14.23C125.647 14.2845 125.624 14.3374 125.597 14.3894C125.594 14.3962 125.591 14.403 125.588 14.4098C125.585 14.4172 125.582 14.4247 125.579 14.4322C125.499 14.6189 125.403 14.7988 125.301 14.9739L125.282 15.0067C125.236 15.0869 125.186 15.1649 125.135 15.2418L125.099 15.2948C125.006 15.4337 124.909 15.5684 124.802 15.6973C124.785 15.7188 124.767 15.7405 124.75 15.7624C124.721 15.7987 124.691 15.833 124.659 15.8673C124.64 15.8891 124.622 15.9116 124.603 15.9345C124.571 15.9749 124.535 16.0113 124.498 16.0477C124.476 16.0698 124.454 16.092 124.434 16.1161C124.371 16.1896 124.3 16.2594 124.227 16.3216C124.205 16.3407 124.184 16.3605 124.163 16.3804C124.113 16.427 124.064 16.472 124.011 16.5143C123.99 16.5307 123.97 16.5477 123.951 16.5648C123.879 16.6264 123.804 16.6823 123.728 16.7383C123.716 16.747 123.705 16.7556 123.693 16.7644C123.687 16.7686 123.682 16.7729 123.676 16.7772C123.537 16.8814 123.391 16.977 123.242 17.0666L123.221 17.0796C122.845 17.3058 122.441 17.4911 122.024 17.6255C121.998 17.6337 121.972 17.6422 121.947 17.6506C121.846 17.6837 121.744 17.7113 121.641 17.7359L121.584 17.7496L121.563 17.7547C121.543 17.7603 121.523 17.7669 121.503 17.7739C121.463 17.7877 121.422 17.794 121.38 17.7994C121.334 17.8053 121.29 17.8126 121.246 17.8245C121.184 17.8404 121.122 17.8478 121.06 17.8552L121.057 17.8555L121.004 17.862L120.956 17.8678C120.94 17.87 120.924 17.8726 120.907 17.8759C120.885 17.8802 120.863 17.8822 120.841 17.8838L120.813 17.8858L120.785 17.8878L120.7 17.894C120.676 17.896 120.653 17.8983 120.63 17.9011C120.499 17.916 120.369 17.9167 120.238 17.9165C120.212 17.9164 120.186 17.9165 120.161 17.9166C119.985 17.9177 119.812 17.9094 119.637 17.8914C119.603 17.8879 119.57 17.8848 119.536 17.8817C119.518 17.88 119.499 17.8781 119.481 17.8761C119.467 17.8746 119.452 17.873 119.438 17.8714L119.417 17.8692C119.213 17.847 119.011 17.8044 118.812 17.7586L118.784 17.7524C118.743 17.7426 118.73 17.7395 118.717 17.7351C118.711 17.733 118.705 17.7307 118.696 17.7273C118.677 17.7195 118.659 17.7146 118.639 17.7104C118.441 17.6684 118.246 17.5989 118.059 17.5219C118.027 17.5083 117.993 17.4961 117.96 17.4843C117.885 17.4582 117.813 17.4284 117.743 17.3923C117.717 17.3792 117.689 17.3673 117.662 17.3555C117.607 17.3314 117.554 17.3071 117.503 17.2746C117.475 17.2576 117.445 17.2432 117.415 17.2286L117.414 17.2281C117.365 17.2039 117.317 17.1782 117.27 17.1499C117.247 17.1364 117.224 17.1236 117.2 17.1109C117.15 17.0836 117.101 17.0541 117.053 17.0237L117.026 17.0069C116.849 16.8952 116.678 16.7741 116.515 16.643L116.498 16.6294C116.436 16.5792 116.374 16.5286 116.315 16.4742C116.294 16.4561 116.273 16.4394 116.252 16.4227C116.201 16.3817 116.156 16.3355 116.11 16.2888C116.082 16.26 116.053 16.2321 116.023 16.2059C115.986 16.1747 115.956 16.1395 115.925 16.1024C115.922 16.0986 115.92 16.0957 115.918 16.0932C115.916 16.0912 115.915 16.0896 115.913 16.088C115.908 16.0827 115.902 16.0781 115.888 16.0668C115.845 16.0682 115.81 16.0865 115.773 16.1056L115.763 16.1108L115.741 16.1217L115.673 16.1563L115.54 16.2236C115.455 16.2668 115.37 16.3099 115.283 16.3501C115.212 16.3834 115.143 16.4197 115.073 16.4568C115.052 16.4684 115.03 16.4798 115.008 16.491L114.988 16.5008C114.981 16.5041 114.977 16.5057 114.973 16.5065C114.969 16.5074 114.965 16.5074 114.956 16.5074L114.633 15.8608L114.601 15.7976C114.57 15.7365 114.541 15.675 114.511 15.6131C114.486 15.5588 114.459 15.5057 114.431 15.4531C114.406 15.4081 114.385 15.3621 114.363 15.3156C114.342 15.2709 114.32 15.2275 114.296 15.1842C114.269 15.1342 114.245 15.083 114.221 15.0314C114.202 14.9909 114.182 14.9519 114.159 14.9133C114.155 14.9054 114.153 14.9015 114.152 14.8973C114.151 14.8933 114.151 14.8891 114.151 14.8807C114.232 14.837 114.314 14.7953 114.397 14.7563C114.494 14.7106 114.59 14.6618 114.685 14.611C114.732 14.5859 114.78 14.563 114.829 14.5419C114.824 14.5122 114.816 14.4874 114.804 14.4602L114.793 14.4377L114.782 14.4137C114.721 14.2808 114.664 14.1477 114.618 14.009L114.592 13.9346C114.531 13.7547 114.473 13.5745 114.433 13.3883C114.425 13.3496 114.415 13.312 114.403 13.2742C114.387 13.2184 114.377 13.1601 114.368 13.1024C114.366 13.0925 114.365 13.0826 114.363 13.0728C114.362 13.0663 114.361 13.0598 114.36 13.0533C114.353 13.0106 114.345 12.9679 114.337 12.9254C114.316 12.812 114.303 12.6997 114.295 12.5848L114.293 12.5537C114.29 12.5104 114.287 12.4672 114.284 12.424L114.282 12.3943L114.281 12.3682C114.279 12.3451 114.277 12.3222 114.274 12.2992C114.269 12.2526 114.269 12.2063 114.268 12.1594L114.268 12.1321L114.268 12.0441L114.268 12.0136C114.268 11.737 114.285 11.4612 114.321 11.1869L114.324 11.162C114.334 11.0822 114.346 11.0038 114.365 10.9257C114.372 10.8958 114.377 10.866 114.382 10.8358C114.428 10.5641 114.505 10.293 114.6 10.0347L114.609 10.0099C114.654 9.88842 114.702 9.76871 114.752 9.64969C114.76 9.63104 114.768 9.61235 114.776 9.59363C114.807 9.51856 114.843 9.44616 114.88 9.37382L114.893 9.34834C115.002 9.13499 115.118 8.92812 115.253 8.72993L115.265 8.71196C115.418 8.48501 115.584 8.26686 115.768 8.06401C115.781 8.05018 115.793 8.03628 115.806 8.02231C115.843 7.97965 115.882 7.93868 115.923 7.8989C115.931 7.89137 115.935 7.88723 115.939 7.88269C115.944 7.87714 115.947 7.87098 115.956 7.8573H115.973L115.979 7.84297C115.993 7.81875 116.01 7.80332 116.031 7.78525L116.035 7.78158C116.074 7.74698 116.111 7.71124 116.147 7.67409C116.187 7.63401 116.228 7.59772 116.272 7.56276C116.297 7.54224 116.321 7.52046 116.344 7.49829C116.393 7.45249 116.445 7.41116 116.499 7.37026C116.516 7.35655 116.534 7.34268 116.552 7.32878C116.684 7.22408 116.823 7.12793 116.964 7.0355L116.983 7.0232C117.263 6.8417 117.573 6.65735 117.888 6.54495C117.912 6.53619 117.934 6.52637 117.956 6.51578C118.006 6.49312 118.056 6.47352 118.107 6.45462L118.134 6.44452C118.187 6.42485 118.24 6.40648 118.295 6.39059C118.323 6.3823 118.35 6.37296 118.377 6.36355C118.548 6.3063 118.721 6.2621 118.896 6.22217L118.922 6.21614C119.07 6.18271 119.22 6.15915 119.37 6.13745L119.397 6.13354C119.447 6.12652 119.496 6.12043 119.546 6.11504C119.565 6.11299 119.584 6.11081 119.602 6.10852C120.044 6.05518 120.525 6.05968 120.963 6.13471ZM112.948 13.559L112.955 13.5731L112.956 13.5743C112.983 13.6314 112.996 13.6601 113.01 13.6887C113.024 13.7175 113.038 13.7462 113.066 13.8036C113.133 13.9349 113.196 14.0675 113.253 14.2028L113.227 14.2153C113.166 14.2438 113.105 14.2726 113.045 14.3029C112.983 14.334 112.921 14.3639 112.859 14.3936C112.791 14.4256 112.724 14.4579 112.657 14.4904C112.572 14.5315 112.487 14.5725 112.402 14.6134C112.355 14.6359 112.308 14.6585 112.261 14.6813C112.155 14.7326 112.049 14.7831 111.942 14.8318C111.889 14.8557 111.837 14.8806 111.786 14.9067C111.743 14.9285 111.7 14.9491 111.656 14.9696C111.607 14.9926 111.559 15.0161 111.51 15.0405C111.449 15.0714 111.387 15.1011 111.325 15.1307C111.258 15.1627 111.191 15.195 111.124 15.2274C111.039 15.2686 110.953 15.3096 110.868 15.3505C110.8 15.3831 110.732 15.4159 110.664 15.4488C110.583 15.4878 110.502 15.5267 110.421 15.5653C110.351 15.5991 110.28 15.6331 110.21 15.6672C110.139 15.7016 110.067 15.736 109.996 15.7702C109.925 15.8043 109.854 15.8385 109.783 15.8727L109.616 15.9531C109.507 16.006 109.397 16.0581 109.286 16.1083C109.24 16.1294 109.196 16.1515 109.152 16.1785C109.144 16.1819 109.14 16.1836 109.136 16.1843C109.131 16.185 109.127 16.1846 109.118 16.1839C109.112 16.1813 109.108 16.1796 109.105 16.1772C109.1 16.173 109.097 16.1666 109.089 16.1495C109.084 16.1368 109.08 16.124 109.076 16.1112L109.068 16.0898L109.052 16.0422C109.042 16.0142 109.032 15.9862 109.022 15.9583C108.93 15.6943 108.908 15.6332 108.894 15.5704C108.89 15.5515 108.886 15.5324 108.882 15.5076C108.956 15.4699 109.031 15.4331 109.106 15.3974C109.158 15.3727 109.21 15.3477 109.262 15.3217C109.334 15.2855 109.406 15.251 109.478 15.2165L109.5 15.2064L109.655 15.1322C109.718 15.1018 109.781 15.0712 109.845 15.0407L110.011 14.9604C110.113 14.9111 110.215 14.8625 110.318 14.815C110.386 14.7836 110.454 14.752 110.52 14.7181C110.563 14.6965 110.606 14.6759 110.649 14.6556C110.695 14.634 110.741 14.6122 110.786 14.5894C110.844 14.56 110.903 14.532 110.962 14.5039C111.029 14.4717 111.097 14.4393 111.164 14.4067C111.24 14.3697 111.317 14.3328 111.394 14.296C111.465 14.262 111.536 14.2278 111.607 14.1935L111.773 14.1131C111.882 14.0606 111.991 14.0093 112.1 13.9591C112.156 13.9336 112.21 13.9074 112.265 13.8798C112.307 13.8582 112.35 13.8377 112.393 13.8174C112.442 13.7943 112.491 13.7708 112.54 13.7464C112.62 13.706 112.7 13.6675 112.781 13.6291L112.825 13.6083L112.909 13.5686C112.922 13.5629 112.928 13.5606 112.933 13.5596C112.937 13.559 112.941 13.559 112.948 13.559ZM115.151 16.7784C115.156 16.7872 115.159 16.7922 115.162 16.7972C115.166 16.8036 115.169 16.8102 115.176 16.8252L115.19 16.8553L115.206 16.888L115.222 16.9214C115.26 17.0035 115.299 17.086 115.336 17.1685C115.363 17.2263 115.39 17.2835 115.42 17.34C115.432 17.3645 115.442 17.387 115.448 17.4138L115.421 17.4262L115.384 17.4435L115.367 17.4515C115.318 17.4743 115.27 17.4982 115.222 17.5222C115.156 17.5554 115.09 17.5879 115.023 17.6203L115.003 17.6298C114.918 17.6713 114.833 17.7117 114.746 17.7505C114.696 17.7727 114.648 17.7962 114.6 17.8207C114.556 17.8426 114.513 17.8634 114.469 17.884C114.42 17.9071 114.371 17.9305 114.323 17.955C114.262 17.9859 114.2 18.0156 114.138 18.0451C114.071 18.0771 114.003 18.1095 113.936 18.1419C113.816 18.2001 113.695 18.2579 113.575 18.3157C113.467 18.3677 113.358 18.4197 113.25 18.4719C113.171 18.5104 113.091 18.5487 113.011 18.5869C112.944 18.6193 112.876 18.652 112.809 18.6846C112.724 18.7256 112.639 18.7664 112.554 18.8071C112.492 18.8371 112.429 18.8672 112.367 18.8973L112.2 18.9777C112.092 19.0302 111.983 19.0815 111.873 19.1317C111.818 19.1572 111.763 19.1834 111.709 19.211C111.666 19.2326 111.623 19.2531 111.58 19.2734C111.531 19.2965 111.482 19.32 111.434 19.3444C111.309 19.4072 111.183 19.4663 111.057 19.5254L111.025 19.5403C110.964 19.4701 110.907 19.398 110.851 19.3239C110.826 19.2921 110.802 19.2608 110.777 19.2294C110.731 19.1702 110.685 19.1104 110.641 19.0495L110.627 19.0299L110.614 19.0116L110.602 18.9956C110.599 18.99 110.596 18.9865 110.595 18.9829C110.592 18.9773 110.59 18.9712 110.585 18.9557C110.657 18.9154 110.731 18.8788 110.807 18.8456C110.855 18.8247 110.901 18.8021 110.948 18.7784C110.992 18.7561 111.037 18.7348 111.081 18.7138C111.127 18.6922 111.173 18.6704 111.218 18.6476C111.276 18.6182 111.335 18.5901 111.394 18.5621C111.44 18.5398 111.487 18.5175 111.534 18.4949C111.643 18.4416 111.754 18.3892 111.865 18.3383C111.919 18.3132 111.974 18.2872 112.027 18.2599C112.07 18.2383 112.113 18.2178 112.156 18.1975C112.205 18.1744 112.254 18.1509 112.302 18.1265C112.375 18.0899 112.448 18.055 112.521 18.0201L112.541 18.0107L112.696 17.9365C112.77 17.901 112.844 17.8654 112.917 17.8298C112.997 17.7914 113.077 17.7531 113.156 17.7149C113.224 17.6824 113.292 17.6498 113.359 17.6171C113.462 17.5675 113.565 17.518 113.668 17.4686L113.959 17.3288C114.036 17.292 114.112 17.2552 114.189 17.2186C114.276 17.177 114.363 17.1352 114.45 17.0932C114.53 17.0547 114.61 17.0162 114.69 16.9779C114.738 16.9548 114.786 16.9317 114.834 16.9084L114.929 16.8622L114.987 16.8345C115.007 16.8249 115.027 16.8153 115.046 16.8056L115.076 16.7913L115.103 16.7782C115.114 16.7743 115.12 16.7722 115.125 16.772C115.131 16.7718 115.138 16.7739 115.151 16.7784ZM112.81 15.8152L112.779 15.7532C112.77 15.7532 112.766 15.7532 112.762 15.7541C112.758 15.755 112.754 15.7569 112.747 15.7605C112.734 15.7671 112.721 15.7734 112.709 15.7796L112.662 15.8018C112.577 15.8424 112.493 15.8832 112.408 15.9242C112.33 15.962 112.252 15.9997 112.173 16.0371C112.1 16.0722 112.026 16.1075 111.953 16.143C111.885 16.1756 111.818 16.2081 111.75 16.2403C111.688 16.2698 111.627 16.2995 111.565 16.3304C111.517 16.3548 111.468 16.3783 111.419 16.4014C111.376 16.4215 111.333 16.4419 111.291 16.4634C111.229 16.4948 111.167 16.5245 111.104 16.5536C110.946 16.6264 110.79 16.7015 110.633 16.777C110.571 16.8073 110.508 16.8376 110.445 16.8677C110.36 16.9084 110.275 16.9492 110.191 16.9902C110.13 17.0193 110.07 17.0484 110.01 17.0772C109.924 17.1185 109.838 17.1599 109.752 17.2029C109.722 17.2179 109.693 17.2328 109.663 17.2477L109.585 17.2867L109.597 17.3127C109.645 17.4167 109.694 17.521 109.751 17.6203C109.769 17.6504 109.786 17.6806 109.802 17.7114L109.85 17.8019L109.866 17.8321L109.881 17.8603C109.888 17.8745 109.891 17.8808 109.895 17.8869C109.898 17.8918 109.901 17.8966 109.907 17.9052C109.919 17.9092 109.926 17.9115 109.933 17.9115C109.942 17.9114 109.951 17.907 109.973 17.8968L109.989 17.8888C110.035 17.8668 110.08 17.8442 110.125 17.8215C110.175 17.7964 110.225 17.7722 110.275 17.7484C110.319 17.7281 110.362 17.7076 110.404 17.686C110.458 17.6584 110.513 17.6322 110.569 17.6068C110.678 17.5565 110.787 17.5052 110.895 17.4528L111.063 17.3718C111.125 17.3419 111.187 17.3121 111.249 17.2826C111.311 17.2531 111.373 17.2234 111.434 17.1925C111.482 17.168 111.531 17.1446 111.58 17.1215C111.623 17.1012 111.666 17.0807 111.709 17.0591C111.763 17.0315 111.818 17.0053 111.873 16.9798C111.983 16.9296 112.092 16.8782 112.2 16.8258L112.368 16.7449C112.43 16.715 112.492 16.6852 112.554 16.6556C112.616 16.6259 112.678 16.5961 112.74 16.565C112.785 16.5422 112.83 16.5202 112.876 16.4988C112.946 16.4662 113.015 16.4319 113.084 16.3971C113.04 16.2942 112.992 16.1933 112.943 16.0926L112.941 16.0892C112.916 16.0371 112.89 15.9849 112.866 15.932C112.851 15.8984 112.835 15.8653 112.819 15.8324L112.81 15.8152Z" fill="white"/>
<path d="M151.857 9.86C151.629 9.44 151.299 9.122 150.867 8.906C150.447 8.678 149.949 8.564 149.373 8.564C148.377 8.564 147.579 8.894 146.979 9.554C146.379 10.202 146.079 11.072 146.079 12.164C146.079 13.328 146.391 14.24 147.015 14.9C147.651 15.548 148.521 15.872 149.625 15.872C150.381 15.872 151.017 15.68 151.533 15.296C152.061 14.912 152.445 14.36 152.685 13.64H148.779V11.372H155.475V14.234C155.247 15.002 154.857 15.716 154.305 16.376C153.765 17.036 153.075 17.57 152.235 17.978C151.395 18.386 150.447 18.59 149.391 18.59C148.143 18.59 147.027 18.32 146.043 17.78C145.071 17.228 144.309 16.466 143.757 15.494C143.217 14.522 142.947 13.412 142.947 12.164C142.947 10.916 143.217 9.806 143.757 8.834C144.309 7.85 145.071 7.088 146.043 6.548C147.015 5.996 148.125 5.72 149.373 5.72C150.885 5.72 152.157 6.086 153.189 6.818C154.233 7.55 154.923 8.564 155.259 9.86H151.857ZM160.258 10.13C160.618 9.578 161.068 9.146 161.608 8.834C162.148 8.51 162.748 8.348 163.408 8.348V11.606H162.562C161.794 11.606 161.218 11.774 160.834 12.11C160.45 12.434 160.258 13.01 160.258 13.838V18.5H157.18V8.456H160.258V10.13ZM174.347 13.316C174.347 13.604 174.329 13.904 174.293 14.216H167.327C167.375 14.84 167.573 15.32 167.921 15.656C168.281 15.98 168.719 16.142 169.235 16.142C170.003 16.142 170.537 15.818 170.837 15.17H174.113C173.945 15.83 173.639 16.424 173.195 16.952C172.763 17.48 172.217 17.894 171.557 18.194C170.897 18.494 170.159 18.644 169.343 18.644C168.359 18.644 167.483 18.434 166.715 18.014C165.947 17.594 165.347 16.994 164.915 16.214C164.483 15.434 164.267 14.522 164.267 13.478C164.267 12.434 164.477 11.522 164.897 10.742C165.329 9.962 165.929 9.362 166.697 8.942C167.465 8.522 168.347 8.312 169.343 8.312C170.315 8.312 171.179 8.516 171.935 8.924C172.691 9.332 173.279 9.914 173.699 10.67C174.131 11.426 174.347 12.308 174.347 13.316ZM171.197 12.506C171.197 11.978 171.017 11.558 170.657 11.246C170.297 10.934 169.847 10.778 169.307 10.778C168.791 10.778 168.353 10.928 167.993 11.228C167.645 11.528 167.429 11.954 167.345 12.506H171.197ZM185.439 13.316C185.439 13.604 185.421 13.904 185.385 14.216H178.419C178.467 14.84 178.665 15.32 179.013 15.656C179.373 15.98 179.811 16.142 180.327 16.142C181.095 16.142 181.629 15.818 181.929 15.17H185.205C185.037 15.83 184.731 16.424 184.287 16.952C183.855 17.48 183.309 17.894 182.649 18.194C181.989 18.494 181.251 18.644 180.435 18.644C179.451 18.644 178.575 18.434 177.807 18.014C177.039 17.594 176.439 16.994 176.007 16.214C175.575 15.434 175.359 14.522 175.359 13.478C175.359 12.434 175.569 11.522 175.989 10.742C176.421 9.962 177.021 9.362 177.789 8.942C178.557 8.522 179.439 8.312 180.435 8.312C181.407 8.312 182.271 8.516 183.027 8.924C183.783 9.332 184.371 9.914 184.791 10.67C185.223 11.426 185.439 12.308 185.439 13.316ZM182.289 12.506C182.289 11.978 182.109 11.558 181.749 11.246C181.389 10.934 180.939 10.778 180.399 10.778C179.883 10.778 179.445 10.928 179.085 11.228C178.737 11.528 178.521 11.954 178.437 12.506H182.289ZM190.141 9.878C190.441 9.41 190.855 9.032 191.383 8.744C191.911 8.456 192.529 8.312 193.237 8.312C194.065 8.312 194.815 8.522 195.487 8.942C196.159 9.362 196.687 9.962 197.071 10.742C197.467 11.522 197.665 12.428 197.665 13.46C197.665 14.492 197.467 15.404 197.071 16.196C196.687 16.976 196.159 17.582 195.487 18.014C194.815 18.434 194.065 18.644 193.237 18.644C192.541 18.644 191.923 18.5 191.383 18.212C190.855 17.924 190.441 17.552 190.141 17.096V23.288H187.063V8.456H190.141V9.878ZM194.533 13.46C194.533 12.692 194.317 12.092 193.885 11.66C193.465 11.216 192.943 10.994 192.319 10.994C191.707 10.994 191.185 11.216 190.753 11.66C190.333 12.104 190.123 12.71 190.123 13.478C190.123 14.246 190.333 14.852 190.753 15.296C191.185 15.74 191.707 15.962 192.319 15.962C192.931 15.962 193.453 15.74 193.885 15.296C194.317 14.84 194.533 14.228 194.533 13.46ZM208.91 9.932C208.91 10.664 208.742 11.336 208.406 11.948C208.07 12.548 207.554 13.034 206.858 13.406C206.162 13.778 205.298 13.964 204.266 13.964H202.358V18.5H199.28V5.864H204.266C205.274 5.864 206.126 6.038 206.822 6.386C207.518 6.734 208.04 7.214 208.388 7.826C208.736 8.438 208.91 9.14 208.91 9.932ZM204.032 11.516C204.62 11.516 205.058 11.378 205.346 11.102C205.634 10.826 205.778 10.436 205.778 9.932C205.778 9.428 205.634 9.038 205.346 8.762C205.058 8.486 204.62 8.348 204.032 8.348H202.358V11.516H204.032ZM209.9 13.46C209.9 12.428 210.092 11.522 210.476 10.742C210.872 9.962 211.406 9.362 212.078 8.942C212.75 8.522 213.5 8.312 214.328 8.312C215.036 8.312 215.654 8.456 216.182 8.744C216.722 9.032 217.136 9.41 217.424 9.878V8.456H220.502V18.5H217.424V17.078C217.124 17.546 216.704 17.924 216.164 18.212C215.636 18.5 215.018 18.644 214.31 18.644C213.494 18.644 212.75 18.434 212.078 18.014C211.406 17.582 210.872 16.976 210.476 16.196C210.092 15.404 209.9 14.492 209.9 13.46ZM217.424 13.478C217.424 12.71 217.208 12.104 216.776 11.66C216.356 11.216 215.84 10.994 215.228 10.994C214.616 10.994 214.094 11.216 213.662 11.66C213.242 12.092 213.032 12.692 213.032 13.46C213.032 14.228 213.242 14.84 213.662 15.296C214.094 15.74 214.616 15.962 215.228 15.962C215.84 15.962 216.356 15.74 216.776 15.296C217.208 14.852 217.424 14.246 217.424 13.478ZM232.989 8.456L226.689 23.27H223.377L225.681 18.158L221.595 8.456H225.033L227.355 14.738L229.659 8.456H232.989Z" fill="white"/>
</svg>
