<svg width="48" height="48" viewBox="0 0 48 48" fill="none" xmlns="http://www.w3.org/2000/svg">
<rect width="48" height="48" rx="24" fill="url(#paint0_linear_32956_51236)"/>
<path fill-rule="evenodd" clip-rule="evenodd" d="M23.9453 12.0002C23.9878 12.0002 24.0303 12.0002 24.0728 12.0001C24.5177 11.999 24.9681 12.0049 25.4083 12.076C25.4399 12.0809 25.4715 12.0844 25.5033 12.0876C25.6348 12.1017 25.7655 12.121 25.8963 12.1405L25.9325 12.1458C26.0027 12.1562 26.0721 12.1685 26.1414 12.1839C26.1813 12.1925 26.2218 12.1991 26.2621 12.2057C26.336 12.2182 26.4089 12.2332 26.4818 12.2503C26.533 12.2623 26.5843 12.273 26.6359 12.283C26.7135 12.2981 26.7899 12.3168 26.8664 12.3366C26.8901 12.3426 26.9137 12.3484 26.9374 12.3542C27.1109 12.3968 27.2824 12.4452 27.4532 12.4971C27.4737 12.5033 27.4941 12.5093 27.5146 12.5154C27.6172 12.5456 27.7187 12.5788 27.8201 12.613L27.8764 12.6318C27.9518 12.6567 28.0265 12.6832 28.1011 12.7108L28.1962 12.746C28.2374 12.761 28.2788 12.7756 28.3201 12.7901C28.353 12.8023 28.3844 12.8168 28.4161 12.8316C28.4469 12.8455 28.4784 12.8574 28.51 12.8694L28.5191 12.8728C28.5701 12.8925 28.6206 12.9135 28.671 12.9345L28.6739 12.9356L28.717 12.9535C28.7784 12.9787 28.8388 13.0056 28.899 13.0333L28.9253 13.0454C28.9626 13.0625 28.9997 13.0798 29.0363 13.0983C29.059 13.1096 29.0808 13.1194 29.1045 13.1281C29.1486 13.1453 29.1903 13.1663 29.2325 13.1878C29.2752 13.2094 29.3184 13.2298 29.3618 13.2499C29.4074 13.271 29.4505 13.2936 29.493 13.3204C29.5218 13.3374 29.5516 13.3521 29.5816 13.3669C29.669 13.4101 29.7543 13.4562 29.8383 13.5057C29.8614 13.5192 29.8847 13.5321 29.9083 13.5448C30.011 13.6005 30.1109 13.6603 30.2104 13.7215C30.2312 13.7343 30.2521 13.7468 30.2731 13.7593C30.3177 13.7859 30.3613 13.8138 30.405 13.8419L30.4794 13.8898C30.5192 13.9158 30.5391 13.9289 30.5593 13.9415C30.5794 13.9541 30.5998 13.9663 30.6406 13.9907L30.6591 14.0029V14.0198L30.6739 14.0225C30.6959 14.0291 30.7095 14.0385 30.728 14.0521C30.7573 14.0733 30.7869 14.0937 30.8172 14.1135L30.8382 14.1273L30.8803 14.1546L30.8999 14.1674L30.9176 14.1789L30.9302 14.1892V14.2062L30.944 14.2078C30.9682 14.216 30.9853 14.2311 31.0037 14.2472L31.015 14.257L31.0404 14.2655V14.2824L31.0572 14.2875C31.0904 14.3029 31.1173 14.3246 31.1455 14.3473L31.1532 14.3534L31.215 14.4022C31.2449 14.4256 31.2752 14.4483 31.3057 14.4709L31.3874 14.532L31.4343 14.5673L31.4487 14.5779C31.4598 14.5864 31.4704 14.5953 31.4809 14.6044V14.6213H31.5064C31.5158 14.6307 31.5251 14.6402 31.5342 14.6499C31.5561 14.6707 31.5809 14.6878 31.6057 14.7049L31.6189 14.714C31.6429 14.7323 31.663 14.7524 31.6843 14.7738C31.7088 14.794 31.7336 14.8136 31.7586 14.8332L31.7775 14.8501V14.867H31.8029C31.8129 14.8765 31.8229 14.886 31.8323 14.8961C31.8476 14.9118 31.8637 14.9262 31.8802 14.9406L31.8972 14.9555C31.9045 14.9619 31.9087 14.9654 31.913 14.9687C31.9187 14.973 31.9247 14.9768 31.9384 14.9856V15.0026L31.9522 15.0084C31.9793 15.0234 32.0002 15.041 32.0232 15.0619V15.0788L32.0369 15.0846C32.0812 15.1091 32.1166 15.1456 32.1516 15.1818L32.1637 15.1943C32.1886 15.2195 32.2138 15.2438 32.2408 15.2668C32.2771 15.298 32.3106 15.3319 32.344 15.3661C32.3634 15.3858 32.3813 15.4023 32.4044 15.4177V15.4347L32.4298 15.4431V15.4601L32.4552 15.4685C32.4667 15.4825 32.478 15.4967 32.4891 15.5109L32.5145 15.5279V15.5448L32.54 15.5533V15.5702L32.5654 15.5787C32.5678 15.5811 32.5697 15.583 32.5713 15.5847C32.5733 15.5868 32.5749 15.5885 32.5765 15.5902C32.5799 15.594 32.5831 15.598 32.5902 15.6067C32.6223 15.6448 32.6573 15.6794 32.6932 15.7139C32.7046 15.725 32.7155 15.7365 32.7264 15.7481V15.7651L32.7518 15.7735C32.7571 15.7789 32.7601 15.7818 32.7629 15.7848C32.7663 15.7885 32.7695 15.7924 32.7767 15.8011C32.7963 15.8244 32.8164 15.8472 32.8372 15.8694L32.8511 15.8842L32.8788 15.9135C32.8985 15.9345 32.912 15.9492 32.9212 15.9769L32.9466 15.9853C32.9626 16.0036 32.9685 16.0105 32.9707 16.0183C32.972 16.023 32.972 16.0281 32.972 16.0362L32.9866 16.0418C33.0108 16.056 33.0246 16.0734 33.0416 16.095L33.0441 16.0981L33.0634 16.1224L33.0989 16.1679C33.1165 16.1892 33.1356 16.2082 33.1551 16.2277L33.1584 16.231C33.1747 16.2493 33.1904 16.2679 33.2061 16.2866L33.2183 16.3011C33.2646 16.3561 33.2744 16.3677 33.2765 16.3806C33.277 16.384 33.277 16.3875 33.277 16.392L33.3025 16.4005C33.3164 16.4168 33.3291 16.433 33.3416 16.4503L33.3521 16.4642C33.3676 16.4852 33.3789 16.5026 33.3872 16.5276H33.4041C33.4207 16.5475 33.4363 16.5676 33.4518 16.5885L33.4816 16.628L33.4976 16.6494C33.5148 16.6723 33.5322 16.6951 33.5496 16.7178L33.602 16.7861C33.6343 16.8284 33.6653 16.8713 33.6956 16.915C33.7167 16.945 33.7392 16.9739 33.7617 17.0028L33.77 17.0133C33.7836 17.0334 33.7904 17.0461 33.7938 17.0698H33.8108C33.8174 17.0777 33.821 17.0821 33.8244 17.0866C33.8287 17.0921 33.8326 17.0978 33.8415 17.1105L33.8577 17.1335C33.8638 17.1438 33.8669 17.1491 33.8685 17.1547C33.8701 17.1606 33.8701 17.167 33.8701 17.1799H33.887C33.9021 17.2001 33.9162 17.2203 33.9299 17.2413L33.9417 17.2589C33.9598 17.2862 33.9736 17.3084 33.9802 17.3409H33.9972C34.0023 17.3478 34.0052 17.3518 34.008 17.3559C34.0117 17.3613 34.0151 17.3669 34.023 17.3799L34.0565 17.4341L34.0712 17.4572L34.0946 17.4934L34.149 17.578L34.1768 17.6214C34.1966 17.6533 34.2159 17.6855 34.2352 17.7177L34.2429 17.7306L34.268 17.7724C34.3097 17.8417 34.3512 17.911 34.3916 17.981C34.4023 17.9992 34.4135 18.0169 34.425 18.0346C34.4478 18.0704 34.4662 18.1086 34.4846 18.1468L34.4899 18.1579C34.5039 18.1861 34.5204 18.2123 34.5373 18.2388C34.5539 18.2657 34.5683 18.2935 34.5828 18.3216C34.6039 18.3621 34.6253 18.4023 34.6477 18.4422C34.6869 18.512 34.724 18.5812 34.7549 18.6551C34.7729 18.6978 34.7937 18.7384 34.8158 18.7791C34.8414 18.8262 34.8639 18.8732 34.8836 18.9231C34.8965 18.9536 34.9113 18.9829 34.9264 19.0123C34.9631 19.0849 34.9954 19.159 35.0271 19.2339L35.043 19.2712C35.0697 19.3339 35.0961 19.3968 35.1221 19.4598L35.1293 19.4772C35.1497 19.5269 35.1686 19.5772 35.1873 19.6276C35.2006 19.6636 35.2147 19.6994 35.2288 19.7351L35.2299 19.738C35.2521 19.7947 35.2729 19.8518 35.2929 19.9093C35.3039 19.941 35.3155 19.9723 35.3284 20.0033C35.3444 20.0423 35.3565 20.0822 35.3686 20.1226C35.3794 20.1577 35.3908 20.1925 35.4025 20.2273L35.4091 20.2469C35.4197 20.2788 35.4305 20.3106 35.4415 20.3424C35.4696 20.4245 35.494 20.5072 35.517 20.5909C35.5324 20.6468 35.5486 20.7024 35.5656 20.7578C35.5884 20.8329 35.6078 20.9086 35.6263 20.9849C35.6312 21.0048 35.6361 21.0247 35.6411 21.0445C35.6445 21.0582 35.648 21.0718 35.6514 21.0854L35.6547 21.0984C35.6671 21.1478 35.6794 21.1972 35.6916 21.2466L35.6969 21.2678C35.7308 21.4052 35.7572 21.5443 35.7836 21.6833L35.7955 21.7459C35.8049 21.7951 35.8145 21.8441 35.8245 21.8931C35.8334 21.9374 35.841 21.9817 35.8475 22.0263C35.8516 22.0539 35.8561 22.0814 35.8606 22.1088L35.865 22.1361L35.8738 22.1893C35.883 22.2457 35.8903 22.3021 35.8968 22.3587C35.902 22.404 35.9076 22.4492 35.9134 22.4944C35.9362 22.6713 35.9571 22.8479 35.9712 23.0257L35.9728 23.0461C35.9964 23.3459 36.0006 23.6449 35.9999 23.9454C35.9998 23.9879 35.9998 24.0304 35.9999 24.0729C36.0012 24.5804 35.9701 25.0812 35.9034 25.5843L35.8999 25.6112C35.8929 25.6644 35.8855 25.7176 35.878 25.7707L35.8753 25.7902C35.8472 25.9895 35.8142 26.1887 35.7697 26.3851C35.7585 26.4349 35.7487 26.4849 35.7389 26.5351L35.7377 26.5412C35.7243 26.609 35.7097 26.676 35.6924 26.7429C35.683 26.7789 35.6744 26.8151 35.6659 26.8513L35.6653 26.8538C35.6226 27.0338 35.5747 27.2115 35.5214 27.3886C35.5108 27.4241 35.5003 27.4597 35.4899 27.4953L35.4713 27.5584L35.466 27.5768C35.4473 27.64 35.4266 27.7024 35.4057 27.7649L35.4 27.7818C35.3682 27.8771 35.3356 27.9721 35.3019 28.0667L35.2925 28.0932L35.2622 28.1784L35.2527 28.2051C35.2365 28.2502 35.2192 28.2942 35.1993 28.3378C35.1885 28.3621 35.1796 28.3869 35.1706 28.4119C35.0946 28.6185 35.0094 28.8264 34.9089 29.0222C34.8945 29.0504 34.8814 29.0785 34.8703 29.1082C34.8545 29.1501 34.8334 29.1891 34.8122 29.2283L34.805 29.2417C34.7834 29.2819 34.7637 29.3224 34.7452 29.3642C34.7073 29.4478 34.6644 29.5287 34.6188 29.6084C34.5924 29.6548 34.5683 29.7021 34.5449 29.75C34.5302 29.78 34.5145 29.8088 34.497 29.8374L34.4732 29.8819C34.457 29.9118 34.4401 29.9406 34.4208 29.9687C34.4033 29.9943 34.3877 30.0202 34.3731 30.0476C34.3417 30.1064 34.3071 30.1634 34.2725 30.2204L34.2557 30.2483L34.216 30.3143C34.199 30.3426 34.1818 30.3708 34.164 30.3987L34.149 30.4221L34.1044 30.4915L34.0849 30.5217L34.0676 30.5487C34.058 30.5638 34.0485 30.579 34.039 30.5942L34.0231 30.62L34.0091 30.643L33.9972 30.6592H33.9802L33.9772 30.6742C33.9694 30.7013 33.954 30.7237 33.9383 30.7465L33.9299 30.7587L33.9182 30.7766C33.9083 30.7915 33.8977 30.8059 33.887 30.8201H33.8701L33.8674 30.8346C33.8606 30.8576 33.8501 30.8743 33.8367 30.8943L33.8233 30.9148L33.8108 30.9303H33.7938L33.7918 30.9443C33.7837 30.9692 33.7704 30.9864 33.7547 31.0065L33.751 31.0113L33.7298 31.0389L33.7191 31.0528L33.7046 31.0722C33.6959 31.0839 33.6874 31.0958 33.6789 31.1077C33.6094 31.2036 33.5368 31.2974 33.4642 31.391L33.4365 31.4268C33.4252 31.4416 33.4145 31.457 33.4041 31.4725H33.3872L33.3811 31.4861C33.3671 31.5123 33.3499 31.5356 33.3321 31.5593L33.3218 31.5736C33.3129 31.5854 33.3035 31.5968 33.294 31.6081H33.277L33.2708 31.6222C33.2578 31.6462 33.2417 31.6655 33.2241 31.6864C33.2007 31.7145 33.1779 31.7427 33.1563 31.7722C33.1364 31.7991 33.1146 31.8219 33.0907 31.8453C33.067 31.8704 33.0551 31.883 33.0438 31.8961C33.0326 31.9091 33.0219 31.9225 33.0005 31.9494L32.989 31.9639H32.972L32.9646 31.9792C32.9608 31.9868 32.9585 31.9912 32.956 31.9956C32.9523 32.002 32.9482 32.0081 32.9382 32.0232H32.9212L32.9144 32.0384C32.9039 32.0578 32.8932 32.0696 32.8773 32.0846C32.8356 32.125 32.7981 32.1686 32.7618 32.2138L32.7433 32.235H32.7264L32.7194 32.2503C32.7095 32.2687 32.7 32.2801 32.6851 32.2945L32.6708 32.3085L32.6559 32.3229C32.6277 32.3503 32.6002 32.3772 32.5756 32.408L32.5569 32.4299H32.54L32.5315 32.4553H32.5145L32.5061 32.4807C32.4921 32.4922 32.478 32.5035 32.4637 32.5146L32.4468 32.54H32.4298L32.4214 32.5654H32.4044L32.3959 32.5908C32.3905 32.5961 32.3875 32.5991 32.3844 32.6019C32.3806 32.6053 32.3767 32.6085 32.368 32.6156C32.3361 32.6426 32.3066 32.6713 32.2773 32.701C32.2323 32.7465 32.1862 32.7894 32.1359 32.8291C32.1068 32.8528 32.0813 32.8797 32.0555 32.907C32.0471 32.9148 32.0433 32.9183 32.0388 32.9199C32.035 32.9212 32.0308 32.9212 32.0232 32.9212L32.0147 32.9467C32.0005 32.9596 31.9858 32.9718 31.9707 32.9837L31.9452 33.0042L31.9215 33.0229C31.8832 33.0538 31.8474 33.0863 31.8145 33.123C31.81 33.1269 31.8072 33.1293 31.804 33.1308C31.799 33.1331 31.793 33.1331 31.7775 33.1331L31.7723 33.1474C31.757 33.1727 31.7356 33.1882 31.7123 33.205L31.707 33.2088C31.6711 33.2351 31.6396 33.2624 31.608 33.294C31.592 33.3062 31.5758 33.318 31.5593 33.3295C31.5433 33.3398 31.5354 33.3448 31.5287 33.3511C31.5223 33.3572 31.5169 33.3645 31.5064 33.3787H31.4809L31.4725 33.4042C31.4532 33.4199 31.4339 33.4346 31.4137 33.4492L31.3567 33.4911C31.3262 33.5138 31.2962 33.5374 31.2662 33.5609L31.2601 33.5657C31.2113 33.6038 31.1622 33.6416 31.1124 33.6784L31.0962 33.6905C31.0707 33.7093 31.0629 33.7151 31.0542 33.7168C31.0503 33.7176 31.0462 33.7176 31.0404 33.7176V33.7346L31.0123 33.7499C30.9943 33.7601 30.981 33.7685 30.9663 33.7833L30.9557 33.7939H30.9302V33.8108C30.9111 33.8248 30.8919 33.8378 30.872 33.8505L30.837 33.8734L30.8195 33.8848C30.779 33.9114 30.7384 33.9386 30.7008 33.9692C30.6936 33.9741 30.6896 33.9768 30.6852 33.9783C30.6796 33.9803 30.6733 33.9803 30.6591 33.9803V33.9972C30.6386 34.0112 30.618 34.0242 30.5967 34.0369C30.5561 34.0616 30.5161 34.0865 30.4775 34.1142C30.4462 34.1367 30.4142 34.1554 30.3803 34.1736C30.3587 34.1858 30.3393 34.2001 30.3194 34.2148C30.3029 34.2262 30.2862 34.2358 30.2685 34.2454C30.2263 34.2685 30.1851 34.2932 30.1439 34.3181C30.0532 34.3728 29.9619 34.4262 29.8694 34.4779C29.8385 34.4952 29.8081 34.5129 29.778 34.5315C29.7383 34.5556 29.697 34.5762 29.6553 34.5967C29.6097 34.6192 29.5646 34.6427 29.5196 34.6665C29.4537 34.7014 29.3873 34.7352 29.3204 34.7683C29.2908 34.783 29.2612 34.7978 29.2316 34.8127L29.184 34.8364L29.1503 34.8534C29.1218 34.8679 29.0937 34.8816 29.0637 34.8926C29.0205 34.9095 28.979 34.9293 28.9372 34.9493C28.8708 34.9811 28.8039 35.0109 28.736 35.0393L28.7081 35.0514C28.6709 35.0673 28.6332 35.0821 28.5956 35.097C28.545 35.1171 28.4946 35.1377 28.4447 35.1595C28.3962 35.1805 28.3471 35.1986 28.2972 35.216C28.2746 35.224 28.2524 35.2325 28.2303 35.2416C28.1266 35.2837 28.021 35.3208 27.9147 35.3555L27.8818 35.3664L27.7885 35.3974C27.751 35.4099 27.7135 35.4225 27.6761 35.4354C27.585 35.4667 27.4933 35.4935 27.4001 35.518C27.3487 35.5316 27.2976 35.5457 27.247 35.5619C27.1463 35.5941 27.0451 35.6211 26.9422 35.6452C26.9023 35.6545 26.8626 35.6642 26.8229 35.674C26.6894 35.707 26.556 35.7374 26.4209 35.7633C26.3848 35.7704 26.3489 35.7782 26.3129 35.7859C26.2465 35.8001 26.1798 35.8123 26.1128 35.8237C26.0901 35.8276 26.0675 35.8317 26.0448 35.8357C25.9656 35.8498 25.8865 35.8633 25.8067 35.8733C25.7717 35.8778 25.7368 35.8831 25.702 35.8884L25.6885 35.8904C25.598 35.9041 25.5078 35.9164 25.4167 35.9253C25.3844 35.9284 25.3523 35.9325 25.3201 35.9368C24.9 35.9905 24.4776 36.001 24.0547 35.9999C24.0122 35.9998 23.9697 35.9999 23.9272 36C23.4196 36.0012 22.9189 35.9701 22.4157 35.9035L22.3888 35.8999C22.3356 35.8929 22.2824 35.8856 22.2293 35.878L22.2081 35.875C22.096 35.8591 21.9847 35.8396 21.8735 35.8187L21.8408 35.8127L21.7106 35.7882C21.5463 35.7575 21.3837 35.7223 21.2211 35.6832L21.1617 35.669C20.9828 35.6263 20.9399 35.6161 20.8974 35.6043C20.884 35.6006 20.8707 35.5967 20.8531 35.5916L20.8067 35.5781L20.681 35.5422C20.6421 35.531 20.6033 35.52 20.5643 35.5091C20.489 35.4881 20.4151 35.4658 20.3418 35.4386C20.3153 35.4292 20.2888 35.4215 20.2616 35.4142C20.131 35.3779 20.0026 35.331 19.8773 35.2794C19.8365 35.2632 19.795 35.2498 19.7532 35.2365C19.6919 35.2156 19.6323 35.1903 19.5727 35.1651L19.5367 35.15C19.4737 35.1236 19.4105 35.0979 19.3465 35.0738C19.3149 35.0614 19.2841 35.0472 19.2533 35.0329C19.2296 35.0221 19.2056 35.0121 19.1814 35.0022C19.1381 34.9844 19.0957 34.965 19.0533 34.945C19.0224 34.9304 18.9914 34.9161 18.9601 34.9023C18.8892 34.8709 18.8195 34.8389 18.7515 34.8016C18.7133 34.7808 18.6745 34.762 18.635 34.7438C18.5619 34.71 18.4908 34.6727 18.4198 34.6348C18.3944 34.6212 18.369 34.6078 18.3436 34.5945L18.3421 34.5937L18.2318 34.5351C18.1627 34.4979 18.0949 34.4583 18.0271 34.4187C18.0187 34.4138 18.0102 34.4088 18.0017 34.4039L17.9818 34.3923C17.9154 34.3536 17.8495 34.3144 17.7849 34.2727C17.7657 34.2606 17.7463 34.2495 17.7263 34.2387C17.6909 34.2193 17.6571 34.1981 17.6232 34.1762C17.6018 34.1626 17.5805 34.149 17.559 34.1356C17.4689 34.0794 17.3807 34.0208 17.2934 33.9604C17.2728 33.9462 17.2521 33.932 17.2314 33.9179C17.1648 33.8726 17.0984 33.827 17.0331 33.7798C16.9994 33.7555 16.965 33.7325 16.9298 33.7105L16.9173 33.7007V33.6837H16.8918V33.6668L16.8751 33.6617C16.8418 33.6463 16.8148 33.6246 16.7866 33.6019L16.7791 33.5958L16.7177 33.5474C16.6797 33.5178 16.6409 33.4894 16.6019 33.4612C16.5881 33.4511 16.5747 33.4404 16.5614 33.4296V33.4126L16.5476 33.4065C16.4854 33.373 16.4288 33.3232 16.3746 33.2756L16.3423 33.2474C16.3301 33.2367 16.324 33.2314 16.3174 33.2266C16.311 33.2219 16.3041 33.2177 16.2903 33.2093V33.1924L16.2762 33.1861C16.2434 33.1683 16.2148 33.1436 16.1865 33.1191C16.1788 33.1124 16.171 33.1057 16.1632 33.0992L16.144 33.0834C16.1303 33.0721 16.117 33.0603 16.1039 33.0483V33.0314L16.0894 33.025C16.067 33.0128 16.0507 32.9984 16.0319 32.9811L16.0096 32.9607L15.9853 32.9382L15.9443 32.9004L15.9177 32.8758C15.8985 32.858 15.8801 32.8426 15.8582 32.8281V32.8111L15.8328 32.8026V32.7857L15.819 32.7799C15.7747 32.7554 15.745 32.7234 15.7142 32.684L15.6888 32.6671V32.6501L15.6737 32.6434C15.654 32.6327 15.641 32.6214 15.6251 32.6055L15.608 32.5884L15.5898 32.57L15.5708 32.551L15.4137 32.3934C15.3849 32.3643 15.3583 32.335 15.333 32.3028C15.3206 32.2925 15.3082 32.2823 15.2956 32.2722C15.2716 32.2512 15.2498 32.2272 15.2313 32.2011V32.1842L15.2059 32.1757V32.1588L15.1805 32.1503C15.1748 32.1446 15.1717 32.1416 15.1687 32.1384C15.1652 32.1345 15.1619 32.1305 15.1545 32.1217C15.1297 32.0924 15.1042 32.0637 15.0783 32.0354C14.9997 31.9491 14.9878 31.9359 14.9859 31.9214C14.9856 31.9188 14.9856 31.9162 14.9856 31.9131L14.9602 31.9046C14.9443 31.8863 14.9383 31.8795 14.9361 31.8716C14.9348 31.8669 14.9348 31.8618 14.9348 31.8538L14.9093 31.8453C14.8788 31.8119 14.8703 31.8026 14.8679 31.7919C14.867 31.7878 14.867 31.7835 14.867 31.7775H14.85C14.8387 31.7606 14.8274 31.7437 14.8162 31.7267L14.7971 31.7076C14.7637 31.6742 14.7334 31.638 14.706 31.5996V31.5826H14.6891C14.6819 31.576 14.6785 31.5729 14.6752 31.5695C14.6721 31.5665 14.6692 31.5633 14.6637 31.5572C14.6102 31.576 14.5608 31.6002 14.5112 31.6271C14.461 31.6543 14.4104 31.6791 14.3581 31.7018C14.3105 31.7225 14.2636 31.7439 14.2173 31.7674C14.1416 31.8058 14.065 31.8423 13.9884 31.8788L13.9775 31.884L13.8524 31.9438C13.7994 31.9692 13.7463 31.9944 13.6932 32.0195C13.6323 32.0482 13.5719 32.0775 13.5119 32.1078C13.4484 32.1397 13.3841 32.1699 13.3198 32.2001L13.2996 32.2096C13.2451 32.2352 13.2174 32.2482 13.1902 32.2613C13.1629 32.2744 13.1358 32.2877 13.0815 32.3144C13.0151 32.3479 12.948 32.3798 12.8809 32.4118L12.8517 32.4257C12.8124 32.4445 12.773 32.4634 12.7337 32.4823L12.7172 32.4902C12.6153 32.5392 12.5132 32.5876 12.4109 32.6358C12.3414 32.6686 12.2723 32.7019 12.2037 32.7365C12.1694 32.7536 12.1347 32.77 12.1 32.7863L12.0934 32.7894C12.0433 32.813 11.9935 32.837 11.9441 32.8619C11.869 32.8998 11.7929 32.9356 11.7168 32.9714L11.6118 33.0209C11.5724 33.0396 11.5334 33.0588 11.4945 33.0785C11.4504 33.1008 11.4058 33.1212 11.3606 33.141C11.3056 33.1651 11.2517 33.1906 11.1983 33.2178C11.1578 33.2383 11.1169 33.2579 11.0757 33.2771C11.0291 33.2988 10.9829 33.3211 10.937 33.3443C10.8804 33.3729 10.8232 33.4002 10.7658 33.4271C10.726 33.4459 10.6866 33.4652 10.6473 33.4852C10.6034 33.5074 10.559 33.5275 10.5139 33.5471C10.4627 33.5694 10.4131 33.5935 10.364 33.6202C10.3091 33.65 10.2533 33.6762 10.196 33.7011C10.1365 33.7271 10.0786 33.7559 10.0207 33.7853C9.94454 33.8241 9.86814 33.8622 9.79033 33.8977C9.74864 33.9168 9.70729 33.9367 9.66595 33.9566L9.63857 33.9697C9.58519 33.9953 9.5317 34.0207 9.47815 34.0459C9.4225 34.0722 9.36741 34.0993 9.31248 34.127C9.27711 34.1446 9.24135 34.1611 9.20552 34.1777C9.15929 34.1991 9.1138 34.2219 9.06831 34.2448C9.03403 34.2621 8.99953 34.2782 8.96432 34.2934C8.93863 34.3051 8.91351 34.3178 8.88836 34.3305L8.87702 34.3362C8.81224 34.3688 8.74669 34.3998 8.68114 34.4308L8.6484 34.4462L8.60687 34.4659C8.55319 34.4914 8.49951 34.5168 8.44577 34.5421C8.37633 34.5748 8.3073 34.6081 8.23876 34.6427C8.2014 34.6614 8.16359 34.6792 8.12577 34.6969L8.10766 34.7054C8.06393 34.726 8.02062 34.7473 7.97751 34.7692C7.93364 34.7915 7.88935 34.8119 7.84408 34.8312C7.79629 34.8515 7.75046 34.8742 7.70481 34.899C7.64952 34.929 7.59338 34.9554 7.53569 34.9804C7.48771 35.0014 7.44092 35.0241 7.39425 35.0478C7.34786 35.0713 7.30094 35.0935 7.25374 35.1154C7.22269 35.1298 7.19201 35.1448 7.16163 35.1606L7.143 35.1702C7.13591 35.1739 7.12883 35.1777 7.12176 35.1814C7.11715 35.1839 7.11255 35.1863 7.10795 35.1888C7.08704 35.1997 7.06903 35.2084 7.04531 35.21C7.02309 35.1957 7.01331 35.1739 7.00297 35.1509L6.99898 35.142L6.99024 35.1238C6.98085 35.1042 6.97164 35.0844 6.96244 35.0647L6.91467 34.9637C6.8942 34.9202 6.873 34.8772 6.85124 34.8344C6.82539 34.7834 6.80181 34.7318 6.77972 34.6791C6.7681 34.6517 6.7555 34.6257 6.74044 34.6001C6.73075 34.5831 6.72723 34.5769 6.72595 34.5702C6.72522 34.5665 6.72522 34.5625 6.72522 34.5564L6.84139 34.4983L6.88136 34.4782C6.92981 34.4539 6.97856 34.4303 7.02757 34.4071L7.09846 34.3734L7.25057 34.3009C7.29463 34.2798 7.33841 34.2583 7.38205 34.2364C7.41724 34.2189 7.45273 34.202 7.48824 34.1852L7.51158 34.1741C7.55361 34.1541 7.59571 34.1343 7.63786 34.1146C7.68948 34.0904 7.74077 34.0658 7.79165 34.0401C7.86759 34.0018 7.9445 33.9656 8.02146 33.9294L8.12502 33.8806C8.1644 33.8619 8.20342 33.8427 8.24227 33.823C8.28636 33.8007 8.331 33.7803 8.37623 33.7605C8.44848 33.7289 8.51885 33.6942 8.5891 33.6583C8.68431 33.6101 8.78048 33.564 8.87683 33.5181L8.97755 33.4699C9.03905 33.4405 9.10058 33.4111 9.16225 33.382C9.21399 33.3576 9.26556 33.333 9.31665 33.3073C9.40809 33.2612 9.50082 33.2176 9.59358 33.1743C9.65059 33.1476 9.70736 33.1206 9.76356 33.0923C9.88617 33.0304 10.0106 32.9721 10.1349 32.9139L10.193 32.8866C10.2698 32.8505 10.3464 32.8139 10.4222 32.7756C10.4562 32.7585 10.4904 32.7422 10.525 32.7264C10.5646 32.7083 10.6037 32.6894 10.6425 32.6697C10.7239 32.6287 10.8062 32.5896 10.8884 32.5505L11.4073 32.3027C11.4524 32.2811 11.4976 32.2596 11.5429 32.2383C11.5947 32.2139 11.6462 32.1893 11.6973 32.1635C11.7797 32.122 11.8631 32.0827 11.9465 32.0434L11.9786 32.0283C12.0376 32.0005 12.0966 31.9726 12.1548 31.9432C12.2463 31.8971 12.339 31.8536 12.4318 31.8102C12.4968 31.7798 12.5613 31.7487 12.6254 31.7164C12.6627 31.6976 12.7004 31.6799 12.7385 31.6629C12.8275 31.6224 12.9158 31.5801 13.0031 31.536C13.0847 31.4949 13.1674 31.456 13.2501 31.417L13.2834 31.4014C13.3523 31.3689 13.4209 31.3358 13.4889 31.3015C13.5268 31.2826 13.5651 31.2646 13.6033 31.2466L13.6213 31.2381C13.6614 31.2192 13.7012 31.1998 13.7407 31.1797C13.7848 31.1574 13.8295 31.137 13.8747 31.1172C13.9413 31.088 14.0063 31.0564 14.0711 31.0234C14.0964 31.0105 14.1219 30.9978 14.1473 30.9851L14.1553 30.9811L14.2062 30.9557L14.1722 30.9047C14.1594 30.8856 14.1466 30.8666 14.1337 30.8476L14.1108 30.8138L14.0996 30.7974C14.0806 30.7691 14.0648 30.7426 14.0537 30.71H14.0367C14.0277 30.6962 14.0194 30.682 14.0113 30.6676L13.9974 30.6456L13.9742 30.6094L13.9641 30.5935C13.9465 30.5662 13.9285 30.5396 13.9091 30.5136C13.9004 30.5009 13.8963 30.495 13.8944 30.4884C13.8927 30.4826 13.8927 30.4763 13.8927 30.4643H13.8757L13.8627 30.441L13.845 30.4098L13.8365 30.3946C13.8199 30.3653 13.8024 30.3371 13.7836 30.3092C13.7551 30.267 13.7293 30.2234 13.7037 30.1794C13.6837 30.1453 13.6737 30.1283 13.6636 30.1113C13.6589 30.1034 13.6542 30.0955 13.6484 30.0859C13.6418 30.0749 13.6338 30.0617 13.6229 30.0436L13.6121 30.0259L13.5923 29.9939C13.578 29.9707 13.5707 29.9584 13.5707 29.9306C13.5192 29.949 13.471 29.9717 13.423 29.9978C13.3804 30.021 13.3377 30.0425 13.2934 30.0621C13.2548 30.0795 13.2166 30.0977 13.1784 30.1159L13.1547 30.1271C13.1119 30.1476 13.0693 30.1685 13.0269 30.19C12.9831 30.2122 12.9386 30.2323 12.8935 30.252C12.8392 30.2757 12.7869 30.3015 12.7349 30.3299C12.6921 30.3532 12.6482 30.3739 12.6037 30.394C12.5835 30.4032 12.5638 30.4128 12.544 30.423C12.5211 30.4347 12.4982 30.4442 12.4741 30.4532C12.4341 30.4688 12.3969 30.4883 12.3592 30.5088C12.3029 30.5393 12.2457 30.5663 12.1869 30.5918C12.139 30.6128 12.0921 30.6355 12.0455 30.6592C12.005 30.6797 11.9641 30.6993 11.9229 30.7185C11.8763 30.7402 11.8301 30.7625 11.7842 30.7857C11.7276 30.8143 11.6704 30.8416 11.6131 30.8685C11.5732 30.8873 11.5338 30.9066 11.4945 30.9266C11.4504 30.9489 11.4058 30.9693 11.3606 30.9891C11.3056 31.0131 11.2517 31.0387 11.1983 31.0658C11.1578 31.0864 11.1169 31.106 11.0757 31.1251C11.0291 31.1469 10.9829 31.1692 10.937 31.1924C10.8808 31.2208 10.824 31.2478 10.7671 31.2746C10.7236 31.2951 10.6806 31.3163 10.6378 31.338C10.5939 31.3603 10.5496 31.3807 10.5043 31.4C10.4566 31.4203 10.4107 31.443 10.3651 31.4677C10.3098 31.4977 10.2536 31.5241 10.196 31.5492C10.1255 31.58 10.0572 31.6147 9.98872 31.6497C9.90477 31.6926 9.81962 31.7326 9.73404 31.7721C9.66947 31.8019 9.60528 31.8321 9.54189 31.8644C9.49685 31.8872 9.45121 31.9087 9.40544 31.93C9.36433 31.9492 9.32374 31.9693 9.28329 31.9898C9.23906 32.0123 9.19443 32.0329 9.14879 32.0523C9.101 32.0727 9.05517 32.0953 9.00953 32.1201C8.95424 32.1501 8.89809 32.1765 8.84041 32.2015C8.79243 32.2225 8.74563 32.2452 8.69897 32.2689C8.65249 32.2924 8.60547 32.3147 8.55824 32.3366C8.51713 32.3559 8.47653 32.376 8.43607 32.3965C8.39184 32.4189 8.34721 32.4396 8.30157 32.459C8.25379 32.4793 8.20796 32.502 8.16231 32.5268C8.10702 32.5568 8.05088 32.5831 7.99319 32.6082C7.94521 32.6291 7.89841 32.6519 7.85175 32.6756C7.81123 32.6961 7.77035 32.7157 7.72917 32.7349C7.68256 32.7566 7.63634 32.7789 7.59044 32.8021C7.53385 32.8307 7.4767 32.858 7.41933 32.8849C7.3795 32.9037 7.34004 32.923 7.3008 32.943C7.2567 32.9652 7.21206 32.9856 7.16683 33.0054C7.1002 33.0347 7.03512 33.0663 6.9703 33.0993C6.78957 33.1914 6.60601 33.2778 6.4225 33.3642L6.4041 33.3729C6.3428 33.4018 6.28162 33.4308 6.22112 33.4613C6.17965 33.4823 6.13781 33.5019 6.09543 33.5209C6.0728 33.5313 6.05059 33.5422 6.02838 33.5535C5.9593 33.5883 5.88942 33.6215 5.81953 33.6547L5.77633 33.6753L5.72961 33.6975C5.61337 33.753 5.61322 33.753 5.55586 33.7801C5.48678 33.8126 5.41793 33.8458 5.34974 33.8802C5.31237 33.8989 5.27454 33.9167 5.23671 33.9344L5.21865 33.9429C5.17491 33.9635 5.13161 33.9848 5.0885 34.0067C5.04462 34.029 5.00033 34.0494 4.95506 34.0687C4.90727 34.089 4.86144 34.1117 4.8158 34.1365C4.7605 34.1665 4.70436 34.1929 4.64668 34.2179C4.5987 34.2389 4.5519 34.2616 4.50524 34.2853C4.46472 34.3058 4.42383 34.3254 4.38266 34.3446C4.30328 34.3816 4.22499 34.4207 4.14699 34.4606C4.10969 34.4796 4.07291 34.4977 4.03371 34.5124C3.99322 34.5279 3.95582 34.548 3.91775 34.5686C3.86905 34.5949 3.82053 34.6181 3.76905 34.6386C3.72648 34.6565 3.68536 34.6776 3.64423 34.6986L3.62491 34.7085C3.54574 34.7488 3.46624 34.7881 3.38578 34.8258C3.33492 34.8495 3.28425 34.8737 3.23362 34.8979L3.01017 35.0049C2.97052 35.0238 2.93085 35.0428 2.89112 35.0616C2.82496 35.093 2.75889 35.1244 2.69352 35.1574C2.61806 35.1954 2.54177 35.2317 2.46546 35.268L2.38345 35.3071C2.3254 35.3348 2.26735 35.3624 2.20918 35.3899C2.14086 35.4221 2.07292 35.4548 2.00548 35.4888C1.96247 35.5103 1.91901 35.5309 1.87555 35.5515L1.85058 35.5634C1.79456 35.5901 1.73891 35.6174 1.68392 35.6461C1.65594 35.6605 1.63076 35.6703 1.59955 35.6747C1.57406 35.6387 1.55541 35.6028 1.53865 35.5619C1.51466 35.5052 1.48756 35.4508 1.45793 35.3968C1.43635 35.3572 1.4174 35.3169 1.39897 35.2757C1.38748 35.2505 1.37545 35.2257 1.36322 35.2009L1.35089 35.1757L1.32561 35.1247L1.31344 35.0997L1.30243 35.0775C1.294 35.0548 1.29301 35.0379 1.29455 35.0139C1.36716 34.9767 1.44023 34.9411 1.51482 34.908C1.57203 34.8826 1.62836 34.856 1.68416 34.8277C1.72796 34.8055 1.7722 34.7843 1.81665 34.7634C1.87355 34.7367 1.92988 34.709 1.98602 34.6807C2.01619 34.6658 2.0466 34.6515 2.07716 34.6374C2.12027 34.6175 2.16292 34.5968 2.20531 34.5754C2.28584 34.5348 2.36728 34.4961 2.44873 34.4574L2.58307 34.3934L2.96896 34.209C3.01412 34.1874 3.05935 34.1659 3.10464 34.1445C3.15638 34.1201 3.20795 34.0955 3.25903 34.0698C3.3414 34.0282 3.42486 33.9889 3.50832 33.9497L3.54034 33.9346C3.59899 33.9069 3.65756 33.8792 3.71547 33.85C3.78175 33.8166 3.84875 33.7847 3.91577 33.7528L3.94522 33.7388C3.99011 33.7173 4.03494 33.6958 4.07978 33.6742C4.18168 33.6253 4.28379 33.5768 4.38607 33.5286C4.44558 33.5006 4.50499 33.4724 4.56375 33.4428C4.6552 33.3967 4.74792 33.3532 4.84069 33.3098C4.90404 33.2802 4.96696 33.2499 5.0294 33.2184C5.08048 33.1927 5.13214 33.1683 5.18389 33.144C5.22372 33.1252 5.26317 33.1059 5.30242 33.0859C5.34651 33.0636 5.39115 33.0432 5.43639 33.0234C5.49133 32.9994 5.5452 32.9738 5.59868 32.9467C5.6392 32.9261 5.68008 32.9065 5.72126 32.8874C5.76787 32.8656 5.81409 32.8433 5.85999 32.8201C5.91659 32.7915 5.97373 32.7643 6.0311 32.7373C6.07094 32.7185 6.11039 32.6992 6.14964 32.6793C6.19373 32.657 6.23837 32.6366 6.2836 32.6168C6.35585 32.5851 6.42621 32.5504 6.49647 32.5146C6.56531 32.4797 6.63446 32.446 6.70438 32.4134C6.74578 32.394 6.78667 32.3738 6.82741 32.3531C6.87164 32.3306 6.91627 32.31 6.96191 32.2906C7.01681 32.2672 7.06943 32.2407 7.12174 32.212C7.16147 32.1903 7.20197 32.1712 7.24326 32.1527C7.27982 32.1362 7.31596 32.1188 7.35211 32.1014L7.36169 32.0968C7.42034 32.0686 7.47907 32.0407 7.53802 32.0131C7.589 31.9893 7.63942 31.9645 7.68967 31.9391C7.74075 31.9134 7.79241 31.889 7.84415 31.8647C7.88398 31.8459 7.92344 31.8266 7.96269 31.8066C8.00678 31.7843 8.05142 31.7639 8.09665 31.7441C8.15156 31.7201 8.20539 31.6946 8.25883 31.6674C8.30044 31.6463 8.34244 31.6262 8.38471 31.6065C8.42164 31.5892 8.45849 31.572 8.49485 31.5535C8.53408 31.5336 8.57384 31.5149 8.61363 31.4962L8.61663 31.4947C8.66386 31.4725 8.71088 31.45 8.75748 31.4264C8.82192 31.394 8.88709 31.3631 8.95229 31.3322L8.97177 31.3229C9.01381 31.303 9.05579 31.2829 9.09777 31.2627L9.11773 31.2532C9.1577 31.2341 9.19768 31.215 9.23772 31.196C9.3101 31.1617 9.38222 31.127 9.45373 31.0909C9.51196 31.0617 9.57089 31.0339 9.62984 31.0062L9.64373 30.9997C9.67812 30.9834 9.71245 30.9671 9.74677 30.9507L9.75402 30.9472C9.79793 30.9263 9.84184 30.9054 9.88584 30.8846C9.94455 30.857 10.0032 30.8292 10.0611 30.8C10.1111 30.7748 10.1615 30.7505 10.2121 30.7264C10.2845 30.6919 10.3569 30.6572 10.4291 30.6224L10.4752 30.6002C10.5352 30.5712 10.5948 30.5417 10.6541 30.5116C10.6827 30.4977 10.7117 30.4852 10.741 30.4728C10.7664 30.4612 10.7916 30.4493 10.8168 30.4373L10.838 30.4272C10.889 30.403 10.9394 30.378 10.9898 30.3526C11.0326 30.331 11.0759 30.311 11.1195 30.2911C11.1511 30.2763 11.1822 30.2608 11.2134 30.2451C11.2778 30.2126 11.3429 30.1818 11.4082 30.1513L11.5094 30.1037L11.53 30.094C11.5696 30.0752 11.609 30.0558 11.6481 30.0359C11.6922 30.0137 11.7368 29.9933 11.7821 29.9735C11.8487 29.9442 11.9138 29.9126 11.9786 29.8796C12.1593 29.7875 12.3429 29.7011 12.5264 29.6147L12.5448 29.606C12.6039 29.5781 12.663 29.5502 12.7214 29.5207C12.7803 29.4911 12.8397 29.4626 12.8992 29.4343C12.945 29.4125 12.9908 29.3905 13.0364 29.3682L13.0656 29.354L13.1218 29.3266L13.1475 29.3141L13.1703 29.303C13.1789 29.2995 13.1837 29.2975 13.1887 29.2964C13.1947 29.2952 13.201 29.2952 13.2149 29.2952C13.1983 29.2511 13.1804 29.2083 13.1588 29.1665C13.1328 29.1157 13.1103 29.0637 13.0878 29.0113C13.0716 28.9736 13.0635 28.9547 13.055 28.936C13.0465 28.9174 13.0375 28.8989 13.0195 28.862C12.9682 28.7625 12.9264 28.6574 12.8871 28.5526C12.8732 28.517 12.8583 28.4819 12.8433 28.4467L12.8427 28.4453C12.8157 28.3819 12.7907 28.318 12.767 28.2533C12.7621 28.2396 12.76 28.2335 12.7574 28.2277C12.7554 28.2231 12.7531 28.2187 12.7489 28.2107C12.6774 28.2407 12.6075 28.2722 12.5393 28.3092C12.4916 28.335 12.4441 28.3576 12.3937 28.3776C12.3478 28.397 12.3034 28.4198 12.259 28.4426L12.2321 28.4564C12.1414 28.5027 12.1145 28.5164 12.0867 28.5283C12.075 28.5334 12.0632 28.5381 12.0463 28.5448C12.0046 28.5616 11.9656 28.5817 11.9261 28.6031C11.8701 28.6334 11.8132 28.6602 11.7548 28.6856C11.7073 28.7063 11.6609 28.7288 11.6146 28.7523C11.5705 28.7747 11.526 28.796 11.4813 28.817C11.4236 28.8441 11.3665 28.8721 11.3097 28.9008C11.2859 28.9126 11.2619 28.9237 11.2377 28.9346C11.2005 28.9512 11.164 28.9691 11.1276 28.9875C11.0519 29.0257 10.9754 29.062 10.8989 29.0982L10.7155 29.185L10.6783 29.2025C10.6145 29.2323 10.5511 29.2628 10.4883 29.2945C10.4372 29.3202 10.3855 29.3446 10.3338 29.369C10.2939 29.3877 10.2545 29.407 10.2152 29.427C10.1713 29.4492 10.1269 29.4693 10.0818 29.489C10.0306 29.5113 9.98102 29.5354 9.93194 29.562C9.877 29.5919 9.8212 29.618 9.76387 29.6429C9.71589 29.6639 9.6691 29.6866 9.62244 29.7103C9.58192 29.7308 9.54103 29.7504 9.49986 29.7696C9.42048 29.8066 9.34219 29.8458 9.26419 29.8856C9.22689 29.9046 9.19011 29.9228 9.15091 29.9375C9.11042 29.953 9.07302 29.973 9.03495 29.9936C8.98625 30.0199 8.93773 30.0431 8.88625 30.0636C8.8368 30.0845 8.78899 30.1091 8.74127 30.1338L8.7092 30.1503C8.62532 30.1931 8.54025 30.233 8.45474 30.2725C8.39016 30.3023 8.32598 30.3326 8.26259 30.3648C8.21758 30.3876 8.17197 30.4091 8.12623 30.4304C8.08425 30.45 8.04272 30.4704 8.00134 30.4913C7.95825 30.513 7.91495 30.5338 7.87088 30.5535C7.75084 30.6082 7.63172 30.6655 7.51492 30.7268L7.49872 30.7352L7.45432 30.7584C7.4289 30.7691 7.4132 30.7718 7.38605 30.7693C7.34677 30.6971 7.30886 30.6258 7.27852 30.5493C7.26517 30.5184 7.24962 30.4891 7.23355 30.4595C7.21044 30.4171 7.18888 30.3745 7.16941 30.3302C7.15918 30.3075 7.1486 30.2851 7.13777 30.2627L7.1272 30.2407L7.106 30.1971L7.09624 30.1768L7.08738 30.1586C7.08479 30.1519 7.08326 30.148 7.08236 30.144C7.08105 30.1381 7.08105 30.132 7.08105 30.117L7.10958 30.1036C7.14858 30.0854 7.16877 30.076 7.18828 30.0667C7.20779 30.0573 7.2272 30.0478 7.26586 30.0288C7.30514 30.0089 7.34547 29.9899 7.38531 29.9711L7.38817 29.9697C7.43575 29.9473 7.48311 29.9246 7.53008 29.9009C7.58322 29.8741 7.63693 29.8486 7.6908 29.8233C7.73091 29.8044 7.77066 29.7849 7.81019 29.7648C7.85428 29.7426 7.89892 29.7222 7.94415 29.7023C7.99868 29.6785 8.05215 29.6531 8.10522 29.6262C8.14931 29.6038 8.19383 29.5825 8.23856 29.5615C8.29501 29.5349 8.35092 29.5076 8.40662 29.4795C8.44711 29.4594 8.48859 29.44 8.52954 29.4209C8.56054 29.4063 8.59139 29.3916 8.62193 29.3762C8.66128 29.3562 8.70116 29.3374 8.74106 29.3186L8.74372 29.3174C8.79094 29.2951 8.83796 29.2726 8.88457 29.2491C8.97601 29.203 9.06874 29.1595 9.1615 29.1161C9.22651 29.0857 9.29102 29.0545 9.35511 29.0222C9.39247 29.0034 9.43018 28.9858 9.46835 28.9687C9.56056 28.9267 9.65193 28.8827 9.74237 28.8371C9.81657 28.7997 9.89171 28.7644 9.96691 28.729L9.97007 28.7275C10.0534 28.6883 10.1365 28.6488 10.2187 28.6073C10.2565 28.5884 10.2949 28.5704 10.3332 28.5524L10.3511 28.544C10.3912 28.5251 10.4309 28.5056 10.4705 28.4855C10.5145 28.4633 10.5592 28.4429 10.6044 28.423C10.659 28.3992 10.7124 28.3738 10.7655 28.3469C10.8092 28.3247 10.8534 28.3036 10.8978 28.2827C10.9535 28.2565 11.0087 28.2296 11.0637 28.2018C11.11 28.1785 11.1569 28.1564 11.204 28.1345C11.2451 28.1153 11.2857 28.0952 11.3261 28.0746C11.3704 28.0522 11.415 28.0315 11.4606 28.0121C11.5084 27.9918 11.5543 27.9691 11.5999 27.9444C11.6552 27.9144 11.7113 27.888 11.769 27.8629C11.817 27.842 11.8638 27.8193 11.9105 27.7956C11.951 27.775 11.9919 27.7555 12.033 27.7363C12.1124 27.6992 12.1907 27.6601 12.2687 27.6202C12.3142 27.5971 12.3596 27.5762 12.4073 27.5579C12.4272 27.5498 12.446 27.5406 12.4651 27.5308C12.4845 27.5211 12.4912 27.5178 12.4983 27.5166C12.502 27.516 12.5059 27.516 12.5117 27.516C12.4976 27.455 12.4808 27.3953 12.4625 27.3354C12.4358 27.248 12.4128 27.1599 12.3902 27.0714C12.3831 27.0441 12.3757 27.0169 12.3682 26.9897C12.322 26.8164 12.2828 26.6414 12.2461 26.4659C12.2413 26.4433 12.2364 26.4208 12.2314 26.3983C12.2087 26.2955 12.1917 26.1919 12.1748 26.0881C12.167 26.0409 12.159 25.9938 12.1506 25.9467C12.1332 25.8488 12.1183 25.7507 12.1051 25.6521L12.1009 25.6216C12.0842 25.497 12.0684 25.3724 12.0576 25.247C12.0557 25.2258 12.0533 25.2052 12.0501 25.1842C12.0443 25.1414 12.0413 25.0985 12.0384 25.0556L12.0373 25.04L12.033 24.9806L12.0312 24.9541C12.0293 24.9298 12.0271 24.9055 12.0247 24.8811C12.0193 24.8227 12.0166 24.7641 12.0139 24.7054L12.0131 24.6875C11.9941 24.2766 11.9898 23.8684 12.0066 23.4573L12.0074 23.4373C12.0131 23.2967 12.0196 23.1565 12.0355 23.0166C12.0391 22.9836 12.0415 22.9505 12.0439 22.9174L12.0452 22.8987C12.0599 22.7094 12.0826 22.5215 12.1095 22.3336L12.1204 22.256C12.1335 22.1621 12.1482 22.0686 12.1644 21.9752L12.1699 21.9431C12.2008 21.7636 12.211 21.7049 12.223 21.6465C12.2288 21.6181 12.2351 21.5898 12.2444 21.5476C12.25 21.5222 12.2553 21.4967 12.2607 21.4712C12.2954 21.3064 12.3315 21.1419 12.3777 20.9799C12.3908 20.9339 12.4024 20.8875 12.4138 20.841C12.4331 20.7623 12.4558 20.6849 12.4796 20.6075C12.4862 20.586 12.4927 20.5644 12.4991 20.5428C12.5647 20.3236 12.6343 20.1051 12.7151 19.891L12.7272 19.8583L12.8241 19.6007C12.8508 19.5299 12.8798 19.4605 12.9099 19.3912L12.9618 19.2694L12.9749 19.2384C12.997 19.1868 13.02 19.1362 13.0455 19.0862C13.0505 19.0741 13.0553 19.0619 13.0598 19.0496C13.0812 18.9949 13.1067 18.942 13.1323 18.8891L13.1446 18.8636L13.1789 18.7912C13.2153 18.7144 13.2518 18.638 13.2925 18.5634C13.3127 18.5261 13.3317 18.4883 13.3505 18.4502C13.3767 18.3971 13.4053 18.346 13.4351 18.2947C13.454 18.2617 13.4708 18.2276 13.4876 18.1934C13.5102 18.1475 13.5342 18.1038 13.5623 18.061C13.5937 18.0102 13.6232 17.9585 13.6516 17.906C13.6695 17.8728 13.6879 17.8398 13.7063 17.8069H13.7232L13.7291 17.7852C13.7401 17.7563 13.7528 17.7372 13.7711 17.7129C13.786 17.6918 13.7981 17.6696 13.8104 17.647L13.8137 17.641C13.8261 17.6183 13.8389 17.5958 13.8519 17.5734L13.8645 17.5516L13.8757 17.5358H13.8927L13.8958 17.5206C13.9013 17.5015 13.9081 17.489 13.9193 17.4725L13.9304 17.4562L13.9419 17.4394L13.9532 17.4228L13.9753 17.3903C13.9921 17.366 14.0005 17.3539 14.0081 17.3414C14.0158 17.3289 14.0228 17.3159 14.0367 17.2901H14.0537L14.0605 17.2715C14.0706 17.2477 14.0814 17.2267 14.096 17.2053H14.113L14.1151 17.1916C14.1238 17.1641 14.1381 17.1436 14.1553 17.1206H14.1723L14.174 17.1072C14.1828 17.0804 14.1988 17.0595 14.2156 17.0375L14.2205 17.0311L14.2458 16.9971L14.2596 16.9788C14.2829 16.9477 14.3059 16.9165 14.329 16.8852L14.3354 16.8765L14.3507 16.8558C14.382 16.8134 14.4124 16.7707 14.4414 16.7268L14.4518 16.714H14.4688V16.6885C14.4784 16.6786 14.4882 16.6687 14.4983 16.6591C14.5197 16.6376 14.5378 16.6133 14.556 16.5889L14.5662 16.5752L14.5805 16.5565C14.6023 16.5277 14.6239 16.4987 14.6447 16.4692C14.6634 16.4433 14.6835 16.423 14.706 16.4005C14.7342 16.3666 14.7622 16.3323 14.7875 16.2962L14.7992 16.2819H14.8162L14.8217 16.2684C14.8365 16.2419 14.8556 16.2201 14.8753 16.1974L14.8797 16.1924C14.8964 16.1731 14.9048 16.1634 14.9127 16.1534C14.9207 16.1434 14.9282 16.1331 14.9432 16.1124H14.9602L14.9671 16.0973C14.9771 16.0787 14.9874 16.0651 15.0015 16.0494L15.0171 16.0319L15.0623 15.9828L15.0761 15.9679L15.1035 15.9386C15.1225 15.9181 15.1395 15.8985 15.155 15.8752H15.172L15.1889 15.8413H15.2059L15.2122 15.827C15.2321 15.7903 15.2596 15.759 15.2906 15.7312H15.3075L15.3137 15.7167C15.3267 15.6933 15.3423 15.6774 15.3611 15.6585L15.3841 15.6353L15.4089 15.6106L15.4344 15.5851L15.4877 15.5319L15.6339 15.3856L15.6893 15.3303C15.6984 15.3224 15.7025 15.3189 15.7072 15.3173C15.711 15.316 15.7151 15.316 15.7227 15.316V15.2991C15.7366 15.2876 15.7508 15.2763 15.765 15.2652C15.7858 15.245 15.806 15.2243 15.8259 15.2033C15.8343 15.1954 15.8381 15.1919 15.8426 15.1903C15.8464 15.189 15.8506 15.189 15.8582 15.189L15.8667 15.1635H15.8836L15.8921 15.1381C15.9065 15.1253 15.9214 15.113 15.9366 15.1011C15.9621 15.081 15.9858 15.0614 16.0085 15.0383C16.02 15.027 16.0246 15.0225 16.0301 15.0207C16.0338 15.0195 16.0378 15.0195 16.0446 15.0195V15.0026C16.0705 14.9794 16.0787 14.9721 16.0881 14.9698C16.0925 14.9687 16.0971 14.9687 16.1039 14.9687L16.1124 14.9433H16.1293V14.9263C16.1372 14.9191 16.1416 14.9151 16.1461 14.9112C16.1516 14.9065 16.1574 14.902 16.1701 14.8919L16.1931 14.8736C16.2034 14.8662 16.2086 14.8624 16.2143 14.8595C16.2202 14.8565 16.2266 14.8544 16.2395 14.8501V14.8331C16.2579 14.8172 16.2648 14.8112 16.2727 14.809C16.2773 14.8077 16.2823 14.8077 16.2903 14.8077L16.2988 14.7823C16.3078 14.7751 16.3127 14.7711 16.3177 14.7674C16.3237 14.7629 16.3298 14.7587 16.3433 14.7495C16.3772 14.7261 16.4053 14.7014 16.4343 14.6722C16.4528 14.6566 16.4718 14.6418 16.491 14.6272L16.5059 14.6155C16.5311 14.5961 16.5389 14.5901 16.5476 14.5883C16.5515 14.5874 16.5555 14.5874 16.5614 14.5874L16.5699 14.562C16.5888 14.5464 16.6077 14.5319 16.6276 14.5175L16.6644 14.4905L16.6843 14.4759C16.7069 14.4593 16.7292 14.4424 16.7516 14.4254L16.7747 14.4078L16.82 14.3733L16.8409 14.3575L16.8596 14.3433C16.8675 14.3381 16.8713 14.3356 16.8755 14.3344C16.8794 14.3333 16.8837 14.3333 16.8918 14.3333V14.3163H16.9173V14.2994C16.9316 14.2882 16.9466 14.2777 16.9617 14.2676L16.9923 14.2469L17.0094 14.2354C17.0341 14.2185 17.0586 14.2013 17.0832 14.184L17.0863 14.1818C17.2314 14.0797 17.3776 13.9796 17.5277 13.8849C17.5526 13.8692 17.565 13.8613 17.5773 13.8531C17.5896 13.845 17.6016 13.8365 17.6257 13.8196C17.6527 13.8 17.6812 13.7841 17.7105 13.7682C17.7645 13.7385 17.8167 13.7058 17.869 13.6732L17.8969 13.6557C17.9248 13.6389 17.9531 13.6231 17.9817 13.6073C18.016 13.5883 18.0498 13.5684 18.0837 13.5486L18.101 13.5385C18.1831 13.4907 18.2668 13.4461 18.3512 13.4024C18.4069 13.3734 18.4626 13.3443 18.518 13.3145C18.6786 13.2284 18.8434 13.1495 19.0103 13.0764C19.0498 13.059 19.0883 13.0404 19.1267 13.0207C19.1525 13.0082 19.1791 12.9978 19.2059 12.9874L19.2087 12.9864C19.2305 12.9776 19.2517 12.968 19.2731 12.9581C19.3834 12.9074 19.497 12.8636 19.6109 12.8213L19.6634 12.8018C19.697 12.7891 19.7303 12.7758 19.7634 12.7617C19.8205 12.7376 19.8789 12.7173 19.9375 12.697L20.0827 12.6464C20.1316 12.6294 20.1807 12.6128 20.2299 12.5965C20.2547 12.5882 20.2795 12.5798 20.3043 12.5714C20.3927 12.5414 20.4811 12.513 20.5712 12.4888C20.6211 12.4753 20.6707 12.4607 20.7203 12.446L20.7417 12.4397C20.8539 12.4068 20.9669 12.3779 21.0804 12.3499L21.1437 12.3342C21.2989 12.2956 21.4543 12.26 21.6111 12.2287L21.6759 12.2155C21.7223 12.206 21.7685 12.1974 21.8153 12.1904C21.8608 12.1835 21.906 12.1753 21.9512 12.1665C22.0689 12.1436 22.1866 12.1271 22.3055 12.1127C22.3514 12.107 22.3968 12.0999 22.4424 12.0921C22.4821 12.0856 22.5219 12.081 22.5618 12.0765L22.5901 12.0733L22.7234 12.0587C23.1305 12.0138 23.5361 11.9991 23.9453 12.0002ZM24.6099 18.1347C24.6348 18.1387 24.6598 18.1415 24.6849 18.1443L24.6942 18.1454C24.7698 18.1545 24.8441 18.1693 24.9187 18.1841C24.9406 18.1883 24.9626 18.1922 24.9846 18.196C25.0427 18.2065 25.1 18.22 25.1574 18.2335L25.1757 18.2378C25.2558 18.2567 25.3356 18.2761 25.4149 18.2984L25.4539 18.3091C25.6539 18.3643 25.8493 18.4329 26.0418 18.5102L26.0683 18.5209C26.3071 18.6173 26.5368 18.733 26.7619 18.8576C26.7619 18.8954 26.7541 18.9034 26.7298 18.9282L26.7273 18.9307L26.7117 18.9461L26.6954 18.9627C26.6772 18.981 26.6588 18.9993 26.6405 19.0176L26.6014 19.0569C26.5659 19.0926 26.5303 19.1282 26.4947 19.1638L26.4058 19.2529C26.3319 19.3269 26.258 19.4009 26.1839 19.4748C26.1196 19.539 26.0554 19.6034 25.9913 19.6678C25.9255 19.734 25.8596 19.8 25.7936 19.8659C25.7566 19.903 25.7195 19.94 25.6826 19.9772C25.6479 20.0121 25.6131 20.0469 25.5781 20.0817L25.5398 20.1201C25.5224 20.1377 25.5049 20.155 25.4874 20.1724L25.4721 20.1881C25.4578 20.202 25.4578 20.202 25.4318 20.2216C25.4191 20.2212 25.4132 20.221 25.4076 20.2197C25.4028 20.2186 25.3981 20.2167 25.3895 20.2131L25.3731 20.2068L25.3571 20.1992C25.15 20.1044 24.9297 20.0372 24.7091 19.9818C24.6943 19.978 24.6796 19.9739 24.6649 19.9696C24.5978 19.9499 24.53 19.9389 24.461 19.9283L24.4011 19.9187C24.3578 19.9118 24.3145 19.9057 24.2711 19.8997L24.246 19.8961C24.0861 19.8741 23.9286 19.8705 23.7675 19.8715C23.7425 19.8716 23.7175 19.8716 23.6924 19.8715L23.6913 19.8715C23.5018 19.8713 23.3141 19.8768 23.1274 19.9118L23.0958 19.9175L23.0351 19.9287C23.0136 19.9327 22.9921 19.9365 22.9705 19.9402C22.7288 19.9826 22.4904 20.0508 22.2643 20.1463C22.2402 20.1563 22.216 20.1658 22.1917 20.1753L22.1817 20.1792C22.0425 20.2353 21.9111 20.3005 21.7803 20.3741L21.7567 20.3872C21.6601 20.4411 21.566 20.4971 21.4753 20.5605L21.4607 20.5706C21.313 20.6734 21.1721 20.7843 21.0391 20.9056C21.0273 20.9162 21.0155 20.9267 21.0035 20.937C20.9564 20.9774 20.9123 21.0205 20.8685 21.0645L20.8318 21.1012C20.7875 21.1454 20.7449 21.1906 20.7043 21.2383L20.6799 21.2661C20.6209 21.3335 20.5663 21.4034 20.5133 21.4757C20.5014 21.4919 20.4893 21.5081 20.4772 21.5242C20.4192 21.6017 20.3663 21.6818 20.3146 21.7635L20.2917 21.7995L20.2696 21.8345L20.2597 21.85C20.1455 22.0324 20.0538 22.2327 19.9757 22.4328L19.9674 22.4542C19.8791 22.6824 19.8037 22.9236 19.7672 23.166C19.7632 23.191 19.7587 23.216 19.7542 23.2409L19.7537 23.2437C19.6707 23.7049 19.6863 24.1832 19.7639 24.6441L19.7688 24.6732C19.773 24.6986 19.7774 24.724 19.7819 24.7495L19.7857 24.771C19.7933 24.8124 19.8037 24.8521 19.8162 24.8924C19.8239 24.9173 19.8309 24.9424 19.8378 24.9676C19.8759 25.1046 19.9188 25.239 19.9672 25.3727L19.9738 25.3908C20.0155 25.5064 20.071 25.6164 20.1267 25.7258L20.1478 25.7676C20.2596 25.9888 20.3926 26.1929 20.5434 26.3894L20.5553 26.4049C20.6978 26.5904 20.856 26.7747 21.0352 26.9259C21.0594 26.9467 21.0827 26.9684 21.1061 26.9901C21.1105 26.9943 21.115 26.9984 21.1194 27.0025C21.146 27.0257 21.1733 27.0473 21.2013 27.0688C21.2201 27.0833 21.2388 27.098 21.2575 27.1128C21.3305 27.1706 21.4043 27.2257 21.4828 27.2759C21.5024 27.2885 21.5218 27.3013 21.5413 27.3141L21.5429 27.3151C21.7256 27.4342 21.9191 27.5393 22.1192 27.6263L22.1365 27.6338C22.2249 27.6722 22.3138 27.7076 22.4051 27.7384L22.4301 27.747L22.4656 27.7594C22.5694 27.7955 22.6742 27.8238 22.7811 27.8492C22.8066 27.8553 22.832 27.8617 22.8573 27.8682C23.3751 27.9978 23.9333 27.9971 24.4575 27.9059L24.4962 27.8996C24.5614 27.8885 24.6247 27.8725 24.6882 27.8542C24.7244 27.8438 24.7604 27.8345 24.7972 27.8265C24.9948 27.7834 25.1867 27.7055 25.3725 27.6263L25.3923 27.6179C25.5083 27.5682 25.6184 27.5102 25.7283 27.4484L25.7608 27.4304C26.0015 27.2956 26.2305 27.132 26.4332 26.9447C26.4456 26.9334 26.4581 26.9221 26.4709 26.9112C26.5235 26.8664 26.572 26.8178 26.6207 26.7689L26.6648 26.7249C26.7131 26.6766 26.7603 26.628 26.8043 26.5757L26.8266 26.5501C26.9805 26.3703 27.1142 26.1767 27.2364 25.9742L27.2497 25.9524C27.275 25.9109 27.2984 25.8692 27.3195 25.8254C27.3406 25.7824 27.3624 25.7399 27.3852 25.6978C27.4135 25.6455 27.4388 25.5946 27.4577 25.538C27.4654 25.5158 27.4747 25.4951 27.4847 25.4738C27.5154 25.4075 27.5414 25.3395 27.5668 25.271L27.5732 25.2539C27.6069 25.1619 27.6321 25.0675 27.6573 24.9729L27.6623 24.9545C27.6823 24.8793 27.6999 24.8043 27.7142 24.7278C27.7171 24.714 27.7183 24.708 27.7204 24.7023C27.722 24.6979 27.7241 24.6938 27.7278 24.6864C27.7305 24.6683 27.7329 24.6501 27.7352 24.6319C27.7405 24.5893 27.7467 24.547 27.7539 24.5047C27.7697 24.4109 27.7777 24.3174 27.7839 24.2226L27.787 24.1778L27.804 23.9239C27.639 24.0015 27.476 24.0831 27.313 24.1648L25.9758 24.8339C25.9348 24.8545 25.8934 24.8742 25.8517 24.8935C25.7933 24.9209 25.736 24.9499 25.6792 24.9804C25.5841 25.0313 25.4871 25.0782 25.3894 25.124C25.3422 25.1463 25.2961 25.1702 25.2502 25.1952C25.2052 25.2195 25.1591 25.2411 25.1127 25.2626C25.0729 25.2811 25.034 25.3009 24.9955 25.3219C24.9451 25.3493 24.8937 25.374 24.8416 25.3981C24.8018 25.4166 24.7629 25.4364 24.7244 25.4574C24.6799 25.4816 24.6348 25.5039 24.5888 25.5252C24.5432 25.5463 24.4985 25.5684 24.4543 25.5924C24.4069 25.6183 24.3587 25.642 24.3098 25.665C24.2196 25.7073 24.1302 25.7509 24.0424 25.798C23.972 25.8358 23.9005 25.871 23.8282 25.9051C23.7829 25.9265 23.7378 25.9484 23.693 25.9709L23.6752 25.9798C23.6119 26.0115 23.5486 26.0434 23.4853 26.0753C23.3282 26.1545 23.171 26.2334 23.0138 26.3124C22.923 26.3579 22.8323 26.4035 22.7417 26.4492C22.6623 26.4892 22.5828 26.5292 22.5033 26.569C22.4613 26.5901 22.4193 26.6112 22.3774 26.6324C22.3381 26.6522 22.2987 26.672 22.2593 26.6917L22.216 26.7135C22.1963 26.7235 22.1766 26.7333 22.1569 26.7431L22.1396 26.7521C22.1038 26.7695 22.0813 26.773 22.0429 26.7621C22.0335 26.7582 22.0288 26.7562 22.0242 26.754C22.0197 26.7518 22.0153 26.7493 22.0066 26.7445L21.9864 26.7334L21.9651 26.7214L21.9426 26.7088C21.7029 26.5732 21.4806 26.4107 21.2781 26.224C21.266 26.213 21.2539 26.202 21.2414 26.1914C21.1886 26.1465 21.1398 26.0975 21.0909 26.0484L21.084 26.0416L21.0362 25.9938C20.9859 25.9435 20.9365 25.8932 20.8907 25.8387L20.8666 25.8109C20.64 25.5485 20.6144 25.5189 20.6115 25.4871C20.6111 25.483 20.6111 25.479 20.6111 25.4744L23.0107 24.2745C23.0505 24.2545 23.0907 24.2355 23.1311 24.2168C23.1895 24.1894 23.2467 24.1603 23.3036 24.1299C23.3987 24.0789 23.4956 24.0321 23.5933 23.9863C23.6406 23.964 23.6867 23.9401 23.7326 23.915C23.7776 23.8907 23.8237 23.8691 23.8701 23.8477C23.9099 23.8292 23.9487 23.8094 23.9873 23.7884C24.0377 23.7609 24.0891 23.7362 24.1412 23.7121C24.181 23.6936 24.2198 23.6738 24.2584 23.6528C24.3026 23.6288 24.3473 23.6067 24.3929 23.5856C24.4421 23.5629 24.4903 23.5388 24.538 23.513C24.5916 23.4842 24.6459 23.4577 24.7012 23.4321C24.7461 23.4113 24.7897 23.3885 24.8331 23.3648C24.8784 23.3403 24.9248 23.3186 24.9715 23.297C25.0113 23.2785 25.0501 23.2587 25.0887 23.2377C25.1391 23.2102 25.1905 23.1855 25.2426 23.1615C25.2824 23.1429 25.3212 23.1231 25.3598 23.1021C25.4102 23.0747 25.4616 23.05 25.5137 23.0259C25.5535 23.0074 25.5923 22.9876 25.6309 22.9666C25.6754 22.9424 25.7205 22.9201 25.7665 22.8988C25.8114 22.878 25.8554 22.8564 25.8988 22.8326C25.9526 22.8033 26.0076 22.7767 26.063 22.7505C26.1173 22.7248 26.1712 22.6988 26.224 22.6701C26.2841 22.6373 26.3457 22.6078 26.4076 22.5786C26.4522 22.5576 26.4965 22.5361 26.5406 22.5139L28.7958 21.3862C28.8444 21.3618 28.8935 21.3387 28.9428 21.3159C28.9732 21.3016 29.0029 21.287 29.0319 21.2699C29.0483 21.2606 29.0543 21.2572 29.0608 21.256C29.0646 21.2552 29.0686 21.2552 29.0748 21.2552L29.148 21.4003C29.1915 21.4863 29.2319 21.5732 29.2697 21.6619L29.2801 21.686C29.3107 21.7565 29.3408 21.8267 29.363 21.9005C29.3699 21.9201 29.3775 21.938 29.3862 21.9568C29.4106 22.0109 29.4293 22.0672 29.4479 22.1234L29.4534 22.14L29.4602 22.1601C29.528 22.3646 29.5824 22.5718 29.6215 22.7838C29.6295 22.827 29.6383 22.8701 29.6472 22.9131C29.6777 23.0593 29.6993 23.2057 29.7149 23.3541C29.7173 23.3773 29.7199 23.4003 29.7226 23.4234C29.746 23.6233 29.7464 23.8231 29.7463 24.024L29.7463 24.045C29.7462 24.0852 29.7461 24.1255 29.746 24.1657L29.7458 24.2031C29.7456 24.2631 29.7447 24.322 29.7357 24.3814C29.7349 24.3931 29.7342 24.4048 29.7339 24.4165L29.7325 24.455C29.726 24.6019 29.7147 24.7511 29.6827 24.8947C29.6754 24.9279 29.67 24.9611 29.6647 24.9946C29.6147 25.3012 29.5331 25.5994 29.4373 25.8945L29.4196 25.9494C29.3947 26.0261 29.3662 26.101 29.3364 26.1759L29.3151 26.23C29.2937 26.2845 29.2712 26.3374 29.2443 26.3894C29.2413 26.3962 29.2384 26.403 29.2354 26.4098C29.2322 26.4172 29.229 26.4247 29.2259 26.4322C29.1463 26.6189 29.05 26.7988 28.9478 26.9739L28.9289 27.0067C28.8825 27.0869 28.8334 27.1649 28.7817 27.2418L28.7462 27.2948C28.6533 27.4337 28.5557 27.5684 28.4492 27.6973C28.4315 27.7188 28.4143 27.7405 28.3971 27.7624C28.3682 27.7987 28.3375 27.833 28.3062 27.8673C28.2868 27.8891 28.2686 27.9116 28.2504 27.9345C28.2177 27.9749 28.1825 28.0113 28.1454 28.0477C28.1229 28.0698 28.1012 28.092 28.0809 28.1161C28.0182 28.1896 27.9474 28.2594 27.8735 28.3216C27.8517 28.3407 27.8307 28.3605 27.8096 28.3804C27.7603 28.427 27.7106 28.472 27.6575 28.5143C27.6371 28.5307 27.6173 28.5477 27.5975 28.5648C27.5262 28.6264 27.4508 28.6823 27.375 28.7383C27.3633 28.747 27.3516 28.7556 27.34 28.7644C27.3343 28.7686 27.3287 28.7729 27.323 28.7772C27.1841 28.8814 27.0378 28.977 26.889 29.0666L26.8675 29.0796C26.4915 29.3058 26.0884 29.4911 25.6707 29.6255C25.645 29.6337 25.6194 29.6422 25.5937 29.6506C25.4927 29.6837 25.3912 29.7113 25.2878 29.7359L25.2311 29.7496L25.2098 29.7547C25.1895 29.7603 25.1702 29.7669 25.1504 29.7739C25.1096 29.7877 25.0693 29.794 25.0267 29.7994C24.9811 29.8053 24.9371 29.8126 24.8926 29.8245C24.8313 29.8404 24.7692 29.8478 24.7065 29.8552L24.7037 29.8555L24.6509 29.862L24.6034 29.8678C24.5869 29.87 24.5705 29.8726 24.5542 29.8759C24.5319 29.8802 24.5103 29.8822 24.4877 29.8838L24.4604 29.8858L24.4321 29.8878L24.347 29.894C24.3234 29.896 24.3001 29.8983 24.2766 29.9011C24.146 29.916 24.0158 29.9167 23.8846 29.9165C23.859 29.9164 23.8334 29.9165 23.8078 29.9166C23.6319 29.9177 23.4589 29.9094 23.2839 29.8914C23.2503 29.8879 23.2166 29.8848 23.183 29.8817C23.1646 29.88 23.1462 29.8781 23.1278 29.8761C23.1135 29.8746 23.0993 29.873 23.085 29.8714L23.064 29.8692C22.8601 29.847 22.6584 29.8044 22.4586 29.7586L22.4314 29.7524C22.3897 29.7426 22.3765 29.7395 22.3637 29.7351C22.3578 29.733 22.352 29.7307 22.3434 29.7273C22.324 29.7195 22.3062 29.7146 22.2858 29.7104C22.0882 29.6684 21.8929 29.5989 21.7064 29.5219C21.6735 29.5083 21.6402 29.4961 21.6066 29.4843C21.5321 29.4582 21.4604 29.4284 21.3902 29.3923C21.3635 29.3792 21.3364 29.3673 21.3092 29.3555C21.2538 29.3314 21.201 29.3071 21.15 29.2746C21.1216 29.2576 21.0921 29.2432 21.0623 29.2286L21.0612 29.2281C21.012 29.2039 20.9643 29.1782 20.9173 29.1499C20.8941 29.1364 20.8708 29.1236 20.8472 29.1109C20.797 29.0836 20.7485 29.0541 20.7001 29.0237L20.6733 29.0069C20.4964 28.8952 20.3252 28.7741 20.1621 28.643L20.1452 28.6294C20.0825 28.5792 20.0207 28.5286 19.9615 28.4742C19.9413 28.4561 19.9203 28.4394 19.8989 28.4227C19.8481 28.3817 19.8027 28.3355 19.757 28.2888C19.7287 28.26 19.7003 28.2321 19.6696 28.2059C19.6332 28.1747 19.6027 28.1395 19.5725 28.1024C19.5693 28.0986 19.5669 28.0957 19.5647 28.0932C19.563 28.0912 19.5615 28.0896 19.5599 28.088C19.5548 28.0827 19.5491 28.0781 19.5352 28.0668C19.4924 28.0682 19.457 28.0865 19.4201 28.1056L19.41 28.1108L19.3884 28.1217L19.3202 28.1563L19.1873 28.2236C19.102 28.2668 19.0167 28.3099 18.9299 28.3501C18.8588 28.3834 18.7895 28.4197 18.7204 28.4568C18.6986 28.4684 18.6766 28.4798 18.6546 28.491L18.6353 28.5008C18.6278 28.5041 18.624 28.5057 18.6201 28.5065C18.616 28.5074 18.6118 28.5074 18.6032 28.5074L18.28 27.8608L18.2482 27.7976C18.2174 27.7365 18.1875 27.675 18.1584 27.6131C18.133 27.5588 18.1062 27.5057 18.0775 27.4531C18.0532 27.4081 18.0316 27.3621 18.0101 27.3156C17.9893 27.2709 17.9667 27.2275 17.943 27.1842C17.916 27.1342 17.8919 27.083 17.8681 27.0314C17.8493 26.9909 17.8288 26.9519 17.8063 26.9133C17.8023 26.9054 17.8003 26.9015 17.7993 26.8973C17.7984 26.8933 17.7984 26.8891 17.7984 26.8807C17.8792 26.837 17.9606 26.7953 18.0438 26.7563C18.1413 26.7106 18.2369 26.6618 18.3318 26.611C18.379 26.5859 18.427 26.563 18.4761 26.5419C18.4711 26.5122 18.4634 26.4874 18.4507 26.4602L18.4402 26.4377L18.429 26.4137C18.3678 26.2808 18.3114 26.1477 18.2647 26.009L18.2394 25.9346C18.1781 25.7547 18.1198 25.5745 18.0803 25.3883C18.0721 25.3496 18.062 25.312 18.05 25.2742C18.0336 25.2184 18.0242 25.1601 18.0149 25.1024C18.0133 25.0925 18.0117 25.0826 18.0101 25.0728C18.0091 25.0663 18.008 25.0598 18.0069 25.0533C17.9995 25.0106 17.9921 24.9679 17.9841 24.9254C17.9631 24.812 17.9503 24.6997 17.9424 24.5848L17.9402 24.5537C17.9372 24.5104 17.9342 24.4672 17.9313 24.424L17.9294 24.3943L17.9277 24.3682C17.9259 24.3451 17.9236 24.3222 17.9211 24.2992C17.9163 24.2526 17.9155 24.2063 17.9153 24.1594L17.9151 24.1321L17.9149 24.0441L17.9148 24.0136C17.9149 23.737 17.9319 23.4612 17.9678 23.1869L17.971 23.162C17.9813 23.0822 17.993 23.0038 18.0124 22.9257C18.0193 22.8958 18.0243 22.866 18.0292 22.8358C18.0753 22.5641 18.1521 22.293 18.2474 22.0347L18.2564 22.0099C18.3006 21.8884 18.3486 21.7687 18.3992 21.6497C18.4071 21.631 18.4149 21.6123 18.4226 21.5936C18.454 21.5186 18.4899 21.4462 18.527 21.3738L18.54 21.3483C18.6488 21.135 18.7651 20.9281 18.8997 20.7299L18.9119 20.712C19.0654 20.485 19.2306 20.2669 19.415 20.064C19.4276 20.0502 19.4401 20.0363 19.4525 20.0223C19.4904 19.9797 19.5294 19.9387 19.5703 19.8989C19.578 19.8914 19.5823 19.8872 19.586 19.8827C19.5906 19.8771 19.5944 19.871 19.6029 19.8573H19.6199L19.6255 19.843C19.6395 19.8188 19.6571 19.8033 19.6777 19.7852L19.6818 19.7816C19.7206 19.747 19.7577 19.7112 19.7941 19.6741C19.8336 19.634 19.8745 19.5977 19.9187 19.5628C19.9438 19.5422 19.9674 19.5205 19.9911 19.4983C20.0403 19.4525 20.0922 19.4112 20.1455 19.3703C20.1633 19.3565 20.1809 19.3427 20.1985 19.3288C20.3313 19.2241 20.4695 19.1279 20.6111 19.0355L20.63 19.0232C20.9094 18.8417 21.2202 18.6573 21.5352 18.5449C21.5585 18.5362 21.5808 18.5264 21.6033 18.5158C21.6527 18.4931 21.7029 18.4735 21.7538 18.4546L21.7809 18.4445C21.8341 18.4249 21.8872 18.4065 21.9417 18.3906C21.9695 18.3823 21.9969 18.373 22.0244 18.3635C22.1945 18.3063 22.3679 18.2621 22.5428 18.2222L22.5691 18.2161C22.7173 18.1827 22.867 18.1591 23.0172 18.1374L23.0442 18.1335C23.0938 18.1265 23.1434 18.1204 23.1932 18.115C23.2119 18.113 23.2305 18.1108 23.2491 18.1085C23.6905 18.0552 24.1717 18.0597 24.6099 18.1347ZM16.5953 25.559L16.602 25.5731L16.6026 25.5743C16.6295 25.6314 16.6431 25.6601 16.657 25.6887C16.6709 25.7175 16.6851 25.7462 16.7134 25.8036C16.7796 25.9349 16.8428 26.0675 16.9003 26.2028L16.8736 26.2153C16.8126 26.2438 16.7518 26.2726 16.6917 26.3029C16.63 26.334 16.5678 26.3639 16.5055 26.3936C16.4383 26.4256 16.3711 26.4579 16.3041 26.4904C16.2189 26.5315 16.1338 26.5725 16.0485 26.6134C16.0015 26.6359 15.9546 26.6585 15.9077 26.6813C15.8019 26.7326 15.6958 26.7831 15.5888 26.8318C15.5362 26.8557 15.4844 26.8806 15.4329 26.9067C15.3901 26.9285 15.3468 26.9491 15.3033 26.9696C15.2543 26.9926 15.2055 27.0161 15.1572 27.0405C15.0959 27.0714 15.034 27.1011 14.972 27.1307C14.9048 27.1627 14.8377 27.195 14.7706 27.2274C14.6855 27.2686 14.6003 27.3096 14.515 27.3505C14.447 27.3831 14.379 27.4159 14.311 27.4488C14.2302 27.4878 14.1493 27.5267 14.0684 27.5653C13.9977 27.5991 13.9272 27.6331 13.8568 27.6672C13.7855 27.7016 13.7141 27.736 13.6428 27.7702C13.5717 27.8043 13.5007 27.8385 13.4297 27.8727L13.2632 27.9531C13.1538 28.006 13.044 28.0581 12.9333 28.1083C12.8869 28.1294 12.8425 28.1515 12.7992 28.1785C12.7911 28.1819 12.787 28.1836 12.7828 28.1843C12.7784 28.185 12.7738 28.1846 12.7646 28.1839C12.7587 28.1813 12.7551 28.1796 12.7521 28.1772C12.7471 28.173 12.744 28.1666 12.7356 28.1495C12.7311 28.1368 12.7267 28.124 12.7225 28.1112L12.715 28.0898L12.6986 28.0422C12.689 28.0142 12.6792 27.9862 12.6693 27.9583C12.5766 27.6943 12.5552 27.6332 12.5411 27.5704C12.5369 27.5515 12.5333 27.5324 12.5287 27.5076C12.6031 27.4699 12.6778 27.4331 12.7532 27.3974C12.8053 27.3727 12.8573 27.3477 12.9089 27.3217C12.9805 27.2855 13.053 27.251 13.1254 27.2165L13.1467 27.2064L13.3017 27.1322C13.365 27.1018 13.4283 27.0712 13.4915 27.0407L13.6577 26.9604C13.7598 26.9111 13.8623 26.8625 13.9652 26.815C14.033 26.7836 14.1006 26.752 14.1672 26.7181C14.2098 26.6965 14.2529 26.6759 14.2962 26.6556C14.342 26.634 14.3876 26.6122 14.4328 26.5894C14.491 26.56 14.5498 26.532 14.6086 26.5039C14.6761 26.4717 14.7435 26.4393 14.8109 26.4067C14.8874 26.3697 14.964 26.3328 15.0407 26.296C15.1117 26.262 15.1827 26.2278 15.2537 26.1935L15.4202 26.1131C15.5287 26.0606 15.6376 26.0093 15.7471 25.9591C15.8025 25.9336 15.8573 25.9074 15.9116 25.8798C15.9542 25.8582 15.9972 25.8377 16.0404 25.8174C16.0894 25.7943 16.1382 25.7708 16.1865 25.7464C16.2665 25.706 16.3474 25.6675 16.4284 25.6291L16.4721 25.6083L16.5558 25.5686C16.5691 25.5629 16.5745 25.5606 16.5802 25.5596C16.5842 25.559 16.5883 25.559 16.5953 25.559ZM18.7981 28.7784C18.8034 28.7872 18.8064 28.7922 18.8092 28.7972C18.8127 28.8036 18.8158 28.8102 18.8229 28.8252L18.8373 28.8553L18.8526 28.888L18.8685 28.9214C18.9075 29.0035 18.9455 29.086 18.9833 29.1685C19.0098 29.2263 19.0372 29.2835 19.0665 29.34C19.0791 29.3645 19.0885 29.387 19.0946 29.4138L19.0679 29.4262L19.0311 29.4435L19.0137 29.4515C18.9651 29.4743 18.9172 29.4982 18.8693 29.5222C18.8031 29.5554 18.7366 29.5879 18.6699 29.6203L18.6505 29.6298C18.5651 29.6713 18.4795 29.7117 18.3929 29.7505C18.3435 29.7727 18.2949 29.7962 18.2466 29.8207C18.2034 29.8426 18.1598 29.8634 18.1161 29.884C18.067 29.9071 18.0183 29.9305 17.9699 29.955C17.9086 29.9859 17.8468 30.0156 17.7848 30.0451C17.7176 30.0771 17.6504 30.1095 17.5834 30.1419C17.463 30.2001 17.3425 30.2579 17.2219 30.3157C17.1136 30.3677 17.0054 30.4197 16.8973 30.4719C16.8178 30.5104 16.7381 30.5487 16.6585 30.5869C16.5908 30.6193 16.5231 30.652 16.4555 30.6846C16.3707 30.7256 16.2859 30.7664 16.201 30.8071C16.1385 30.8371 16.0761 30.8672 16.0137 30.8973L15.8472 30.9777C15.7387 31.0302 15.6298 31.0815 15.5203 31.1317C15.465 31.1572 15.4101 31.1834 15.3558 31.211C15.3133 31.2326 15.2702 31.2531 15.2271 31.2734C15.178 31.2965 15.1293 31.32 15.0809 31.3444C14.9565 31.4072 14.8302 31.4663 14.7039 31.5254L14.6721 31.5403C14.6112 31.4701 14.5536 31.398 14.4975 31.3239C14.4734 31.2921 14.449 31.2608 14.4244 31.2294C14.3779 31.1702 14.3325 31.1104 14.2882 31.0495L14.2739 31.0299L14.2608 31.0116L14.2492 30.9956C14.2456 30.99 14.2434 30.9865 14.2416 30.9829C14.2387 30.9773 14.2367 30.9712 14.2316 30.9557C14.3043 30.9154 14.3776 30.8788 14.4538 30.8456C14.5017 30.8247 14.5484 30.8021 14.5949 30.7784C14.639 30.7561 14.6835 30.7348 14.7283 30.7138C14.7741 30.6922 14.8197 30.6704 14.8649 30.6476C14.9231 30.6182 14.9818 30.5901 15.0407 30.5621C15.0874 30.5398 15.134 30.5175 15.1806 30.4949C15.2905 30.4416 15.4006 30.3892 15.5116 30.3383C15.5664 30.3132 15.6206 30.2872 15.6744 30.2599C15.7169 30.2383 15.76 30.2178 15.8032 30.1975C15.8522 30.1744 15.9009 30.1509 15.9493 30.1265C16.0218 30.0899 16.0951 30.055 16.1684 30.0201L16.1882 30.0107L16.3432 29.9365C16.417 29.901 16.4907 29.8654 16.5644 29.8298C16.644 29.7914 16.7236 29.7531 16.8033 29.7149C16.871 29.6824 16.9386 29.6498 17.0062 29.6171C17.109 29.5675 17.212 29.518 17.3149 29.4686L17.6062 29.3288C17.6828 29.292 17.7594 29.2552 17.8361 29.2186C17.9231 29.177 18.0101 29.1352 18.0969 29.0932C18.1767 29.0547 18.2566 29.0162 18.3365 28.9779C18.3846 28.9548 18.4327 28.9317 18.4808 28.9084L18.5763 28.8622L18.6339 28.8345C18.6538 28.8249 18.6736 28.8153 18.6934 28.8056L18.7233 28.7913L18.7502 28.7782C18.7609 28.7743 18.7665 28.7722 18.7721 28.772C18.7784 28.7718 18.7847 28.7739 18.7981 28.7784ZM16.4571 27.8152L16.4259 27.7532C16.4174 27.7532 16.4132 27.7532 16.4091 27.7541C16.4051 27.755 16.4012 27.7569 16.3935 27.7605C16.381 27.7671 16.3684 27.7734 16.3556 27.7796L16.3092 27.8018C16.2244 27.8424 16.1396 27.8832 16.0549 27.9242C15.9767 27.962 15.8985 27.9997 15.8201 28.0371C15.7466 28.0722 15.6732 28.1075 15.5998 28.143C15.5324 28.1756 15.4649 28.2081 15.3973 28.2403C15.3354 28.2698 15.2735 28.2995 15.2122 28.3304C15.1639 28.3548 15.1151 28.3783 15.0661 28.4014C15.0232 28.4215 14.9804 28.4419 14.9382 28.4634C14.8763 28.4948 14.8136 28.5245 14.7506 28.5536C14.5931 28.6264 14.4367 28.7015 14.2804 28.777C14.2177 28.8073 14.1549 28.8376 14.0921 28.8677C14.0072 28.9084 13.9224 28.9492 13.8376 28.9902C13.7774 29.0193 13.7172 29.0484 13.6569 29.0772C13.5706 29.1185 13.4845 29.1599 13.3991 29.2029C13.3694 29.2179 13.3396 29.2328 13.3099 29.2477L13.2319 29.2867L13.2439 29.3127C13.2923 29.4167 13.3407 29.521 13.3981 29.6203C13.4157 29.6504 13.4329 29.6806 13.4493 29.7114L13.4971 29.8019L13.5128 29.8321L13.5278 29.8603C13.5352 29.8745 13.5385 29.8808 13.5421 29.8869C13.545 29.8918 13.5481 29.8966 13.5538 29.9052C13.5659 29.9092 13.5729 29.9115 13.5798 29.9115C13.589 29.9114 13.5982 29.907 13.6197 29.8968L13.6359 29.8888C13.6815 29.8668 13.7267 29.8442 13.772 29.8215C13.8217 29.7964 13.8719 29.7722 13.9223 29.7484C13.9655 29.7281 14.0086 29.7076 14.0511 29.686C14.1054 29.6584 14.1602 29.6322 14.2156 29.6068C14.3251 29.5565 14.434 29.5052 14.5424 29.4528L14.71 29.3718C14.7719 29.3419 14.8338 29.3121 14.8958 29.2826C14.9578 29.2531 15.0196 29.2234 15.0809 29.1925C15.1293 29.168 15.178 29.1446 15.2271 29.1215C15.2702 29.1012 15.3133 29.0807 15.3558 29.0591C15.4101 29.0315 15.465 29.0053 15.5203 28.9798C15.6298 28.9296 15.7387 28.8782 15.8472 28.8258L16.0147 28.7449C16.0766 28.715 16.1385 28.6852 16.2005 28.6556C16.2628 28.6259 16.325 28.5961 16.3867 28.565C16.4319 28.5422 16.4774 28.5202 16.5233 28.4988C16.5932 28.4662 16.6621 28.4319 16.7309 28.3971C16.6867 28.2942 16.6388 28.1933 16.5897 28.0926L16.588 28.0892C16.5626 28.0371 16.5371 27.9849 16.5132 27.932C16.4981 27.8984 16.4824 27.8653 16.4658 27.8324L16.4571 27.8152Z" fill="white"/>
<defs>
<linearGradient id="paint0_linear_32956_51236" x1="23.997" y1="3.72821e-06" x2="24.725" y2="47.989" gradientUnits="userSpaceOnUse">
<stop stop-color="#0D965E"/>
<stop offset="0.9" stop-color="#00683F"/>
</linearGradient>
</defs>
</svg>
