<svg width="24" height="24" viewBox="0 0 24 24" fill="none" xmlns="http://www.w3.org/2000/svg">
<rect width="24" height="24" rx="12" fill="white"/>
<path d="M11.9975 18.2857C11.0356 18.2857 10.1491 18.1352 9.3379 17.8343C8.53828 17.5217 7.83716 17.0818 7.23455 16.5146C6.64352 15.9474 6.17998 15.2818 5.8439 14.5178C5.51942 13.7537 5.35718 12.9145 5.35718 12C5.35718 11.0855 5.51942 10.2463 5.8439 9.48224C6.17998 8.71823 6.64932 8.05262 7.25193 7.4854C7.85454 6.91818 8.56146 6.48408 9.37266 6.18311C10.1839 5.87056 11.0762 5.71429 12.0497 5.71429C13.1274 5.71429 14.0951 5.89371 14.9526 6.25256C15.8218 6.61142 16.5519 7.13233 17.1429 7.81531L15.3351 9.48224C14.8947 9.01921 14.4138 8.67772 13.8923 8.45777C13.3708 8.22626 12.8029 8.1105 12.1887 8.1105C11.5977 8.1105 11.0588 8.2031 10.5721 8.38832C10.0854 8.57353 9.66238 8.83978 9.30313 9.18706C8.95547 9.53433 8.68314 9.94528 8.48613 10.4199C8.30071 10.8945 8.208 11.4212 8.208 12C8.208 12.5672 8.30071 13.0881 8.48613 13.5627C8.68314 14.0374 8.95547 14.4541 9.30313 14.8129C9.66238 15.1602 10.0796 15.4265 10.5547 15.6117C11.0414 15.7969 11.5745 15.8895 12.154 15.8895C12.7102 15.8895 13.2491 15.8027 13.7706 15.629C14.3037 15.4438 14.8194 15.1371 15.3177 14.7088L16.9169 16.7403C16.2564 17.2381 15.4857 17.6201 14.605 17.8863C13.7358 18.1526 12.8667 18.2857 11.9975 18.2857ZM14.3442 16.3757V11.809H16.9169V16.7403L14.3442 16.3757Z" fill="#10BB76"/>
<path d="M10.8572 15.9286H13.0179V20.25H10.8572V15.9286Z" fill="#10BB76"/>
<path d="M10.8572 3.75H13.0179V8.07143H10.8572V3.75Z" fill="#10BB76"/>
</svg>
