<svg width="57" height="56" viewBox="0 0 57 56" fill="none" xmlns="http://www.w3.org/2000/svg">
<rect x="0.875" y="0.75" width="54.5" height="54.5" rx="27.25" stroke="#F0F3F6" stroke-width="1.5"/>
<path d="M34.625 28.6499V32.3499C34.625 35.4699 31.715 37.9999 28.125 37.9999C24.535 37.9999 21.625 35.4699 21.625 32.3499V28.6499C21.625 31.7699 24.535 33.9999 28.125 33.9999C31.715 33.9999 34.625 31.7699 34.625 28.6499Z" stroke="#007D53" stroke-width="1.5" stroke-linecap="round" stroke-linejoin="round"/>
<path d="M34.625 23.65C34.625 24.56 34.375 25.4 33.935 26.12C32.865 27.88 30.665 29 28.125 29C25.585 29 23.385 27.88 22.315 26.12C21.875 25.4 21.625 24.56 21.625 23.65C21.625 22.09 22.355 20.68 23.525 19.66C24.705 18.63 26.325 18 28.125 18C29.925 18 31.545 18.63 32.725 19.65C33.895 20.68 34.625 22.09 34.625 23.65Z" stroke="#007D53" stroke-width="1.5" stroke-linecap="round" stroke-linejoin="round"/>
<path d="M34.625 23.65V28.65C34.625 31.77 31.715 34 28.125 34C24.535 34 21.625 31.77 21.625 28.65V23.65C21.625 20.53 24.535 18 28.125 18C29.925 18 31.545 18.63 32.725 19.65C33.895 20.68 34.625 22.09 34.625 23.65Z" stroke="#007D53" stroke-width="1.5" stroke-linecap="round" stroke-linejoin="round"/>
</svg>
