<svg width="90" height="90" viewBox="0 0 90 90" fill="none" xmlns="http://www.w3.org/2000/svg">
<path d="M83.8461 54.6511C78.5086 76.0665 56.8183 89.1436 35.3635 83.8028C13.9479 78.449 0.8919 56.7586 6.22944 35.3431C11.567 13.9276 33.2442 0.850533 54.6467 6.19131C76.1146 11.4666 89.1706 33.2225 83.8461 54.6511Z" fill="#213147"/>
<path d="M20.2222 33.6416V57.1592C20.2222 58.6008 21.0607 60.0424 22.2668 60.7584L42.6656 72.5172C43.9847 73.2333 45.5488 73.2333 46.8679 72.5172L67.2668 60.7584C68.5859 60.0424 69.3114 58.6008 69.3114 57.1592V33.6416C69.3114 32.2 68.4728 30.7584 67.2668 30.0424L46.8585 18.2836C45.5394 17.5675 43.9753 17.5675 42.6562 18.2836L22.2573 30.0424C20.9382 30.7584 20.2222 32.2 20.2222 33.6416Z" fill="#213147"/>
<path d="M54.0569 36.5248C54.302 36.0442 54.8955 36.0442 55.0181 36.5248L65.0903 64.2446L59.3333 67.6083L51.1738 45.1648C51.0514 44.9293 51.0514 44.6843 51.1738 44.4488L54.0569 36.5248Z" fill="#12AAFF"/>
<path d="M46.3779 57.8847L49.261 49.9607C49.4965 49.4802 50.0996 49.4802 50.2128 49.9607L57.1756 68.918L51.4187 72.2817L46.3779 58.6008C46.2555 58.3652 46.2555 58.1202 46.3779 57.8847Z" fill="#12AAFF"/>
<path d="M44.7008 19.1221C44.8233 19.1221 44.9363 19.1221 45.0588 19.2446L67.1348 31.9645C67.3704 32.0869 67.4929 32.3225 67.4929 32.6805V58.1202C67.4929 58.3558 67.3704 58.7233 67.1348 58.8363L45.0588 71.5562C44.9363 71.6787 44.8233 71.6787 44.7008 71.6787C44.5783 71.6787 44.4652 71.6787 44.3427 71.5562L22.2667 58.8363C22.0312 58.7138 21.9087 58.4783 21.9087 58.1202V32.6805C21.9087 32.445 22.0312 32.0775 22.2667 31.9645L44.3427 19.2446C44.4558 19.1221 44.5783 19.1221 44.7008 19.1221ZM44.7008 15.4004C43.8622 15.4004 43.1367 15.6359 42.4206 16.0034L20.3446 28.7233C18.903 29.5618 18.0645 31.0034 18.0645 32.6805V58.1202C18.0645 59.6843 18.903 61.239 20.3446 62.0775L42.4206 74.7974C43.1367 75.1554 43.8622 75.4004 44.7008 75.4004C45.5393 75.4004 46.2648 75.1648 46.9809 74.7974L69.0569 62.0775C70.4985 61.239 71.3371 59.7974 71.3371 58.1202V32.6805C71.3371 31.1165 70.4985 29.5618 69.0569 28.7233L47.094 16.0034C46.3779 15.6454 45.6524 15.4004 44.8138 15.4004H44.7008Z" fill="#9DCCED"/>
<path d="M30.1813 67.5989L32.2164 62.0775L36.2962 65.4412L32.4614 69.0405L30.1813 67.5989Z" fill="#213147"/>
<path d="M46.9716 30.8809H52.6153L52.4929 30.7678C52.8508 30.7678 53.096 31.1259 52.9734 31.4839L38.0958 72.2817L32.339 68.918L46.0104 31.4839C46.133 31.1165 46.6135 30.8809 46.9716 30.8809Z" fill="white"/>
<path d="M37.2572 30.8809H42.7786C43.1367 30.8809 43.3816 31.239 43.259 31.597L30.0587 67.7214L24.3018 64.3577L36.2962 31.4839C36.4186 31.1165 36.8991 30.8809 37.2572 30.8809Z" fill="white"/>
</svg>
