<svg width="90" height="90" viewBox="0 0 90 90" fill="none" xmlns="http://www.w3.org/2000/svg">
<path d="M45 85C67.0914 85 85 67.0914 85 45C85 22.9086 67.0914 5 45 5C22.9086 5 5 22.9086 5 45C5 67.0914 22.9086 85 45 85Z" fill="#FF0420"/>
<path fill-rule="evenodd" clip-rule="evenodd" d="M27.4767 53.9272C29.1942 55.1068 31.2472 55.6966 33.3284 55.6079C36.2101 55.6079 38.509 54.9377 40.229 53.5974C41.9503 52.2369 43.1606 50.1864 43.8599 47.4459C44.28 45.7654 44.6399 44.035 44.9396 42.2544C45.0292 41.7288 45.0792 41.1973 45.0894 40.6643C45.1253 39.3836 44.759 38.124 44.0405 37.0629C43.3284 36.0332 42.3256 35.2391 41.1601 34.7823C39.8474 34.2442 38.4385 33.9787 37.0195 34.0019C31.3573 34.0019 27.8468 36.7528 26.4867 42.2544C26.0064 44.2728 25.6363 46.0033 25.3763 47.4459C25.2854 47.9814 25.2354 48.5231 25.2265 49.0662C25.1791 49.9983 25.3584 50.9281 25.7503 51.775C26.1422 52.622 26.7352 53.3607 27.4767 53.9272ZM36.6007 50.2964C35.8028 50.9631 34.7884 51.3153 33.7485 51.2865C31.8287 51.2865 30.8681 50.3663 30.8681 48.5259C30.8668 48.2893 30.8796 48.053 30.904 47.818C30.9232 47.6328 30.9513 47.4485 30.9872 47.2655C31.3471 45.325 31.707 43.6846 32.0682 42.3442C32.2948 41.1822 32.8827 40.1215 33.7485 39.3134C34.5592 38.6494 35.5812 38.2981 36.6289 38.3233C38.5295 38.3228 39.4798 39.233 39.4798 41.0538C39.4798 41.4867 39.4401 41.9188 39.3594 42.3442C39.1199 43.7453 38.7703 45.3858 38.3105 47.2655C38.0812 48.4337 37.4818 49.4967 36.6007 50.2964Z" fill="white"/>
<path fill-rule="evenodd" clip-rule="evenodd" d="M46.1934 55.2615C46.2818 55.2978 46.3766 55.3138 46.4726 55.3082L50.5543 55.3089C50.6542 55.3073 50.7528 55.2894 50.845 55.2567C50.9462 55.2211 51.041 55.168 51.1242 55.099C51.2984 54.9671 51.4163 54.7739 51.4521 54.5587L52.8328 47.9869H56.8837C59.5041 47.9869 61.5648 47.4367 63.0646 46.3364C64.6821 45.0788 65.7644 43.2566 66.0961 41.2348C66.2126 40.7227 66.2728 40.1994 66.2767 39.6741C66.3125 38.8888 66.1422 38.1078 65.7849 37.4079C65.4275 36.7079 64.8935 36.1134 64.2352 35.6826C62.6355 34.6915 60.7733 34.2101 58.8932 34.3023H50.9116C50.758 34.3046 50.6094 34.345 50.4775 34.4187C50.4301 34.4455 50.384 34.4767 50.3404 34.5121C50.1675 34.644 50.0497 34.8372 50.0126 35.0525L45.8719 54.558C45.8297 54.743 45.8617 54.9371 45.9616 55.0984C46.0141 55.1564 46.0769 55.2042 46.146 55.2396L46.1934 55.2615ZM59.2864 43.1548C58.6511 43.6195 57.8814 43.8619 57.095 43.8446H53.6447L54.7846 38.4734H58.386C59.0046 38.4126 59.6258 38.5836 60.1266 38.9534C60.302 39.1227 60.4403 39.3287 60.5287 39.5569C60.6158 39.7852 60.6529 40.03 60.6363 40.2741C60.6324 40.5763 60.6017 40.8775 60.5466 41.1744C60.3878 41.9689 59.9383 42.6753 59.2864 43.1548Z" fill="white"/>
</svg>
