<svg width="81" height="80" viewBox="0 0 81 80" fill="none" xmlns="http://www.w3.org/2000/svg">
<path d="M78.8461 49.6511C73.5086 71.0665 51.8183 84.1436 30.3635 78.8028C8.94794 73.449 -4.1081 51.7586 1.22944 30.3431C6.56698 8.92759 28.2442 -4.14947 49.6467 1.19131C71.1146 6.46665 84.1706 28.2225 78.8461 49.6511Z" fill="#463CED"/>
<path d="M61.6647 31.9647H48.912L57.8675 18H51.0971L40.3144 34.8463L29.5677 18H22.7972L31.7528 31.9647H19V37.3585H61.6647V31.9647Z" fill="white"/>
<path d="M57.7243 62L48.6612 47.8506H61.6647V42.5306H19V47.8874H32.0036L22.9405 62H29.6751L40.3144 45.3754L50.9538 62H57.7243Z" fill="white"/>
</svg>
