<svg width="81" height="80" viewBox="0 0 81 80" fill="none" xmlns="http://www.w3.org/2000/svg">
<path d="M78.8461 49.6511C73.5086 71.0665 51.8183 84.1436 30.3635 78.8028C8.94794 73.449 -4.1081 51.7586 1.22944 30.3431C6.56698 8.92759 28.2442 -4.14947 49.6467 1.19131C71.1146 6.46665 84.1706 28.2225 78.8461 49.6511Z" fill="#FF060A"/>
<path d="M63.8742 34.563C61.5305 32.3989 58.2884 29.0943 55.6478 26.7506L55.4916 26.6412C55.2316 26.4324 54.9385 26.2687 54.6244 26.1568C48.2573 24.9693 18.625 19.4304 18.0469 19.5007C17.8849 19.5234 17.73 19.5821 17.5937 19.6725L17.4453 19.7897C17.2625 19.9753 17.1237 20.1996 17.0391 20.446L17 20.5475V21.1022V21.1881C20.3359 30.4771 33.5075 60.9064 36.1013 68.0469C36.2575 68.5313 36.5544 69.4531 37.109 69.5H37.234C37.5309 69.5 38.7965 67.8282 38.7965 67.8282C38.7965 67.8282 61.4212 40.391 63.7102 37.4692C64.0065 37.1093 64.2681 36.7221 64.4914 36.3129C64.5484 35.9928 64.5215 35.6633 64.4134 35.3566C64.3052 35.05 64.1195 34.7765 63.8742 34.563ZM44.6011 37.7582L54.2572 29.7505L59.9212 34.9692L44.6011 37.7582ZM40.8512 37.2348L24.2264 23.61L51.1244 28.5709L40.8512 37.2348ZM42.3512 40.8051L59.3665 38.0629L39.9137 61.5001L42.3512 40.8051ZM21.9687 24.9693L39.4606 39.8129L36.9294 61.5157L21.9687 24.9693Z" fill="white"/>
</svg>
